%TF.GenerationSoftware,KiCad,Pcbnew,5.0.1*%
%TF.CreationDate,2019-03-15T13:44:14+01:00*%
%TF.ProjectId,rev1,726576312E6B696361645F7063620000,rev?*%
%TF.SameCoordinates,Original*%
%TF.FileFunction,Legend,Bot*%
%TF.FilePolarity,Positive*%
%FSLAX46Y46*%
G04 Gerber Fmt 4.6, Leading zero omitted, Abs format (unit mm)*
G04 Created by KiCad (PCBNEW 5.0.1) date Fri 15 Mar 2019 01:44:14 PM CET*
%MOMM*%
%LPD*%
G01*
G04 APERTURE LIST*
%ADD10C,0.200000*%
%ADD11C,0.150000*%
G04 APERTURE END LIST*
D10*
X130000000Y-138000000D02*
X110500000Y-138000000D01*
X108732233Y-137267767D02*
G75*
G03X110500000Y-138000000I1767767J1767767D01*
G01*
X131767767Y-137267767D02*
G75*
G02X130000000Y-138000000I-1767767J1767767D01*
G01*
X137500000Y-131500000D02*
X150500000Y-131500000D01*
X135732233Y-129732233D02*
G75*
G02X137500000Y-129000000I1767767J-1767767D01*
G01*
X97232233Y-125767767D02*
G75*
G02X96500000Y-124000000I1767767J1767767D01*
G01*
X137500000Y-131500000D02*
X131770000Y-137270000D01*
X130000000Y-135500000D02*
X135730000Y-129730000D01*
X110500000Y-135500000D02*
X130000000Y-135500000D01*
X188500000Y-83500000D02*
X191500000Y-83500000D01*
X181000000Y-87500000D02*
X186000000Y-87500000D01*
X181000000Y-87500000D02*
X181000000Y-86000000D01*
X186000000Y-87500000D02*
X186000000Y-86000000D01*
X188500000Y-83500000D02*
G75*
G03X186000000Y-86000000I0J-2500000D01*
G01*
X181000000Y-86000000D02*
G75*
G03X178500000Y-83500000I-2500000J0D01*
G01*
X141000000Y-87500000D02*
X141000000Y-86000000D01*
X136000000Y-87500000D02*
X141000000Y-87500000D01*
X136000000Y-87500000D02*
X136000000Y-86000000D01*
X129400000Y-83500000D02*
X133500000Y-83500000D01*
X136000000Y-86000000D02*
G75*
G03X133500000Y-83500000I-2500000J0D01*
G01*
X143500000Y-83500000D02*
G75*
G03X141000000Y-86000000I0J-2500000D01*
G01*
X158850000Y-129000000D02*
G75*
G02X163150000Y-129000000I2150000J0D01*
G01*
X224750000Y-125800000D02*
X219800000Y-130750000D01*
X219767767Y-130767767D02*
G75*
G02X218000000Y-131500000I-1767767J1767767D01*
G01*
X224767767Y-125767767D02*
G75*
G03X225500000Y-124000000I-1767767J1767767D01*
G01*
X97230000Y-125770000D02*
X108750000Y-137290000D01*
X224750000Y-104200000D02*
X204800000Y-84250000D01*
X204767767Y-84232233D02*
G75*
G03X203000000Y-83500000I-1767767J-1767767D01*
G01*
X224767767Y-104232233D02*
G75*
G02X225500000Y-106000000I-1767767J-1767767D01*
G01*
X116232233Y-84232233D02*
G75*
G02X118000000Y-83500000I1767767J-1767767D01*
G01*
X97232233Y-103232233D02*
G75*
G03X96500000Y-105000000I1767767J-1767767D01*
G01*
X97232233Y-103232233D02*
X116200000Y-84250000D01*
X188500000Y-87500000D02*
X188500000Y-86000000D01*
X181000000Y-90000000D02*
X186000000Y-90000000D01*
X178500000Y-87500000D02*
X178500000Y-86000000D01*
X186000000Y-90000000D02*
G75*
G03X188500000Y-87500000I0J2500000D01*
G01*
X178500000Y-87500000D02*
G75*
G03X181000000Y-90000000I2500000J0D01*
G01*
X141000000Y-90000000D02*
G75*
G03X143500000Y-87500000I0J2500000D01*
G01*
X133500000Y-87500000D02*
G75*
G03X136000000Y-90000000I2500000J0D01*
G01*
X218000000Y-131500000D02*
X157000000Y-131500000D01*
X157000000Y-129000000D02*
X158850000Y-129000000D01*
X157000000Y-131500000D02*
G75*
G02X157000000Y-129000000I0J1250000D01*
G01*
X150500000Y-129000000D02*
G75*
G02X150500000Y-131500000I0J-1250000D01*
G01*
X191500000Y-86000000D02*
X188500000Y-86000000D01*
X203000000Y-83500000D02*
X198000000Y-83500000D01*
X191500000Y-83500000D02*
G75*
G02X191500000Y-86000000I0J-1250000D01*
G01*
X198000000Y-83500000D02*
G75*
G03X198000000Y-86000000I0J-1250000D01*
G01*
X123000000Y-86000000D02*
X118000000Y-86000000D01*
X133500000Y-87500000D02*
X133500000Y-86000000D01*
X136000000Y-90000000D02*
X141000000Y-90000000D01*
X143500000Y-87500000D02*
X143500000Y-86000000D01*
X198000000Y-86000000D02*
X203000000Y-86000000D01*
X99000000Y-116750000D02*
G75*
G02X99000000Y-121050000I0J-2150000D01*
G01*
X178500000Y-83500000D02*
X143500000Y-83500000D01*
X143500000Y-86000000D02*
X178500000Y-86000000D01*
X123000000Y-83500000D02*
G75*
G02X123000000Y-86000000I0J-1250000D01*
G01*
X129373673Y-83506562D02*
G75*
G03X129373673Y-86006562I0J-1250000D01*
G01*
X225500000Y-107250000D02*
X225500000Y-106000000D01*
X223000000Y-107250000D02*
X223000000Y-106000000D01*
X225500000Y-113750000D02*
G75*
G03X223000000Y-113750000I-1250000J0D01*
G01*
X225500000Y-107250000D02*
G75*
G02X223000000Y-107250000I-1250000J0D01*
G01*
X96500000Y-107250000D02*
X96500000Y-105000000D01*
X99000000Y-107250000D02*
X99000000Y-105000000D01*
X99000000Y-113750000D02*
G75*
G03X96500000Y-113750000I-1250000J0D01*
G01*
X99000000Y-107250000D02*
G75*
G02X96500000Y-107250000I-1250000J0D01*
G01*
X225500000Y-124000000D02*
X225500000Y-113750000D01*
X118000000Y-83500000D02*
X123000000Y-83500000D01*
X234000000Y-74000000D02*
X89000000Y-74000000D01*
X234000000Y-144000000D02*
X234000000Y-74000000D01*
X89000000Y-144000000D02*
X234000000Y-144000000D01*
X89000000Y-74000000D02*
X89000000Y-144000000D01*
X96500000Y-124000000D02*
X96500000Y-113750000D01*
X223000000Y-121050000D02*
G75*
G02X223000000Y-116750000I0J2150000D01*
G01*
X223000000Y-124000000D02*
X218000000Y-129000000D01*
X99000000Y-124000000D02*
X110500000Y-135500000D01*
X99000000Y-113750000D02*
X99000000Y-116750000D01*
X118000000Y-86000000D02*
X99000000Y-105000000D01*
X223000000Y-113750000D02*
X223000000Y-116750000D01*
X203000000Y-86000000D02*
X223000000Y-106000000D01*
X129400000Y-86000000D02*
X133500000Y-86000000D01*
X223000000Y-124000000D02*
X223000000Y-121050000D01*
X163150000Y-129000000D02*
X218000000Y-129000000D01*
X99000000Y-124000000D02*
X99000000Y-121050000D01*
X150500000Y-129000000D02*
X137500000Y-129000000D01*
D11*
X168800000Y-91905000D02*
X164000000Y-91905000D01*
X153200000Y-91905000D02*
X158000000Y-91905000D01*
X153200000Y-91905000D02*
X153200000Y-112800000D01*
X153170378Y-112764066D02*
G75*
G03X168800000Y-112800000I7829622J6424066D01*
G01*
X168800000Y-91905000D02*
X168800000Y-112800000D01*
X161785714Y-118178571D02*
X161642857Y-118226190D01*
X161595238Y-118273809D01*
X161547619Y-118369047D01*
X161547619Y-118511904D01*
X161595238Y-118607142D01*
X161642857Y-118654761D01*
X161738095Y-118702380D01*
X162119047Y-118702380D01*
X162119047Y-117702380D01*
X161785714Y-117702380D01*
X161690476Y-117750000D01*
X161642857Y-117797619D01*
X161595238Y-117892857D01*
X161595238Y-117988095D01*
X161642857Y-118083333D01*
X161690476Y-118130952D01*
X161785714Y-118178571D01*
X162119047Y-118178571D01*
X161261904Y-117702380D02*
X160690476Y-117702380D01*
X160976190Y-118702380D02*
X160976190Y-117702380D01*
X159833333Y-118702380D02*
X160404761Y-118702380D01*
X160119047Y-118702380D02*
X160119047Y-117702380D01*
X160214285Y-117845238D01*
X160309523Y-117940476D01*
X160404761Y-117988095D01*
M02*
