%TF.GenerationSoftware,KiCad,Pcbnew,5.0.1*%
%TF.CreationDate,2019-03-15T13:44:14+01:00*%
%TF.ProjectId,rev1,726576312E6B696361645F7063620000,rev?*%
%TF.SameCoordinates,Original*%
%TF.FileFunction,Copper,L2,Bot,Signal*%
%TF.FilePolarity,Positive*%
%FSLAX46Y46*%
G04 Gerber Fmt 4.6, Leading zero omitted, Abs format (unit mm)*
G04 Created by KiCad (PCBNEW 5.0.1) date Fri 15 Mar 2019 01:44:14 PM CET*
%MOMM*%
%LPD*%
G01*
G04 APERTURE LIST*
%ADD10C,0.200000*%
%ADD11C,1.700000*%
%ADD12C,1.700000*%
%ADD13C,0.100000*%
%ADD14R,2.600000X3.000000*%
%ADD15R,3.600000X3.000000*%
%ADD16C,2.200000*%
%ADD17C,0.800000*%
%ADD18C,0.254000*%
G04 APERTURE END LIST*
D10*
X130000000Y-138000000D02*
X110500000Y-138000000D01*
X108732233Y-137267767D02*
G75*
G03X110500000Y-138000000I1767767J1767767D01*
G01*
X131767767Y-137267767D02*
G75*
G02X130000000Y-138000000I-1767767J1767767D01*
G01*
X137500000Y-131500000D02*
X150500000Y-131500000D01*
X135732233Y-129732233D02*
G75*
G02X137500000Y-129000000I1767767J-1767767D01*
G01*
X97232233Y-125767767D02*
G75*
G02X96500000Y-124000000I1767767J1767767D01*
G01*
X137500000Y-131500000D02*
X131770000Y-137270000D01*
X130000000Y-135500000D02*
X135730000Y-129730000D01*
X110500000Y-135500000D02*
X130000000Y-135500000D01*
X188500000Y-83500000D02*
X191500000Y-83500000D01*
X181000000Y-87500000D02*
X186000000Y-87500000D01*
X181000000Y-87500000D02*
X181000000Y-86000000D01*
X186000000Y-87500000D02*
X186000000Y-86000000D01*
X188500000Y-83500000D02*
G75*
G03X186000000Y-86000000I0J-2500000D01*
G01*
X181000000Y-86000000D02*
G75*
G03X178500000Y-83500000I-2500000J0D01*
G01*
X141000000Y-87500000D02*
X141000000Y-86000000D01*
X136000000Y-87500000D02*
X141000000Y-87500000D01*
X136000000Y-87500000D02*
X136000000Y-86000000D01*
X129400000Y-83500000D02*
X133500000Y-83500000D01*
X136000000Y-86000000D02*
G75*
G03X133500000Y-83500000I-2500000J0D01*
G01*
X143500000Y-83500000D02*
G75*
G03X141000000Y-86000000I0J-2500000D01*
G01*
X158850000Y-129000000D02*
G75*
G02X163150000Y-129000000I2150000J0D01*
G01*
X224750000Y-125800000D02*
X219800000Y-130750000D01*
X219767767Y-130767767D02*
G75*
G02X218000000Y-131500000I-1767767J1767767D01*
G01*
X224767767Y-125767767D02*
G75*
G03X225500000Y-124000000I-1767767J1767767D01*
G01*
X97230000Y-125770000D02*
X108750000Y-137290000D01*
X224750000Y-104200000D02*
X204800000Y-84250000D01*
X204767767Y-84232233D02*
G75*
G03X203000000Y-83500000I-1767767J-1767767D01*
G01*
X224767767Y-104232233D02*
G75*
G02X225500000Y-106000000I-1767767J-1767767D01*
G01*
X116232233Y-84232233D02*
G75*
G02X118000000Y-83500000I1767767J-1767767D01*
G01*
X97232233Y-103232233D02*
G75*
G03X96500000Y-105000000I1767767J-1767767D01*
G01*
X97232233Y-103232233D02*
X116200000Y-84250000D01*
X188500000Y-87500000D02*
X188500000Y-86000000D01*
X181000000Y-90000000D02*
X186000000Y-90000000D01*
X178500000Y-87500000D02*
X178500000Y-86000000D01*
X186000000Y-90000000D02*
G75*
G03X188500000Y-87500000I0J2500000D01*
G01*
X178500000Y-87500000D02*
G75*
G03X181000000Y-90000000I2500000J0D01*
G01*
X141000000Y-90000000D02*
G75*
G03X143500000Y-87500000I0J2500000D01*
G01*
X133500000Y-87500000D02*
G75*
G03X136000000Y-90000000I2500000J0D01*
G01*
X218000000Y-131500000D02*
X157000000Y-131500000D01*
X157000000Y-129000000D02*
X158850000Y-129000000D01*
X157000000Y-131500000D02*
G75*
G02X157000000Y-129000000I0J1250000D01*
G01*
X150500000Y-129000000D02*
G75*
G02X150500000Y-131500000I0J-1250000D01*
G01*
X191500000Y-86000000D02*
X188500000Y-86000000D01*
X203000000Y-83500000D02*
X198000000Y-83500000D01*
X191500000Y-83500000D02*
G75*
G02X191500000Y-86000000I0J-1250000D01*
G01*
X198000000Y-83500000D02*
G75*
G03X198000000Y-86000000I0J-1250000D01*
G01*
X123000000Y-86000000D02*
X118000000Y-86000000D01*
X133500000Y-87500000D02*
X133500000Y-86000000D01*
X136000000Y-90000000D02*
X141000000Y-90000000D01*
X143500000Y-87500000D02*
X143500000Y-86000000D01*
X198000000Y-86000000D02*
X203000000Y-86000000D01*
X99000000Y-116750000D02*
G75*
G02X99000000Y-121050000I0J-2150000D01*
G01*
X178500000Y-83500000D02*
X143500000Y-83500000D01*
X143500000Y-86000000D02*
X178500000Y-86000000D01*
X123000000Y-83500000D02*
G75*
G02X123000000Y-86000000I0J-1250000D01*
G01*
X129373673Y-83506562D02*
G75*
G03X129373673Y-86006562I0J-1250000D01*
G01*
X225500000Y-107250000D02*
X225500000Y-106000000D01*
X223000000Y-107250000D02*
X223000000Y-106000000D01*
X225500000Y-113750000D02*
G75*
G03X223000000Y-113750000I-1250000J0D01*
G01*
X225500000Y-107250000D02*
G75*
G02X223000000Y-107250000I-1250000J0D01*
G01*
X96500000Y-107250000D02*
X96500000Y-105000000D01*
X99000000Y-107250000D02*
X99000000Y-105000000D01*
X99000000Y-113750000D02*
G75*
G03X96500000Y-113750000I-1250000J0D01*
G01*
X99000000Y-107250000D02*
G75*
G02X96500000Y-107250000I-1250000J0D01*
G01*
X225500000Y-124000000D02*
X225500000Y-113750000D01*
X118000000Y-83500000D02*
X123000000Y-83500000D01*
X234000000Y-74000000D02*
X89000000Y-74000000D01*
X234000000Y-144000000D02*
X234000000Y-74000000D01*
X89000000Y-144000000D02*
X234000000Y-144000000D01*
X89000000Y-74000000D02*
X89000000Y-144000000D01*
X96500000Y-124000000D02*
X96500000Y-113750000D01*
X223000000Y-121050000D02*
G75*
G02X223000000Y-116750000I0J2150000D01*
G01*
X223000000Y-124000000D02*
X218000000Y-129000000D01*
X99000000Y-124000000D02*
X110500000Y-135500000D01*
X99000000Y-113750000D02*
X99000000Y-116750000D01*
X118000000Y-86000000D02*
X99000000Y-105000000D01*
X223000000Y-113750000D02*
X223000000Y-116750000D01*
X203000000Y-86000000D02*
X223000000Y-106000000D01*
X129400000Y-86000000D02*
X133500000Y-86000000D01*
X223000000Y-124000000D02*
X223000000Y-121050000D01*
X163150000Y-129000000D02*
X218000000Y-129000000D01*
X99000000Y-124000000D02*
X99000000Y-121050000D01*
X150500000Y-129000000D02*
X137500000Y-129000000D01*
D11*
X102354921Y-106807211D03*
D12*
X102354921Y-106807211D02*
X102354921Y-106807211D01*
D11*
X103945911Y-104791957D03*
D12*
X103945911Y-104791957D02*
X103945911Y-104791957D01*
D11*
X105925810Y-103236322D03*
D12*
X105925810Y-103236322D02*
X105925810Y-103236322D01*
D11*
X107516800Y-101221068D03*
D12*
X107516800Y-101221068D02*
X107516800Y-101221068D01*
D11*
X109532054Y-99630078D03*
D12*
X109532054Y-99630078D02*
X109532054Y-99630078D01*
D11*
X111123045Y-97614823D03*
D12*
X111123045Y-97614823D02*
X111123045Y-97614823D01*
D11*
X113138299Y-96023833D03*
D12*
X113138299Y-96023833D02*
X113138299Y-96023833D01*
D11*
X114693934Y-94043934D03*
D13*
G36*
X113491852Y-94043934D02*
X114693934Y-92841852D01*
X115896016Y-94043934D01*
X114693934Y-95246016D01*
X113491852Y-94043934D01*
X113491852Y-94043934D01*
G37*
D14*
X161000000Y-112300000D03*
D15*
X161000000Y-90900000D03*
D16*
X125750000Y-91500000D03*
X118750000Y-91500000D03*
D11*
X124500000Y-89000000D03*
X120000000Y-89000000D03*
X197000000Y-89000000D03*
X201500000Y-89000000D03*
D16*
X195750000Y-91500000D03*
X202750000Y-91500000D03*
D17*
X135750000Y-118300000D03*
X134650000Y-119400000D03*
X135750000Y-120450000D03*
X136550000Y-125650000D03*
X137950000Y-126750000D03*
X133200000Y-128450000D03*
X131400000Y-121900000D03*
X128250000Y-125000000D03*
X136800000Y-119372614D03*
X131900000Y-124650000D03*
X114750000Y-126900000D03*
X111750000Y-128500000D03*
X117650000Y-128500000D03*
X104700000Y-128500000D03*
X108200000Y-128500000D03*
X121500000Y-128500000D03*
X125350000Y-128500000D03*
X128400000Y-128500000D03*
X129685894Y-126485894D03*
X126000000Y-121000000D03*
X125000000Y-118000000D03*
X110000000Y-117000000D03*
X104000000Y-123000000D03*
X101000000Y-112000000D03*
X118000000Y-111000000D03*
X131000000Y-104000000D03*
X118000000Y-97000000D03*
X137000000Y-110000000D03*
X147000000Y-100000000D03*
X137000000Y-97000000D03*
X155000000Y-96000000D03*
X166000000Y-96000000D03*
X175000000Y-95000000D03*
X143000000Y-115000000D03*
X156000000Y-118000000D03*
X156000000Y-105000000D03*
X147000000Y-127000000D03*
X176000000Y-105000000D03*
X171000000Y-118000000D03*
X185000000Y-118000000D03*
X192000000Y-89000000D03*
X192000000Y-101000000D03*
X198000000Y-106000000D03*
X215000000Y-101000000D03*
X207000000Y-108000000D03*
X202000000Y-113000000D03*
X190000000Y-125000000D03*
X208000000Y-125000000D03*
X219000000Y-125000000D03*
X166000000Y-127000000D03*
X111000000Y-105000000D03*
X142025605Y-118495658D03*
X137093153Y-113850000D03*
X125000000Y-123500000D03*
X143500000Y-125500000D03*
X129200000Y-120500000D03*
X139024786Y-116312607D03*
D10*
X125399999Y-123100001D02*
X127849999Y-123100001D01*
X125000000Y-123500000D02*
X125399999Y-123100001D01*
X127849999Y-123100001D02*
X136250000Y-114700000D01*
X136250000Y-114693153D02*
X136250000Y-114700000D01*
X137093153Y-113850000D02*
X136250000Y-114693153D01*
X140432574Y-118875727D02*
X136250000Y-114693153D01*
X140906847Y-119350000D02*
X140432574Y-118875727D01*
X161000000Y-110800000D02*
X161000000Y-114450000D01*
X161000000Y-114450000D02*
X156100000Y-119350000D01*
X142025605Y-119324395D02*
X142025605Y-118495658D01*
X142000000Y-119350000D02*
X142025605Y-119324395D01*
X142000000Y-119350000D02*
X141350000Y-119350000D01*
X141350000Y-119350000D02*
X140906847Y-119350000D01*
X156100000Y-119350000D02*
X148000000Y-119350000D01*
X143500000Y-125500000D02*
X143500000Y-119350000D01*
X148000000Y-119350000D02*
X143500000Y-119350000D01*
X143500000Y-119350000D02*
X142000000Y-119350000D01*
X136550000Y-113150000D02*
X137400000Y-113150000D01*
X137400000Y-113150000D02*
X139024786Y-114774786D01*
X129200000Y-120500000D02*
X136550000Y-113150000D01*
X139024786Y-115746922D02*
X139024786Y-116312607D01*
X139024786Y-114774786D02*
X139024786Y-115746922D01*
D18*
G36*
X128407001Y-86134814D02*
X128439784Y-86156595D01*
X128472370Y-86178907D01*
X128477714Y-86181796D01*
X128693115Y-86296327D01*
X128729567Y-86311351D01*
X128765804Y-86326883D01*
X128771603Y-86328678D01*
X128771609Y-86328680D01*
X129005152Y-86399190D01*
X129043787Y-86406840D01*
X129082391Y-86415045D01*
X129088432Y-86415680D01*
X129331224Y-86439486D01*
X129416121Y-86439485D01*
X129438773Y-86435000D01*
X133065001Y-86435000D01*
X133065000Y-87521361D01*
X133066960Y-87541262D01*
X133066851Y-87556878D01*
X133067444Y-87562923D01*
X133118445Y-88048165D01*
X133126368Y-88086763D01*
X133133760Y-88125513D01*
X133135516Y-88131328D01*
X133279796Y-88597422D01*
X133295059Y-88633731D01*
X133309843Y-88670323D01*
X133312695Y-88675686D01*
X133544759Y-89104878D01*
X133566780Y-89137525D01*
X133588393Y-89170554D01*
X133592232Y-89175261D01*
X133903241Y-89551206D01*
X133931168Y-89578938D01*
X133958801Y-89607157D01*
X133963482Y-89611028D01*
X134341589Y-89919404D01*
X134374379Y-89941190D01*
X134406958Y-89963497D01*
X134412301Y-89966385D01*
X134843104Y-90195447D01*
X134879530Y-90210461D01*
X134915792Y-90226003D01*
X134921595Y-90227799D01*
X135388685Y-90368822D01*
X135427335Y-90376474D01*
X135465925Y-90384677D01*
X135471966Y-90385312D01*
X135957552Y-90432924D01*
X135957560Y-90432924D01*
X135978638Y-90435000D01*
X141021362Y-90435000D01*
X141041263Y-90433040D01*
X141056878Y-90433149D01*
X141062923Y-90432556D01*
X141548165Y-90381555D01*
X141586763Y-90373632D01*
X141625513Y-90366240D01*
X141631328Y-90364484D01*
X142097422Y-90220204D01*
X142133731Y-90204941D01*
X142170323Y-90190157D01*
X142175686Y-90187305D01*
X142604878Y-89955241D01*
X142637525Y-89933220D01*
X142670554Y-89911607D01*
X142675261Y-89907768D01*
X143051206Y-89596759D01*
X143078938Y-89568832D01*
X143107157Y-89541199D01*
X143111028Y-89536518D01*
X143273377Y-89337458D01*
X158565000Y-89337458D01*
X158565000Y-90614250D01*
X158723750Y-90773000D01*
X160873000Y-90773000D01*
X160873000Y-88923750D01*
X161127000Y-88923750D01*
X161127000Y-90773000D01*
X163276250Y-90773000D01*
X163435000Y-90614250D01*
X163435000Y-89337458D01*
X163410597Y-89214777D01*
X163362730Y-89099215D01*
X163293237Y-88995211D01*
X163204789Y-88906763D01*
X163100785Y-88837270D01*
X162985223Y-88789403D01*
X162862542Y-88765000D01*
X161285750Y-88765000D01*
X161127000Y-88923750D01*
X160873000Y-88923750D01*
X160714250Y-88765000D01*
X159137458Y-88765000D01*
X159014777Y-88789403D01*
X158899215Y-88837270D01*
X158795211Y-88906763D01*
X158706763Y-88995211D01*
X158637270Y-89099215D01*
X158589403Y-89214777D01*
X158565000Y-89337458D01*
X143273377Y-89337458D01*
X143419404Y-89158411D01*
X143441190Y-89125621D01*
X143463497Y-89093042D01*
X143466385Y-89087699D01*
X143695447Y-88656896D01*
X143710461Y-88620470D01*
X143726003Y-88584208D01*
X143727799Y-88578405D01*
X143868822Y-88111315D01*
X143876474Y-88072665D01*
X143884677Y-88034075D01*
X143885312Y-88028034D01*
X143932924Y-87542448D01*
X143932924Y-87542440D01*
X143935000Y-87521362D01*
X143935000Y-86435000D01*
X178065001Y-86435000D01*
X178065000Y-87521361D01*
X178066960Y-87541262D01*
X178066851Y-87556878D01*
X178067444Y-87562923D01*
X178118445Y-88048165D01*
X178126368Y-88086763D01*
X178133760Y-88125513D01*
X178135516Y-88131328D01*
X178279796Y-88597422D01*
X178295059Y-88633731D01*
X178309843Y-88670323D01*
X178312695Y-88675686D01*
X178544759Y-89104878D01*
X178566780Y-89137525D01*
X178588393Y-89170554D01*
X178592232Y-89175261D01*
X178903241Y-89551206D01*
X178931168Y-89578938D01*
X178958801Y-89607157D01*
X178963482Y-89611028D01*
X179341589Y-89919404D01*
X179374379Y-89941190D01*
X179406958Y-89963497D01*
X179412301Y-89966385D01*
X179843104Y-90195447D01*
X179879530Y-90210461D01*
X179915792Y-90226003D01*
X179921595Y-90227799D01*
X180388685Y-90368822D01*
X180427335Y-90376474D01*
X180465925Y-90384677D01*
X180471966Y-90385312D01*
X180957552Y-90432924D01*
X180957560Y-90432924D01*
X180978638Y-90435000D01*
X186021362Y-90435000D01*
X186041263Y-90433040D01*
X186056878Y-90433149D01*
X186062923Y-90432556D01*
X186548165Y-90381555D01*
X186586763Y-90373632D01*
X186625513Y-90366240D01*
X186631328Y-90364484D01*
X187097422Y-90220204D01*
X187133731Y-90204941D01*
X187170323Y-90190157D01*
X187175686Y-90187305D01*
X187604878Y-89955241D01*
X187637525Y-89933220D01*
X187670554Y-89911607D01*
X187675261Y-89907768D01*
X188051206Y-89596759D01*
X188078938Y-89568832D01*
X188107157Y-89541199D01*
X188111028Y-89536518D01*
X188419404Y-89158411D01*
X188441190Y-89125621D01*
X188463497Y-89093042D01*
X188466385Y-89087699D01*
X188575072Y-88883288D01*
X195815000Y-88883288D01*
X195815000Y-89116712D01*
X195860539Y-89345652D01*
X195949866Y-89561308D01*
X196079550Y-89755394D01*
X196244606Y-89920450D01*
X196438692Y-90050134D01*
X196654348Y-90139461D01*
X196883288Y-90185000D01*
X197116712Y-90185000D01*
X197345652Y-90139461D01*
X197561308Y-90050134D01*
X197593839Y-90028397D01*
X200651208Y-90028397D01*
X200728843Y-90277472D01*
X200992883Y-90403371D01*
X201276411Y-90475339D01*
X201568531Y-90490611D01*
X201757403Y-90463201D01*
X201635363Y-90585241D01*
X201478320Y-90820273D01*
X201370147Y-91081426D01*
X201315000Y-91358665D01*
X201315000Y-91641335D01*
X201370147Y-91918574D01*
X201478320Y-92179727D01*
X201635363Y-92414759D01*
X201835241Y-92614637D01*
X202070273Y-92771680D01*
X202331426Y-92879853D01*
X202608665Y-92935000D01*
X202891335Y-92935000D01*
X203168574Y-92879853D01*
X203429727Y-92771680D01*
X203664759Y-92614637D01*
X203864637Y-92414759D01*
X204021680Y-92179727D01*
X204129853Y-91918574D01*
X204185000Y-91641335D01*
X204185000Y-91358665D01*
X204129853Y-91081426D01*
X204021680Y-90820273D01*
X203864637Y-90585241D01*
X203664759Y-90385363D01*
X203429727Y-90228320D01*
X203168574Y-90120147D01*
X202891335Y-90065000D01*
X202608665Y-90065000D01*
X202331426Y-90120147D01*
X202318529Y-90125489D01*
X202348792Y-90028397D01*
X201500000Y-89179605D01*
X200651208Y-90028397D01*
X197593839Y-90028397D01*
X197755394Y-89920450D01*
X197920450Y-89755394D01*
X198050134Y-89561308D01*
X198139461Y-89345652D01*
X198185000Y-89116712D01*
X198185000Y-89068531D01*
X200009389Y-89068531D01*
X200051401Y-89358019D01*
X200149081Y-89633747D01*
X200222528Y-89771157D01*
X200471603Y-89848792D01*
X201320395Y-89000000D01*
X201679605Y-89000000D01*
X202528397Y-89848792D01*
X202777472Y-89771157D01*
X202903371Y-89507117D01*
X202975339Y-89223589D01*
X202990611Y-88931469D01*
X202948599Y-88641981D01*
X202850919Y-88366253D01*
X202777472Y-88228843D01*
X202528397Y-88151208D01*
X201679605Y-89000000D01*
X201320395Y-89000000D01*
X200471603Y-88151208D01*
X200222528Y-88228843D01*
X200096629Y-88492883D01*
X200024661Y-88776411D01*
X200009389Y-89068531D01*
X198185000Y-89068531D01*
X198185000Y-88883288D01*
X198139461Y-88654348D01*
X198050134Y-88438692D01*
X197920450Y-88244606D01*
X197755394Y-88079550D01*
X197593840Y-87971603D01*
X200651208Y-87971603D01*
X201500000Y-88820395D01*
X202348792Y-87971603D01*
X202271157Y-87722528D01*
X202007117Y-87596629D01*
X201723589Y-87524661D01*
X201431469Y-87509389D01*
X201141981Y-87551401D01*
X200866253Y-87649081D01*
X200728843Y-87722528D01*
X200651208Y-87971603D01*
X197593840Y-87971603D01*
X197561308Y-87949866D01*
X197345652Y-87860539D01*
X197116712Y-87815000D01*
X196883288Y-87815000D01*
X196654348Y-87860539D01*
X196438692Y-87949866D01*
X196244606Y-88079550D01*
X196079550Y-88244606D01*
X195949866Y-88438692D01*
X195860539Y-88654348D01*
X195815000Y-88883288D01*
X188575072Y-88883288D01*
X188695447Y-88656896D01*
X188710461Y-88620470D01*
X188726003Y-88584208D01*
X188727799Y-88578405D01*
X188868822Y-88111315D01*
X188876474Y-88072665D01*
X188884677Y-88034075D01*
X188885312Y-88028034D01*
X188932924Y-87542448D01*
X188932924Y-87542440D01*
X188935000Y-87521362D01*
X188935000Y-86435000D01*
X191521362Y-86435000D01*
X191543678Y-86432802D01*
X191559900Y-86432802D01*
X191565941Y-86432167D01*
X191808378Y-86404974D01*
X191846902Y-86396785D01*
X191885620Y-86389119D01*
X191891422Y-86387322D01*
X192123960Y-86313556D01*
X192160179Y-86298032D01*
X192196646Y-86283002D01*
X192201989Y-86280113D01*
X192415771Y-86162586D01*
X192448284Y-86140323D01*
X192468337Y-86127000D01*
X197031793Y-86127000D01*
X197033328Y-86128252D01*
X197066111Y-86150033D01*
X197098697Y-86172345D01*
X197104041Y-86175234D01*
X197319442Y-86289765D01*
X197355894Y-86304789D01*
X197392131Y-86320321D01*
X197397930Y-86322116D01*
X197397936Y-86322118D01*
X197631479Y-86392628D01*
X197670114Y-86400278D01*
X197708718Y-86408483D01*
X197714759Y-86409118D01*
X197957551Y-86432924D01*
X197957560Y-86432924D01*
X197978638Y-86435000D01*
X202819818Y-86435000D01*
X222565001Y-106180184D01*
X222565000Y-107271361D01*
X222567198Y-107293677D01*
X222567198Y-107309900D01*
X222567833Y-107315941D01*
X222595026Y-107558378D01*
X222603215Y-107596902D01*
X222610881Y-107635620D01*
X222612678Y-107641422D01*
X222686444Y-107873960D01*
X222701968Y-107910179D01*
X222716998Y-107946646D01*
X222719887Y-107951989D01*
X222837414Y-108165771D01*
X222859677Y-108198284D01*
X222873000Y-108218337D01*
X222873000Y-112781792D01*
X222871747Y-112783328D01*
X222849934Y-112816160D01*
X222827655Y-112848697D01*
X222824766Y-112854040D01*
X222710235Y-113069442D01*
X222695218Y-113105877D01*
X222679679Y-113142131D01*
X222677883Y-113147934D01*
X222607372Y-113381479D01*
X222599716Y-113420146D01*
X222591517Y-113458718D01*
X222590882Y-113464759D01*
X222567076Y-113707552D01*
X222567076Y-113707561D01*
X222565000Y-113728639D01*
X222565001Y-116357908D01*
X222504501Y-116364694D01*
X222465968Y-116372885D01*
X222427261Y-116380549D01*
X222421459Y-116382345D01*
X222021494Y-116509221D01*
X221985290Y-116524739D01*
X221948805Y-116539776D01*
X221943463Y-116542665D01*
X221575758Y-116744813D01*
X221543254Y-116767069D01*
X221510388Y-116788905D01*
X221505708Y-116792777D01*
X221184271Y-117062495D01*
X221156692Y-117090658D01*
X221128711Y-117118444D01*
X221124872Y-117123151D01*
X220861945Y-117450166D01*
X220840364Y-117483145D01*
X220818310Y-117515842D01*
X220815459Y-117521205D01*
X220621056Y-117893062D01*
X220606294Y-117929600D01*
X220591009Y-117965962D01*
X220589254Y-117971777D01*
X220470781Y-118374311D01*
X220463400Y-118413006D01*
X220455465Y-118451660D01*
X220454872Y-118457705D01*
X220416842Y-118875585D01*
X220417117Y-118915000D01*
X220416842Y-118954435D01*
X220417435Y-118960480D01*
X220461296Y-119377788D01*
X220469219Y-119416386D01*
X220476611Y-119455136D01*
X220478367Y-119460951D01*
X220602448Y-119861792D01*
X220617711Y-119898101D01*
X220632495Y-119934693D01*
X220635347Y-119940056D01*
X220834922Y-120309161D01*
X220856931Y-120341791D01*
X220878556Y-120374838D01*
X220882396Y-120379544D01*
X221149863Y-120702856D01*
X221177825Y-120730624D01*
X221205423Y-120758806D01*
X221210103Y-120762678D01*
X221535275Y-121027882D01*
X221568115Y-121049700D01*
X221600645Y-121071975D01*
X221605988Y-121074863D01*
X221976480Y-121271857D01*
X222012912Y-121286873D01*
X222049167Y-121302412D01*
X222054970Y-121304208D01*
X222456667Y-121425488D01*
X222495317Y-121433140D01*
X222533907Y-121441343D01*
X222539948Y-121441978D01*
X222565001Y-121444434D01*
X222565000Y-123819817D01*
X217819818Y-128565000D01*
X163542092Y-128565000D01*
X163535306Y-128504501D01*
X163527115Y-128465968D01*
X163519451Y-128427261D01*
X163517655Y-128421459D01*
X163390779Y-128021494D01*
X163375261Y-127985290D01*
X163360224Y-127948805D01*
X163357335Y-127943463D01*
X163155187Y-127575758D01*
X163132931Y-127543254D01*
X163111095Y-127510388D01*
X163107223Y-127505708D01*
X162837505Y-127184271D01*
X162809342Y-127156692D01*
X162781556Y-127128711D01*
X162776849Y-127124872D01*
X162449834Y-126861945D01*
X162416855Y-126840364D01*
X162384158Y-126818310D01*
X162378795Y-126815459D01*
X162006938Y-126621056D01*
X161970400Y-126606294D01*
X161934038Y-126591009D01*
X161928223Y-126589254D01*
X161525689Y-126470781D01*
X161486994Y-126463400D01*
X161448340Y-126455465D01*
X161442295Y-126454872D01*
X161024415Y-126416842D01*
X160984990Y-126417117D01*
X160945565Y-126416842D01*
X160939520Y-126417435D01*
X160522212Y-126461296D01*
X160483589Y-126469224D01*
X160444863Y-126476611D01*
X160439049Y-126478367D01*
X160038208Y-126602448D01*
X160001870Y-126617723D01*
X159965307Y-126632495D01*
X159959944Y-126635347D01*
X159590838Y-126834922D01*
X159558191Y-126856943D01*
X159525162Y-126878556D01*
X159520455Y-126882396D01*
X159197144Y-127149863D01*
X159169376Y-127177825D01*
X159141194Y-127205423D01*
X159137322Y-127210103D01*
X158872118Y-127535275D01*
X158850310Y-127568099D01*
X158828025Y-127600645D01*
X158825137Y-127605988D01*
X158628144Y-127976479D01*
X158613135Y-128012893D01*
X158597588Y-128049167D01*
X158595792Y-128054970D01*
X158474512Y-128456667D01*
X158466860Y-128495317D01*
X158458657Y-128533907D01*
X158458022Y-128539947D01*
X158455566Y-128565000D01*
X156978638Y-128565000D01*
X156956322Y-128567198D01*
X156940100Y-128567198D01*
X156934059Y-128567833D01*
X156691622Y-128595026D01*
X156653085Y-128603217D01*
X156614380Y-128610881D01*
X156608578Y-128612677D01*
X156376041Y-128686444D01*
X156339835Y-128701962D01*
X156303354Y-128716998D01*
X156298011Y-128719887D01*
X156084229Y-128837414D01*
X156051693Y-128859692D01*
X156031662Y-128873000D01*
X151468208Y-128873000D01*
X151466672Y-128871747D01*
X151433840Y-128849934D01*
X151401303Y-128827655D01*
X151395960Y-128824766D01*
X151180558Y-128710235D01*
X151144123Y-128695218D01*
X151107869Y-128679679D01*
X151102066Y-128677883D01*
X150868521Y-128607372D01*
X150829854Y-128599716D01*
X150791282Y-128591517D01*
X150785241Y-128590882D01*
X150542448Y-128567076D01*
X150542440Y-128567076D01*
X150521362Y-128565000D01*
X137478638Y-128565000D01*
X137460883Y-128566749D01*
X137453361Y-128566670D01*
X137447314Y-128567242D01*
X136961897Y-128616549D01*
X136923279Y-128624336D01*
X136884496Y-128631594D01*
X136878675Y-128633329D01*
X136412081Y-128775981D01*
X136375701Y-128791125D01*
X136339075Y-128805774D01*
X136333702Y-128808607D01*
X136213610Y-128873000D01*
X117430744Y-128873000D01*
X115867941Y-127310197D01*
X115826739Y-127282667D01*
X115778138Y-127273000D01*
X113578138Y-127273000D01*
X113529537Y-127282667D01*
X113488335Y-127310197D01*
X111925532Y-128873000D01*
X104488182Y-128873000D01*
X99435000Y-123819818D01*
X99435000Y-123427609D01*
X124265000Y-123427609D01*
X124265000Y-123572391D01*
X124293246Y-123714391D01*
X124348652Y-123848153D01*
X124429088Y-123968535D01*
X124531465Y-124070912D01*
X124651847Y-124151348D01*
X124785609Y-124206754D01*
X124927609Y-124235000D01*
X125072391Y-124235000D01*
X125214391Y-124206754D01*
X125348153Y-124151348D01*
X125468535Y-124070912D01*
X125570912Y-123968535D01*
X125651348Y-123848153D01*
X125706754Y-123714391D01*
X125735000Y-123572391D01*
X125735000Y-123535001D01*
X127828645Y-123535001D01*
X127849999Y-123537104D01*
X127871353Y-123535001D01*
X127871361Y-123535001D01*
X127935274Y-123528706D01*
X128017271Y-123503832D01*
X128092841Y-123463440D01*
X128159078Y-123409080D01*
X128172699Y-123392483D01*
X136253424Y-115311759D01*
X140140087Y-119198423D01*
X140140092Y-119198427D01*
X140584151Y-119642487D01*
X140597768Y-119659079D01*
X140664005Y-119713439D01*
X140739575Y-119753831D01*
X140796697Y-119771159D01*
X140821571Y-119778705D01*
X140829861Y-119779521D01*
X140885485Y-119785000D01*
X140885492Y-119785000D01*
X140906846Y-119787103D01*
X140928200Y-119785000D01*
X141978646Y-119785000D01*
X142000000Y-119787103D01*
X142021354Y-119785000D01*
X143065001Y-119785000D01*
X143065000Y-124906681D01*
X143031465Y-124929088D01*
X142929088Y-125031465D01*
X142848652Y-125151847D01*
X142793246Y-125285609D01*
X142765000Y-125427609D01*
X142765000Y-125572391D01*
X142793246Y-125714391D01*
X142848652Y-125848153D01*
X142929088Y-125968535D01*
X143031465Y-126070912D01*
X143151847Y-126151348D01*
X143285609Y-126206754D01*
X143427609Y-126235000D01*
X143572391Y-126235000D01*
X143714391Y-126206754D01*
X143848153Y-126151348D01*
X143968535Y-126070912D01*
X144070912Y-125968535D01*
X144151348Y-125848153D01*
X144206754Y-125714391D01*
X144235000Y-125572391D01*
X144235000Y-125427609D01*
X144206754Y-125285609D01*
X144151348Y-125151847D01*
X144070912Y-125031465D01*
X143968535Y-124929088D01*
X143935000Y-124906681D01*
X143935000Y-119785000D01*
X156078646Y-119785000D01*
X156100000Y-119787103D01*
X156121354Y-119785000D01*
X156121362Y-119785000D01*
X156185275Y-119778705D01*
X156267272Y-119753831D01*
X156342842Y-119713439D01*
X156409079Y-119659079D01*
X156422700Y-119642482D01*
X161292488Y-114772695D01*
X161309079Y-114759079D01*
X161363439Y-114692842D01*
X161403831Y-114617272D01*
X161428705Y-114535275D01*
X161435000Y-114471362D01*
X161435000Y-114471355D01*
X161437103Y-114450001D01*
X161435000Y-114428647D01*
X161435000Y-114136620D01*
X162300000Y-114136620D01*
X162365671Y-114130152D01*
X162428819Y-114110996D01*
X162487016Y-114079889D01*
X162538026Y-114038026D01*
X162579889Y-113987016D01*
X162610996Y-113928819D01*
X162630152Y-113865671D01*
X162636620Y-113800000D01*
X162636620Y-110800000D01*
X162630152Y-110734329D01*
X162610996Y-110671181D01*
X162579889Y-110612984D01*
X162538026Y-110561974D01*
X162487016Y-110520111D01*
X162428819Y-110489004D01*
X162365671Y-110469848D01*
X162300000Y-110463380D01*
X161275520Y-110463380D01*
X161242841Y-110436561D01*
X161167271Y-110396169D01*
X161085274Y-110371295D01*
X161000000Y-110362896D01*
X160914725Y-110371295D01*
X160832728Y-110396169D01*
X160757158Y-110436561D01*
X160724479Y-110463380D01*
X159700000Y-110463380D01*
X159634329Y-110469848D01*
X159571181Y-110489004D01*
X159512984Y-110520111D01*
X159461974Y-110561974D01*
X159420111Y-110612984D01*
X159389004Y-110671181D01*
X159369848Y-110734329D01*
X159363380Y-110800000D01*
X159363380Y-113800000D01*
X159369848Y-113865671D01*
X159389004Y-113928819D01*
X159420111Y-113987016D01*
X159461974Y-114038026D01*
X159512984Y-114079889D01*
X159571181Y-114110996D01*
X159634329Y-114130152D01*
X159700000Y-114136620D01*
X160565001Y-114136620D01*
X160565001Y-114269816D01*
X155919818Y-118915000D01*
X143521362Y-118915000D01*
X143500000Y-118912896D01*
X143478638Y-118915000D01*
X142629386Y-118915000D01*
X142676953Y-118843811D01*
X142732359Y-118710049D01*
X142760605Y-118568049D01*
X142760605Y-118423267D01*
X142732359Y-118281267D01*
X142676953Y-118147505D01*
X142596517Y-118027123D01*
X142494140Y-117924746D01*
X142373758Y-117844310D01*
X142239996Y-117788904D01*
X142097996Y-117760658D01*
X141953214Y-117760658D01*
X141811214Y-117788904D01*
X141677452Y-117844310D01*
X141557070Y-117924746D01*
X141454693Y-118027123D01*
X141374257Y-118147505D01*
X141318851Y-118281267D01*
X141290605Y-118423267D01*
X141290605Y-118568049D01*
X141318851Y-118710049D01*
X141374257Y-118843811D01*
X141421824Y-118915000D01*
X141087030Y-118915000D01*
X140755274Y-118583245D01*
X140755270Y-118583240D01*
X139199319Y-117027289D01*
X139239177Y-117019361D01*
X139372939Y-116963955D01*
X139493321Y-116883519D01*
X139595698Y-116781142D01*
X139676134Y-116660760D01*
X139731540Y-116526998D01*
X139759786Y-116384998D01*
X139759786Y-116240216D01*
X139731540Y-116098216D01*
X139676134Y-115964454D01*
X139595698Y-115844072D01*
X139493321Y-115741695D01*
X139459786Y-115719288D01*
X139459786Y-114796139D01*
X139461889Y-114774785D01*
X139459786Y-114753431D01*
X139459786Y-114753424D01*
X139453491Y-114689511D01*
X139428617Y-114607514D01*
X139388225Y-114531944D01*
X139333865Y-114465707D01*
X139317275Y-114452092D01*
X137722700Y-112857518D01*
X137709079Y-112840921D01*
X137642842Y-112786561D01*
X137567272Y-112746169D01*
X137485275Y-112721295D01*
X137421362Y-112715000D01*
X137421354Y-112715000D01*
X137400000Y-112712897D01*
X137378646Y-112715000D01*
X136571354Y-112715000D01*
X136550000Y-112712897D01*
X136528646Y-112715000D01*
X136528638Y-112715000D01*
X136464725Y-112721295D01*
X136382727Y-112746169D01*
X136356405Y-112760239D01*
X136307158Y-112786561D01*
X136273162Y-112814461D01*
X136261096Y-112824364D01*
X136240921Y-112840921D01*
X136227305Y-112857512D01*
X129311949Y-119772869D01*
X129272391Y-119765000D01*
X129127609Y-119765000D01*
X128985609Y-119793246D01*
X128851847Y-119848652D01*
X128731465Y-119929088D01*
X128629088Y-120031465D01*
X128548652Y-120151847D01*
X128493246Y-120285609D01*
X128465000Y-120427609D01*
X128465000Y-120572391D01*
X128493246Y-120714391D01*
X128548652Y-120848153D01*
X128629088Y-120968535D01*
X128731465Y-121070912D01*
X128851847Y-121151348D01*
X128985609Y-121206754D01*
X129104429Y-121230389D01*
X127669817Y-122665001D01*
X125421352Y-122665001D01*
X125399998Y-122662898D01*
X125378644Y-122665001D01*
X125378637Y-122665001D01*
X125314724Y-122671296D01*
X125232727Y-122696170D01*
X125157157Y-122736562D01*
X125112729Y-122773024D01*
X125072391Y-122765000D01*
X124927609Y-122765000D01*
X124785609Y-122793246D01*
X124651847Y-122848652D01*
X124531465Y-122929088D01*
X124429088Y-123031465D01*
X124348652Y-123151847D01*
X124293246Y-123285609D01*
X124265000Y-123427609D01*
X99435000Y-123427609D01*
X99435000Y-121442092D01*
X99495499Y-121435306D01*
X99534002Y-121427121D01*
X99572738Y-121419452D01*
X99578541Y-121417655D01*
X99978505Y-121290779D01*
X100014696Y-121275267D01*
X100051195Y-121260224D01*
X100056538Y-121257334D01*
X100424242Y-121055187D01*
X100456762Y-121032920D01*
X100489612Y-121011095D01*
X100494292Y-121007223D01*
X100815728Y-120737505D01*
X100843288Y-120709361D01*
X100871289Y-120681556D01*
X100875128Y-120676849D01*
X101138055Y-120349834D01*
X101159636Y-120316855D01*
X101181690Y-120284158D01*
X101184542Y-120278795D01*
X101378944Y-119906937D01*
X101393720Y-119870365D01*
X101408991Y-119834038D01*
X101410746Y-119828223D01*
X101529219Y-119425690D01*
X101536602Y-119386987D01*
X101544535Y-119348340D01*
X101545128Y-119342295D01*
X101583158Y-118924415D01*
X101582883Y-118884990D01*
X101583158Y-118845565D01*
X101582565Y-118839520D01*
X101538704Y-118422212D01*
X101530776Y-118383589D01*
X101523389Y-118344863D01*
X101521633Y-118339049D01*
X101397552Y-117938208D01*
X101382277Y-117901870D01*
X101367505Y-117865307D01*
X101364653Y-117859944D01*
X101165078Y-117490838D01*
X101143057Y-117458191D01*
X101121444Y-117425162D01*
X101117604Y-117420455D01*
X100850137Y-117097144D01*
X100822175Y-117069376D01*
X100794577Y-117041194D01*
X100789897Y-117037322D01*
X100464725Y-116772118D01*
X100431901Y-116750310D01*
X100399355Y-116728025D01*
X100394012Y-116725137D01*
X100023521Y-116528144D01*
X99987107Y-116513135D01*
X99950833Y-116497588D01*
X99945030Y-116495792D01*
X99543333Y-116374512D01*
X99504683Y-116366860D01*
X99466093Y-116358657D01*
X99460053Y-116358022D01*
X99435000Y-116355566D01*
X99435000Y-113728638D01*
X99432802Y-113706322D01*
X99432802Y-113690100D01*
X99432167Y-113684059D01*
X99404974Y-113441622D01*
X99396783Y-113403085D01*
X99389119Y-113364380D01*
X99387323Y-113358578D01*
X99313556Y-113126041D01*
X99298038Y-113089835D01*
X99283002Y-113053354D01*
X99280113Y-113048011D01*
X99162586Y-112834229D01*
X99140308Y-112801693D01*
X99127000Y-112781662D01*
X99127000Y-108218207D01*
X99128252Y-108216672D01*
X99150033Y-108183889D01*
X99172345Y-108151303D01*
X99175234Y-108145959D01*
X99289765Y-107930558D01*
X99304789Y-107894106D01*
X99320321Y-107857869D01*
X99322117Y-107852066D01*
X99328486Y-107830970D01*
X101510767Y-107830970D01*
X101588000Y-108078852D01*
X101850821Y-108204036D01*
X102133015Y-108275542D01*
X102423736Y-108290620D01*
X102711813Y-108248691D01*
X102986174Y-108151367D01*
X103121839Y-108078848D01*
X103198609Y-107830504D01*
X102354921Y-106986816D01*
X101510767Y-107830970D01*
X99328486Y-107830970D01*
X99392628Y-107618521D01*
X99400278Y-107579886D01*
X99408483Y-107541282D01*
X99409118Y-107535241D01*
X99432924Y-107292449D01*
X99432924Y-107292440D01*
X99435000Y-107271362D01*
X99435000Y-106738396D01*
X100871512Y-106738396D01*
X100886590Y-107029117D01*
X100958096Y-107311311D01*
X101083280Y-107574132D01*
X101331162Y-107651365D01*
X102175316Y-106807211D01*
X101331628Y-105963523D01*
X101083284Y-106040293D01*
X101010765Y-106175958D01*
X100913441Y-106450319D01*
X100871512Y-106738396D01*
X99435000Y-106738396D01*
X99435000Y-105783918D01*
X101511233Y-105783918D01*
X102354921Y-106627606D01*
X102369064Y-106613464D01*
X102548669Y-106793069D01*
X102534526Y-106807211D01*
X103378214Y-107650899D01*
X103626558Y-107574129D01*
X103699077Y-107438464D01*
X103796401Y-107164103D01*
X103838330Y-106876026D01*
X103823252Y-106585305D01*
X103751746Y-106303111D01*
X103626562Y-106040290D01*
X103378682Y-105963058D01*
X103463813Y-105877927D01*
X103490237Y-105892051D01*
X103713611Y-105959810D01*
X103887704Y-105976957D01*
X104004118Y-105976957D01*
X104178211Y-105959810D01*
X104401585Y-105892051D01*
X104607447Y-105782015D01*
X104787886Y-105633932D01*
X104935969Y-105453493D01*
X105046005Y-105247631D01*
X105113764Y-105024257D01*
X105136644Y-104791957D01*
X105113764Y-104559657D01*
X105046005Y-104336283D01*
X104935969Y-104130421D01*
X104787886Y-103949982D01*
X104607447Y-103801899D01*
X104401585Y-103691863D01*
X104178211Y-103624104D01*
X104004118Y-103606957D01*
X103887704Y-103606957D01*
X103713611Y-103624104D01*
X103490237Y-103691863D01*
X103284375Y-103801899D01*
X103103936Y-103949982D01*
X102955853Y-104130421D01*
X102845817Y-104336283D01*
X102778058Y-104559657D01*
X102755178Y-104791957D01*
X102778058Y-105024257D01*
X102845817Y-105247631D01*
X102955853Y-105453493D01*
X102959915Y-105458443D01*
X102859021Y-105410386D01*
X102576827Y-105338880D01*
X102286106Y-105323802D01*
X101998029Y-105365731D01*
X101723668Y-105463055D01*
X101588003Y-105535574D01*
X101511233Y-105783918D01*
X99435000Y-105783918D01*
X99435000Y-105180182D01*
X101378860Y-103236322D01*
X104735077Y-103236322D01*
X104757957Y-103468622D01*
X104825716Y-103691996D01*
X104935752Y-103897858D01*
X105083835Y-104078297D01*
X105264274Y-104226380D01*
X105470136Y-104336416D01*
X105693510Y-104404175D01*
X105867603Y-104421322D01*
X105984017Y-104421322D01*
X106158110Y-104404175D01*
X106381484Y-104336416D01*
X106587346Y-104226380D01*
X106767785Y-104078297D01*
X106915868Y-103897858D01*
X107025904Y-103691996D01*
X107093663Y-103468622D01*
X107116543Y-103236322D01*
X107093663Y-103004022D01*
X107025904Y-102780648D01*
X106915868Y-102574786D01*
X106767785Y-102394347D01*
X106587346Y-102246264D01*
X106381484Y-102136228D01*
X106158110Y-102068469D01*
X105984017Y-102051322D01*
X105867603Y-102051322D01*
X105693510Y-102068469D01*
X105470136Y-102136228D01*
X105264274Y-102246264D01*
X105083835Y-102394347D01*
X104935752Y-102574786D01*
X104825716Y-102780648D01*
X104757957Y-103004022D01*
X104735077Y-103236322D01*
X101378860Y-103236322D01*
X103394114Y-101221068D01*
X106326067Y-101221068D01*
X106348947Y-101453368D01*
X106416706Y-101676742D01*
X106526742Y-101882604D01*
X106674825Y-102063043D01*
X106855264Y-102211126D01*
X107061126Y-102321162D01*
X107284500Y-102388921D01*
X107458593Y-102406068D01*
X107575007Y-102406068D01*
X107749100Y-102388921D01*
X107972474Y-102321162D01*
X108178336Y-102211126D01*
X108358775Y-102063043D01*
X108506858Y-101882604D01*
X108616894Y-101676742D01*
X108684653Y-101453368D01*
X108707533Y-101221068D01*
X108684653Y-100988768D01*
X108616894Y-100765394D01*
X108506858Y-100559532D01*
X108358775Y-100379093D01*
X108178336Y-100231010D01*
X107972474Y-100120974D01*
X107749100Y-100053215D01*
X107575007Y-100036068D01*
X107458593Y-100036068D01*
X107284500Y-100053215D01*
X107061126Y-100120974D01*
X106855264Y-100231010D01*
X106674825Y-100379093D01*
X106526742Y-100559532D01*
X106416706Y-100765394D01*
X106348947Y-100988768D01*
X106326067Y-101221068D01*
X103394114Y-101221068D01*
X104985104Y-99630078D01*
X108341321Y-99630078D01*
X108364201Y-99862378D01*
X108431960Y-100085752D01*
X108541996Y-100291614D01*
X108690079Y-100472053D01*
X108870518Y-100620136D01*
X109076380Y-100730172D01*
X109299754Y-100797931D01*
X109473847Y-100815078D01*
X109590261Y-100815078D01*
X109764354Y-100797931D01*
X109987728Y-100730172D01*
X110193590Y-100620136D01*
X110374029Y-100472053D01*
X110522112Y-100291614D01*
X110632148Y-100085752D01*
X110699907Y-99862378D01*
X110722787Y-99630078D01*
X110699907Y-99397778D01*
X110632148Y-99174404D01*
X110522112Y-98968542D01*
X110374029Y-98788103D01*
X110193590Y-98640020D01*
X109987728Y-98529984D01*
X109764354Y-98462225D01*
X109590261Y-98445078D01*
X109473847Y-98445078D01*
X109299754Y-98462225D01*
X109076380Y-98529984D01*
X108870518Y-98640020D01*
X108690079Y-98788103D01*
X108541996Y-98968542D01*
X108431960Y-99174404D01*
X108364201Y-99397778D01*
X108341321Y-99630078D01*
X104985104Y-99630078D01*
X107000359Y-97614823D01*
X109932312Y-97614823D01*
X109955192Y-97847123D01*
X110022951Y-98070497D01*
X110132987Y-98276359D01*
X110281070Y-98456798D01*
X110461509Y-98604881D01*
X110667371Y-98714917D01*
X110890745Y-98782676D01*
X111064838Y-98799823D01*
X111181252Y-98799823D01*
X111355345Y-98782676D01*
X111578719Y-98714917D01*
X111784581Y-98604881D01*
X111965020Y-98456798D01*
X112113103Y-98276359D01*
X112223139Y-98070497D01*
X112290898Y-97847123D01*
X112313778Y-97614823D01*
X112290898Y-97382523D01*
X112223139Y-97159149D01*
X112113103Y-96953287D01*
X111965020Y-96772848D01*
X111784581Y-96624765D01*
X111578719Y-96514729D01*
X111355345Y-96446970D01*
X111181252Y-96429823D01*
X111064838Y-96429823D01*
X110890745Y-96446970D01*
X110667371Y-96514729D01*
X110461509Y-96624765D01*
X110281070Y-96772848D01*
X110132987Y-96953287D01*
X110022951Y-97159149D01*
X109955192Y-97382523D01*
X109932312Y-97614823D01*
X107000359Y-97614823D01*
X108591349Y-96023833D01*
X111947566Y-96023833D01*
X111970446Y-96256133D01*
X112038205Y-96479507D01*
X112148241Y-96685369D01*
X112296324Y-96865808D01*
X112476763Y-97013891D01*
X112682625Y-97123927D01*
X112905999Y-97191686D01*
X113080092Y-97208833D01*
X113196506Y-97208833D01*
X113370599Y-97191686D01*
X113593973Y-97123927D01*
X113799835Y-97013891D01*
X113980274Y-96865808D01*
X114128357Y-96685369D01*
X114238393Y-96479507D01*
X114306152Y-96256133D01*
X114329032Y-96023833D01*
X114306152Y-95791533D01*
X114238393Y-95568159D01*
X114128357Y-95362297D01*
X113980274Y-95181858D01*
X113799835Y-95033775D01*
X113593973Y-94923739D01*
X113370599Y-94855980D01*
X113196506Y-94838833D01*
X113080092Y-94838833D01*
X112905999Y-94855980D01*
X112682625Y-94923739D01*
X112476763Y-95033775D01*
X112296324Y-95181858D01*
X112148241Y-95362297D01*
X112038205Y-95568159D01*
X111970446Y-95791533D01*
X111947566Y-96023833D01*
X108591349Y-96023833D01*
X110571248Y-94043934D01*
X113155232Y-94043934D01*
X113161700Y-94109605D01*
X113180856Y-94172753D01*
X113211963Y-94230950D01*
X113253826Y-94281960D01*
X114455908Y-95484042D01*
X114506918Y-95525905D01*
X114565115Y-95557012D01*
X114628263Y-95576168D01*
X114693934Y-95582636D01*
X114759605Y-95576168D01*
X114822753Y-95557012D01*
X114880950Y-95525905D01*
X114931960Y-95484042D01*
X116134042Y-94281960D01*
X116175905Y-94230950D01*
X116207012Y-94172753D01*
X116226168Y-94109605D01*
X116232636Y-94043934D01*
X116226168Y-93978263D01*
X116207012Y-93915115D01*
X116175905Y-93856918D01*
X116134042Y-93805908D01*
X115433383Y-93105249D01*
X131015000Y-93105249D01*
X131015000Y-93594751D01*
X131110497Y-94074848D01*
X131297821Y-94527089D01*
X131569774Y-94934095D01*
X131915905Y-95280226D01*
X132322911Y-95552179D01*
X132775152Y-95739503D01*
X133255249Y-95835000D01*
X133744751Y-95835000D01*
X134224848Y-95739503D01*
X134677089Y-95552179D01*
X135084095Y-95280226D01*
X135430226Y-94934095D01*
X135702179Y-94527089D01*
X135889503Y-94074848D01*
X135985000Y-93594751D01*
X135985000Y-93105249D01*
X186015000Y-93105249D01*
X186015000Y-93594751D01*
X186110497Y-94074848D01*
X186297821Y-94527089D01*
X186569774Y-94934095D01*
X186915905Y-95280226D01*
X187322911Y-95552179D01*
X187775152Y-95739503D01*
X188255249Y-95835000D01*
X188744751Y-95835000D01*
X189224848Y-95739503D01*
X189677089Y-95552179D01*
X190084095Y-95280226D01*
X190430226Y-94934095D01*
X190702179Y-94527089D01*
X190889503Y-94074848D01*
X190985000Y-93594751D01*
X190985000Y-93105249D01*
X190889503Y-92625152D01*
X190702179Y-92172911D01*
X190430226Y-91765905D01*
X190084095Y-91419774D01*
X189992640Y-91358665D01*
X194315000Y-91358665D01*
X194315000Y-91641335D01*
X194370147Y-91918574D01*
X194478320Y-92179727D01*
X194635363Y-92414759D01*
X194835241Y-92614637D01*
X195070273Y-92771680D01*
X195331426Y-92879853D01*
X195608665Y-92935000D01*
X195891335Y-92935000D01*
X196168574Y-92879853D01*
X196429727Y-92771680D01*
X196664759Y-92614637D01*
X196864637Y-92414759D01*
X197021680Y-92179727D01*
X197129853Y-91918574D01*
X197185000Y-91641335D01*
X197185000Y-91358665D01*
X197129853Y-91081426D01*
X197021680Y-90820273D01*
X196864637Y-90585241D01*
X196664759Y-90385363D01*
X196429727Y-90228320D01*
X196168574Y-90120147D01*
X195891335Y-90065000D01*
X195608665Y-90065000D01*
X195331426Y-90120147D01*
X195070273Y-90228320D01*
X194835241Y-90385363D01*
X194635363Y-90585241D01*
X194478320Y-90820273D01*
X194370147Y-91081426D01*
X194315000Y-91358665D01*
X189992640Y-91358665D01*
X189677089Y-91147821D01*
X189224848Y-90960497D01*
X188744751Y-90865000D01*
X188255249Y-90865000D01*
X187775152Y-90960497D01*
X187322911Y-91147821D01*
X186915905Y-91419774D01*
X186569774Y-91765905D01*
X186297821Y-92172911D01*
X186110497Y-92625152D01*
X186015000Y-93105249D01*
X135985000Y-93105249D01*
X135889503Y-92625152D01*
X135702179Y-92172911D01*
X135430226Y-91765905D01*
X135084095Y-91419774D01*
X134733854Y-91185750D01*
X158565000Y-91185750D01*
X158565000Y-92462542D01*
X158589403Y-92585223D01*
X158637270Y-92700785D01*
X158706763Y-92804789D01*
X158795211Y-92893237D01*
X158899215Y-92962730D01*
X159014777Y-93010597D01*
X159137458Y-93035000D01*
X160714250Y-93035000D01*
X160873000Y-92876250D01*
X160873000Y-91027000D01*
X161127000Y-91027000D01*
X161127000Y-92876250D01*
X161285750Y-93035000D01*
X162862542Y-93035000D01*
X162985223Y-93010597D01*
X163100785Y-92962730D01*
X163204789Y-92893237D01*
X163293237Y-92804789D01*
X163362730Y-92700785D01*
X163410597Y-92585223D01*
X163435000Y-92462542D01*
X163435000Y-91185750D01*
X163276250Y-91027000D01*
X161127000Y-91027000D01*
X160873000Y-91027000D01*
X158723750Y-91027000D01*
X158565000Y-91185750D01*
X134733854Y-91185750D01*
X134677089Y-91147821D01*
X134224848Y-90960497D01*
X133744751Y-90865000D01*
X133255249Y-90865000D01*
X132775152Y-90960497D01*
X132322911Y-91147821D01*
X131915905Y-91419774D01*
X131569774Y-91765905D01*
X131297821Y-92172911D01*
X131110497Y-92625152D01*
X131015000Y-93105249D01*
X115433383Y-93105249D01*
X114931960Y-92603826D01*
X114880950Y-92561963D01*
X114822753Y-92530856D01*
X114759605Y-92511700D01*
X114693934Y-92505232D01*
X114628263Y-92511700D01*
X114565115Y-92530856D01*
X114506918Y-92561963D01*
X114455908Y-92603826D01*
X113253826Y-93805908D01*
X113211963Y-93856918D01*
X113180856Y-93915115D01*
X113161700Y-93978263D01*
X113155232Y-94043934D01*
X110571248Y-94043934D01*
X113256517Y-91358665D01*
X117315000Y-91358665D01*
X117315000Y-91641335D01*
X117370147Y-91918574D01*
X117478320Y-92179727D01*
X117635363Y-92414759D01*
X117835241Y-92614637D01*
X118070273Y-92771680D01*
X118331426Y-92879853D01*
X118608665Y-92935000D01*
X118891335Y-92935000D01*
X119168574Y-92879853D01*
X119429727Y-92771680D01*
X119664759Y-92614637D01*
X119864637Y-92414759D01*
X120021680Y-92179727D01*
X120129853Y-91918574D01*
X120185000Y-91641335D01*
X120185000Y-91358665D01*
X120129853Y-91081426D01*
X120021680Y-90820273D01*
X119864637Y-90585241D01*
X119664759Y-90385363D01*
X119429727Y-90228320D01*
X119168574Y-90120147D01*
X118891335Y-90065000D01*
X118608665Y-90065000D01*
X118331426Y-90120147D01*
X118070273Y-90228320D01*
X117835241Y-90385363D01*
X117635363Y-90585241D01*
X117478320Y-90820273D01*
X117370147Y-91081426D01*
X117315000Y-91358665D01*
X113256517Y-91358665D01*
X115731894Y-88883288D01*
X118815000Y-88883288D01*
X118815000Y-89116712D01*
X118860539Y-89345652D01*
X118949866Y-89561308D01*
X119079550Y-89755394D01*
X119244606Y-89920450D01*
X119438692Y-90050134D01*
X119654348Y-90139461D01*
X119883288Y-90185000D01*
X120116712Y-90185000D01*
X120345652Y-90139461D01*
X120561308Y-90050134D01*
X120593839Y-90028397D01*
X123651208Y-90028397D01*
X123728843Y-90277472D01*
X123992883Y-90403371D01*
X124276411Y-90475339D01*
X124568531Y-90490611D01*
X124757403Y-90463201D01*
X124635363Y-90585241D01*
X124478320Y-90820273D01*
X124370147Y-91081426D01*
X124315000Y-91358665D01*
X124315000Y-91641335D01*
X124370147Y-91918574D01*
X124478320Y-92179727D01*
X124635363Y-92414759D01*
X124835241Y-92614637D01*
X125070273Y-92771680D01*
X125331426Y-92879853D01*
X125608665Y-92935000D01*
X125891335Y-92935000D01*
X126168574Y-92879853D01*
X126429727Y-92771680D01*
X126664759Y-92614637D01*
X126864637Y-92414759D01*
X127021680Y-92179727D01*
X127129853Y-91918574D01*
X127185000Y-91641335D01*
X127185000Y-91358665D01*
X127129853Y-91081426D01*
X127021680Y-90820273D01*
X126864637Y-90585241D01*
X126664759Y-90385363D01*
X126429727Y-90228320D01*
X126168574Y-90120147D01*
X125891335Y-90065000D01*
X125608665Y-90065000D01*
X125331426Y-90120147D01*
X125318529Y-90125489D01*
X125348792Y-90028397D01*
X124500000Y-89179605D01*
X123651208Y-90028397D01*
X120593839Y-90028397D01*
X120755394Y-89920450D01*
X120920450Y-89755394D01*
X121050134Y-89561308D01*
X121139461Y-89345652D01*
X121185000Y-89116712D01*
X121185000Y-89068531D01*
X123009389Y-89068531D01*
X123051401Y-89358019D01*
X123149081Y-89633747D01*
X123222528Y-89771157D01*
X123471603Y-89848792D01*
X124320395Y-89000000D01*
X124679605Y-89000000D01*
X125528397Y-89848792D01*
X125777472Y-89771157D01*
X125903371Y-89507117D01*
X125975339Y-89223589D01*
X125990611Y-88931469D01*
X125948599Y-88641981D01*
X125850919Y-88366253D01*
X125777472Y-88228843D01*
X125528397Y-88151208D01*
X124679605Y-89000000D01*
X124320395Y-89000000D01*
X123471603Y-88151208D01*
X123222528Y-88228843D01*
X123096629Y-88492883D01*
X123024661Y-88776411D01*
X123009389Y-89068531D01*
X121185000Y-89068531D01*
X121185000Y-88883288D01*
X121139461Y-88654348D01*
X121050134Y-88438692D01*
X120920450Y-88244606D01*
X120755394Y-88079550D01*
X120593840Y-87971603D01*
X123651208Y-87971603D01*
X124500000Y-88820395D01*
X125348792Y-87971603D01*
X125271157Y-87722528D01*
X125007117Y-87596629D01*
X124723589Y-87524661D01*
X124431469Y-87509389D01*
X124141981Y-87551401D01*
X123866253Y-87649081D01*
X123728843Y-87722528D01*
X123651208Y-87971603D01*
X120593840Y-87971603D01*
X120561308Y-87949866D01*
X120345652Y-87860539D01*
X120116712Y-87815000D01*
X119883288Y-87815000D01*
X119654348Y-87860539D01*
X119438692Y-87949866D01*
X119244606Y-88079550D01*
X119079550Y-88244606D01*
X118949866Y-88438692D01*
X118860539Y-88654348D01*
X118815000Y-88883288D01*
X115731894Y-88883288D01*
X118180183Y-86435000D01*
X123021362Y-86435000D01*
X123043678Y-86432802D01*
X123059900Y-86432802D01*
X123065941Y-86432167D01*
X123308378Y-86404974D01*
X123346902Y-86396785D01*
X123385620Y-86389119D01*
X123391422Y-86387322D01*
X123623960Y-86313556D01*
X123660179Y-86298032D01*
X123696646Y-86283002D01*
X123701989Y-86280113D01*
X123915771Y-86162586D01*
X123948284Y-86140323D01*
X123968337Y-86127000D01*
X128397420Y-86127000D01*
X128407001Y-86134814D01*
X128407001Y-86134814D01*
G37*
X128407001Y-86134814D02*
X128439784Y-86156595D01*
X128472370Y-86178907D01*
X128477714Y-86181796D01*
X128693115Y-86296327D01*
X128729567Y-86311351D01*
X128765804Y-86326883D01*
X128771603Y-86328678D01*
X128771609Y-86328680D01*
X129005152Y-86399190D01*
X129043787Y-86406840D01*
X129082391Y-86415045D01*
X129088432Y-86415680D01*
X129331224Y-86439486D01*
X129416121Y-86439485D01*
X129438773Y-86435000D01*
X133065001Y-86435000D01*
X133065000Y-87521361D01*
X133066960Y-87541262D01*
X133066851Y-87556878D01*
X133067444Y-87562923D01*
X133118445Y-88048165D01*
X133126368Y-88086763D01*
X133133760Y-88125513D01*
X133135516Y-88131328D01*
X133279796Y-88597422D01*
X133295059Y-88633731D01*
X133309843Y-88670323D01*
X133312695Y-88675686D01*
X133544759Y-89104878D01*
X133566780Y-89137525D01*
X133588393Y-89170554D01*
X133592232Y-89175261D01*
X133903241Y-89551206D01*
X133931168Y-89578938D01*
X133958801Y-89607157D01*
X133963482Y-89611028D01*
X134341589Y-89919404D01*
X134374379Y-89941190D01*
X134406958Y-89963497D01*
X134412301Y-89966385D01*
X134843104Y-90195447D01*
X134879530Y-90210461D01*
X134915792Y-90226003D01*
X134921595Y-90227799D01*
X135388685Y-90368822D01*
X135427335Y-90376474D01*
X135465925Y-90384677D01*
X135471966Y-90385312D01*
X135957552Y-90432924D01*
X135957560Y-90432924D01*
X135978638Y-90435000D01*
X141021362Y-90435000D01*
X141041263Y-90433040D01*
X141056878Y-90433149D01*
X141062923Y-90432556D01*
X141548165Y-90381555D01*
X141586763Y-90373632D01*
X141625513Y-90366240D01*
X141631328Y-90364484D01*
X142097422Y-90220204D01*
X142133731Y-90204941D01*
X142170323Y-90190157D01*
X142175686Y-90187305D01*
X142604878Y-89955241D01*
X142637525Y-89933220D01*
X142670554Y-89911607D01*
X142675261Y-89907768D01*
X143051206Y-89596759D01*
X143078938Y-89568832D01*
X143107157Y-89541199D01*
X143111028Y-89536518D01*
X143273377Y-89337458D01*
X158565000Y-89337458D01*
X158565000Y-90614250D01*
X158723750Y-90773000D01*
X160873000Y-90773000D01*
X160873000Y-88923750D01*
X161127000Y-88923750D01*
X161127000Y-90773000D01*
X163276250Y-90773000D01*
X163435000Y-90614250D01*
X163435000Y-89337458D01*
X163410597Y-89214777D01*
X163362730Y-89099215D01*
X163293237Y-88995211D01*
X163204789Y-88906763D01*
X163100785Y-88837270D01*
X162985223Y-88789403D01*
X162862542Y-88765000D01*
X161285750Y-88765000D01*
X161127000Y-88923750D01*
X160873000Y-88923750D01*
X160714250Y-88765000D01*
X159137458Y-88765000D01*
X159014777Y-88789403D01*
X158899215Y-88837270D01*
X158795211Y-88906763D01*
X158706763Y-88995211D01*
X158637270Y-89099215D01*
X158589403Y-89214777D01*
X158565000Y-89337458D01*
X143273377Y-89337458D01*
X143419404Y-89158411D01*
X143441190Y-89125621D01*
X143463497Y-89093042D01*
X143466385Y-89087699D01*
X143695447Y-88656896D01*
X143710461Y-88620470D01*
X143726003Y-88584208D01*
X143727799Y-88578405D01*
X143868822Y-88111315D01*
X143876474Y-88072665D01*
X143884677Y-88034075D01*
X143885312Y-88028034D01*
X143932924Y-87542448D01*
X143932924Y-87542440D01*
X143935000Y-87521362D01*
X143935000Y-86435000D01*
X178065001Y-86435000D01*
X178065000Y-87521361D01*
X178066960Y-87541262D01*
X178066851Y-87556878D01*
X178067444Y-87562923D01*
X178118445Y-88048165D01*
X178126368Y-88086763D01*
X178133760Y-88125513D01*
X178135516Y-88131328D01*
X178279796Y-88597422D01*
X178295059Y-88633731D01*
X178309843Y-88670323D01*
X178312695Y-88675686D01*
X178544759Y-89104878D01*
X178566780Y-89137525D01*
X178588393Y-89170554D01*
X178592232Y-89175261D01*
X178903241Y-89551206D01*
X178931168Y-89578938D01*
X178958801Y-89607157D01*
X178963482Y-89611028D01*
X179341589Y-89919404D01*
X179374379Y-89941190D01*
X179406958Y-89963497D01*
X179412301Y-89966385D01*
X179843104Y-90195447D01*
X179879530Y-90210461D01*
X179915792Y-90226003D01*
X179921595Y-90227799D01*
X180388685Y-90368822D01*
X180427335Y-90376474D01*
X180465925Y-90384677D01*
X180471966Y-90385312D01*
X180957552Y-90432924D01*
X180957560Y-90432924D01*
X180978638Y-90435000D01*
X186021362Y-90435000D01*
X186041263Y-90433040D01*
X186056878Y-90433149D01*
X186062923Y-90432556D01*
X186548165Y-90381555D01*
X186586763Y-90373632D01*
X186625513Y-90366240D01*
X186631328Y-90364484D01*
X187097422Y-90220204D01*
X187133731Y-90204941D01*
X187170323Y-90190157D01*
X187175686Y-90187305D01*
X187604878Y-89955241D01*
X187637525Y-89933220D01*
X187670554Y-89911607D01*
X187675261Y-89907768D01*
X188051206Y-89596759D01*
X188078938Y-89568832D01*
X188107157Y-89541199D01*
X188111028Y-89536518D01*
X188419404Y-89158411D01*
X188441190Y-89125621D01*
X188463497Y-89093042D01*
X188466385Y-89087699D01*
X188575072Y-88883288D01*
X195815000Y-88883288D01*
X195815000Y-89116712D01*
X195860539Y-89345652D01*
X195949866Y-89561308D01*
X196079550Y-89755394D01*
X196244606Y-89920450D01*
X196438692Y-90050134D01*
X196654348Y-90139461D01*
X196883288Y-90185000D01*
X197116712Y-90185000D01*
X197345652Y-90139461D01*
X197561308Y-90050134D01*
X197593839Y-90028397D01*
X200651208Y-90028397D01*
X200728843Y-90277472D01*
X200992883Y-90403371D01*
X201276411Y-90475339D01*
X201568531Y-90490611D01*
X201757403Y-90463201D01*
X201635363Y-90585241D01*
X201478320Y-90820273D01*
X201370147Y-91081426D01*
X201315000Y-91358665D01*
X201315000Y-91641335D01*
X201370147Y-91918574D01*
X201478320Y-92179727D01*
X201635363Y-92414759D01*
X201835241Y-92614637D01*
X202070273Y-92771680D01*
X202331426Y-92879853D01*
X202608665Y-92935000D01*
X202891335Y-92935000D01*
X203168574Y-92879853D01*
X203429727Y-92771680D01*
X203664759Y-92614637D01*
X203864637Y-92414759D01*
X204021680Y-92179727D01*
X204129853Y-91918574D01*
X204185000Y-91641335D01*
X204185000Y-91358665D01*
X204129853Y-91081426D01*
X204021680Y-90820273D01*
X203864637Y-90585241D01*
X203664759Y-90385363D01*
X203429727Y-90228320D01*
X203168574Y-90120147D01*
X202891335Y-90065000D01*
X202608665Y-90065000D01*
X202331426Y-90120147D01*
X202318529Y-90125489D01*
X202348792Y-90028397D01*
X201500000Y-89179605D01*
X200651208Y-90028397D01*
X197593839Y-90028397D01*
X197755394Y-89920450D01*
X197920450Y-89755394D01*
X198050134Y-89561308D01*
X198139461Y-89345652D01*
X198185000Y-89116712D01*
X198185000Y-89068531D01*
X200009389Y-89068531D01*
X200051401Y-89358019D01*
X200149081Y-89633747D01*
X200222528Y-89771157D01*
X200471603Y-89848792D01*
X201320395Y-89000000D01*
X201679605Y-89000000D01*
X202528397Y-89848792D01*
X202777472Y-89771157D01*
X202903371Y-89507117D01*
X202975339Y-89223589D01*
X202990611Y-88931469D01*
X202948599Y-88641981D01*
X202850919Y-88366253D01*
X202777472Y-88228843D01*
X202528397Y-88151208D01*
X201679605Y-89000000D01*
X201320395Y-89000000D01*
X200471603Y-88151208D01*
X200222528Y-88228843D01*
X200096629Y-88492883D01*
X200024661Y-88776411D01*
X200009389Y-89068531D01*
X198185000Y-89068531D01*
X198185000Y-88883288D01*
X198139461Y-88654348D01*
X198050134Y-88438692D01*
X197920450Y-88244606D01*
X197755394Y-88079550D01*
X197593840Y-87971603D01*
X200651208Y-87971603D01*
X201500000Y-88820395D01*
X202348792Y-87971603D01*
X202271157Y-87722528D01*
X202007117Y-87596629D01*
X201723589Y-87524661D01*
X201431469Y-87509389D01*
X201141981Y-87551401D01*
X200866253Y-87649081D01*
X200728843Y-87722528D01*
X200651208Y-87971603D01*
X197593840Y-87971603D01*
X197561308Y-87949866D01*
X197345652Y-87860539D01*
X197116712Y-87815000D01*
X196883288Y-87815000D01*
X196654348Y-87860539D01*
X196438692Y-87949866D01*
X196244606Y-88079550D01*
X196079550Y-88244606D01*
X195949866Y-88438692D01*
X195860539Y-88654348D01*
X195815000Y-88883288D01*
X188575072Y-88883288D01*
X188695447Y-88656896D01*
X188710461Y-88620470D01*
X188726003Y-88584208D01*
X188727799Y-88578405D01*
X188868822Y-88111315D01*
X188876474Y-88072665D01*
X188884677Y-88034075D01*
X188885312Y-88028034D01*
X188932924Y-87542448D01*
X188932924Y-87542440D01*
X188935000Y-87521362D01*
X188935000Y-86435000D01*
X191521362Y-86435000D01*
X191543678Y-86432802D01*
X191559900Y-86432802D01*
X191565941Y-86432167D01*
X191808378Y-86404974D01*
X191846902Y-86396785D01*
X191885620Y-86389119D01*
X191891422Y-86387322D01*
X192123960Y-86313556D01*
X192160179Y-86298032D01*
X192196646Y-86283002D01*
X192201989Y-86280113D01*
X192415771Y-86162586D01*
X192448284Y-86140323D01*
X192468337Y-86127000D01*
X197031793Y-86127000D01*
X197033328Y-86128252D01*
X197066111Y-86150033D01*
X197098697Y-86172345D01*
X197104041Y-86175234D01*
X197319442Y-86289765D01*
X197355894Y-86304789D01*
X197392131Y-86320321D01*
X197397930Y-86322116D01*
X197397936Y-86322118D01*
X197631479Y-86392628D01*
X197670114Y-86400278D01*
X197708718Y-86408483D01*
X197714759Y-86409118D01*
X197957551Y-86432924D01*
X197957560Y-86432924D01*
X197978638Y-86435000D01*
X202819818Y-86435000D01*
X222565001Y-106180184D01*
X222565000Y-107271361D01*
X222567198Y-107293677D01*
X222567198Y-107309900D01*
X222567833Y-107315941D01*
X222595026Y-107558378D01*
X222603215Y-107596902D01*
X222610881Y-107635620D01*
X222612678Y-107641422D01*
X222686444Y-107873960D01*
X222701968Y-107910179D01*
X222716998Y-107946646D01*
X222719887Y-107951989D01*
X222837414Y-108165771D01*
X222859677Y-108198284D01*
X222873000Y-108218337D01*
X222873000Y-112781792D01*
X222871747Y-112783328D01*
X222849934Y-112816160D01*
X222827655Y-112848697D01*
X222824766Y-112854040D01*
X222710235Y-113069442D01*
X222695218Y-113105877D01*
X222679679Y-113142131D01*
X222677883Y-113147934D01*
X222607372Y-113381479D01*
X222599716Y-113420146D01*
X222591517Y-113458718D01*
X222590882Y-113464759D01*
X222567076Y-113707552D01*
X222567076Y-113707561D01*
X222565000Y-113728639D01*
X222565001Y-116357908D01*
X222504501Y-116364694D01*
X222465968Y-116372885D01*
X222427261Y-116380549D01*
X222421459Y-116382345D01*
X222021494Y-116509221D01*
X221985290Y-116524739D01*
X221948805Y-116539776D01*
X221943463Y-116542665D01*
X221575758Y-116744813D01*
X221543254Y-116767069D01*
X221510388Y-116788905D01*
X221505708Y-116792777D01*
X221184271Y-117062495D01*
X221156692Y-117090658D01*
X221128711Y-117118444D01*
X221124872Y-117123151D01*
X220861945Y-117450166D01*
X220840364Y-117483145D01*
X220818310Y-117515842D01*
X220815459Y-117521205D01*
X220621056Y-117893062D01*
X220606294Y-117929600D01*
X220591009Y-117965962D01*
X220589254Y-117971777D01*
X220470781Y-118374311D01*
X220463400Y-118413006D01*
X220455465Y-118451660D01*
X220454872Y-118457705D01*
X220416842Y-118875585D01*
X220417117Y-118915000D01*
X220416842Y-118954435D01*
X220417435Y-118960480D01*
X220461296Y-119377788D01*
X220469219Y-119416386D01*
X220476611Y-119455136D01*
X220478367Y-119460951D01*
X220602448Y-119861792D01*
X220617711Y-119898101D01*
X220632495Y-119934693D01*
X220635347Y-119940056D01*
X220834922Y-120309161D01*
X220856931Y-120341791D01*
X220878556Y-120374838D01*
X220882396Y-120379544D01*
X221149863Y-120702856D01*
X221177825Y-120730624D01*
X221205423Y-120758806D01*
X221210103Y-120762678D01*
X221535275Y-121027882D01*
X221568115Y-121049700D01*
X221600645Y-121071975D01*
X221605988Y-121074863D01*
X221976480Y-121271857D01*
X222012912Y-121286873D01*
X222049167Y-121302412D01*
X222054970Y-121304208D01*
X222456667Y-121425488D01*
X222495317Y-121433140D01*
X222533907Y-121441343D01*
X222539948Y-121441978D01*
X222565001Y-121444434D01*
X222565000Y-123819817D01*
X217819818Y-128565000D01*
X163542092Y-128565000D01*
X163535306Y-128504501D01*
X163527115Y-128465968D01*
X163519451Y-128427261D01*
X163517655Y-128421459D01*
X163390779Y-128021494D01*
X163375261Y-127985290D01*
X163360224Y-127948805D01*
X163357335Y-127943463D01*
X163155187Y-127575758D01*
X163132931Y-127543254D01*
X163111095Y-127510388D01*
X163107223Y-127505708D01*
X162837505Y-127184271D01*
X162809342Y-127156692D01*
X162781556Y-127128711D01*
X162776849Y-127124872D01*
X162449834Y-126861945D01*
X162416855Y-126840364D01*
X162384158Y-126818310D01*
X162378795Y-126815459D01*
X162006938Y-126621056D01*
X161970400Y-126606294D01*
X161934038Y-126591009D01*
X161928223Y-126589254D01*
X161525689Y-126470781D01*
X161486994Y-126463400D01*
X161448340Y-126455465D01*
X161442295Y-126454872D01*
X161024415Y-126416842D01*
X160984990Y-126417117D01*
X160945565Y-126416842D01*
X160939520Y-126417435D01*
X160522212Y-126461296D01*
X160483589Y-126469224D01*
X160444863Y-126476611D01*
X160439049Y-126478367D01*
X160038208Y-126602448D01*
X160001870Y-126617723D01*
X159965307Y-126632495D01*
X159959944Y-126635347D01*
X159590838Y-126834922D01*
X159558191Y-126856943D01*
X159525162Y-126878556D01*
X159520455Y-126882396D01*
X159197144Y-127149863D01*
X159169376Y-127177825D01*
X159141194Y-127205423D01*
X159137322Y-127210103D01*
X158872118Y-127535275D01*
X158850310Y-127568099D01*
X158828025Y-127600645D01*
X158825137Y-127605988D01*
X158628144Y-127976479D01*
X158613135Y-128012893D01*
X158597588Y-128049167D01*
X158595792Y-128054970D01*
X158474512Y-128456667D01*
X158466860Y-128495317D01*
X158458657Y-128533907D01*
X158458022Y-128539947D01*
X158455566Y-128565000D01*
X156978638Y-128565000D01*
X156956322Y-128567198D01*
X156940100Y-128567198D01*
X156934059Y-128567833D01*
X156691622Y-128595026D01*
X156653085Y-128603217D01*
X156614380Y-128610881D01*
X156608578Y-128612677D01*
X156376041Y-128686444D01*
X156339835Y-128701962D01*
X156303354Y-128716998D01*
X156298011Y-128719887D01*
X156084229Y-128837414D01*
X156051693Y-128859692D01*
X156031662Y-128873000D01*
X151468208Y-128873000D01*
X151466672Y-128871747D01*
X151433840Y-128849934D01*
X151401303Y-128827655D01*
X151395960Y-128824766D01*
X151180558Y-128710235D01*
X151144123Y-128695218D01*
X151107869Y-128679679D01*
X151102066Y-128677883D01*
X150868521Y-128607372D01*
X150829854Y-128599716D01*
X150791282Y-128591517D01*
X150785241Y-128590882D01*
X150542448Y-128567076D01*
X150542440Y-128567076D01*
X150521362Y-128565000D01*
X137478638Y-128565000D01*
X137460883Y-128566749D01*
X137453361Y-128566670D01*
X137447314Y-128567242D01*
X136961897Y-128616549D01*
X136923279Y-128624336D01*
X136884496Y-128631594D01*
X136878675Y-128633329D01*
X136412081Y-128775981D01*
X136375701Y-128791125D01*
X136339075Y-128805774D01*
X136333702Y-128808607D01*
X136213610Y-128873000D01*
X117430744Y-128873000D01*
X115867941Y-127310197D01*
X115826739Y-127282667D01*
X115778138Y-127273000D01*
X113578138Y-127273000D01*
X113529537Y-127282667D01*
X113488335Y-127310197D01*
X111925532Y-128873000D01*
X104488182Y-128873000D01*
X99435000Y-123819818D01*
X99435000Y-123427609D01*
X124265000Y-123427609D01*
X124265000Y-123572391D01*
X124293246Y-123714391D01*
X124348652Y-123848153D01*
X124429088Y-123968535D01*
X124531465Y-124070912D01*
X124651847Y-124151348D01*
X124785609Y-124206754D01*
X124927609Y-124235000D01*
X125072391Y-124235000D01*
X125214391Y-124206754D01*
X125348153Y-124151348D01*
X125468535Y-124070912D01*
X125570912Y-123968535D01*
X125651348Y-123848153D01*
X125706754Y-123714391D01*
X125735000Y-123572391D01*
X125735000Y-123535001D01*
X127828645Y-123535001D01*
X127849999Y-123537104D01*
X127871353Y-123535001D01*
X127871361Y-123535001D01*
X127935274Y-123528706D01*
X128017271Y-123503832D01*
X128092841Y-123463440D01*
X128159078Y-123409080D01*
X128172699Y-123392483D01*
X136253424Y-115311759D01*
X140140087Y-119198423D01*
X140140092Y-119198427D01*
X140584151Y-119642487D01*
X140597768Y-119659079D01*
X140664005Y-119713439D01*
X140739575Y-119753831D01*
X140796697Y-119771159D01*
X140821571Y-119778705D01*
X140829861Y-119779521D01*
X140885485Y-119785000D01*
X140885492Y-119785000D01*
X140906846Y-119787103D01*
X140928200Y-119785000D01*
X141978646Y-119785000D01*
X142000000Y-119787103D01*
X142021354Y-119785000D01*
X143065001Y-119785000D01*
X143065000Y-124906681D01*
X143031465Y-124929088D01*
X142929088Y-125031465D01*
X142848652Y-125151847D01*
X142793246Y-125285609D01*
X142765000Y-125427609D01*
X142765000Y-125572391D01*
X142793246Y-125714391D01*
X142848652Y-125848153D01*
X142929088Y-125968535D01*
X143031465Y-126070912D01*
X143151847Y-126151348D01*
X143285609Y-126206754D01*
X143427609Y-126235000D01*
X143572391Y-126235000D01*
X143714391Y-126206754D01*
X143848153Y-126151348D01*
X143968535Y-126070912D01*
X144070912Y-125968535D01*
X144151348Y-125848153D01*
X144206754Y-125714391D01*
X144235000Y-125572391D01*
X144235000Y-125427609D01*
X144206754Y-125285609D01*
X144151348Y-125151847D01*
X144070912Y-125031465D01*
X143968535Y-124929088D01*
X143935000Y-124906681D01*
X143935000Y-119785000D01*
X156078646Y-119785000D01*
X156100000Y-119787103D01*
X156121354Y-119785000D01*
X156121362Y-119785000D01*
X156185275Y-119778705D01*
X156267272Y-119753831D01*
X156342842Y-119713439D01*
X156409079Y-119659079D01*
X156422700Y-119642482D01*
X161292488Y-114772695D01*
X161309079Y-114759079D01*
X161363439Y-114692842D01*
X161403831Y-114617272D01*
X161428705Y-114535275D01*
X161435000Y-114471362D01*
X161435000Y-114471355D01*
X161437103Y-114450001D01*
X161435000Y-114428647D01*
X161435000Y-114136620D01*
X162300000Y-114136620D01*
X162365671Y-114130152D01*
X162428819Y-114110996D01*
X162487016Y-114079889D01*
X162538026Y-114038026D01*
X162579889Y-113987016D01*
X162610996Y-113928819D01*
X162630152Y-113865671D01*
X162636620Y-113800000D01*
X162636620Y-110800000D01*
X162630152Y-110734329D01*
X162610996Y-110671181D01*
X162579889Y-110612984D01*
X162538026Y-110561974D01*
X162487016Y-110520111D01*
X162428819Y-110489004D01*
X162365671Y-110469848D01*
X162300000Y-110463380D01*
X161275520Y-110463380D01*
X161242841Y-110436561D01*
X161167271Y-110396169D01*
X161085274Y-110371295D01*
X161000000Y-110362896D01*
X160914725Y-110371295D01*
X160832728Y-110396169D01*
X160757158Y-110436561D01*
X160724479Y-110463380D01*
X159700000Y-110463380D01*
X159634329Y-110469848D01*
X159571181Y-110489004D01*
X159512984Y-110520111D01*
X159461974Y-110561974D01*
X159420111Y-110612984D01*
X159389004Y-110671181D01*
X159369848Y-110734329D01*
X159363380Y-110800000D01*
X159363380Y-113800000D01*
X159369848Y-113865671D01*
X159389004Y-113928819D01*
X159420111Y-113987016D01*
X159461974Y-114038026D01*
X159512984Y-114079889D01*
X159571181Y-114110996D01*
X159634329Y-114130152D01*
X159700000Y-114136620D01*
X160565001Y-114136620D01*
X160565001Y-114269816D01*
X155919818Y-118915000D01*
X143521362Y-118915000D01*
X143500000Y-118912896D01*
X143478638Y-118915000D01*
X142629386Y-118915000D01*
X142676953Y-118843811D01*
X142732359Y-118710049D01*
X142760605Y-118568049D01*
X142760605Y-118423267D01*
X142732359Y-118281267D01*
X142676953Y-118147505D01*
X142596517Y-118027123D01*
X142494140Y-117924746D01*
X142373758Y-117844310D01*
X142239996Y-117788904D01*
X142097996Y-117760658D01*
X141953214Y-117760658D01*
X141811214Y-117788904D01*
X141677452Y-117844310D01*
X141557070Y-117924746D01*
X141454693Y-118027123D01*
X141374257Y-118147505D01*
X141318851Y-118281267D01*
X141290605Y-118423267D01*
X141290605Y-118568049D01*
X141318851Y-118710049D01*
X141374257Y-118843811D01*
X141421824Y-118915000D01*
X141087030Y-118915000D01*
X140755274Y-118583245D01*
X140755270Y-118583240D01*
X139199319Y-117027289D01*
X139239177Y-117019361D01*
X139372939Y-116963955D01*
X139493321Y-116883519D01*
X139595698Y-116781142D01*
X139676134Y-116660760D01*
X139731540Y-116526998D01*
X139759786Y-116384998D01*
X139759786Y-116240216D01*
X139731540Y-116098216D01*
X139676134Y-115964454D01*
X139595698Y-115844072D01*
X139493321Y-115741695D01*
X139459786Y-115719288D01*
X139459786Y-114796139D01*
X139461889Y-114774785D01*
X139459786Y-114753431D01*
X139459786Y-114753424D01*
X139453491Y-114689511D01*
X139428617Y-114607514D01*
X139388225Y-114531944D01*
X139333865Y-114465707D01*
X139317275Y-114452092D01*
X137722700Y-112857518D01*
X137709079Y-112840921D01*
X137642842Y-112786561D01*
X137567272Y-112746169D01*
X137485275Y-112721295D01*
X137421362Y-112715000D01*
X137421354Y-112715000D01*
X137400000Y-112712897D01*
X137378646Y-112715000D01*
X136571354Y-112715000D01*
X136550000Y-112712897D01*
X136528646Y-112715000D01*
X136528638Y-112715000D01*
X136464725Y-112721295D01*
X136382727Y-112746169D01*
X136356405Y-112760239D01*
X136307158Y-112786561D01*
X136273162Y-112814461D01*
X136261096Y-112824364D01*
X136240921Y-112840921D01*
X136227305Y-112857512D01*
X129311949Y-119772869D01*
X129272391Y-119765000D01*
X129127609Y-119765000D01*
X128985609Y-119793246D01*
X128851847Y-119848652D01*
X128731465Y-119929088D01*
X128629088Y-120031465D01*
X128548652Y-120151847D01*
X128493246Y-120285609D01*
X128465000Y-120427609D01*
X128465000Y-120572391D01*
X128493246Y-120714391D01*
X128548652Y-120848153D01*
X128629088Y-120968535D01*
X128731465Y-121070912D01*
X128851847Y-121151348D01*
X128985609Y-121206754D01*
X129104429Y-121230389D01*
X127669817Y-122665001D01*
X125421352Y-122665001D01*
X125399998Y-122662898D01*
X125378644Y-122665001D01*
X125378637Y-122665001D01*
X125314724Y-122671296D01*
X125232727Y-122696170D01*
X125157157Y-122736562D01*
X125112729Y-122773024D01*
X125072391Y-122765000D01*
X124927609Y-122765000D01*
X124785609Y-122793246D01*
X124651847Y-122848652D01*
X124531465Y-122929088D01*
X124429088Y-123031465D01*
X124348652Y-123151847D01*
X124293246Y-123285609D01*
X124265000Y-123427609D01*
X99435000Y-123427609D01*
X99435000Y-121442092D01*
X99495499Y-121435306D01*
X99534002Y-121427121D01*
X99572738Y-121419452D01*
X99578541Y-121417655D01*
X99978505Y-121290779D01*
X100014696Y-121275267D01*
X100051195Y-121260224D01*
X100056538Y-121257334D01*
X100424242Y-121055187D01*
X100456762Y-121032920D01*
X100489612Y-121011095D01*
X100494292Y-121007223D01*
X100815728Y-120737505D01*
X100843288Y-120709361D01*
X100871289Y-120681556D01*
X100875128Y-120676849D01*
X101138055Y-120349834D01*
X101159636Y-120316855D01*
X101181690Y-120284158D01*
X101184542Y-120278795D01*
X101378944Y-119906937D01*
X101393720Y-119870365D01*
X101408991Y-119834038D01*
X101410746Y-119828223D01*
X101529219Y-119425690D01*
X101536602Y-119386987D01*
X101544535Y-119348340D01*
X101545128Y-119342295D01*
X101583158Y-118924415D01*
X101582883Y-118884990D01*
X101583158Y-118845565D01*
X101582565Y-118839520D01*
X101538704Y-118422212D01*
X101530776Y-118383589D01*
X101523389Y-118344863D01*
X101521633Y-118339049D01*
X101397552Y-117938208D01*
X101382277Y-117901870D01*
X101367505Y-117865307D01*
X101364653Y-117859944D01*
X101165078Y-117490838D01*
X101143057Y-117458191D01*
X101121444Y-117425162D01*
X101117604Y-117420455D01*
X100850137Y-117097144D01*
X100822175Y-117069376D01*
X100794577Y-117041194D01*
X100789897Y-117037322D01*
X100464725Y-116772118D01*
X100431901Y-116750310D01*
X100399355Y-116728025D01*
X100394012Y-116725137D01*
X100023521Y-116528144D01*
X99987107Y-116513135D01*
X99950833Y-116497588D01*
X99945030Y-116495792D01*
X99543333Y-116374512D01*
X99504683Y-116366860D01*
X99466093Y-116358657D01*
X99460053Y-116358022D01*
X99435000Y-116355566D01*
X99435000Y-113728638D01*
X99432802Y-113706322D01*
X99432802Y-113690100D01*
X99432167Y-113684059D01*
X99404974Y-113441622D01*
X99396783Y-113403085D01*
X99389119Y-113364380D01*
X99387323Y-113358578D01*
X99313556Y-113126041D01*
X99298038Y-113089835D01*
X99283002Y-113053354D01*
X99280113Y-113048011D01*
X99162586Y-112834229D01*
X99140308Y-112801693D01*
X99127000Y-112781662D01*
X99127000Y-108218207D01*
X99128252Y-108216672D01*
X99150033Y-108183889D01*
X99172345Y-108151303D01*
X99175234Y-108145959D01*
X99289765Y-107930558D01*
X99304789Y-107894106D01*
X99320321Y-107857869D01*
X99322117Y-107852066D01*
X99328486Y-107830970D01*
X101510767Y-107830970D01*
X101588000Y-108078852D01*
X101850821Y-108204036D01*
X102133015Y-108275542D01*
X102423736Y-108290620D01*
X102711813Y-108248691D01*
X102986174Y-108151367D01*
X103121839Y-108078848D01*
X103198609Y-107830504D01*
X102354921Y-106986816D01*
X101510767Y-107830970D01*
X99328486Y-107830970D01*
X99392628Y-107618521D01*
X99400278Y-107579886D01*
X99408483Y-107541282D01*
X99409118Y-107535241D01*
X99432924Y-107292449D01*
X99432924Y-107292440D01*
X99435000Y-107271362D01*
X99435000Y-106738396D01*
X100871512Y-106738396D01*
X100886590Y-107029117D01*
X100958096Y-107311311D01*
X101083280Y-107574132D01*
X101331162Y-107651365D01*
X102175316Y-106807211D01*
X101331628Y-105963523D01*
X101083284Y-106040293D01*
X101010765Y-106175958D01*
X100913441Y-106450319D01*
X100871512Y-106738396D01*
X99435000Y-106738396D01*
X99435000Y-105783918D01*
X101511233Y-105783918D01*
X102354921Y-106627606D01*
X102369064Y-106613464D01*
X102548669Y-106793069D01*
X102534526Y-106807211D01*
X103378214Y-107650899D01*
X103626558Y-107574129D01*
X103699077Y-107438464D01*
X103796401Y-107164103D01*
X103838330Y-106876026D01*
X103823252Y-106585305D01*
X103751746Y-106303111D01*
X103626562Y-106040290D01*
X103378682Y-105963058D01*
X103463813Y-105877927D01*
X103490237Y-105892051D01*
X103713611Y-105959810D01*
X103887704Y-105976957D01*
X104004118Y-105976957D01*
X104178211Y-105959810D01*
X104401585Y-105892051D01*
X104607447Y-105782015D01*
X104787886Y-105633932D01*
X104935969Y-105453493D01*
X105046005Y-105247631D01*
X105113764Y-105024257D01*
X105136644Y-104791957D01*
X105113764Y-104559657D01*
X105046005Y-104336283D01*
X104935969Y-104130421D01*
X104787886Y-103949982D01*
X104607447Y-103801899D01*
X104401585Y-103691863D01*
X104178211Y-103624104D01*
X104004118Y-103606957D01*
X103887704Y-103606957D01*
X103713611Y-103624104D01*
X103490237Y-103691863D01*
X103284375Y-103801899D01*
X103103936Y-103949982D01*
X102955853Y-104130421D01*
X102845817Y-104336283D01*
X102778058Y-104559657D01*
X102755178Y-104791957D01*
X102778058Y-105024257D01*
X102845817Y-105247631D01*
X102955853Y-105453493D01*
X102959915Y-105458443D01*
X102859021Y-105410386D01*
X102576827Y-105338880D01*
X102286106Y-105323802D01*
X101998029Y-105365731D01*
X101723668Y-105463055D01*
X101588003Y-105535574D01*
X101511233Y-105783918D01*
X99435000Y-105783918D01*
X99435000Y-105180182D01*
X101378860Y-103236322D01*
X104735077Y-103236322D01*
X104757957Y-103468622D01*
X104825716Y-103691996D01*
X104935752Y-103897858D01*
X105083835Y-104078297D01*
X105264274Y-104226380D01*
X105470136Y-104336416D01*
X105693510Y-104404175D01*
X105867603Y-104421322D01*
X105984017Y-104421322D01*
X106158110Y-104404175D01*
X106381484Y-104336416D01*
X106587346Y-104226380D01*
X106767785Y-104078297D01*
X106915868Y-103897858D01*
X107025904Y-103691996D01*
X107093663Y-103468622D01*
X107116543Y-103236322D01*
X107093663Y-103004022D01*
X107025904Y-102780648D01*
X106915868Y-102574786D01*
X106767785Y-102394347D01*
X106587346Y-102246264D01*
X106381484Y-102136228D01*
X106158110Y-102068469D01*
X105984017Y-102051322D01*
X105867603Y-102051322D01*
X105693510Y-102068469D01*
X105470136Y-102136228D01*
X105264274Y-102246264D01*
X105083835Y-102394347D01*
X104935752Y-102574786D01*
X104825716Y-102780648D01*
X104757957Y-103004022D01*
X104735077Y-103236322D01*
X101378860Y-103236322D01*
X103394114Y-101221068D01*
X106326067Y-101221068D01*
X106348947Y-101453368D01*
X106416706Y-101676742D01*
X106526742Y-101882604D01*
X106674825Y-102063043D01*
X106855264Y-102211126D01*
X107061126Y-102321162D01*
X107284500Y-102388921D01*
X107458593Y-102406068D01*
X107575007Y-102406068D01*
X107749100Y-102388921D01*
X107972474Y-102321162D01*
X108178336Y-102211126D01*
X108358775Y-102063043D01*
X108506858Y-101882604D01*
X108616894Y-101676742D01*
X108684653Y-101453368D01*
X108707533Y-101221068D01*
X108684653Y-100988768D01*
X108616894Y-100765394D01*
X108506858Y-100559532D01*
X108358775Y-100379093D01*
X108178336Y-100231010D01*
X107972474Y-100120974D01*
X107749100Y-100053215D01*
X107575007Y-100036068D01*
X107458593Y-100036068D01*
X107284500Y-100053215D01*
X107061126Y-100120974D01*
X106855264Y-100231010D01*
X106674825Y-100379093D01*
X106526742Y-100559532D01*
X106416706Y-100765394D01*
X106348947Y-100988768D01*
X106326067Y-101221068D01*
X103394114Y-101221068D01*
X104985104Y-99630078D01*
X108341321Y-99630078D01*
X108364201Y-99862378D01*
X108431960Y-100085752D01*
X108541996Y-100291614D01*
X108690079Y-100472053D01*
X108870518Y-100620136D01*
X109076380Y-100730172D01*
X109299754Y-100797931D01*
X109473847Y-100815078D01*
X109590261Y-100815078D01*
X109764354Y-100797931D01*
X109987728Y-100730172D01*
X110193590Y-100620136D01*
X110374029Y-100472053D01*
X110522112Y-100291614D01*
X110632148Y-100085752D01*
X110699907Y-99862378D01*
X110722787Y-99630078D01*
X110699907Y-99397778D01*
X110632148Y-99174404D01*
X110522112Y-98968542D01*
X110374029Y-98788103D01*
X110193590Y-98640020D01*
X109987728Y-98529984D01*
X109764354Y-98462225D01*
X109590261Y-98445078D01*
X109473847Y-98445078D01*
X109299754Y-98462225D01*
X109076380Y-98529984D01*
X108870518Y-98640020D01*
X108690079Y-98788103D01*
X108541996Y-98968542D01*
X108431960Y-99174404D01*
X108364201Y-99397778D01*
X108341321Y-99630078D01*
X104985104Y-99630078D01*
X107000359Y-97614823D01*
X109932312Y-97614823D01*
X109955192Y-97847123D01*
X110022951Y-98070497D01*
X110132987Y-98276359D01*
X110281070Y-98456798D01*
X110461509Y-98604881D01*
X110667371Y-98714917D01*
X110890745Y-98782676D01*
X111064838Y-98799823D01*
X111181252Y-98799823D01*
X111355345Y-98782676D01*
X111578719Y-98714917D01*
X111784581Y-98604881D01*
X111965020Y-98456798D01*
X112113103Y-98276359D01*
X112223139Y-98070497D01*
X112290898Y-97847123D01*
X112313778Y-97614823D01*
X112290898Y-97382523D01*
X112223139Y-97159149D01*
X112113103Y-96953287D01*
X111965020Y-96772848D01*
X111784581Y-96624765D01*
X111578719Y-96514729D01*
X111355345Y-96446970D01*
X111181252Y-96429823D01*
X111064838Y-96429823D01*
X110890745Y-96446970D01*
X110667371Y-96514729D01*
X110461509Y-96624765D01*
X110281070Y-96772848D01*
X110132987Y-96953287D01*
X110022951Y-97159149D01*
X109955192Y-97382523D01*
X109932312Y-97614823D01*
X107000359Y-97614823D01*
X108591349Y-96023833D01*
X111947566Y-96023833D01*
X111970446Y-96256133D01*
X112038205Y-96479507D01*
X112148241Y-96685369D01*
X112296324Y-96865808D01*
X112476763Y-97013891D01*
X112682625Y-97123927D01*
X112905999Y-97191686D01*
X113080092Y-97208833D01*
X113196506Y-97208833D01*
X113370599Y-97191686D01*
X113593973Y-97123927D01*
X113799835Y-97013891D01*
X113980274Y-96865808D01*
X114128357Y-96685369D01*
X114238393Y-96479507D01*
X114306152Y-96256133D01*
X114329032Y-96023833D01*
X114306152Y-95791533D01*
X114238393Y-95568159D01*
X114128357Y-95362297D01*
X113980274Y-95181858D01*
X113799835Y-95033775D01*
X113593973Y-94923739D01*
X113370599Y-94855980D01*
X113196506Y-94838833D01*
X113080092Y-94838833D01*
X112905999Y-94855980D01*
X112682625Y-94923739D01*
X112476763Y-95033775D01*
X112296324Y-95181858D01*
X112148241Y-95362297D01*
X112038205Y-95568159D01*
X111970446Y-95791533D01*
X111947566Y-96023833D01*
X108591349Y-96023833D01*
X110571248Y-94043934D01*
X113155232Y-94043934D01*
X113161700Y-94109605D01*
X113180856Y-94172753D01*
X113211963Y-94230950D01*
X113253826Y-94281960D01*
X114455908Y-95484042D01*
X114506918Y-95525905D01*
X114565115Y-95557012D01*
X114628263Y-95576168D01*
X114693934Y-95582636D01*
X114759605Y-95576168D01*
X114822753Y-95557012D01*
X114880950Y-95525905D01*
X114931960Y-95484042D01*
X116134042Y-94281960D01*
X116175905Y-94230950D01*
X116207012Y-94172753D01*
X116226168Y-94109605D01*
X116232636Y-94043934D01*
X116226168Y-93978263D01*
X116207012Y-93915115D01*
X116175905Y-93856918D01*
X116134042Y-93805908D01*
X115433383Y-93105249D01*
X131015000Y-93105249D01*
X131015000Y-93594751D01*
X131110497Y-94074848D01*
X131297821Y-94527089D01*
X131569774Y-94934095D01*
X131915905Y-95280226D01*
X132322911Y-95552179D01*
X132775152Y-95739503D01*
X133255249Y-95835000D01*
X133744751Y-95835000D01*
X134224848Y-95739503D01*
X134677089Y-95552179D01*
X135084095Y-95280226D01*
X135430226Y-94934095D01*
X135702179Y-94527089D01*
X135889503Y-94074848D01*
X135985000Y-93594751D01*
X135985000Y-93105249D01*
X186015000Y-93105249D01*
X186015000Y-93594751D01*
X186110497Y-94074848D01*
X186297821Y-94527089D01*
X186569774Y-94934095D01*
X186915905Y-95280226D01*
X187322911Y-95552179D01*
X187775152Y-95739503D01*
X188255249Y-95835000D01*
X188744751Y-95835000D01*
X189224848Y-95739503D01*
X189677089Y-95552179D01*
X190084095Y-95280226D01*
X190430226Y-94934095D01*
X190702179Y-94527089D01*
X190889503Y-94074848D01*
X190985000Y-93594751D01*
X190985000Y-93105249D01*
X190889503Y-92625152D01*
X190702179Y-92172911D01*
X190430226Y-91765905D01*
X190084095Y-91419774D01*
X189992640Y-91358665D01*
X194315000Y-91358665D01*
X194315000Y-91641335D01*
X194370147Y-91918574D01*
X194478320Y-92179727D01*
X194635363Y-92414759D01*
X194835241Y-92614637D01*
X195070273Y-92771680D01*
X195331426Y-92879853D01*
X195608665Y-92935000D01*
X195891335Y-92935000D01*
X196168574Y-92879853D01*
X196429727Y-92771680D01*
X196664759Y-92614637D01*
X196864637Y-92414759D01*
X197021680Y-92179727D01*
X197129853Y-91918574D01*
X197185000Y-91641335D01*
X197185000Y-91358665D01*
X197129853Y-91081426D01*
X197021680Y-90820273D01*
X196864637Y-90585241D01*
X196664759Y-90385363D01*
X196429727Y-90228320D01*
X196168574Y-90120147D01*
X195891335Y-90065000D01*
X195608665Y-90065000D01*
X195331426Y-90120147D01*
X195070273Y-90228320D01*
X194835241Y-90385363D01*
X194635363Y-90585241D01*
X194478320Y-90820273D01*
X194370147Y-91081426D01*
X194315000Y-91358665D01*
X189992640Y-91358665D01*
X189677089Y-91147821D01*
X189224848Y-90960497D01*
X188744751Y-90865000D01*
X188255249Y-90865000D01*
X187775152Y-90960497D01*
X187322911Y-91147821D01*
X186915905Y-91419774D01*
X186569774Y-91765905D01*
X186297821Y-92172911D01*
X186110497Y-92625152D01*
X186015000Y-93105249D01*
X135985000Y-93105249D01*
X135889503Y-92625152D01*
X135702179Y-92172911D01*
X135430226Y-91765905D01*
X135084095Y-91419774D01*
X134733854Y-91185750D01*
X158565000Y-91185750D01*
X158565000Y-92462542D01*
X158589403Y-92585223D01*
X158637270Y-92700785D01*
X158706763Y-92804789D01*
X158795211Y-92893237D01*
X158899215Y-92962730D01*
X159014777Y-93010597D01*
X159137458Y-93035000D01*
X160714250Y-93035000D01*
X160873000Y-92876250D01*
X160873000Y-91027000D01*
X161127000Y-91027000D01*
X161127000Y-92876250D01*
X161285750Y-93035000D01*
X162862542Y-93035000D01*
X162985223Y-93010597D01*
X163100785Y-92962730D01*
X163204789Y-92893237D01*
X163293237Y-92804789D01*
X163362730Y-92700785D01*
X163410597Y-92585223D01*
X163435000Y-92462542D01*
X163435000Y-91185750D01*
X163276250Y-91027000D01*
X161127000Y-91027000D01*
X160873000Y-91027000D01*
X158723750Y-91027000D01*
X158565000Y-91185750D01*
X134733854Y-91185750D01*
X134677089Y-91147821D01*
X134224848Y-90960497D01*
X133744751Y-90865000D01*
X133255249Y-90865000D01*
X132775152Y-90960497D01*
X132322911Y-91147821D01*
X131915905Y-91419774D01*
X131569774Y-91765905D01*
X131297821Y-92172911D01*
X131110497Y-92625152D01*
X131015000Y-93105249D01*
X115433383Y-93105249D01*
X114931960Y-92603826D01*
X114880950Y-92561963D01*
X114822753Y-92530856D01*
X114759605Y-92511700D01*
X114693934Y-92505232D01*
X114628263Y-92511700D01*
X114565115Y-92530856D01*
X114506918Y-92561963D01*
X114455908Y-92603826D01*
X113253826Y-93805908D01*
X113211963Y-93856918D01*
X113180856Y-93915115D01*
X113161700Y-93978263D01*
X113155232Y-94043934D01*
X110571248Y-94043934D01*
X113256517Y-91358665D01*
X117315000Y-91358665D01*
X117315000Y-91641335D01*
X117370147Y-91918574D01*
X117478320Y-92179727D01*
X117635363Y-92414759D01*
X117835241Y-92614637D01*
X118070273Y-92771680D01*
X118331426Y-92879853D01*
X118608665Y-92935000D01*
X118891335Y-92935000D01*
X119168574Y-92879853D01*
X119429727Y-92771680D01*
X119664759Y-92614637D01*
X119864637Y-92414759D01*
X120021680Y-92179727D01*
X120129853Y-91918574D01*
X120185000Y-91641335D01*
X120185000Y-91358665D01*
X120129853Y-91081426D01*
X120021680Y-90820273D01*
X119864637Y-90585241D01*
X119664759Y-90385363D01*
X119429727Y-90228320D01*
X119168574Y-90120147D01*
X118891335Y-90065000D01*
X118608665Y-90065000D01*
X118331426Y-90120147D01*
X118070273Y-90228320D01*
X117835241Y-90385363D01*
X117635363Y-90585241D01*
X117478320Y-90820273D01*
X117370147Y-91081426D01*
X117315000Y-91358665D01*
X113256517Y-91358665D01*
X115731894Y-88883288D01*
X118815000Y-88883288D01*
X118815000Y-89116712D01*
X118860539Y-89345652D01*
X118949866Y-89561308D01*
X119079550Y-89755394D01*
X119244606Y-89920450D01*
X119438692Y-90050134D01*
X119654348Y-90139461D01*
X119883288Y-90185000D01*
X120116712Y-90185000D01*
X120345652Y-90139461D01*
X120561308Y-90050134D01*
X120593839Y-90028397D01*
X123651208Y-90028397D01*
X123728843Y-90277472D01*
X123992883Y-90403371D01*
X124276411Y-90475339D01*
X124568531Y-90490611D01*
X124757403Y-90463201D01*
X124635363Y-90585241D01*
X124478320Y-90820273D01*
X124370147Y-91081426D01*
X124315000Y-91358665D01*
X124315000Y-91641335D01*
X124370147Y-91918574D01*
X124478320Y-92179727D01*
X124635363Y-92414759D01*
X124835241Y-92614637D01*
X125070273Y-92771680D01*
X125331426Y-92879853D01*
X125608665Y-92935000D01*
X125891335Y-92935000D01*
X126168574Y-92879853D01*
X126429727Y-92771680D01*
X126664759Y-92614637D01*
X126864637Y-92414759D01*
X127021680Y-92179727D01*
X127129853Y-91918574D01*
X127185000Y-91641335D01*
X127185000Y-91358665D01*
X127129853Y-91081426D01*
X127021680Y-90820273D01*
X126864637Y-90585241D01*
X126664759Y-90385363D01*
X126429727Y-90228320D01*
X126168574Y-90120147D01*
X125891335Y-90065000D01*
X125608665Y-90065000D01*
X125331426Y-90120147D01*
X125318529Y-90125489D01*
X125348792Y-90028397D01*
X124500000Y-89179605D01*
X123651208Y-90028397D01*
X120593839Y-90028397D01*
X120755394Y-89920450D01*
X120920450Y-89755394D01*
X121050134Y-89561308D01*
X121139461Y-89345652D01*
X121185000Y-89116712D01*
X121185000Y-89068531D01*
X123009389Y-89068531D01*
X123051401Y-89358019D01*
X123149081Y-89633747D01*
X123222528Y-89771157D01*
X123471603Y-89848792D01*
X124320395Y-89000000D01*
X124679605Y-89000000D01*
X125528397Y-89848792D01*
X125777472Y-89771157D01*
X125903371Y-89507117D01*
X125975339Y-89223589D01*
X125990611Y-88931469D01*
X125948599Y-88641981D01*
X125850919Y-88366253D01*
X125777472Y-88228843D01*
X125528397Y-88151208D01*
X124679605Y-89000000D01*
X124320395Y-89000000D01*
X123471603Y-88151208D01*
X123222528Y-88228843D01*
X123096629Y-88492883D01*
X123024661Y-88776411D01*
X123009389Y-89068531D01*
X121185000Y-89068531D01*
X121185000Y-88883288D01*
X121139461Y-88654348D01*
X121050134Y-88438692D01*
X120920450Y-88244606D01*
X120755394Y-88079550D01*
X120593840Y-87971603D01*
X123651208Y-87971603D01*
X124500000Y-88820395D01*
X125348792Y-87971603D01*
X125271157Y-87722528D01*
X125007117Y-87596629D01*
X124723589Y-87524661D01*
X124431469Y-87509389D01*
X124141981Y-87551401D01*
X123866253Y-87649081D01*
X123728843Y-87722528D01*
X123651208Y-87971603D01*
X120593840Y-87971603D01*
X120561308Y-87949866D01*
X120345652Y-87860539D01*
X120116712Y-87815000D01*
X119883288Y-87815000D01*
X119654348Y-87860539D01*
X119438692Y-87949866D01*
X119244606Y-88079550D01*
X119079550Y-88244606D01*
X118949866Y-88438692D01*
X118860539Y-88654348D01*
X118815000Y-88883288D01*
X115731894Y-88883288D01*
X118180183Y-86435000D01*
X123021362Y-86435000D01*
X123043678Y-86432802D01*
X123059900Y-86432802D01*
X123065941Y-86432167D01*
X123308378Y-86404974D01*
X123346902Y-86396785D01*
X123385620Y-86389119D01*
X123391422Y-86387322D01*
X123623960Y-86313556D01*
X123660179Y-86298032D01*
X123696646Y-86283002D01*
X123701989Y-86280113D01*
X123915771Y-86162586D01*
X123948284Y-86140323D01*
X123968337Y-86127000D01*
X128397420Y-86127000D01*
X128407001Y-86134814D01*
M02*
