%TF.GenerationSoftware,KiCad,Pcbnew,5.0.1*%
%TF.CreationDate,2019-03-22T14:30:31+01:00*%
%TF.ProjectId,rev1,726576312E6B696361645F7063620000,rev?*%
%TF.SameCoordinates,Original*%
%TF.FileFunction,Legend,Top*%
%TF.FilePolarity,Positive*%
%FSLAX46Y46*%
G04 Gerber Fmt 4.6, Leading zero omitted, Abs format (unit mm)*
G04 Created by KiCad (PCBNEW 5.0.1) date Fri 22 Mar 2019 02:30:31 PM CET*
%MOMM*%
%LPD*%
G01*
G04 APERTURE LIST*
%ADD10C,0.300000*%
%ADD11C,0.120000*%
%ADD12C,0.010000*%
%ADD13C,0.150000*%
G04 APERTURE END LIST*
D10*
X211007142Y-127778571D02*
X210507142Y-127064285D01*
X210150000Y-127778571D02*
X210150000Y-126278571D01*
X210721428Y-126278571D01*
X210864285Y-126350000D01*
X210935714Y-126421428D01*
X211007142Y-126564285D01*
X211007142Y-126778571D01*
X210935714Y-126921428D01*
X210864285Y-126992857D01*
X210721428Y-127064285D01*
X210150000Y-127064285D01*
X212221428Y-127707142D02*
X212078571Y-127778571D01*
X211792857Y-127778571D01*
X211650000Y-127707142D01*
X211578571Y-127564285D01*
X211578571Y-126992857D01*
X211650000Y-126850000D01*
X211792857Y-126778571D01*
X212078571Y-126778571D01*
X212221428Y-126850000D01*
X212292857Y-126992857D01*
X212292857Y-127135714D01*
X211578571Y-127278571D01*
X212792857Y-126778571D02*
X213150000Y-127778571D01*
X213507142Y-126778571D01*
X214078571Y-127635714D02*
X214150000Y-127707142D01*
X214078571Y-127778571D01*
X214007142Y-127707142D01*
X214078571Y-127635714D01*
X214078571Y-127778571D01*
X216721428Y-127778571D02*
X215864285Y-127778571D01*
X216292857Y-127778571D02*
X216292857Y-126278571D01*
X216150000Y-126492857D01*
X216007142Y-126635714D01*
X215864285Y-126707142D01*
X169385714Y-127978571D02*
X169385714Y-126478571D01*
X169742857Y-126478571D01*
X169957142Y-126550000D01*
X170100000Y-126692857D01*
X170171428Y-126835714D01*
X170242857Y-127121428D01*
X170242857Y-127335714D01*
X170171428Y-127621428D01*
X170100000Y-127764285D01*
X169957142Y-127907142D01*
X169742857Y-127978571D01*
X169385714Y-127978571D01*
X170814285Y-127550000D02*
X171528571Y-127550000D01*
X170671428Y-127978571D02*
X171171428Y-126478571D01*
X171671428Y-127978571D01*
X171957142Y-126478571D02*
X172814285Y-126478571D01*
X172385714Y-127978571D02*
X172385714Y-126478571D01*
X173171428Y-126478571D02*
X174171428Y-127978571D01*
X174171428Y-126478571D02*
X173171428Y-127978571D01*
X175028571Y-126478571D02*
X175171428Y-126478571D01*
X175314285Y-126550000D01*
X175385714Y-126621428D01*
X175457142Y-126764285D01*
X175528571Y-127050000D01*
X175528571Y-127407142D01*
X175457142Y-127692857D01*
X175385714Y-127835714D01*
X175314285Y-127907142D01*
X175171428Y-127978571D01*
X175028571Y-127978571D01*
X174885714Y-127907142D01*
X174814285Y-127835714D01*
X174742857Y-127692857D01*
X174671428Y-127407142D01*
X174671428Y-127050000D01*
X174742857Y-126764285D01*
X174814285Y-126621428D01*
X174885714Y-126550000D01*
X175028571Y-126478571D01*
X176100000Y-126621428D02*
X176171428Y-126550000D01*
X176314285Y-126478571D01*
X176671428Y-126478571D01*
X176814285Y-126550000D01*
X176885714Y-126621428D01*
X176957142Y-126764285D01*
X176957142Y-126907142D01*
X176885714Y-127121428D01*
X176028571Y-127978571D01*
X176957142Y-127978571D01*
X177600000Y-127407142D02*
X178742857Y-127407142D01*
X180242857Y-127978571D02*
X179385714Y-127978571D01*
X179814285Y-127978571D02*
X179814285Y-126478571D01*
X179671428Y-126692857D01*
X179528571Y-126835714D01*
X179385714Y-126907142D01*
X180957142Y-127978571D02*
X181242857Y-127978571D01*
X181385714Y-127907142D01*
X181457142Y-127835714D01*
X181600000Y-127621428D01*
X181671428Y-127335714D01*
X181671428Y-126764285D01*
X181600000Y-126621428D01*
X181528571Y-126550000D01*
X181385714Y-126478571D01*
X181100000Y-126478571D01*
X180957142Y-126550000D01*
X180885714Y-126621428D01*
X180814285Y-126764285D01*
X180814285Y-127121428D01*
X180885714Y-127264285D01*
X180957142Y-127335714D01*
X181100000Y-127407142D01*
X181385714Y-127407142D01*
X181528571Y-127335714D01*
X181600000Y-127264285D01*
X181671428Y-127121428D01*
X182314285Y-127407142D02*
X183457142Y-127407142D01*
X184457142Y-126478571D02*
X184600000Y-126478571D01*
X184742857Y-126550000D01*
X184814285Y-126621428D01*
X184885714Y-126764285D01*
X184957142Y-127050000D01*
X184957142Y-127407142D01*
X184885714Y-127692857D01*
X184814285Y-127835714D01*
X184742857Y-127907142D01*
X184600000Y-127978571D01*
X184457142Y-127978571D01*
X184314285Y-127907142D01*
X184242857Y-127835714D01*
X184171428Y-127692857D01*
X184100000Y-127407142D01*
X184100000Y-127050000D01*
X184171428Y-126764285D01*
X184242857Y-126621428D01*
X184314285Y-126550000D01*
X184457142Y-126478571D01*
X186242857Y-126978571D02*
X186242857Y-127978571D01*
X185885714Y-126407142D02*
X185528571Y-127478571D01*
X186457142Y-127478571D01*
D11*
X114800000Y-92269096D02*
X115740452Y-93209548D01*
X113859548Y-93209548D02*
X114800000Y-92269096D01*
X112961522Y-94107574D02*
X114842426Y-95988478D01*
X114842426Y-95988478D02*
X102227641Y-108603263D01*
X112961522Y-94107574D02*
X100346737Y-106722359D01*
X100346737Y-106722359D02*
X102227641Y-108603263D01*
X144160000Y-107850279D02*
X144160000Y-107524721D01*
X143140000Y-107850279D02*
X143140000Y-107524721D01*
X175810000Y-98787500D02*
X175810000Y-96502500D01*
X175810000Y-96502500D02*
X174340000Y-96502500D01*
X174340000Y-96502500D02*
X174340000Y-98787500D01*
X193943882Y-117439855D02*
X194631021Y-117573422D01*
X204741781Y-119538754D02*
X204054642Y-119405188D01*
X203406118Y-126410145D02*
X202718979Y-126276578D01*
X192608219Y-124311246D02*
X193295358Y-124444812D01*
X198792470Y-125513342D02*
X201148375Y-125971284D01*
X200128133Y-118641952D02*
X202484038Y-119099894D01*
X193943882Y-117439855D02*
X192608219Y-124311246D01*
X203406118Y-126410145D02*
X204741781Y-119538754D01*
X194865961Y-124750106D02*
X197221866Y-125208048D01*
X196201624Y-117878716D02*
X198557529Y-118336658D01*
X184525000Y-113675000D02*
X184525000Y-113075000D01*
X184525000Y-106675000D02*
X184525000Y-107275000D01*
X191525000Y-106675000D02*
X191525000Y-107275000D01*
X191525000Y-113675000D02*
X191525000Y-113075000D01*
X191525000Y-111375000D02*
X191525000Y-108975000D01*
X184525000Y-111375000D02*
X184525000Y-108975000D01*
X184525000Y-113675000D02*
X191525000Y-113675000D01*
X191525000Y-106675000D02*
X184525000Y-106675000D01*
X210388856Y-100047677D02*
X209754441Y-100343510D01*
X200419471Y-104696478D02*
X201053886Y-104400645D01*
X197461143Y-98352324D02*
X198095558Y-98056491D01*
X207430528Y-93703523D02*
X206796113Y-93999356D01*
X201720789Y-96366018D02*
X199545651Y-97380302D01*
X204679117Y-102710172D02*
X202503979Y-103724456D01*
X210388856Y-100047677D02*
X207430528Y-93703523D01*
X197461143Y-98352324D02*
X200419471Y-104696478D01*
X205346021Y-94675545D02*
X203170882Y-95689829D01*
X208304348Y-101019699D02*
X206129210Y-102033983D01*
X167500000Y-94000000D02*
X167500000Y-93400000D01*
X167500000Y-87000000D02*
X167500000Y-87600000D01*
X174500000Y-87000000D02*
X174500000Y-87600000D01*
X174500000Y-94000000D02*
X174500000Y-93400000D01*
X174500000Y-91700000D02*
X174500000Y-89300000D01*
X167500000Y-91700000D02*
X167500000Y-89300000D01*
X167500000Y-94000000D02*
X174500000Y-94000000D01*
X174500000Y-87000000D02*
X167500000Y-87000000D01*
X171280000Y-98140279D02*
X171280000Y-97814721D01*
X172300000Y-98140279D02*
X172300000Y-97814721D01*
X170640000Y-98145279D02*
X170640000Y-97819721D01*
X169620000Y-98145279D02*
X169620000Y-97819721D01*
X168040000Y-98135279D02*
X168040000Y-97809721D01*
X169060000Y-98135279D02*
X169060000Y-97809721D01*
X144310000Y-98990000D02*
X144310000Y-98440000D01*
X138090000Y-104660000D02*
X138640000Y-104660000D01*
X138090000Y-104110000D02*
X138090000Y-104660000D01*
X138090000Y-98440000D02*
X138640000Y-98440000D01*
X138090000Y-98990000D02*
X138090000Y-98440000D01*
X144310000Y-104660000D02*
X143760000Y-104660000D01*
X144310000Y-104110000D02*
X144310000Y-104660000D01*
X150996700Y-120189000D02*
X150996700Y-113189000D01*
X143996700Y-113189000D02*
X143996700Y-120189000D01*
X146296700Y-113189000D02*
X148696700Y-113189000D01*
X146296700Y-120189000D02*
X148696700Y-120189000D01*
X143996700Y-120189000D02*
X144596700Y-120189000D01*
X150996700Y-120189000D02*
X150396700Y-120189000D01*
X150996700Y-113189000D02*
X150396700Y-113189000D01*
X143996700Y-113189000D02*
X144596700Y-113189000D01*
X160500000Y-113200000D02*
X160500000Y-120200000D01*
X167500000Y-120200000D02*
X167500000Y-113200000D01*
X165200000Y-120200000D02*
X162800000Y-120200000D01*
X165200000Y-113200000D02*
X162800000Y-113200000D01*
X167500000Y-113200000D02*
X166900000Y-113200000D01*
X160500000Y-113200000D02*
X161100000Y-113200000D01*
X160500000Y-120200000D02*
X161100000Y-120200000D01*
X167500000Y-120200000D02*
X166900000Y-120200000D01*
X122996700Y-114889000D02*
X129996700Y-114889000D01*
X129996700Y-107889000D02*
X122996700Y-107889000D01*
X129996700Y-110189000D02*
X129996700Y-112589000D01*
X122996700Y-110189000D02*
X122996700Y-112589000D01*
X122996700Y-107889000D02*
X122996700Y-108489000D01*
X122996700Y-114889000D02*
X122996700Y-114289000D01*
X129996700Y-114889000D02*
X129996700Y-114289000D01*
X129996700Y-107889000D02*
X129996700Y-108489000D01*
X106996700Y-114889000D02*
X113996700Y-114889000D01*
X113996700Y-107889000D02*
X106996700Y-107889000D01*
X113996700Y-110189000D02*
X113996700Y-112589000D01*
X106996700Y-110189000D02*
X106996700Y-112589000D01*
X106996700Y-107889000D02*
X106996700Y-108489000D01*
X106996700Y-114889000D02*
X106996700Y-114289000D01*
X113996700Y-114889000D02*
X113996700Y-114289000D01*
X113996700Y-107889000D02*
X113996700Y-108489000D01*
X154496700Y-86989000D02*
X147496700Y-86989000D01*
X147496700Y-93989000D02*
X154496700Y-93989000D01*
X147496700Y-91689000D02*
X147496700Y-89289000D01*
X154496700Y-91689000D02*
X154496700Y-89289000D01*
X154496700Y-93989000D02*
X154496700Y-93389000D01*
X154496700Y-86989000D02*
X154496700Y-87589000D01*
X147496700Y-86989000D02*
X147496700Y-87589000D01*
X147496700Y-93989000D02*
X147496700Y-93389000D01*
X114996700Y-122989000D02*
X121996700Y-122989000D01*
X121996700Y-115989000D02*
X114996700Y-115989000D01*
X121996700Y-118289000D02*
X121996700Y-120689000D01*
X114996700Y-118289000D02*
X114996700Y-120689000D01*
X114996700Y-115989000D02*
X114996700Y-116589000D01*
X114996700Y-122989000D02*
X114996700Y-122389000D01*
X121996700Y-122989000D02*
X121996700Y-122389000D01*
X121996700Y-115989000D02*
X121996700Y-116589000D01*
X121996700Y-99889000D02*
X114996700Y-99889000D01*
X114996700Y-106889000D02*
X121996700Y-106889000D01*
X114996700Y-104589000D02*
X114996700Y-102189000D01*
X121996700Y-104589000D02*
X121996700Y-102189000D01*
X121996700Y-106889000D02*
X121996700Y-106289000D01*
X121996700Y-99889000D02*
X121996700Y-100489000D01*
X114996700Y-99889000D02*
X114996700Y-100489000D01*
X114996700Y-106889000D02*
X114996700Y-106289000D01*
X162800000Y-92800000D02*
X162800000Y-87900000D01*
X159200000Y-87900000D02*
X159200000Y-92800000D01*
X162800000Y-87900000D02*
X161900000Y-87900000D01*
X149200000Y-106550000D02*
X146500000Y-106550000D01*
X149200000Y-108850000D02*
X149200000Y-106550000D01*
X159635000Y-95987779D02*
X159635000Y-95662221D01*
X158615000Y-95987779D02*
X158615000Y-95662221D01*
X161535000Y-95987779D02*
X161535000Y-95662221D01*
X160515000Y-95987779D02*
X160515000Y-95662221D01*
X163435000Y-96000279D02*
X163435000Y-95674721D01*
X162415000Y-96000279D02*
X162415000Y-95674721D01*
X152460000Y-107850279D02*
X152460000Y-107524721D01*
X151440000Y-107850279D02*
X151440000Y-107524721D01*
X147100280Y-98090000D02*
X146774722Y-98090000D01*
X147100280Y-99110000D02*
X146774722Y-99110000D01*
X142087220Y-97410000D02*
X142412780Y-97410000D01*
X142087220Y-96390000D02*
X142412780Y-96390000D01*
X145274722Y-97410000D02*
X145600280Y-97410000D01*
X145274722Y-96390000D02*
X145600280Y-96390000D01*
X147100280Y-99690000D02*
X146774722Y-99690000D01*
X147100280Y-100710000D02*
X146774722Y-100710000D01*
X149740000Y-107524721D02*
X149740000Y-107850279D01*
X150760000Y-107524721D02*
X150760000Y-107850279D01*
X145910000Y-107850279D02*
X145910000Y-107524721D01*
X144890000Y-107850279D02*
X144890000Y-107524721D01*
X172915000Y-98137779D02*
X172915000Y-97812221D01*
X173935000Y-98137779D02*
X173935000Y-97812221D01*
X125230000Y-93120000D02*
X125230000Y-92770000D01*
X126120000Y-93120000D02*
X125230000Y-93120000D01*
X126120000Y-92820000D02*
X126120000Y-93120000D01*
X126120000Y-90180000D02*
X126120000Y-86330000D01*
X126120000Y-86330000D02*
X118380000Y-86330000D01*
X118380000Y-86330000D02*
X118380000Y-90180000D01*
X119760000Y-90570000D02*
X124740000Y-90570000D01*
X119270000Y-93120000D02*
X118380000Y-93120000D01*
X119270000Y-93120000D02*
X119270000Y-92770000D01*
X118380000Y-92820000D02*
X118380000Y-93120000D01*
X195380000Y-92820000D02*
X195380000Y-93120000D01*
X196270000Y-93120000D02*
X196270000Y-92770000D01*
X196270000Y-93120000D02*
X195380000Y-93120000D01*
X196760000Y-90570000D02*
X201740000Y-90570000D01*
X195380000Y-86330000D02*
X195380000Y-90180000D01*
X203120000Y-86330000D02*
X195380000Y-86330000D01*
X203120000Y-90180000D02*
X203120000Y-86330000D01*
X203120000Y-92820000D02*
X203120000Y-93120000D01*
X203120000Y-93120000D02*
X202230000Y-93120000D01*
X202230000Y-93120000D02*
X202230000Y-92770000D01*
X167460000Y-97799721D02*
X167460000Y-98125279D01*
X166440000Y-97799721D02*
X166440000Y-98125279D01*
D12*
G36*
X177839878Y-117987776D02*
X177945612Y-117988355D01*
X178022132Y-117989922D01*
X178074372Y-117992972D01*
X178107263Y-117997996D01*
X178125737Y-118005489D01*
X178134727Y-118015944D01*
X178139163Y-118029853D01*
X178139594Y-118031654D01*
X178146333Y-118064145D01*
X178158808Y-118128252D01*
X178175719Y-118217151D01*
X178195771Y-118324019D01*
X178217664Y-118442033D01*
X178218429Y-118446178D01*
X178240359Y-118561831D01*
X178260877Y-118664014D01*
X178278659Y-118746598D01*
X178292381Y-118803456D01*
X178300718Y-118828458D01*
X178301116Y-118828901D01*
X178325677Y-118841110D01*
X178376315Y-118861456D01*
X178442095Y-118885545D01*
X178442461Y-118885674D01*
X178525317Y-118916818D01*
X178623000Y-118956491D01*
X178715077Y-118996381D01*
X178719434Y-118998353D01*
X178869407Y-119066420D01*
X179201498Y-118839639D01*
X179303374Y-118770504D01*
X179395657Y-118708697D01*
X179473003Y-118657733D01*
X179530064Y-118621127D01*
X179561495Y-118602394D01*
X179564479Y-118601004D01*
X179587321Y-118607190D01*
X179629982Y-118637035D01*
X179694128Y-118691947D01*
X179781421Y-118773334D01*
X179870535Y-118859922D01*
X179956441Y-118945247D01*
X180033327Y-119023108D01*
X180096564Y-119088697D01*
X180141523Y-119137205D01*
X180163576Y-119163825D01*
X180164396Y-119165195D01*
X180166834Y-119183463D01*
X180157650Y-119213295D01*
X180134574Y-119258721D01*
X180095337Y-119323770D01*
X180037670Y-119412470D01*
X179960795Y-119526657D01*
X179892570Y-119627162D01*
X179831582Y-119717303D01*
X179781356Y-119791849D01*
X179745416Y-119845565D01*
X179727287Y-119873218D01*
X179726146Y-119875095D01*
X179728359Y-119901590D01*
X179745138Y-119953086D01*
X179773142Y-120019851D01*
X179783122Y-120041172D01*
X179826672Y-120136159D01*
X179873134Y-120243937D01*
X179910877Y-120337192D01*
X179938073Y-120406406D01*
X179959675Y-120459006D01*
X179972158Y-120486497D01*
X179973709Y-120488616D01*
X179996668Y-120492124D01*
X180050786Y-120501738D01*
X180128868Y-120516089D01*
X180223719Y-120533807D01*
X180328143Y-120553525D01*
X180434944Y-120573874D01*
X180536926Y-120593486D01*
X180626894Y-120610991D01*
X180697653Y-120625022D01*
X180742006Y-120634209D01*
X180752885Y-120636807D01*
X180764122Y-120643218D01*
X180772605Y-120657697D01*
X180778714Y-120685133D01*
X180782832Y-120730411D01*
X180785341Y-120798420D01*
X180786621Y-120894047D01*
X180787054Y-121022180D01*
X180787077Y-121074701D01*
X180787077Y-121501845D01*
X180684500Y-121522091D01*
X180627431Y-121533070D01*
X180542269Y-121549095D01*
X180439372Y-121568233D01*
X180329096Y-121588551D01*
X180298615Y-121594132D01*
X180196855Y-121613917D01*
X180108205Y-121633373D01*
X180040108Y-121650697D01*
X180000004Y-121664088D01*
X179993323Y-121668079D01*
X179976919Y-121696342D01*
X179953399Y-121751109D01*
X179927316Y-121821588D01*
X179922142Y-121836769D01*
X179887956Y-121930896D01*
X179845523Y-122037101D01*
X179803997Y-122132473D01*
X179803792Y-122132916D01*
X179734640Y-122282525D01*
X180189512Y-122951617D01*
X179897500Y-123244116D01*
X179809180Y-123331170D01*
X179728625Y-123407909D01*
X179660360Y-123470237D01*
X179608908Y-123514056D01*
X179578794Y-123535270D01*
X179574474Y-123536616D01*
X179549111Y-123526016D01*
X179497358Y-123496547D01*
X179424868Y-123451705D01*
X179337294Y-123394984D01*
X179242612Y-123331462D01*
X179146516Y-123266668D01*
X179060837Y-123210287D01*
X178991016Y-123165788D01*
X178942494Y-123136639D01*
X178920782Y-123126308D01*
X178894293Y-123135050D01*
X178844062Y-123158087D01*
X178780451Y-123190631D01*
X178773708Y-123194249D01*
X178688046Y-123237210D01*
X178629306Y-123258279D01*
X178592772Y-123258503D01*
X178573731Y-123238928D01*
X178573620Y-123238654D01*
X178564102Y-123215472D01*
X178541403Y-123160441D01*
X178507282Y-123077822D01*
X178463500Y-122971872D01*
X178411816Y-122846852D01*
X178353992Y-122707020D01*
X178297991Y-122571637D01*
X178236447Y-122422234D01*
X178179939Y-122283832D01*
X178130161Y-122160673D01*
X178088806Y-122057002D01*
X178057568Y-121977059D01*
X178038141Y-121925088D01*
X178032154Y-121905692D01*
X178047168Y-121883443D01*
X178086439Y-121847982D01*
X178138807Y-121808887D01*
X178287941Y-121685245D01*
X178404511Y-121543522D01*
X178487118Y-121386704D01*
X178534366Y-121217775D01*
X178544857Y-121039722D01*
X178537231Y-120957539D01*
X178495682Y-120787031D01*
X178424123Y-120636459D01*
X178326995Y-120507309D01*
X178208734Y-120401064D01*
X178073780Y-120319210D01*
X177926571Y-120263232D01*
X177771544Y-120234615D01*
X177613139Y-120234844D01*
X177455794Y-120265405D01*
X177303946Y-120327782D01*
X177162035Y-120423460D01*
X177102803Y-120477572D01*
X176989203Y-120616520D01*
X176910106Y-120768361D01*
X176864986Y-120928667D01*
X176853316Y-121093012D01*
X176874569Y-121256971D01*
X176928220Y-121416118D01*
X177013740Y-121566025D01*
X177130605Y-121702267D01*
X177261193Y-121808887D01*
X177315588Y-121849642D01*
X177354014Y-121884718D01*
X177367846Y-121905726D01*
X177360603Y-121928635D01*
X177340005Y-121983365D01*
X177307746Y-122065672D01*
X177265521Y-122171315D01*
X177215023Y-122296050D01*
X177157948Y-122435636D01*
X177101854Y-122571670D01*
X177039967Y-122721201D01*
X176982644Y-122859767D01*
X176931644Y-122983107D01*
X176888727Y-123086964D01*
X176855653Y-123167080D01*
X176834181Y-123219195D01*
X176826225Y-123238654D01*
X176807429Y-123258423D01*
X176771074Y-123258365D01*
X176712479Y-123237441D01*
X176626968Y-123194613D01*
X176626292Y-123194249D01*
X176561907Y-123161012D01*
X176509861Y-123136802D01*
X176480512Y-123126404D01*
X176479217Y-123126308D01*
X176457124Y-123136855D01*
X176408348Y-123166184D01*
X176338331Y-123210827D01*
X176252514Y-123267314D01*
X176157388Y-123331462D01*
X176060540Y-123396411D01*
X175973253Y-123452896D01*
X175901181Y-123497421D01*
X175849977Y-123526490D01*
X175825526Y-123536616D01*
X175803010Y-123523307D01*
X175757742Y-123486112D01*
X175694244Y-123429128D01*
X175617039Y-123356449D01*
X175530651Y-123272171D01*
X175502399Y-123244016D01*
X175210287Y-122951416D01*
X175432631Y-122625104D01*
X175500202Y-122524897D01*
X175559507Y-122434963D01*
X175607217Y-122360510D01*
X175640007Y-122306751D01*
X175654548Y-122278894D01*
X175654974Y-122276912D01*
X175647308Y-122250655D01*
X175626689Y-122197837D01*
X175596685Y-122127310D01*
X175575625Y-122080093D01*
X175536248Y-121989694D01*
X175499165Y-121898366D01*
X175470415Y-121821200D01*
X175462605Y-121797692D01*
X175440417Y-121734916D01*
X175418727Y-121686411D01*
X175406813Y-121668079D01*
X175380523Y-121656859D01*
X175323142Y-121640954D01*
X175242118Y-121622167D01*
X175144895Y-121602299D01*
X175101385Y-121594132D01*
X174990896Y-121573829D01*
X174884916Y-121554170D01*
X174793801Y-121537088D01*
X174727908Y-121524518D01*
X174715500Y-121522091D01*
X174612923Y-121501845D01*
X174612923Y-121074701D01*
X174613153Y-120934246D01*
X174614099Y-120827979D01*
X174616141Y-120751013D01*
X174619662Y-120698460D01*
X174625043Y-120665433D01*
X174632666Y-120647045D01*
X174642912Y-120638408D01*
X174647115Y-120636807D01*
X174672470Y-120631127D01*
X174728484Y-120619795D01*
X174807964Y-120604179D01*
X174903712Y-120585647D01*
X175008533Y-120565569D01*
X175115232Y-120545312D01*
X175216613Y-120526246D01*
X175305479Y-120509739D01*
X175374637Y-120497159D01*
X175416889Y-120489875D01*
X175426290Y-120488616D01*
X175434807Y-120471763D01*
X175453660Y-120426870D01*
X175479324Y-120362430D01*
X175489123Y-120337192D01*
X175528648Y-120239686D01*
X175575192Y-120131959D01*
X175616877Y-120041172D01*
X175647550Y-119971753D01*
X175667956Y-119914710D01*
X175674768Y-119879777D01*
X175673682Y-119875095D01*
X175659285Y-119852991D01*
X175626412Y-119803831D01*
X175578590Y-119732848D01*
X175519348Y-119645278D01*
X175452215Y-119546357D01*
X175438941Y-119526830D01*
X175361046Y-119411140D01*
X175303787Y-119323044D01*
X175264881Y-119258486D01*
X175242044Y-119213411D01*
X175232994Y-119183763D01*
X175235448Y-119165485D01*
X175235511Y-119165369D01*
X175254827Y-119141361D01*
X175297551Y-119094947D01*
X175359051Y-119030937D01*
X175434698Y-118954145D01*
X175519861Y-118869382D01*
X175529465Y-118859922D01*
X175636790Y-118755989D01*
X175719615Y-118679675D01*
X175779605Y-118629571D01*
X175818423Y-118604270D01*
X175835520Y-118601004D01*
X175860473Y-118615250D01*
X175912255Y-118648156D01*
X175985520Y-118696208D01*
X176074920Y-118755890D01*
X176175111Y-118823688D01*
X176198501Y-118839639D01*
X176530593Y-119066420D01*
X176680565Y-118998353D01*
X176771770Y-118958685D01*
X176869669Y-118918791D01*
X176953831Y-118886983D01*
X176957538Y-118885674D01*
X177023369Y-118861576D01*
X177074116Y-118841200D01*
X177098842Y-118828936D01*
X177098884Y-118828901D01*
X177106729Y-118806734D01*
X177120066Y-118752217D01*
X177137570Y-118671480D01*
X177157917Y-118570650D01*
X177179782Y-118455856D01*
X177181571Y-118446178D01*
X177203504Y-118327904D01*
X177223640Y-118220542D01*
X177240680Y-118130917D01*
X177253328Y-118065851D01*
X177260284Y-118032168D01*
X177260406Y-118031654D01*
X177264639Y-118017325D01*
X177272871Y-118006507D01*
X177290033Y-117998706D01*
X177321058Y-117993429D01*
X177370878Y-117990182D01*
X177444424Y-117988472D01*
X177546629Y-117987807D01*
X177682425Y-117987693D01*
X177700000Y-117987692D01*
X177839878Y-117987776D01*
X177839878Y-117987776D01*
G37*
X177839878Y-117987776D02*
X177945612Y-117988355D01*
X178022132Y-117989922D01*
X178074372Y-117992972D01*
X178107263Y-117997996D01*
X178125737Y-118005489D01*
X178134727Y-118015944D01*
X178139163Y-118029853D01*
X178139594Y-118031654D01*
X178146333Y-118064145D01*
X178158808Y-118128252D01*
X178175719Y-118217151D01*
X178195771Y-118324019D01*
X178217664Y-118442033D01*
X178218429Y-118446178D01*
X178240359Y-118561831D01*
X178260877Y-118664014D01*
X178278659Y-118746598D01*
X178292381Y-118803456D01*
X178300718Y-118828458D01*
X178301116Y-118828901D01*
X178325677Y-118841110D01*
X178376315Y-118861456D01*
X178442095Y-118885545D01*
X178442461Y-118885674D01*
X178525317Y-118916818D01*
X178623000Y-118956491D01*
X178715077Y-118996381D01*
X178719434Y-118998353D01*
X178869407Y-119066420D01*
X179201498Y-118839639D01*
X179303374Y-118770504D01*
X179395657Y-118708697D01*
X179473003Y-118657733D01*
X179530064Y-118621127D01*
X179561495Y-118602394D01*
X179564479Y-118601004D01*
X179587321Y-118607190D01*
X179629982Y-118637035D01*
X179694128Y-118691947D01*
X179781421Y-118773334D01*
X179870535Y-118859922D01*
X179956441Y-118945247D01*
X180033327Y-119023108D01*
X180096564Y-119088697D01*
X180141523Y-119137205D01*
X180163576Y-119163825D01*
X180164396Y-119165195D01*
X180166834Y-119183463D01*
X180157650Y-119213295D01*
X180134574Y-119258721D01*
X180095337Y-119323770D01*
X180037670Y-119412470D01*
X179960795Y-119526657D01*
X179892570Y-119627162D01*
X179831582Y-119717303D01*
X179781356Y-119791849D01*
X179745416Y-119845565D01*
X179727287Y-119873218D01*
X179726146Y-119875095D01*
X179728359Y-119901590D01*
X179745138Y-119953086D01*
X179773142Y-120019851D01*
X179783122Y-120041172D01*
X179826672Y-120136159D01*
X179873134Y-120243937D01*
X179910877Y-120337192D01*
X179938073Y-120406406D01*
X179959675Y-120459006D01*
X179972158Y-120486497D01*
X179973709Y-120488616D01*
X179996668Y-120492124D01*
X180050786Y-120501738D01*
X180128868Y-120516089D01*
X180223719Y-120533807D01*
X180328143Y-120553525D01*
X180434944Y-120573874D01*
X180536926Y-120593486D01*
X180626894Y-120610991D01*
X180697653Y-120625022D01*
X180742006Y-120634209D01*
X180752885Y-120636807D01*
X180764122Y-120643218D01*
X180772605Y-120657697D01*
X180778714Y-120685133D01*
X180782832Y-120730411D01*
X180785341Y-120798420D01*
X180786621Y-120894047D01*
X180787054Y-121022180D01*
X180787077Y-121074701D01*
X180787077Y-121501845D01*
X180684500Y-121522091D01*
X180627431Y-121533070D01*
X180542269Y-121549095D01*
X180439372Y-121568233D01*
X180329096Y-121588551D01*
X180298615Y-121594132D01*
X180196855Y-121613917D01*
X180108205Y-121633373D01*
X180040108Y-121650697D01*
X180000004Y-121664088D01*
X179993323Y-121668079D01*
X179976919Y-121696342D01*
X179953399Y-121751109D01*
X179927316Y-121821588D01*
X179922142Y-121836769D01*
X179887956Y-121930896D01*
X179845523Y-122037101D01*
X179803997Y-122132473D01*
X179803792Y-122132916D01*
X179734640Y-122282525D01*
X180189512Y-122951617D01*
X179897500Y-123244116D01*
X179809180Y-123331170D01*
X179728625Y-123407909D01*
X179660360Y-123470237D01*
X179608908Y-123514056D01*
X179578794Y-123535270D01*
X179574474Y-123536616D01*
X179549111Y-123526016D01*
X179497358Y-123496547D01*
X179424868Y-123451705D01*
X179337294Y-123394984D01*
X179242612Y-123331462D01*
X179146516Y-123266668D01*
X179060837Y-123210287D01*
X178991016Y-123165788D01*
X178942494Y-123136639D01*
X178920782Y-123126308D01*
X178894293Y-123135050D01*
X178844062Y-123158087D01*
X178780451Y-123190631D01*
X178773708Y-123194249D01*
X178688046Y-123237210D01*
X178629306Y-123258279D01*
X178592772Y-123258503D01*
X178573731Y-123238928D01*
X178573620Y-123238654D01*
X178564102Y-123215472D01*
X178541403Y-123160441D01*
X178507282Y-123077822D01*
X178463500Y-122971872D01*
X178411816Y-122846852D01*
X178353992Y-122707020D01*
X178297991Y-122571637D01*
X178236447Y-122422234D01*
X178179939Y-122283832D01*
X178130161Y-122160673D01*
X178088806Y-122057002D01*
X178057568Y-121977059D01*
X178038141Y-121925088D01*
X178032154Y-121905692D01*
X178047168Y-121883443D01*
X178086439Y-121847982D01*
X178138807Y-121808887D01*
X178287941Y-121685245D01*
X178404511Y-121543522D01*
X178487118Y-121386704D01*
X178534366Y-121217775D01*
X178544857Y-121039722D01*
X178537231Y-120957539D01*
X178495682Y-120787031D01*
X178424123Y-120636459D01*
X178326995Y-120507309D01*
X178208734Y-120401064D01*
X178073780Y-120319210D01*
X177926571Y-120263232D01*
X177771544Y-120234615D01*
X177613139Y-120234844D01*
X177455794Y-120265405D01*
X177303946Y-120327782D01*
X177162035Y-120423460D01*
X177102803Y-120477572D01*
X176989203Y-120616520D01*
X176910106Y-120768361D01*
X176864986Y-120928667D01*
X176853316Y-121093012D01*
X176874569Y-121256971D01*
X176928220Y-121416118D01*
X177013740Y-121566025D01*
X177130605Y-121702267D01*
X177261193Y-121808887D01*
X177315588Y-121849642D01*
X177354014Y-121884718D01*
X177367846Y-121905726D01*
X177360603Y-121928635D01*
X177340005Y-121983365D01*
X177307746Y-122065672D01*
X177265521Y-122171315D01*
X177215023Y-122296050D01*
X177157948Y-122435636D01*
X177101854Y-122571670D01*
X177039967Y-122721201D01*
X176982644Y-122859767D01*
X176931644Y-122983107D01*
X176888727Y-123086964D01*
X176855653Y-123167080D01*
X176834181Y-123219195D01*
X176826225Y-123238654D01*
X176807429Y-123258423D01*
X176771074Y-123258365D01*
X176712479Y-123237441D01*
X176626968Y-123194613D01*
X176626292Y-123194249D01*
X176561907Y-123161012D01*
X176509861Y-123136802D01*
X176480512Y-123126404D01*
X176479217Y-123126308D01*
X176457124Y-123136855D01*
X176408348Y-123166184D01*
X176338331Y-123210827D01*
X176252514Y-123267314D01*
X176157388Y-123331462D01*
X176060540Y-123396411D01*
X175973253Y-123452896D01*
X175901181Y-123497421D01*
X175849977Y-123526490D01*
X175825526Y-123536616D01*
X175803010Y-123523307D01*
X175757742Y-123486112D01*
X175694244Y-123429128D01*
X175617039Y-123356449D01*
X175530651Y-123272171D01*
X175502399Y-123244016D01*
X175210287Y-122951416D01*
X175432631Y-122625104D01*
X175500202Y-122524897D01*
X175559507Y-122434963D01*
X175607217Y-122360510D01*
X175640007Y-122306751D01*
X175654548Y-122278894D01*
X175654974Y-122276912D01*
X175647308Y-122250655D01*
X175626689Y-122197837D01*
X175596685Y-122127310D01*
X175575625Y-122080093D01*
X175536248Y-121989694D01*
X175499165Y-121898366D01*
X175470415Y-121821200D01*
X175462605Y-121797692D01*
X175440417Y-121734916D01*
X175418727Y-121686411D01*
X175406813Y-121668079D01*
X175380523Y-121656859D01*
X175323142Y-121640954D01*
X175242118Y-121622167D01*
X175144895Y-121602299D01*
X175101385Y-121594132D01*
X174990896Y-121573829D01*
X174884916Y-121554170D01*
X174793801Y-121537088D01*
X174727908Y-121524518D01*
X174715500Y-121522091D01*
X174612923Y-121501845D01*
X174612923Y-121074701D01*
X174613153Y-120934246D01*
X174614099Y-120827979D01*
X174616141Y-120751013D01*
X174619662Y-120698460D01*
X174625043Y-120665433D01*
X174632666Y-120647045D01*
X174642912Y-120638408D01*
X174647115Y-120636807D01*
X174672470Y-120631127D01*
X174728484Y-120619795D01*
X174807964Y-120604179D01*
X174903712Y-120585647D01*
X175008533Y-120565569D01*
X175115232Y-120545312D01*
X175216613Y-120526246D01*
X175305479Y-120509739D01*
X175374637Y-120497159D01*
X175416889Y-120489875D01*
X175426290Y-120488616D01*
X175434807Y-120471763D01*
X175453660Y-120426870D01*
X175479324Y-120362430D01*
X175489123Y-120337192D01*
X175528648Y-120239686D01*
X175575192Y-120131959D01*
X175616877Y-120041172D01*
X175647550Y-119971753D01*
X175667956Y-119914710D01*
X175674768Y-119879777D01*
X175673682Y-119875095D01*
X175659285Y-119852991D01*
X175626412Y-119803831D01*
X175578590Y-119732848D01*
X175519348Y-119645278D01*
X175452215Y-119546357D01*
X175438941Y-119526830D01*
X175361046Y-119411140D01*
X175303787Y-119323044D01*
X175264881Y-119258486D01*
X175242044Y-119213411D01*
X175232994Y-119183763D01*
X175235448Y-119165485D01*
X175235511Y-119165369D01*
X175254827Y-119141361D01*
X175297551Y-119094947D01*
X175359051Y-119030937D01*
X175434698Y-118954145D01*
X175519861Y-118869382D01*
X175529465Y-118859922D01*
X175636790Y-118755989D01*
X175719615Y-118679675D01*
X175779605Y-118629571D01*
X175818423Y-118604270D01*
X175835520Y-118601004D01*
X175860473Y-118615250D01*
X175912255Y-118648156D01*
X175985520Y-118696208D01*
X176074920Y-118755890D01*
X176175111Y-118823688D01*
X176198501Y-118839639D01*
X176530593Y-119066420D01*
X176680565Y-118998353D01*
X176771770Y-118958685D01*
X176869669Y-118918791D01*
X176953831Y-118886983D01*
X176957538Y-118885674D01*
X177023369Y-118861576D01*
X177074116Y-118841200D01*
X177098842Y-118828936D01*
X177098884Y-118828901D01*
X177106729Y-118806734D01*
X177120066Y-118752217D01*
X177137570Y-118671480D01*
X177157917Y-118570650D01*
X177179782Y-118455856D01*
X177181571Y-118446178D01*
X177203504Y-118327904D01*
X177223640Y-118220542D01*
X177240680Y-118130917D01*
X177253328Y-118065851D01*
X177260284Y-118032168D01*
X177260406Y-118031654D01*
X177264639Y-118017325D01*
X177272871Y-118006507D01*
X177290033Y-117998706D01*
X177321058Y-117993429D01*
X177370878Y-117990182D01*
X177444424Y-117988472D01*
X177546629Y-117987807D01*
X177682425Y-117987693D01*
X177700000Y-117987692D01*
X177839878Y-117987776D01*
G36*
X181945224Y-124347838D02*
X182022528Y-124398361D01*
X182059814Y-124443590D01*
X182089353Y-124525663D01*
X182091699Y-124590607D01*
X182086385Y-124677445D01*
X181886115Y-124765103D01*
X181788739Y-124809887D01*
X181725113Y-124845913D01*
X181692029Y-124877117D01*
X181686280Y-124907436D01*
X181704658Y-124940805D01*
X181724923Y-124962923D01*
X181783889Y-124998393D01*
X181848024Y-125000879D01*
X181906926Y-124973235D01*
X181950197Y-124918320D01*
X181957936Y-124898928D01*
X181995006Y-124838364D01*
X182037654Y-124812552D01*
X182096154Y-124790471D01*
X182096154Y-124874184D01*
X182090982Y-124931150D01*
X182070723Y-124979189D01*
X182028262Y-125034346D01*
X182021951Y-125041514D01*
X181974720Y-125090585D01*
X181934121Y-125116920D01*
X181883328Y-125129035D01*
X181841220Y-125133003D01*
X181765902Y-125133991D01*
X181712286Y-125121466D01*
X181678838Y-125102869D01*
X181626268Y-125061975D01*
X181589879Y-125017748D01*
X181566850Y-124962126D01*
X181554359Y-124887047D01*
X181549587Y-124784449D01*
X181549206Y-124732376D01*
X181550501Y-124669948D01*
X181668471Y-124669948D01*
X181669839Y-124703438D01*
X181673249Y-124708923D01*
X181695753Y-124701472D01*
X181744182Y-124681753D01*
X181808908Y-124653718D01*
X181822443Y-124647692D01*
X181904244Y-124606096D01*
X181949312Y-124569538D01*
X181959217Y-124535296D01*
X181935526Y-124500648D01*
X181915960Y-124485339D01*
X181845360Y-124454721D01*
X181779280Y-124459780D01*
X181723959Y-124497151D01*
X181685636Y-124563473D01*
X181673349Y-124616116D01*
X181668471Y-124669948D01*
X181550501Y-124669948D01*
X181551730Y-124610720D01*
X181561032Y-124520710D01*
X181579460Y-124455167D01*
X181609360Y-124406912D01*
X181653080Y-124368767D01*
X181672141Y-124356440D01*
X181758726Y-124324336D01*
X181853522Y-124322316D01*
X181945224Y-124347838D01*
X181945224Y-124347838D01*
G37*
X181945224Y-124347838D02*
X182022528Y-124398361D01*
X182059814Y-124443590D01*
X182089353Y-124525663D01*
X182091699Y-124590607D01*
X182086385Y-124677445D01*
X181886115Y-124765103D01*
X181788739Y-124809887D01*
X181725113Y-124845913D01*
X181692029Y-124877117D01*
X181686280Y-124907436D01*
X181704658Y-124940805D01*
X181724923Y-124962923D01*
X181783889Y-124998393D01*
X181848024Y-125000879D01*
X181906926Y-124973235D01*
X181950197Y-124918320D01*
X181957936Y-124898928D01*
X181995006Y-124838364D01*
X182037654Y-124812552D01*
X182096154Y-124790471D01*
X182096154Y-124874184D01*
X182090982Y-124931150D01*
X182070723Y-124979189D01*
X182028262Y-125034346D01*
X182021951Y-125041514D01*
X181974720Y-125090585D01*
X181934121Y-125116920D01*
X181883328Y-125129035D01*
X181841220Y-125133003D01*
X181765902Y-125133991D01*
X181712286Y-125121466D01*
X181678838Y-125102869D01*
X181626268Y-125061975D01*
X181589879Y-125017748D01*
X181566850Y-124962126D01*
X181554359Y-124887047D01*
X181549587Y-124784449D01*
X181549206Y-124732376D01*
X181550501Y-124669948D01*
X181668471Y-124669948D01*
X181669839Y-124703438D01*
X181673249Y-124708923D01*
X181695753Y-124701472D01*
X181744182Y-124681753D01*
X181808908Y-124653718D01*
X181822443Y-124647692D01*
X181904244Y-124606096D01*
X181949312Y-124569538D01*
X181959217Y-124535296D01*
X181935526Y-124500648D01*
X181915960Y-124485339D01*
X181845360Y-124454721D01*
X181779280Y-124459780D01*
X181723959Y-124497151D01*
X181685636Y-124563473D01*
X181673349Y-124616116D01*
X181668471Y-124669948D01*
X181550501Y-124669948D01*
X181551730Y-124610720D01*
X181561032Y-124520710D01*
X181579460Y-124455167D01*
X181609360Y-124406912D01*
X181653080Y-124368767D01*
X181672141Y-124356440D01*
X181758726Y-124324336D01*
X181853522Y-124322316D01*
X181945224Y-124347838D01*
G36*
X181270807Y-124336782D02*
X181294161Y-124346988D01*
X181349902Y-124391134D01*
X181397569Y-124454967D01*
X181427048Y-124523087D01*
X181431846Y-124556670D01*
X181415760Y-124603556D01*
X181380475Y-124628365D01*
X181342644Y-124643387D01*
X181325321Y-124646155D01*
X181316886Y-124626066D01*
X181300230Y-124582351D01*
X181292923Y-124562598D01*
X181251948Y-124494271D01*
X181192622Y-124460191D01*
X181116552Y-124461239D01*
X181110918Y-124462581D01*
X181070305Y-124481836D01*
X181040448Y-124519375D01*
X181020055Y-124579809D01*
X181007836Y-124667751D01*
X181002500Y-124787813D01*
X181002000Y-124851698D01*
X181001752Y-124952403D01*
X181000126Y-125021054D01*
X180995801Y-125064673D01*
X180987454Y-125090282D01*
X180973765Y-125104903D01*
X180953411Y-125115558D01*
X180952234Y-125116095D01*
X180913038Y-125132667D01*
X180893619Y-125138769D01*
X180890635Y-125120319D01*
X180888081Y-125069323D01*
X180886140Y-124992308D01*
X180884997Y-124895805D01*
X180884769Y-124825184D01*
X180885932Y-124688525D01*
X180890479Y-124584851D01*
X180899999Y-124508108D01*
X180916081Y-124452246D01*
X180940313Y-124411212D01*
X180974286Y-124378954D01*
X181007833Y-124356440D01*
X181088499Y-124326476D01*
X181182381Y-124319718D01*
X181270807Y-124336782D01*
X181270807Y-124336782D01*
G37*
X181270807Y-124336782D02*
X181294161Y-124346988D01*
X181349902Y-124391134D01*
X181397569Y-124454967D01*
X181427048Y-124523087D01*
X181431846Y-124556670D01*
X181415760Y-124603556D01*
X181380475Y-124628365D01*
X181342644Y-124643387D01*
X181325321Y-124646155D01*
X181316886Y-124626066D01*
X181300230Y-124582351D01*
X181292923Y-124562598D01*
X181251948Y-124494271D01*
X181192622Y-124460191D01*
X181116552Y-124461239D01*
X181110918Y-124462581D01*
X181070305Y-124481836D01*
X181040448Y-124519375D01*
X181020055Y-124579809D01*
X181007836Y-124667751D01*
X181002500Y-124787813D01*
X181002000Y-124851698D01*
X181001752Y-124952403D01*
X181000126Y-125021054D01*
X180995801Y-125064673D01*
X180987454Y-125090282D01*
X180973765Y-125104903D01*
X180953411Y-125115558D01*
X180952234Y-125116095D01*
X180913038Y-125132667D01*
X180893619Y-125138769D01*
X180890635Y-125120319D01*
X180888081Y-125069323D01*
X180886140Y-124992308D01*
X180884997Y-124895805D01*
X180884769Y-124825184D01*
X180885932Y-124688525D01*
X180890479Y-124584851D01*
X180899999Y-124508108D01*
X180916081Y-124452246D01*
X180940313Y-124411212D01*
X180974286Y-124378954D01*
X181007833Y-124356440D01*
X181088499Y-124326476D01*
X181182381Y-124319718D01*
X181270807Y-124336782D01*
G36*
X180587333Y-124333528D02*
X180643590Y-124359117D01*
X180687747Y-124390124D01*
X180720101Y-124424795D01*
X180742438Y-124469520D01*
X180756546Y-124530692D01*
X180764211Y-124614701D01*
X180767220Y-124727940D01*
X180767538Y-124802509D01*
X180767538Y-125093420D01*
X180717773Y-125116095D01*
X180678576Y-125132667D01*
X180659157Y-125138769D01*
X180655442Y-125120610D01*
X180652495Y-125071648D01*
X180650691Y-125000153D01*
X180650308Y-124943385D01*
X180648661Y-124861371D01*
X180644222Y-124796309D01*
X180637740Y-124756467D01*
X180632590Y-124748000D01*
X180597977Y-124756646D01*
X180543640Y-124778823D01*
X180480722Y-124808886D01*
X180420368Y-124841192D01*
X180373721Y-124870098D01*
X180351926Y-124889961D01*
X180351839Y-124890175D01*
X180353714Y-124926935D01*
X180370525Y-124962026D01*
X180400039Y-124990528D01*
X180443116Y-125000061D01*
X180479932Y-124998950D01*
X180532074Y-124998133D01*
X180559444Y-125010349D01*
X180575882Y-125042624D01*
X180577955Y-125048710D01*
X180585081Y-125094739D01*
X180566024Y-125122687D01*
X180516353Y-125136007D01*
X180462697Y-125138470D01*
X180366142Y-125120210D01*
X180316159Y-125094131D01*
X180254429Y-125032868D01*
X180221690Y-124957670D01*
X180218753Y-124878211D01*
X180246424Y-124804167D01*
X180288047Y-124757769D01*
X180329604Y-124731793D01*
X180394922Y-124698907D01*
X180471038Y-124665557D01*
X180483726Y-124660461D01*
X180567333Y-124623565D01*
X180615530Y-124591046D01*
X180631030Y-124558718D01*
X180616550Y-124522394D01*
X180591692Y-124494000D01*
X180532939Y-124459039D01*
X180468293Y-124456417D01*
X180409008Y-124483358D01*
X180366339Y-124537088D01*
X180360739Y-124550950D01*
X180328133Y-124601936D01*
X180280530Y-124639787D01*
X180220461Y-124670850D01*
X180220461Y-124582768D01*
X180223997Y-124528951D01*
X180239156Y-124486534D01*
X180272768Y-124441279D01*
X180305035Y-124406420D01*
X180355209Y-124357062D01*
X180394193Y-124330547D01*
X180436064Y-124319911D01*
X180483460Y-124318154D01*
X180587333Y-124333528D01*
X180587333Y-124333528D01*
G37*
X180587333Y-124333528D02*
X180643590Y-124359117D01*
X180687747Y-124390124D01*
X180720101Y-124424795D01*
X180742438Y-124469520D01*
X180756546Y-124530692D01*
X180764211Y-124614701D01*
X180767220Y-124727940D01*
X180767538Y-124802509D01*
X180767538Y-125093420D01*
X180717773Y-125116095D01*
X180678576Y-125132667D01*
X180659157Y-125138769D01*
X180655442Y-125120610D01*
X180652495Y-125071648D01*
X180650691Y-125000153D01*
X180650308Y-124943385D01*
X180648661Y-124861371D01*
X180644222Y-124796309D01*
X180637740Y-124756467D01*
X180632590Y-124748000D01*
X180597977Y-124756646D01*
X180543640Y-124778823D01*
X180480722Y-124808886D01*
X180420368Y-124841192D01*
X180373721Y-124870098D01*
X180351926Y-124889961D01*
X180351839Y-124890175D01*
X180353714Y-124926935D01*
X180370525Y-124962026D01*
X180400039Y-124990528D01*
X180443116Y-125000061D01*
X180479932Y-124998950D01*
X180532074Y-124998133D01*
X180559444Y-125010349D01*
X180575882Y-125042624D01*
X180577955Y-125048710D01*
X180585081Y-125094739D01*
X180566024Y-125122687D01*
X180516353Y-125136007D01*
X180462697Y-125138470D01*
X180366142Y-125120210D01*
X180316159Y-125094131D01*
X180254429Y-125032868D01*
X180221690Y-124957670D01*
X180218753Y-124878211D01*
X180246424Y-124804167D01*
X180288047Y-124757769D01*
X180329604Y-124731793D01*
X180394922Y-124698907D01*
X180471038Y-124665557D01*
X180483726Y-124660461D01*
X180567333Y-124623565D01*
X180615530Y-124591046D01*
X180631030Y-124558718D01*
X180616550Y-124522394D01*
X180591692Y-124494000D01*
X180532939Y-124459039D01*
X180468293Y-124456417D01*
X180409008Y-124483358D01*
X180366339Y-124537088D01*
X180360739Y-124550950D01*
X180328133Y-124601936D01*
X180280530Y-124639787D01*
X180220461Y-124670850D01*
X180220461Y-124582768D01*
X180223997Y-124528951D01*
X180239156Y-124486534D01*
X180272768Y-124441279D01*
X180305035Y-124406420D01*
X180355209Y-124357062D01*
X180394193Y-124330547D01*
X180436064Y-124319911D01*
X180483460Y-124318154D01*
X180587333Y-124333528D01*
G36*
X180095929Y-124336662D02*
X180098911Y-124388068D01*
X180101247Y-124466192D01*
X180102749Y-124564857D01*
X180103231Y-124668343D01*
X180103231Y-125018533D01*
X180041401Y-125080363D01*
X179998793Y-125118462D01*
X179961390Y-125133895D01*
X179910270Y-125132918D01*
X179889978Y-125130433D01*
X179826554Y-125123200D01*
X179774095Y-125119055D01*
X179761308Y-125118672D01*
X179718199Y-125121176D01*
X179656544Y-125127462D01*
X179632638Y-125130433D01*
X179573922Y-125135028D01*
X179534464Y-125125046D01*
X179495338Y-125094228D01*
X179481215Y-125080363D01*
X179419385Y-125018533D01*
X179419385Y-124363503D01*
X179469150Y-124340829D01*
X179512002Y-124324034D01*
X179537073Y-124318154D01*
X179543501Y-124336736D01*
X179549509Y-124388655D01*
X179554697Y-124468172D01*
X179558664Y-124569546D01*
X179560577Y-124655192D01*
X179565923Y-124992231D01*
X179612560Y-124998825D01*
X179654976Y-124994214D01*
X179675760Y-124979287D01*
X179681570Y-124951377D01*
X179686530Y-124891925D01*
X179690246Y-124808466D01*
X179692324Y-124708532D01*
X179692624Y-124657104D01*
X179692923Y-124361054D01*
X179754454Y-124339604D01*
X179798004Y-124325020D01*
X179821694Y-124318219D01*
X179822377Y-124318154D01*
X179824754Y-124336642D01*
X179827366Y-124387906D01*
X179829995Y-124465649D01*
X179832421Y-124563574D01*
X179834115Y-124655192D01*
X179839461Y-124992231D01*
X179956692Y-124992231D01*
X179962072Y-124684746D01*
X179967451Y-124377261D01*
X180024601Y-124347707D01*
X180066797Y-124327413D01*
X180091770Y-124318204D01*
X180092491Y-124318154D01*
X180095929Y-124336662D01*
X180095929Y-124336662D01*
G37*
X180095929Y-124336662D02*
X180098911Y-124388068D01*
X180101247Y-124466192D01*
X180102749Y-124564857D01*
X180103231Y-124668343D01*
X180103231Y-125018533D01*
X180041401Y-125080363D01*
X179998793Y-125118462D01*
X179961390Y-125133895D01*
X179910270Y-125132918D01*
X179889978Y-125130433D01*
X179826554Y-125123200D01*
X179774095Y-125119055D01*
X179761308Y-125118672D01*
X179718199Y-125121176D01*
X179656544Y-125127462D01*
X179632638Y-125130433D01*
X179573922Y-125135028D01*
X179534464Y-125125046D01*
X179495338Y-125094228D01*
X179481215Y-125080363D01*
X179419385Y-125018533D01*
X179419385Y-124363503D01*
X179469150Y-124340829D01*
X179512002Y-124324034D01*
X179537073Y-124318154D01*
X179543501Y-124336736D01*
X179549509Y-124388655D01*
X179554697Y-124468172D01*
X179558664Y-124569546D01*
X179560577Y-124655192D01*
X179565923Y-124992231D01*
X179612560Y-124998825D01*
X179654976Y-124994214D01*
X179675760Y-124979287D01*
X179681570Y-124951377D01*
X179686530Y-124891925D01*
X179690246Y-124808466D01*
X179692324Y-124708532D01*
X179692624Y-124657104D01*
X179692923Y-124361054D01*
X179754454Y-124339604D01*
X179798004Y-124325020D01*
X179821694Y-124318219D01*
X179822377Y-124318154D01*
X179824754Y-124336642D01*
X179827366Y-124387906D01*
X179829995Y-124465649D01*
X179832421Y-124563574D01*
X179834115Y-124655192D01*
X179839461Y-124992231D01*
X179956692Y-124992231D01*
X179962072Y-124684746D01*
X179967451Y-124377261D01*
X180024601Y-124347707D01*
X180066797Y-124327413D01*
X180091770Y-124318204D01*
X180092491Y-124318154D01*
X180095929Y-124336662D01*
G36*
X179302081Y-124480289D02*
X179301833Y-124626320D01*
X179300872Y-124738655D01*
X179298794Y-124822678D01*
X179295193Y-124883769D01*
X179289665Y-124927309D01*
X179281804Y-124958679D01*
X179271207Y-124983262D01*
X179263182Y-124997294D01*
X179196728Y-125073388D01*
X179112470Y-125121084D01*
X179019249Y-125138199D01*
X178925900Y-125122546D01*
X178870312Y-125094418D01*
X178811957Y-125045760D01*
X178772186Y-124986333D01*
X178748190Y-124908507D01*
X178737161Y-124804652D01*
X178735599Y-124728462D01*
X178735809Y-124722986D01*
X178872308Y-124722986D01*
X178873141Y-124810355D01*
X178876961Y-124868192D01*
X178885746Y-124906029D01*
X178901474Y-124933398D01*
X178920266Y-124954042D01*
X178983375Y-124993890D01*
X179051137Y-124997295D01*
X179115179Y-124964025D01*
X179120164Y-124959517D01*
X179141439Y-124936067D01*
X179154779Y-124908166D01*
X179162001Y-124866641D01*
X179164923Y-124802316D01*
X179165385Y-124731200D01*
X179164383Y-124641858D01*
X179160238Y-124582258D01*
X179151236Y-124543089D01*
X179135667Y-124515040D01*
X179122902Y-124500144D01*
X179063600Y-124462575D01*
X178995301Y-124458057D01*
X178930110Y-124486753D01*
X178917528Y-124497406D01*
X178896111Y-124521063D01*
X178882744Y-124549251D01*
X178875566Y-124591245D01*
X178872719Y-124656319D01*
X178872308Y-124722986D01*
X178735809Y-124722986D01*
X178740322Y-124605765D01*
X178756362Y-124513577D01*
X178786528Y-124444269D01*
X178833629Y-124390211D01*
X178870312Y-124362505D01*
X178936990Y-124332572D01*
X179014272Y-124318678D01*
X179086110Y-124322397D01*
X179126308Y-124337400D01*
X179142082Y-124341670D01*
X179152550Y-124325750D01*
X179159856Y-124283089D01*
X179165385Y-124218106D01*
X179171437Y-124145732D01*
X179179844Y-124102187D01*
X179195141Y-124077287D01*
X179221864Y-124060845D01*
X179238654Y-124053564D01*
X179302154Y-124026963D01*
X179302081Y-124480289D01*
X179302081Y-124480289D01*
G37*
X179302081Y-124480289D02*
X179301833Y-124626320D01*
X179300872Y-124738655D01*
X179298794Y-124822678D01*
X179295193Y-124883769D01*
X179289665Y-124927309D01*
X179281804Y-124958679D01*
X179271207Y-124983262D01*
X179263182Y-124997294D01*
X179196728Y-125073388D01*
X179112470Y-125121084D01*
X179019249Y-125138199D01*
X178925900Y-125122546D01*
X178870312Y-125094418D01*
X178811957Y-125045760D01*
X178772186Y-124986333D01*
X178748190Y-124908507D01*
X178737161Y-124804652D01*
X178735599Y-124728462D01*
X178735809Y-124722986D01*
X178872308Y-124722986D01*
X178873141Y-124810355D01*
X178876961Y-124868192D01*
X178885746Y-124906029D01*
X178901474Y-124933398D01*
X178920266Y-124954042D01*
X178983375Y-124993890D01*
X179051137Y-124997295D01*
X179115179Y-124964025D01*
X179120164Y-124959517D01*
X179141439Y-124936067D01*
X179154779Y-124908166D01*
X179162001Y-124866641D01*
X179164923Y-124802316D01*
X179165385Y-124731200D01*
X179164383Y-124641858D01*
X179160238Y-124582258D01*
X179151236Y-124543089D01*
X179135667Y-124515040D01*
X179122902Y-124500144D01*
X179063600Y-124462575D01*
X178995301Y-124458057D01*
X178930110Y-124486753D01*
X178917528Y-124497406D01*
X178896111Y-124521063D01*
X178882744Y-124549251D01*
X178875566Y-124591245D01*
X178872719Y-124656319D01*
X178872308Y-124722986D01*
X178735809Y-124722986D01*
X178740322Y-124605765D01*
X178756362Y-124513577D01*
X178786528Y-124444269D01*
X178833629Y-124390211D01*
X178870312Y-124362505D01*
X178936990Y-124332572D01*
X179014272Y-124318678D01*
X179086110Y-124322397D01*
X179126308Y-124337400D01*
X179142082Y-124341670D01*
X179152550Y-124325750D01*
X179159856Y-124283089D01*
X179165385Y-124218106D01*
X179171437Y-124145732D01*
X179179844Y-124102187D01*
X179195141Y-124077287D01*
X179221864Y-124060845D01*
X179238654Y-124053564D01*
X179302154Y-124026963D01*
X179302081Y-124480289D01*
G36*
X178413362Y-124324670D02*
X178502117Y-124357421D01*
X178574022Y-124415350D01*
X178602144Y-124456128D01*
X178632802Y-124530954D01*
X178632165Y-124585058D01*
X178599987Y-124621446D01*
X178588081Y-124627633D01*
X178536675Y-124646925D01*
X178510422Y-124641982D01*
X178501530Y-124609587D01*
X178501077Y-124591692D01*
X178484797Y-124525859D01*
X178442365Y-124479807D01*
X178383388Y-124457564D01*
X178317475Y-124463161D01*
X178263895Y-124492229D01*
X178245798Y-124508810D01*
X178232971Y-124528925D01*
X178224306Y-124559332D01*
X178218696Y-124606788D01*
X178215035Y-124678050D01*
X178212215Y-124779875D01*
X178211484Y-124812115D01*
X178208820Y-124922410D01*
X178205792Y-125000036D01*
X178201250Y-125051396D01*
X178194046Y-125082890D01*
X178183033Y-125100920D01*
X178167060Y-125111888D01*
X178156834Y-125116733D01*
X178113406Y-125133301D01*
X178087842Y-125138769D01*
X178079395Y-125120507D01*
X178074239Y-125065296D01*
X178072346Y-124972499D01*
X178073689Y-124841478D01*
X178074107Y-124821269D01*
X178077058Y-124701733D01*
X178080548Y-124614449D01*
X178085514Y-124552591D01*
X178092893Y-124509336D01*
X178103624Y-124477860D01*
X178118645Y-124451339D01*
X178126502Y-124439975D01*
X178171553Y-124389692D01*
X178221940Y-124350581D01*
X178228108Y-124347167D01*
X178318458Y-124320212D01*
X178413362Y-124324670D01*
X178413362Y-124324670D01*
G37*
X178413362Y-124324670D02*
X178502117Y-124357421D01*
X178574022Y-124415350D01*
X178602144Y-124456128D01*
X178632802Y-124530954D01*
X178632165Y-124585058D01*
X178599987Y-124621446D01*
X178588081Y-124627633D01*
X178536675Y-124646925D01*
X178510422Y-124641982D01*
X178501530Y-124609587D01*
X178501077Y-124591692D01*
X178484797Y-124525859D01*
X178442365Y-124479807D01*
X178383388Y-124457564D01*
X178317475Y-124463161D01*
X178263895Y-124492229D01*
X178245798Y-124508810D01*
X178232971Y-124528925D01*
X178224306Y-124559332D01*
X178218696Y-124606788D01*
X178215035Y-124678050D01*
X178212215Y-124779875D01*
X178211484Y-124812115D01*
X178208820Y-124922410D01*
X178205792Y-125000036D01*
X178201250Y-125051396D01*
X178194046Y-125082890D01*
X178183033Y-125100920D01*
X178167060Y-125111888D01*
X178156834Y-125116733D01*
X178113406Y-125133301D01*
X178087842Y-125138769D01*
X178079395Y-125120507D01*
X178074239Y-125065296D01*
X178072346Y-124972499D01*
X178073689Y-124841478D01*
X178074107Y-124821269D01*
X178077058Y-124701733D01*
X178080548Y-124614449D01*
X178085514Y-124552591D01*
X178092893Y-124509336D01*
X178103624Y-124477860D01*
X178118645Y-124451339D01*
X178126502Y-124439975D01*
X178171553Y-124389692D01*
X178221940Y-124350581D01*
X178228108Y-124347167D01*
X178318458Y-124320212D01*
X178413362Y-124324670D01*
G36*
X177753501Y-124326303D02*
X177830060Y-124354733D01*
X177830936Y-124355279D01*
X177878285Y-124390127D01*
X177913241Y-124430852D01*
X177937825Y-124483925D01*
X177954062Y-124555814D01*
X177963975Y-124652992D01*
X177969586Y-124781928D01*
X177970077Y-124800298D01*
X177977141Y-125077287D01*
X177917695Y-125108028D01*
X177874681Y-125128802D01*
X177848710Y-125138646D01*
X177847509Y-125138769D01*
X177843014Y-125120606D01*
X177839444Y-125071612D01*
X177837248Y-125000031D01*
X177836769Y-124942068D01*
X177836758Y-124848170D01*
X177832466Y-124789203D01*
X177817503Y-124761079D01*
X177785482Y-124759706D01*
X177730014Y-124780998D01*
X177646269Y-124820136D01*
X177584689Y-124852643D01*
X177553017Y-124880845D01*
X177543706Y-124911582D01*
X177543692Y-124913104D01*
X177559057Y-124966054D01*
X177604547Y-124994660D01*
X177674166Y-124998803D01*
X177724313Y-124998084D01*
X177750754Y-125012527D01*
X177767243Y-125047218D01*
X177776733Y-125091416D01*
X177763057Y-125116493D01*
X177757907Y-125120082D01*
X177709425Y-125134496D01*
X177641531Y-125136537D01*
X177571612Y-125126983D01*
X177522068Y-125109522D01*
X177453570Y-125051364D01*
X177414634Y-124970408D01*
X177406923Y-124907160D01*
X177412807Y-124850111D01*
X177434101Y-124803542D01*
X177476265Y-124762181D01*
X177544759Y-124720755D01*
X177645044Y-124673993D01*
X177651154Y-124671350D01*
X177741490Y-124629617D01*
X177797235Y-124595391D01*
X177821129Y-124564635D01*
X177815913Y-124533311D01*
X177784328Y-124497383D01*
X177774883Y-124489116D01*
X177711617Y-124457058D01*
X177646064Y-124458407D01*
X177588972Y-124489838D01*
X177551093Y-124548024D01*
X177547574Y-124559446D01*
X177513300Y-124614837D01*
X177469809Y-124641518D01*
X177406923Y-124667960D01*
X177406923Y-124599548D01*
X177426052Y-124500110D01*
X177482831Y-124408902D01*
X177512378Y-124378389D01*
X177579542Y-124339228D01*
X177664956Y-124321500D01*
X177753501Y-124326303D01*
X177753501Y-124326303D01*
G37*
X177753501Y-124326303D02*
X177830060Y-124354733D01*
X177830936Y-124355279D01*
X177878285Y-124390127D01*
X177913241Y-124430852D01*
X177937825Y-124483925D01*
X177954062Y-124555814D01*
X177963975Y-124652992D01*
X177969586Y-124781928D01*
X177970077Y-124800298D01*
X177977141Y-125077287D01*
X177917695Y-125108028D01*
X177874681Y-125128802D01*
X177848710Y-125138646D01*
X177847509Y-125138769D01*
X177843014Y-125120606D01*
X177839444Y-125071612D01*
X177837248Y-125000031D01*
X177836769Y-124942068D01*
X177836758Y-124848170D01*
X177832466Y-124789203D01*
X177817503Y-124761079D01*
X177785482Y-124759706D01*
X177730014Y-124780998D01*
X177646269Y-124820136D01*
X177584689Y-124852643D01*
X177553017Y-124880845D01*
X177543706Y-124911582D01*
X177543692Y-124913104D01*
X177559057Y-124966054D01*
X177604547Y-124994660D01*
X177674166Y-124998803D01*
X177724313Y-124998084D01*
X177750754Y-125012527D01*
X177767243Y-125047218D01*
X177776733Y-125091416D01*
X177763057Y-125116493D01*
X177757907Y-125120082D01*
X177709425Y-125134496D01*
X177641531Y-125136537D01*
X177571612Y-125126983D01*
X177522068Y-125109522D01*
X177453570Y-125051364D01*
X177414634Y-124970408D01*
X177406923Y-124907160D01*
X177412807Y-124850111D01*
X177434101Y-124803542D01*
X177476265Y-124762181D01*
X177544759Y-124720755D01*
X177645044Y-124673993D01*
X177651154Y-124671350D01*
X177741490Y-124629617D01*
X177797235Y-124595391D01*
X177821129Y-124564635D01*
X177815913Y-124533311D01*
X177784328Y-124497383D01*
X177774883Y-124489116D01*
X177711617Y-124457058D01*
X177646064Y-124458407D01*
X177588972Y-124489838D01*
X177551093Y-124548024D01*
X177547574Y-124559446D01*
X177513300Y-124614837D01*
X177469809Y-124641518D01*
X177406923Y-124667960D01*
X177406923Y-124599548D01*
X177426052Y-124500110D01*
X177482831Y-124408902D01*
X177512378Y-124378389D01*
X177579542Y-124339228D01*
X177664956Y-124321500D01*
X177753501Y-124326303D01*
G36*
X176859846Y-124192120D02*
X176865572Y-124271980D01*
X176872149Y-124319039D01*
X176881262Y-124339566D01*
X176894598Y-124339829D01*
X176898923Y-124337378D01*
X176956444Y-124319636D01*
X177031268Y-124320672D01*
X177107339Y-124338910D01*
X177154918Y-124362505D01*
X177203702Y-124400198D01*
X177239364Y-124442855D01*
X177263845Y-124497057D01*
X177279087Y-124569384D01*
X177287030Y-124666419D01*
X177289616Y-124794742D01*
X177289662Y-124819358D01*
X177289692Y-125095870D01*
X177228161Y-125117320D01*
X177184459Y-125131912D01*
X177160482Y-125138706D01*
X177159777Y-125138769D01*
X177157415Y-125120345D01*
X177155406Y-125069526D01*
X177153901Y-124992993D01*
X177153053Y-124897430D01*
X177152923Y-124839329D01*
X177152651Y-124724771D01*
X177151252Y-124642667D01*
X177147849Y-124586393D01*
X177141567Y-124549326D01*
X177131529Y-124524844D01*
X177116861Y-124506325D01*
X177107702Y-124497406D01*
X177044789Y-124461466D01*
X176976136Y-124458775D01*
X176913848Y-124489170D01*
X176902329Y-124500144D01*
X176885433Y-124520779D01*
X176873714Y-124545256D01*
X176866233Y-124580647D01*
X176862054Y-124634026D01*
X176860237Y-124712466D01*
X176859846Y-124820617D01*
X176859846Y-125095870D01*
X176798315Y-125117320D01*
X176754613Y-125131912D01*
X176730636Y-125138706D01*
X176729930Y-125138769D01*
X176728126Y-125120069D01*
X176726500Y-125067322D01*
X176725117Y-124985557D01*
X176724042Y-124879805D01*
X176723340Y-124755094D01*
X176723077Y-124616455D01*
X176723077Y-124081806D01*
X176850077Y-124028236D01*
X176859846Y-124192120D01*
X176859846Y-124192120D01*
G37*
X176859846Y-124192120D02*
X176865572Y-124271980D01*
X176872149Y-124319039D01*
X176881262Y-124339566D01*
X176894598Y-124339829D01*
X176898923Y-124337378D01*
X176956444Y-124319636D01*
X177031268Y-124320672D01*
X177107339Y-124338910D01*
X177154918Y-124362505D01*
X177203702Y-124400198D01*
X177239364Y-124442855D01*
X177263845Y-124497057D01*
X177279087Y-124569384D01*
X177287030Y-124666419D01*
X177289616Y-124794742D01*
X177289662Y-124819358D01*
X177289692Y-125095870D01*
X177228161Y-125117320D01*
X177184459Y-125131912D01*
X177160482Y-125138706D01*
X177159777Y-125138769D01*
X177157415Y-125120345D01*
X177155406Y-125069526D01*
X177153901Y-124992993D01*
X177153053Y-124897430D01*
X177152923Y-124839329D01*
X177152651Y-124724771D01*
X177151252Y-124642667D01*
X177147849Y-124586393D01*
X177141567Y-124549326D01*
X177131529Y-124524844D01*
X177116861Y-124506325D01*
X177107702Y-124497406D01*
X177044789Y-124461466D01*
X176976136Y-124458775D01*
X176913848Y-124489170D01*
X176902329Y-124500144D01*
X176885433Y-124520779D01*
X176873714Y-124545256D01*
X176866233Y-124580647D01*
X176862054Y-124634026D01*
X176860237Y-124712466D01*
X176859846Y-124820617D01*
X176859846Y-125095870D01*
X176798315Y-125117320D01*
X176754613Y-125131912D01*
X176730636Y-125138706D01*
X176729930Y-125138769D01*
X176728126Y-125120069D01*
X176726500Y-125067322D01*
X176725117Y-124985557D01*
X176724042Y-124879805D01*
X176723340Y-124755094D01*
X176723077Y-124616455D01*
X176723077Y-124081806D01*
X176850077Y-124028236D01*
X176859846Y-124192120D01*
G36*
X175234254Y-124299745D02*
X175311286Y-124351567D01*
X175370816Y-124426412D01*
X175406378Y-124521654D01*
X175413571Y-124591756D01*
X175412754Y-124621009D01*
X175405914Y-124643407D01*
X175387112Y-124663474D01*
X175350408Y-124685733D01*
X175289862Y-124714709D01*
X175199534Y-124754927D01*
X175199077Y-124755129D01*
X175115933Y-124793210D01*
X175047753Y-124827025D01*
X175001505Y-124852933D01*
X174984158Y-124867295D01*
X174984154Y-124867411D01*
X174999443Y-124898685D01*
X175035196Y-124933157D01*
X175076242Y-124957990D01*
X175097037Y-124962923D01*
X175153770Y-124945862D01*
X175202627Y-124903133D01*
X175226465Y-124856155D01*
X175249397Y-124821522D01*
X175294318Y-124782081D01*
X175347123Y-124748009D01*
X175393710Y-124729480D01*
X175403452Y-124728462D01*
X175414418Y-124745215D01*
X175415079Y-124788039D01*
X175407020Y-124845781D01*
X175391827Y-124907289D01*
X175371086Y-124961409D01*
X175370038Y-124963510D01*
X175307621Y-125050660D01*
X175226726Y-125109939D01*
X175134856Y-125139034D01*
X175039513Y-125135634D01*
X174948198Y-125097428D01*
X174944138Y-125094741D01*
X174872306Y-125029642D01*
X174825073Y-124944705D01*
X174798934Y-124833021D01*
X174795426Y-124801643D01*
X174789213Y-124653536D01*
X174796661Y-124584468D01*
X174984154Y-124584468D01*
X174986590Y-124627552D01*
X174999914Y-124640126D01*
X175033132Y-124630719D01*
X175085494Y-124608483D01*
X175144024Y-124580610D01*
X175145479Y-124579872D01*
X175195089Y-124553777D01*
X175215000Y-124536363D01*
X175210090Y-124518107D01*
X175189416Y-124494120D01*
X175136819Y-124459406D01*
X175080177Y-124456856D01*
X175029369Y-124482119D01*
X174994276Y-124530847D01*
X174984154Y-124584468D01*
X174796661Y-124584468D01*
X174801992Y-124535036D01*
X174834778Y-124441055D01*
X174880421Y-124375215D01*
X174962802Y-124308681D01*
X175053546Y-124275676D01*
X175146185Y-124273573D01*
X175234254Y-124299745D01*
X175234254Y-124299745D01*
G37*
X175234254Y-124299745D02*
X175311286Y-124351567D01*
X175370816Y-124426412D01*
X175406378Y-124521654D01*
X175413571Y-124591756D01*
X175412754Y-124621009D01*
X175405914Y-124643407D01*
X175387112Y-124663474D01*
X175350408Y-124685733D01*
X175289862Y-124714709D01*
X175199534Y-124754927D01*
X175199077Y-124755129D01*
X175115933Y-124793210D01*
X175047753Y-124827025D01*
X175001505Y-124852933D01*
X174984158Y-124867295D01*
X174984154Y-124867411D01*
X174999443Y-124898685D01*
X175035196Y-124933157D01*
X175076242Y-124957990D01*
X175097037Y-124962923D01*
X175153770Y-124945862D01*
X175202627Y-124903133D01*
X175226465Y-124856155D01*
X175249397Y-124821522D01*
X175294318Y-124782081D01*
X175347123Y-124748009D01*
X175393710Y-124729480D01*
X175403452Y-124728462D01*
X175414418Y-124745215D01*
X175415079Y-124788039D01*
X175407020Y-124845781D01*
X175391827Y-124907289D01*
X175371086Y-124961409D01*
X175370038Y-124963510D01*
X175307621Y-125050660D01*
X175226726Y-125109939D01*
X175134856Y-125139034D01*
X175039513Y-125135634D01*
X174948198Y-125097428D01*
X174944138Y-125094741D01*
X174872306Y-125029642D01*
X174825073Y-124944705D01*
X174798934Y-124833021D01*
X174795426Y-124801643D01*
X174789213Y-124653536D01*
X174796661Y-124584468D01*
X174984154Y-124584468D01*
X174986590Y-124627552D01*
X174999914Y-124640126D01*
X175033132Y-124630719D01*
X175085494Y-124608483D01*
X175144024Y-124580610D01*
X175145479Y-124579872D01*
X175195089Y-124553777D01*
X175215000Y-124536363D01*
X175210090Y-124518107D01*
X175189416Y-124494120D01*
X175136819Y-124459406D01*
X175080177Y-124456856D01*
X175029369Y-124482119D01*
X174994276Y-124530847D01*
X174984154Y-124584468D01*
X174796661Y-124584468D01*
X174801992Y-124535036D01*
X174834778Y-124441055D01*
X174880421Y-124375215D01*
X174962802Y-124308681D01*
X175053546Y-124275676D01*
X175146185Y-124273573D01*
X175234254Y-124299745D01*
G36*
X173716886Y-124287256D02*
X173808464Y-124335409D01*
X173876049Y-124412905D01*
X173900057Y-124462727D01*
X173918738Y-124537533D01*
X173928301Y-124632052D01*
X173929208Y-124735210D01*
X173921921Y-124835935D01*
X173906903Y-124923153D01*
X173884615Y-124985791D01*
X173877765Y-124996579D01*
X173796632Y-125077105D01*
X173700266Y-125125336D01*
X173595701Y-125139450D01*
X173489968Y-125117629D01*
X173460543Y-125104547D01*
X173403241Y-125064231D01*
X173352950Y-125010775D01*
X173348197Y-125003995D01*
X173328878Y-124971321D01*
X173316108Y-124936394D01*
X173308564Y-124890414D01*
X173304924Y-124824584D01*
X173303865Y-124730105D01*
X173303846Y-124708923D01*
X173303894Y-124702182D01*
X173499231Y-124702182D01*
X173500368Y-124791349D01*
X173504841Y-124850520D01*
X173514246Y-124888741D01*
X173530176Y-124915053D01*
X173538308Y-124923846D01*
X173585058Y-124957261D01*
X173630447Y-124955737D01*
X173676340Y-124926752D01*
X173703712Y-124895809D01*
X173719923Y-124850643D01*
X173729026Y-124779420D01*
X173729651Y-124771114D01*
X173731204Y-124642037D01*
X173714965Y-124546172D01*
X173681152Y-124484107D01*
X173629984Y-124456432D01*
X173611720Y-124454923D01*
X173563760Y-124462513D01*
X173530953Y-124488808D01*
X173510895Y-124539095D01*
X173501178Y-124618664D01*
X173499231Y-124702182D01*
X173303894Y-124702182D01*
X173304574Y-124608249D01*
X173307629Y-124537906D01*
X173314322Y-124489163D01*
X173325960Y-124453288D01*
X173343853Y-124421548D01*
X173347808Y-124415648D01*
X173414267Y-124336104D01*
X173486685Y-124289929D01*
X173574849Y-124271599D01*
X173604787Y-124270703D01*
X173716886Y-124287256D01*
X173716886Y-124287256D01*
G37*
X173716886Y-124287256D02*
X173808464Y-124335409D01*
X173876049Y-124412905D01*
X173900057Y-124462727D01*
X173918738Y-124537533D01*
X173928301Y-124632052D01*
X173929208Y-124735210D01*
X173921921Y-124835935D01*
X173906903Y-124923153D01*
X173884615Y-124985791D01*
X173877765Y-124996579D01*
X173796632Y-125077105D01*
X173700266Y-125125336D01*
X173595701Y-125139450D01*
X173489968Y-125117629D01*
X173460543Y-125104547D01*
X173403241Y-125064231D01*
X173352950Y-125010775D01*
X173348197Y-125003995D01*
X173328878Y-124971321D01*
X173316108Y-124936394D01*
X173308564Y-124890414D01*
X173304924Y-124824584D01*
X173303865Y-124730105D01*
X173303846Y-124708923D01*
X173303894Y-124702182D01*
X173499231Y-124702182D01*
X173500368Y-124791349D01*
X173504841Y-124850520D01*
X173514246Y-124888741D01*
X173530176Y-124915053D01*
X173538308Y-124923846D01*
X173585058Y-124957261D01*
X173630447Y-124955737D01*
X173676340Y-124926752D01*
X173703712Y-124895809D01*
X173719923Y-124850643D01*
X173729026Y-124779420D01*
X173729651Y-124771114D01*
X173731204Y-124642037D01*
X173714965Y-124546172D01*
X173681152Y-124484107D01*
X173629984Y-124456432D01*
X173611720Y-124454923D01*
X173563760Y-124462513D01*
X173530953Y-124488808D01*
X173510895Y-124539095D01*
X173501178Y-124618664D01*
X173499231Y-124702182D01*
X173303894Y-124702182D01*
X173304574Y-124608249D01*
X173307629Y-124537906D01*
X173314322Y-124489163D01*
X173325960Y-124453288D01*
X173343853Y-124421548D01*
X173347808Y-124415648D01*
X173414267Y-124336104D01*
X173486685Y-124289929D01*
X173574849Y-124271599D01*
X173604787Y-124270703D01*
X173716886Y-124287256D01*
G36*
X175971664Y-124295089D02*
X176034367Y-124331358D01*
X176077961Y-124367358D01*
X176109845Y-124405075D01*
X176131810Y-124451199D01*
X176145649Y-124512421D01*
X176153153Y-124595431D01*
X176156117Y-124706919D01*
X176156461Y-124787062D01*
X176156461Y-125082065D01*
X175990385Y-125156515D01*
X175980615Y-124833402D01*
X175976579Y-124712729D01*
X175972344Y-124625141D01*
X175967097Y-124564650D01*
X175960025Y-124525268D01*
X175950311Y-124501007D01*
X175937144Y-124485880D01*
X175932919Y-124482606D01*
X175868909Y-124457034D01*
X175804208Y-124467153D01*
X175765692Y-124494000D01*
X175750025Y-124513024D01*
X175739180Y-124537988D01*
X175732288Y-124575834D01*
X175728479Y-124633502D01*
X175726883Y-124717935D01*
X175726615Y-124805928D01*
X175726563Y-124916323D01*
X175724672Y-124994463D01*
X175718345Y-125047165D01*
X175704983Y-125081242D01*
X175681985Y-125103511D01*
X175646754Y-125120787D01*
X175599697Y-125138738D01*
X175548303Y-125158278D01*
X175554421Y-124811485D01*
X175556884Y-124686468D01*
X175559767Y-124594082D01*
X175563898Y-124527881D01*
X175570107Y-124481420D01*
X175579226Y-124448256D01*
X175592083Y-124421944D01*
X175607584Y-124398729D01*
X175682371Y-124324569D01*
X175773628Y-124281684D01*
X175872883Y-124271412D01*
X175971664Y-124295089D01*
X175971664Y-124295089D01*
G37*
X175971664Y-124295089D02*
X176034367Y-124331358D01*
X176077961Y-124367358D01*
X176109845Y-124405075D01*
X176131810Y-124451199D01*
X176145649Y-124512421D01*
X176153153Y-124595431D01*
X176156117Y-124706919D01*
X176156461Y-124787062D01*
X176156461Y-125082065D01*
X175990385Y-125156515D01*
X175980615Y-124833402D01*
X175976579Y-124712729D01*
X175972344Y-124625141D01*
X175967097Y-124564650D01*
X175960025Y-124525268D01*
X175950311Y-124501007D01*
X175937144Y-124485880D01*
X175932919Y-124482606D01*
X175868909Y-124457034D01*
X175804208Y-124467153D01*
X175765692Y-124494000D01*
X175750025Y-124513024D01*
X175739180Y-124537988D01*
X175732288Y-124575834D01*
X175728479Y-124633502D01*
X175726883Y-124717935D01*
X175726615Y-124805928D01*
X175726563Y-124916323D01*
X175724672Y-124994463D01*
X175718345Y-125047165D01*
X175704983Y-125081242D01*
X175681985Y-125103511D01*
X175646754Y-125120787D01*
X175599697Y-125138738D01*
X175548303Y-125158278D01*
X175554421Y-124811485D01*
X175556884Y-124686468D01*
X175559767Y-124594082D01*
X175563898Y-124527881D01*
X175570107Y-124481420D01*
X175579226Y-124448256D01*
X175592083Y-124421944D01*
X175607584Y-124398729D01*
X175682371Y-124324569D01*
X175773628Y-124281684D01*
X175872883Y-124271412D01*
X175971664Y-124295089D01*
G36*
X174468886Y-124284505D02*
X174543539Y-124321727D01*
X174609431Y-124390261D01*
X174627577Y-124415648D01*
X174647345Y-124448866D01*
X174660172Y-124484945D01*
X174667510Y-124533098D01*
X174670813Y-124602536D01*
X174671538Y-124694206D01*
X174668263Y-124819830D01*
X174656877Y-124914154D01*
X174635041Y-124984523D01*
X174600419Y-125038286D01*
X174550670Y-125082788D01*
X174547014Y-125085423D01*
X174497985Y-125112377D01*
X174438945Y-125125712D01*
X174363859Y-125129000D01*
X174241795Y-125129000D01*
X174241744Y-125247497D01*
X174240608Y-125313492D01*
X174233686Y-125352202D01*
X174215598Y-125375419D01*
X174180962Y-125394933D01*
X174172645Y-125398920D01*
X174133720Y-125417603D01*
X174103583Y-125429403D01*
X174081174Y-125430422D01*
X174065433Y-125416761D01*
X174055302Y-125384522D01*
X174049723Y-125329804D01*
X174047635Y-125248711D01*
X174047981Y-125137344D01*
X174049700Y-124991802D01*
X174050237Y-124948269D01*
X174052172Y-124798205D01*
X174053904Y-124700042D01*
X174241692Y-124700042D01*
X174242748Y-124783364D01*
X174247438Y-124837880D01*
X174258051Y-124873837D01*
X174276872Y-124901482D01*
X174289650Y-124914965D01*
X174341890Y-124954417D01*
X174388142Y-124957628D01*
X174435867Y-124925049D01*
X174437077Y-124923846D01*
X174456494Y-124898668D01*
X174468307Y-124864447D01*
X174474265Y-124811748D01*
X174476120Y-124731131D01*
X174476154Y-124713271D01*
X174471670Y-124602175D01*
X174457074Y-124525161D01*
X174430650Y-124478147D01*
X174390683Y-124457050D01*
X174367584Y-124454923D01*
X174312762Y-124464900D01*
X174275158Y-124497752D01*
X174252523Y-124557857D01*
X174242606Y-124649598D01*
X174241692Y-124700042D01*
X174053904Y-124700042D01*
X174054222Y-124682060D01*
X174056873Y-124594679D01*
X174060606Y-124530905D01*
X174065907Y-124485582D01*
X174073258Y-124453555D01*
X174083143Y-124429668D01*
X174096046Y-124408764D01*
X174101579Y-124400898D01*
X174174969Y-124326595D01*
X174267760Y-124284467D01*
X174375096Y-124272722D01*
X174468886Y-124284505D01*
X174468886Y-124284505D01*
G37*
X174468886Y-124284505D02*
X174543539Y-124321727D01*
X174609431Y-124390261D01*
X174627577Y-124415648D01*
X174647345Y-124448866D01*
X174660172Y-124484945D01*
X174667510Y-124533098D01*
X174670813Y-124602536D01*
X174671538Y-124694206D01*
X174668263Y-124819830D01*
X174656877Y-124914154D01*
X174635041Y-124984523D01*
X174600419Y-125038286D01*
X174550670Y-125082788D01*
X174547014Y-125085423D01*
X174497985Y-125112377D01*
X174438945Y-125125712D01*
X174363859Y-125129000D01*
X174241795Y-125129000D01*
X174241744Y-125247497D01*
X174240608Y-125313492D01*
X174233686Y-125352202D01*
X174215598Y-125375419D01*
X174180962Y-125394933D01*
X174172645Y-125398920D01*
X174133720Y-125417603D01*
X174103583Y-125429403D01*
X174081174Y-125430422D01*
X174065433Y-125416761D01*
X174055302Y-125384522D01*
X174049723Y-125329804D01*
X174047635Y-125248711D01*
X174047981Y-125137344D01*
X174049700Y-124991802D01*
X174050237Y-124948269D01*
X174052172Y-124798205D01*
X174053904Y-124700042D01*
X174241692Y-124700042D01*
X174242748Y-124783364D01*
X174247438Y-124837880D01*
X174258051Y-124873837D01*
X174276872Y-124901482D01*
X174289650Y-124914965D01*
X174341890Y-124954417D01*
X174388142Y-124957628D01*
X174435867Y-124925049D01*
X174437077Y-124923846D01*
X174456494Y-124898668D01*
X174468307Y-124864447D01*
X174474265Y-124811748D01*
X174476120Y-124731131D01*
X174476154Y-124713271D01*
X174471670Y-124602175D01*
X174457074Y-124525161D01*
X174430650Y-124478147D01*
X174390683Y-124457050D01*
X174367584Y-124454923D01*
X174312762Y-124464900D01*
X174275158Y-124497752D01*
X174252523Y-124557857D01*
X174242606Y-124649598D01*
X174241692Y-124700042D01*
X174053904Y-124700042D01*
X174054222Y-124682060D01*
X174056873Y-124594679D01*
X174060606Y-124530905D01*
X174065907Y-124485582D01*
X174073258Y-124453555D01*
X174083143Y-124429668D01*
X174096046Y-124408764D01*
X174101579Y-124400898D01*
X174174969Y-124326595D01*
X174267760Y-124284467D01*
X174375096Y-124272722D01*
X174468886Y-124284505D01*
D11*
X209750000Y-107900000D02*
X210450000Y-107900000D01*
X220750000Y-107900000D02*
X220050000Y-107900000D01*
X220750000Y-114900000D02*
X220050000Y-114900000D01*
X209750000Y-114900000D02*
X210450000Y-114900000D01*
X216050000Y-114900000D02*
X218450000Y-114900000D01*
X216050000Y-107900000D02*
X218450000Y-107900000D01*
X209750000Y-107900000D02*
X209750000Y-114900000D01*
X220750000Y-114900000D02*
X220750000Y-107900000D01*
X212050000Y-114900000D02*
X214450000Y-114900000D01*
X212050000Y-107900000D02*
X214450000Y-107900000D01*
D13*
X125483333Y-126591666D02*
X125959523Y-126591666D01*
X125388095Y-126877380D02*
X125721428Y-125877380D01*
X126054761Y-126877380D01*
X126388095Y-126353571D02*
X126721428Y-126353571D01*
X126864285Y-126877380D02*
X126388095Y-126877380D01*
X126388095Y-125877380D01*
X126864285Y-125877380D01*
X127816666Y-126877380D02*
X127245238Y-126877380D01*
X127530952Y-126877380D02*
X127530952Y-125877380D01*
X127435714Y-126020238D01*
X127340476Y-126115476D01*
X127245238Y-126163095D01*
X116599081Y-91879513D02*
X116094005Y-92384589D01*
X115959318Y-92451933D01*
X115824631Y-92451933D01*
X115689944Y-92384589D01*
X115622601Y-92317246D01*
X116599081Y-93293727D02*
X116195020Y-92889666D01*
X116397051Y-93091696D02*
X117104158Y-92384589D01*
X116935799Y-92418261D01*
X116801112Y-92418261D01*
X116700097Y-92384589D01*
X144007142Y-110366666D02*
X144054761Y-110414285D01*
X144102380Y-110557142D01*
X144102380Y-110652380D01*
X144054761Y-110795238D01*
X143959523Y-110890476D01*
X143864285Y-110938095D01*
X143673809Y-110985714D01*
X143530952Y-110985714D01*
X143340476Y-110938095D01*
X143245238Y-110890476D01*
X143150000Y-110795238D01*
X143102380Y-110652380D01*
X143102380Y-110557142D01*
X143150000Y-110414285D01*
X143197619Y-110366666D01*
X143102380Y-109461904D02*
X143102380Y-109938095D01*
X143578571Y-109985714D01*
X143530952Y-109938095D01*
X143483333Y-109842857D01*
X143483333Y-109604761D01*
X143530952Y-109509523D01*
X143578571Y-109461904D01*
X143673809Y-109414285D01*
X143911904Y-109414285D01*
X144007142Y-109461904D01*
X144054761Y-109509523D01*
X144102380Y-109604761D01*
X144102380Y-109842857D01*
X144054761Y-109938095D01*
X144007142Y-109985714D01*
X222928571Y-86928571D02*
X222595238Y-86928571D01*
X222595238Y-87452380D02*
X222595238Y-86452380D01*
X223071428Y-86452380D01*
X223452380Y-87452380D02*
X223452380Y-86452380D01*
X223928571Y-87452380D02*
X223928571Y-86452380D01*
X224166666Y-86452380D01*
X224309523Y-86500000D01*
X224404761Y-86595238D01*
X224452380Y-86690476D01*
X224500000Y-86880952D01*
X224500000Y-87023809D01*
X224452380Y-87214285D01*
X224404761Y-87309523D01*
X224309523Y-87404761D01*
X224166666Y-87452380D01*
X223928571Y-87452380D01*
X224880952Y-86547619D02*
X224928571Y-86500000D01*
X225023809Y-86452380D01*
X225261904Y-86452380D01*
X225357142Y-86500000D01*
X225404761Y-86547619D01*
X225452380Y-86642857D01*
X225452380Y-86738095D01*
X225404761Y-86880952D01*
X224833333Y-87452380D01*
X225452380Y-87452380D01*
X220976190Y-91552380D02*
X221500000Y-90885714D01*
X220976190Y-90885714D02*
X221500000Y-91552380D01*
X222404761Y-91552380D02*
X221833333Y-91552380D01*
X222119047Y-91552380D02*
X222119047Y-90552380D01*
X222023809Y-90695238D01*
X221928571Y-90790476D01*
X221833333Y-90838095D01*
X222738095Y-90552380D02*
X223357142Y-90552380D01*
X223023809Y-90933333D01*
X223166666Y-90933333D01*
X223261904Y-90980952D01*
X223309523Y-91028571D01*
X223357142Y-91123809D01*
X223357142Y-91361904D01*
X223309523Y-91457142D01*
X223261904Y-91504761D01*
X223166666Y-91552380D01*
X222880952Y-91552380D01*
X222785714Y-91504761D01*
X222738095Y-91457142D01*
X224261904Y-90552380D02*
X223785714Y-90552380D01*
X223738095Y-91028571D01*
X223785714Y-90980952D01*
X223880952Y-90933333D01*
X224119047Y-90933333D01*
X224214285Y-90980952D01*
X224261904Y-91028571D01*
X224309523Y-91123809D01*
X224309523Y-91361904D01*
X224261904Y-91457142D01*
X224214285Y-91504761D01*
X224119047Y-91552380D01*
X223880952Y-91552380D01*
X223785714Y-91504761D01*
X223738095Y-91457142D01*
X224642857Y-90885714D02*
X224880952Y-91552380D01*
X225119047Y-90885714D02*
X224880952Y-91552380D01*
X224785714Y-91790476D01*
X224738095Y-91838095D01*
X224642857Y-91885714D01*
X225976190Y-90552380D02*
X225500000Y-90552380D01*
X225452380Y-91028571D01*
X225500000Y-90980952D01*
X225595238Y-90933333D01*
X225833333Y-90933333D01*
X225928571Y-90980952D01*
X225976190Y-91028571D01*
X226023809Y-91123809D01*
X226023809Y-91361904D01*
X225976190Y-91457142D01*
X225928571Y-91504761D01*
X225833333Y-91552380D01*
X225595238Y-91552380D01*
X225500000Y-91504761D01*
X225452380Y-91457142D01*
X226642857Y-90552380D02*
X226738095Y-90552380D01*
X226833333Y-90600000D01*
X226880952Y-90647619D01*
X226928571Y-90742857D01*
X226976190Y-90933333D01*
X226976190Y-91171428D01*
X226928571Y-91361904D01*
X226880952Y-91457142D01*
X226833333Y-91504761D01*
X226738095Y-91552380D01*
X226642857Y-91552380D01*
X226547619Y-91504761D01*
X226500000Y-91457142D01*
X226452380Y-91361904D01*
X226404761Y-91171428D01*
X226404761Y-90933333D01*
X226452380Y-90742857D01*
X226500000Y-90647619D01*
X226547619Y-90600000D01*
X226642857Y-90552380D01*
X102928571Y-81928571D02*
X102595238Y-81928571D01*
X102595238Y-82452380D02*
X102595238Y-81452380D01*
X103071428Y-81452380D01*
X103452380Y-82452380D02*
X103452380Y-81452380D01*
X103928571Y-82452380D02*
X103928571Y-81452380D01*
X104166666Y-81452380D01*
X104309523Y-81500000D01*
X104404761Y-81595238D01*
X104452380Y-81690476D01*
X104500000Y-81880952D01*
X104500000Y-82023809D01*
X104452380Y-82214285D01*
X104404761Y-82309523D01*
X104309523Y-82404761D01*
X104166666Y-82452380D01*
X103928571Y-82452380D01*
X105452380Y-82452380D02*
X104880952Y-82452380D01*
X105166666Y-82452380D02*
X105166666Y-81452380D01*
X105071428Y-81595238D01*
X104976190Y-81690476D01*
X104880952Y-81738095D01*
X101452380Y-86452380D02*
X101976190Y-85785714D01*
X101452380Y-85785714D02*
X101976190Y-86452380D01*
X102880952Y-86452380D02*
X102309523Y-86452380D01*
X102595238Y-86452380D02*
X102595238Y-85452380D01*
X102500000Y-85595238D01*
X102404761Y-85690476D01*
X102309523Y-85738095D01*
X103785714Y-85452380D02*
X103309523Y-85452380D01*
X103261904Y-85928571D01*
X103309523Y-85880952D01*
X103404761Y-85833333D01*
X103642857Y-85833333D01*
X103738095Y-85880952D01*
X103785714Y-85928571D01*
X103833333Y-86023809D01*
X103833333Y-86261904D01*
X103785714Y-86357142D01*
X103738095Y-86404761D01*
X103642857Y-86452380D01*
X103404761Y-86452380D01*
X103309523Y-86404761D01*
X103261904Y-86357142D01*
X104166666Y-85785714D02*
X104404761Y-86452380D01*
X104642857Y-85785714D02*
X104404761Y-86452380D01*
X104309523Y-86690476D01*
X104261904Y-86738095D01*
X104166666Y-86785714D01*
X105500000Y-85452380D02*
X105023809Y-85452380D01*
X104976190Y-85928571D01*
X105023809Y-85880952D01*
X105119047Y-85833333D01*
X105357142Y-85833333D01*
X105452380Y-85880952D01*
X105500000Y-85928571D01*
X105547619Y-86023809D01*
X105547619Y-86261904D01*
X105500000Y-86357142D01*
X105452380Y-86404761D01*
X105357142Y-86452380D01*
X105119047Y-86452380D01*
X105023809Y-86404761D01*
X104976190Y-86357142D01*
X106452380Y-85452380D02*
X105976190Y-85452380D01*
X105928571Y-85928571D01*
X105976190Y-85880952D01*
X106071428Y-85833333D01*
X106309523Y-85833333D01*
X106404761Y-85880952D01*
X106452380Y-85928571D01*
X106500000Y-86023809D01*
X106500000Y-86261904D01*
X106452380Y-86357142D01*
X106404761Y-86404761D01*
X106309523Y-86452380D01*
X106071428Y-86452380D01*
X105976190Y-86404761D01*
X105928571Y-86357142D01*
X175512380Y-101298095D02*
X174512380Y-101298095D01*
X174512380Y-101060000D01*
X174560000Y-100917142D01*
X174655238Y-100821904D01*
X174750476Y-100774285D01*
X174940952Y-100726666D01*
X175083809Y-100726666D01*
X175274285Y-100774285D01*
X175369523Y-100821904D01*
X175464761Y-100917142D01*
X175512380Y-101060000D01*
X175512380Y-101298095D01*
X174607619Y-100345714D02*
X174560000Y-100298095D01*
X174512380Y-100202857D01*
X174512380Y-99964761D01*
X174560000Y-99869523D01*
X174607619Y-99821904D01*
X174702857Y-99774285D01*
X174798095Y-99774285D01*
X174940952Y-99821904D01*
X175512380Y-100393333D01*
X175512380Y-99774285D01*
X192444637Y-122557331D02*
X192518640Y-122426185D01*
X192564071Y-122192464D01*
X192535499Y-122089890D01*
X192497841Y-122034060D01*
X192413439Y-121969143D01*
X192319950Y-121950971D01*
X192217376Y-121979543D01*
X192161546Y-122017201D01*
X192096629Y-122101603D01*
X192013540Y-122279493D01*
X191948624Y-122363896D01*
X191892794Y-122401554D01*
X191790219Y-122430125D01*
X191696731Y-122411953D01*
X191612329Y-122347037D01*
X191574671Y-122291206D01*
X191546099Y-122188632D01*
X191591530Y-121954911D01*
X191665532Y-121823765D01*
X191682391Y-121487470D02*
X192709449Y-121444558D01*
X192044631Y-121121289D01*
X192782138Y-121070605D01*
X191845942Y-120646075D01*
X193000206Y-119948745D02*
X192891172Y-120509675D01*
X192945689Y-120229210D02*
X191964061Y-120038401D01*
X192086122Y-120159148D01*
X192161438Y-120270808D01*
X192190010Y-120373383D01*
X192082181Y-119430727D02*
X192200301Y-118823053D01*
X192510651Y-119222951D01*
X192537910Y-119082719D01*
X192602826Y-118998317D01*
X192658657Y-118960659D01*
X192761231Y-118932087D01*
X192994952Y-118977518D01*
X193079354Y-119042434D01*
X193117012Y-119098264D01*
X193145584Y-119200839D01*
X193091067Y-119481304D01*
X193026150Y-119565706D01*
X192970320Y-119603364D01*
X186215476Y-114829761D02*
X186358333Y-114877380D01*
X186596428Y-114877380D01*
X186691666Y-114829761D01*
X186739285Y-114782142D01*
X186786904Y-114686904D01*
X186786904Y-114591666D01*
X186739285Y-114496428D01*
X186691666Y-114448809D01*
X186596428Y-114401190D01*
X186405952Y-114353571D01*
X186310714Y-114305952D01*
X186263095Y-114258333D01*
X186215476Y-114163095D01*
X186215476Y-114067857D01*
X186263095Y-113972619D01*
X186310714Y-113925000D01*
X186405952Y-113877380D01*
X186644047Y-113877380D01*
X186786904Y-113925000D01*
X187120238Y-113877380D02*
X187358333Y-114877380D01*
X187548809Y-114163095D01*
X187739285Y-114877380D01*
X187977380Y-113877380D01*
X188882142Y-114877380D02*
X188310714Y-114877380D01*
X188596428Y-114877380D02*
X188596428Y-113877380D01*
X188501190Y-114020238D01*
X188405952Y-114115476D01*
X188310714Y-114163095D01*
X189501190Y-113877380D02*
X189596428Y-113877380D01*
X189691666Y-113925000D01*
X189739285Y-113972619D01*
X189786904Y-114067857D01*
X189834523Y-114258333D01*
X189834523Y-114496428D01*
X189786904Y-114686904D01*
X189739285Y-114782142D01*
X189691666Y-114829761D01*
X189596428Y-114877380D01*
X189501190Y-114877380D01*
X189405952Y-114829761D01*
X189358333Y-114782142D01*
X189310714Y-114686904D01*
X189263095Y-114496428D01*
X189263095Y-114258333D01*
X189310714Y-114067857D01*
X189358333Y-113972619D01*
X189405952Y-113925000D01*
X189501190Y-113877380D01*
X208795039Y-95457893D02*
X208812255Y-95607490D01*
X208912879Y-95823278D01*
X208996285Y-95889468D01*
X209059568Y-95912501D01*
X209166007Y-95915409D01*
X209252322Y-95875160D01*
X209318513Y-95791753D01*
X209341546Y-95728471D01*
X209344454Y-95622031D01*
X209307112Y-95429276D01*
X209310021Y-95322836D01*
X209333053Y-95259554D01*
X209399244Y-95176147D01*
X209485559Y-95135898D01*
X209591999Y-95138806D01*
X209655281Y-95161839D01*
X209738688Y-95228029D01*
X209839311Y-95443817D01*
X209856528Y-95593414D01*
X210040558Y-95875392D02*
X209234873Y-96513798D01*
X209962735Y-96384558D01*
X209395871Y-96859058D01*
X210402802Y-96652227D01*
X210235756Y-97308082D02*
X210238664Y-97201642D01*
X210261697Y-97138360D01*
X210327887Y-97054953D01*
X210371045Y-97034829D01*
X210477484Y-97037737D01*
X210540767Y-97060770D01*
X210624173Y-97126960D01*
X210704672Y-97299590D01*
X210701764Y-97406030D01*
X210678731Y-97469312D01*
X210612541Y-97552719D01*
X210569383Y-97572843D01*
X210462944Y-97569935D01*
X210399661Y-97546902D01*
X210316255Y-97480712D01*
X210235756Y-97308082D01*
X210152349Y-97241892D01*
X210089067Y-97218859D01*
X209982627Y-97215951D01*
X209809997Y-97296449D01*
X209743807Y-97379856D01*
X209720774Y-97443139D01*
X209717866Y-97549578D01*
X209798364Y-97722208D01*
X209881771Y-97788399D01*
X209945053Y-97811431D01*
X210051493Y-97814340D01*
X210224123Y-97733841D01*
X210290314Y-97650434D01*
X210313346Y-97587152D01*
X210316255Y-97480712D01*
X177390476Y-92929761D02*
X177533333Y-92977380D01*
X177771428Y-92977380D01*
X177866666Y-92929761D01*
X177914285Y-92882142D01*
X177961904Y-92786904D01*
X177961904Y-92691666D01*
X177914285Y-92596428D01*
X177866666Y-92548809D01*
X177771428Y-92501190D01*
X177580952Y-92453571D01*
X177485714Y-92405952D01*
X177438095Y-92358333D01*
X177390476Y-92263095D01*
X177390476Y-92167857D01*
X177438095Y-92072619D01*
X177485714Y-92025000D01*
X177580952Y-91977380D01*
X177819047Y-91977380D01*
X177961904Y-92025000D01*
X178295238Y-91977380D02*
X178533333Y-92977380D01*
X178723809Y-92263095D01*
X178914285Y-92977380D01*
X179152380Y-91977380D01*
X180057142Y-92977380D02*
X179485714Y-92977380D01*
X179771428Y-92977380D02*
X179771428Y-91977380D01*
X179676190Y-92120238D01*
X179580952Y-92215476D01*
X179485714Y-92263095D01*
X180914285Y-92310714D02*
X180914285Y-92977380D01*
X180676190Y-91929761D02*
X180438095Y-92644047D01*
X181057142Y-92644047D01*
X172252380Y-100666666D02*
X171776190Y-101000000D01*
X172252380Y-101238095D02*
X171252380Y-101238095D01*
X171252380Y-100857142D01*
X171300000Y-100761904D01*
X171347619Y-100714285D01*
X171442857Y-100666666D01*
X171585714Y-100666666D01*
X171680952Y-100714285D01*
X171728571Y-100761904D01*
X171776190Y-100857142D01*
X171776190Y-101238095D01*
X171252380Y-99809523D02*
X171252380Y-100000000D01*
X171300000Y-100095238D01*
X171347619Y-100142857D01*
X171490476Y-100238095D01*
X171680952Y-100285714D01*
X172061904Y-100285714D01*
X172157142Y-100238095D01*
X172204761Y-100190476D01*
X172252380Y-100095238D01*
X172252380Y-99904761D01*
X172204761Y-99809523D01*
X172157142Y-99761904D01*
X172061904Y-99714285D01*
X171823809Y-99714285D01*
X171728571Y-99761904D01*
X171680952Y-99809523D01*
X171633333Y-99904761D01*
X171633333Y-100095238D01*
X171680952Y-100190476D01*
X171728571Y-100238095D01*
X171823809Y-100285714D01*
X170552380Y-100616666D02*
X170076190Y-100950000D01*
X170552380Y-101188095D02*
X169552380Y-101188095D01*
X169552380Y-100807142D01*
X169600000Y-100711904D01*
X169647619Y-100664285D01*
X169742857Y-100616666D01*
X169885714Y-100616666D01*
X169980952Y-100664285D01*
X170028571Y-100711904D01*
X170076190Y-100807142D01*
X170076190Y-101188095D01*
X169885714Y-99759523D02*
X170552380Y-99759523D01*
X169504761Y-99997619D02*
X170219047Y-100235714D01*
X170219047Y-99616666D01*
X168917142Y-101642857D02*
X168964761Y-101690476D01*
X169012380Y-101833333D01*
X169012380Y-101928571D01*
X168964761Y-102071428D01*
X168869523Y-102166666D01*
X168774285Y-102214285D01*
X168583809Y-102261904D01*
X168440952Y-102261904D01*
X168250476Y-102214285D01*
X168155238Y-102166666D01*
X168060000Y-102071428D01*
X168012380Y-101928571D01*
X168012380Y-101833333D01*
X168060000Y-101690476D01*
X168107619Y-101642857D01*
X169012380Y-100690476D02*
X169012380Y-101261904D01*
X169012380Y-100976190D02*
X168012380Y-100976190D01*
X168155238Y-101071428D01*
X168250476Y-101166666D01*
X168298095Y-101261904D01*
X168012380Y-100071428D02*
X168012380Y-99976190D01*
X168060000Y-99880952D01*
X168107619Y-99833333D01*
X168202857Y-99785714D01*
X168393333Y-99738095D01*
X168631428Y-99738095D01*
X168821904Y-99785714D01*
X168917142Y-99833333D01*
X168964761Y-99880952D01*
X169012380Y-99976190D01*
X169012380Y-100071428D01*
X168964761Y-100166666D01*
X168917142Y-100214285D01*
X168821904Y-100261904D01*
X168631428Y-100309523D01*
X168393333Y-100309523D01*
X168202857Y-100261904D01*
X168107619Y-100214285D01*
X168060000Y-100166666D01*
X168012380Y-100071428D01*
X138688095Y-96752380D02*
X138688095Y-97561904D01*
X138735714Y-97657142D01*
X138783333Y-97704761D01*
X138878571Y-97752380D01*
X139069047Y-97752380D01*
X139164285Y-97704761D01*
X139211904Y-97657142D01*
X139259523Y-97561904D01*
X139259523Y-96752380D01*
X140259523Y-97752380D02*
X139688095Y-97752380D01*
X139973809Y-97752380D02*
X139973809Y-96752380D01*
X139878571Y-96895238D01*
X139783333Y-96990476D01*
X139688095Y-97038095D01*
X145665476Y-123254761D02*
X145808333Y-123302380D01*
X146046428Y-123302380D01*
X146141666Y-123254761D01*
X146189285Y-123207142D01*
X146236904Y-123111904D01*
X146236904Y-123016666D01*
X146189285Y-122921428D01*
X146141666Y-122873809D01*
X146046428Y-122826190D01*
X145855952Y-122778571D01*
X145760714Y-122730952D01*
X145713095Y-122683333D01*
X145665476Y-122588095D01*
X145665476Y-122492857D01*
X145713095Y-122397619D01*
X145760714Y-122350000D01*
X145855952Y-122302380D01*
X146094047Y-122302380D01*
X146236904Y-122350000D01*
X146570238Y-122302380D02*
X146808333Y-123302380D01*
X146998809Y-122588095D01*
X147189285Y-123302380D01*
X147427380Y-122302380D01*
X148332142Y-123302380D02*
X147760714Y-123302380D01*
X148046428Y-123302380D02*
X148046428Y-122302380D01*
X147951190Y-122445238D01*
X147855952Y-122540476D01*
X147760714Y-122588095D01*
X149284523Y-123302380D02*
X148713095Y-123302380D01*
X148998809Y-123302380D02*
X148998809Y-122302380D01*
X148903571Y-122445238D01*
X148808333Y-122540476D01*
X148713095Y-122588095D01*
X162769966Y-123240761D02*
X162912823Y-123288380D01*
X163150919Y-123288380D01*
X163246157Y-123240761D01*
X163293776Y-123193142D01*
X163341395Y-123097904D01*
X163341395Y-123002666D01*
X163293776Y-122907428D01*
X163246157Y-122859809D01*
X163150919Y-122812190D01*
X162960442Y-122764571D01*
X162865204Y-122716952D01*
X162817585Y-122669333D01*
X162769966Y-122574095D01*
X162769966Y-122478857D01*
X162817585Y-122383619D01*
X162865204Y-122336000D01*
X162960442Y-122288380D01*
X163198538Y-122288380D01*
X163341395Y-122336000D01*
X163674728Y-122288380D02*
X163912823Y-123288380D01*
X164103300Y-122574095D01*
X164293776Y-123288380D01*
X164531871Y-122288380D01*
X164960442Y-123288380D02*
X165150919Y-123288380D01*
X165246157Y-123240761D01*
X165293776Y-123193142D01*
X165389014Y-123050285D01*
X165436633Y-122859809D01*
X165436633Y-122478857D01*
X165389014Y-122383619D01*
X165341395Y-122336000D01*
X165246157Y-122288380D01*
X165055680Y-122288380D01*
X164960442Y-122336000D01*
X164912823Y-122383619D01*
X164865204Y-122478857D01*
X164865204Y-122716952D01*
X164912823Y-122812190D01*
X164960442Y-122859809D01*
X165055680Y-122907428D01*
X165246157Y-122907428D01*
X165341395Y-122859809D01*
X165389014Y-122812190D01*
X165436633Y-122716952D01*
X125166666Y-116354761D02*
X125309523Y-116402380D01*
X125547619Y-116402380D01*
X125642857Y-116354761D01*
X125690476Y-116307142D01*
X125738095Y-116211904D01*
X125738095Y-116116666D01*
X125690476Y-116021428D01*
X125642857Y-115973809D01*
X125547619Y-115926190D01*
X125357142Y-115878571D01*
X125261904Y-115830952D01*
X125214285Y-115783333D01*
X125166666Y-115688095D01*
X125166666Y-115592857D01*
X125214285Y-115497619D01*
X125261904Y-115450000D01*
X125357142Y-115402380D01*
X125595238Y-115402380D01*
X125738095Y-115450000D01*
X126071428Y-115402380D02*
X126309523Y-116402380D01*
X126500000Y-115688095D01*
X126690476Y-116402380D01*
X126928571Y-115402380D01*
X127214285Y-115402380D02*
X127880952Y-115402380D01*
X127452380Y-116402380D01*
X109166666Y-116304761D02*
X109309523Y-116352380D01*
X109547619Y-116352380D01*
X109642857Y-116304761D01*
X109690476Y-116257142D01*
X109738095Y-116161904D01*
X109738095Y-116066666D01*
X109690476Y-115971428D01*
X109642857Y-115923809D01*
X109547619Y-115876190D01*
X109357142Y-115828571D01*
X109261904Y-115780952D01*
X109214285Y-115733333D01*
X109166666Y-115638095D01*
X109166666Y-115542857D01*
X109214285Y-115447619D01*
X109261904Y-115400000D01*
X109357142Y-115352380D01*
X109595238Y-115352380D01*
X109738095Y-115400000D01*
X110071428Y-115352380D02*
X110309523Y-116352380D01*
X110500000Y-115638095D01*
X110690476Y-116352380D01*
X110928571Y-115352380D01*
X111738095Y-115352380D02*
X111547619Y-115352380D01*
X111452380Y-115400000D01*
X111404761Y-115447619D01*
X111309523Y-115590476D01*
X111261904Y-115780952D01*
X111261904Y-116161904D01*
X111309523Y-116257142D01*
X111357142Y-116304761D01*
X111452380Y-116352380D01*
X111642857Y-116352380D01*
X111738095Y-116304761D01*
X111785714Y-116257142D01*
X111833333Y-116161904D01*
X111833333Y-115923809D01*
X111785714Y-115828571D01*
X111738095Y-115780952D01*
X111642857Y-115733333D01*
X111452380Y-115733333D01*
X111357142Y-115780952D01*
X111309523Y-115828571D01*
X111261904Y-115923809D01*
X149566666Y-95354761D02*
X149709523Y-95402380D01*
X149947619Y-95402380D01*
X150042857Y-95354761D01*
X150090476Y-95307142D01*
X150138095Y-95211904D01*
X150138095Y-95116666D01*
X150090476Y-95021428D01*
X150042857Y-94973809D01*
X149947619Y-94926190D01*
X149757142Y-94878571D01*
X149661904Y-94830952D01*
X149614285Y-94783333D01*
X149566666Y-94688095D01*
X149566666Y-94592857D01*
X149614285Y-94497619D01*
X149661904Y-94450000D01*
X149757142Y-94402380D01*
X149995238Y-94402380D01*
X150138095Y-94450000D01*
X150471428Y-94402380D02*
X150709523Y-95402380D01*
X150900000Y-94688095D01*
X151090476Y-95402380D01*
X151328571Y-94402380D01*
X152185714Y-94402380D02*
X151709523Y-94402380D01*
X151661904Y-94878571D01*
X151709523Y-94830952D01*
X151804761Y-94783333D01*
X152042857Y-94783333D01*
X152138095Y-94830952D01*
X152185714Y-94878571D01*
X152233333Y-94973809D01*
X152233333Y-95211904D01*
X152185714Y-95307142D01*
X152138095Y-95354761D01*
X152042857Y-95402380D01*
X151804761Y-95402380D01*
X151709523Y-95354761D01*
X151661904Y-95307142D01*
X117166666Y-124429761D02*
X117309523Y-124477380D01*
X117547619Y-124477380D01*
X117642857Y-124429761D01*
X117690476Y-124382142D01*
X117738095Y-124286904D01*
X117738095Y-124191666D01*
X117690476Y-124096428D01*
X117642857Y-124048809D01*
X117547619Y-124001190D01*
X117357142Y-123953571D01*
X117261904Y-123905952D01*
X117214285Y-123858333D01*
X117166666Y-123763095D01*
X117166666Y-123667857D01*
X117214285Y-123572619D01*
X117261904Y-123525000D01*
X117357142Y-123477380D01*
X117595238Y-123477380D01*
X117738095Y-123525000D01*
X118071428Y-123477380D02*
X118309523Y-124477380D01*
X118500000Y-123763095D01*
X118690476Y-124477380D01*
X118928571Y-123477380D01*
X119214285Y-123477380D02*
X119833333Y-123477380D01*
X119500000Y-123858333D01*
X119642857Y-123858333D01*
X119738095Y-123905952D01*
X119785714Y-123953571D01*
X119833333Y-124048809D01*
X119833333Y-124286904D01*
X119785714Y-124382142D01*
X119738095Y-124429761D01*
X119642857Y-124477380D01*
X119357142Y-124477380D01*
X119261904Y-124429761D01*
X119214285Y-124382142D01*
X117116666Y-108179761D02*
X117259523Y-108227380D01*
X117497619Y-108227380D01*
X117592857Y-108179761D01*
X117640476Y-108132142D01*
X117688095Y-108036904D01*
X117688095Y-107941666D01*
X117640476Y-107846428D01*
X117592857Y-107798809D01*
X117497619Y-107751190D01*
X117307142Y-107703571D01*
X117211904Y-107655952D01*
X117164285Y-107608333D01*
X117116666Y-107513095D01*
X117116666Y-107417857D01*
X117164285Y-107322619D01*
X117211904Y-107275000D01*
X117307142Y-107227380D01*
X117545238Y-107227380D01*
X117688095Y-107275000D01*
X118021428Y-107227380D02*
X118259523Y-108227380D01*
X118450000Y-107513095D01*
X118640476Y-108227380D01*
X118878571Y-107227380D01*
X119783333Y-108227380D02*
X119211904Y-108227380D01*
X119497619Y-108227380D02*
X119497619Y-107227380D01*
X119402380Y-107370238D01*
X119307142Y-107465476D01*
X119211904Y-107513095D01*
X160261904Y-94152380D02*
X160261904Y-93152380D01*
X160500000Y-93152380D01*
X160642857Y-93200000D01*
X160738095Y-93295238D01*
X160785714Y-93390476D01*
X160833333Y-93580952D01*
X160833333Y-93723809D01*
X160785714Y-93914285D01*
X160738095Y-94009523D01*
X160642857Y-94104761D01*
X160500000Y-94152380D01*
X160261904Y-94152380D01*
X161785714Y-94152380D02*
X161214285Y-94152380D01*
X161500000Y-94152380D02*
X161500000Y-93152380D01*
X161404761Y-93295238D01*
X161309523Y-93390476D01*
X161214285Y-93438095D01*
X147034212Y-105149241D02*
X147700878Y-106149241D01*
X147700878Y-105149241D02*
X147034212Y-106149241D01*
X148605640Y-106149241D02*
X148034212Y-106149241D01*
X148319926Y-106149241D02*
X148319926Y-105149241D01*
X148224688Y-105292099D01*
X148129450Y-105387337D01*
X148034212Y-105434956D01*
X159577380Y-98729166D02*
X159101190Y-99062500D01*
X159577380Y-99300595D02*
X158577380Y-99300595D01*
X158577380Y-98919642D01*
X158625000Y-98824404D01*
X158672619Y-98776785D01*
X158767857Y-98729166D01*
X158910714Y-98729166D01*
X159005952Y-98776785D01*
X159053571Y-98824404D01*
X159101190Y-98919642D01*
X159101190Y-99300595D01*
X158577380Y-98395833D02*
X158577380Y-97776785D01*
X158958333Y-98110119D01*
X158958333Y-97967261D01*
X159005952Y-97872023D01*
X159053571Y-97824404D01*
X159148809Y-97776785D01*
X159386904Y-97776785D01*
X159482142Y-97824404D01*
X159529761Y-97872023D01*
X159577380Y-97967261D01*
X159577380Y-98252976D01*
X159529761Y-98348214D01*
X159482142Y-98395833D01*
X161502380Y-98716666D02*
X161026190Y-99050000D01*
X161502380Y-99288095D02*
X160502380Y-99288095D01*
X160502380Y-98907142D01*
X160550000Y-98811904D01*
X160597619Y-98764285D01*
X160692857Y-98716666D01*
X160835714Y-98716666D01*
X160930952Y-98764285D01*
X160978571Y-98811904D01*
X161026190Y-98907142D01*
X161026190Y-99288095D01*
X160597619Y-98335714D02*
X160550000Y-98288095D01*
X160502380Y-98192857D01*
X160502380Y-97954761D01*
X160550000Y-97859523D01*
X160597619Y-97811904D01*
X160692857Y-97764285D01*
X160788095Y-97764285D01*
X160930952Y-97811904D01*
X161502380Y-98383333D01*
X161502380Y-97764285D01*
X163377380Y-98741666D02*
X162901190Y-99075000D01*
X163377380Y-99313095D02*
X162377380Y-99313095D01*
X162377380Y-98932142D01*
X162425000Y-98836904D01*
X162472619Y-98789285D01*
X162567857Y-98741666D01*
X162710714Y-98741666D01*
X162805952Y-98789285D01*
X162853571Y-98836904D01*
X162901190Y-98932142D01*
X162901190Y-99313095D01*
X163377380Y-97789285D02*
X163377380Y-98360714D01*
X163377380Y-98075000D02*
X162377380Y-98075000D01*
X162520238Y-98170238D01*
X162615476Y-98265476D01*
X162663095Y-98360714D01*
X139408333Y-108832380D02*
X138932142Y-108832380D01*
X138932142Y-107832380D01*
X140265476Y-108832380D02*
X139694047Y-108832380D01*
X139979761Y-108832380D02*
X139979761Y-107832380D01*
X139884523Y-107975238D01*
X139789285Y-108070476D01*
X139694047Y-108118095D01*
X152307142Y-110466666D02*
X152354761Y-110514285D01*
X152402380Y-110657142D01*
X152402380Y-110752380D01*
X152354761Y-110895238D01*
X152259523Y-110990476D01*
X152164285Y-111038095D01*
X151973809Y-111085714D01*
X151830952Y-111085714D01*
X151640476Y-111038095D01*
X151545238Y-110990476D01*
X151450000Y-110895238D01*
X151402380Y-110752380D01*
X151402380Y-110657142D01*
X151450000Y-110514285D01*
X151497619Y-110466666D01*
X152402380Y-109990476D02*
X152402380Y-109800000D01*
X152354761Y-109704761D01*
X152307142Y-109657142D01*
X152164285Y-109561904D01*
X151973809Y-109514285D01*
X151592857Y-109514285D01*
X151497619Y-109561904D01*
X151450000Y-109609523D01*
X151402380Y-109704761D01*
X151402380Y-109895238D01*
X151450000Y-109990476D01*
X151497619Y-110038095D01*
X151592857Y-110085714D01*
X151830952Y-110085714D01*
X151926190Y-110038095D01*
X151973809Y-109990476D01*
X152021428Y-109895238D01*
X152021428Y-109704761D01*
X151973809Y-109609523D01*
X151926190Y-109561904D01*
X151830952Y-109514285D01*
X149483333Y-98957142D02*
X149435714Y-99004761D01*
X149292857Y-99052380D01*
X149197619Y-99052380D01*
X149054761Y-99004761D01*
X148959523Y-98909523D01*
X148911904Y-98814285D01*
X148864285Y-98623809D01*
X148864285Y-98480952D01*
X148911904Y-98290476D01*
X148959523Y-98195238D01*
X149054761Y-98100000D01*
X149197619Y-98052380D01*
X149292857Y-98052380D01*
X149435714Y-98100000D01*
X149483333Y-98147619D01*
X150054761Y-98480952D02*
X149959523Y-98433333D01*
X149911904Y-98385714D01*
X149864285Y-98290476D01*
X149864285Y-98242857D01*
X149911904Y-98147619D01*
X149959523Y-98100000D01*
X150054761Y-98052380D01*
X150245238Y-98052380D01*
X150340476Y-98100000D01*
X150388095Y-98147619D01*
X150435714Y-98242857D01*
X150435714Y-98290476D01*
X150388095Y-98385714D01*
X150340476Y-98433333D01*
X150245238Y-98480952D01*
X150054761Y-98480952D01*
X149959523Y-98528571D01*
X149911904Y-98576190D01*
X149864285Y-98671428D01*
X149864285Y-98861904D01*
X149911904Y-98957142D01*
X149959523Y-99004761D01*
X150054761Y-99052380D01*
X150245238Y-99052380D01*
X150340476Y-99004761D01*
X150388095Y-98957142D01*
X150435714Y-98861904D01*
X150435714Y-98671428D01*
X150388095Y-98576190D01*
X150340476Y-98528571D01*
X150245238Y-98480952D01*
X141983333Y-95957142D02*
X141935714Y-96004761D01*
X141792857Y-96052380D01*
X141697619Y-96052380D01*
X141554761Y-96004761D01*
X141459523Y-95909523D01*
X141411904Y-95814285D01*
X141364285Y-95623809D01*
X141364285Y-95480952D01*
X141411904Y-95290476D01*
X141459523Y-95195238D01*
X141554761Y-95100000D01*
X141697619Y-95052380D01*
X141792857Y-95052380D01*
X141935714Y-95100000D01*
X141983333Y-95147619D01*
X142316666Y-95052380D02*
X142983333Y-95052380D01*
X142554761Y-96052380D01*
X147783333Y-97257142D02*
X147735714Y-97304761D01*
X147592857Y-97352380D01*
X147497619Y-97352380D01*
X147354761Y-97304761D01*
X147259523Y-97209523D01*
X147211904Y-97114285D01*
X147164285Y-96923809D01*
X147164285Y-96780952D01*
X147211904Y-96590476D01*
X147259523Y-96495238D01*
X147354761Y-96400000D01*
X147497619Y-96352380D01*
X147592857Y-96352380D01*
X147735714Y-96400000D01*
X147783333Y-96447619D01*
X148640476Y-96352380D02*
X148450000Y-96352380D01*
X148354761Y-96400000D01*
X148307142Y-96447619D01*
X148211904Y-96590476D01*
X148164285Y-96780952D01*
X148164285Y-97161904D01*
X148211904Y-97257142D01*
X148259523Y-97304761D01*
X148354761Y-97352380D01*
X148545238Y-97352380D01*
X148640476Y-97304761D01*
X148688095Y-97257142D01*
X148735714Y-97161904D01*
X148735714Y-96923809D01*
X148688095Y-96828571D01*
X148640476Y-96780952D01*
X148545238Y-96733333D01*
X148354761Y-96733333D01*
X148259523Y-96780952D01*
X148211904Y-96828571D01*
X148164285Y-96923809D01*
X149483333Y-100557142D02*
X149435714Y-100604761D01*
X149292857Y-100652380D01*
X149197619Y-100652380D01*
X149054761Y-100604761D01*
X148959523Y-100509523D01*
X148911904Y-100414285D01*
X148864285Y-100223809D01*
X148864285Y-100080952D01*
X148911904Y-99890476D01*
X148959523Y-99795238D01*
X149054761Y-99700000D01*
X149197619Y-99652380D01*
X149292857Y-99652380D01*
X149435714Y-99700000D01*
X149483333Y-99747619D01*
X150340476Y-99985714D02*
X150340476Y-100652380D01*
X150102380Y-99604761D02*
X149864285Y-100319047D01*
X150483333Y-100319047D01*
X150625878Y-110466666D02*
X150673497Y-110514285D01*
X150721116Y-110657142D01*
X150721116Y-110752380D01*
X150673497Y-110895238D01*
X150578259Y-110990476D01*
X150483021Y-111038095D01*
X150292545Y-111085714D01*
X150149688Y-111085714D01*
X149959212Y-111038095D01*
X149863974Y-110990476D01*
X149768736Y-110895238D01*
X149721116Y-110752380D01*
X149721116Y-110657142D01*
X149768736Y-110514285D01*
X149816355Y-110466666D01*
X149721116Y-110133333D02*
X149721116Y-109514285D01*
X150102069Y-109847619D01*
X150102069Y-109704761D01*
X150149688Y-109609523D01*
X150197307Y-109561904D01*
X150292545Y-109514285D01*
X150530640Y-109514285D01*
X150625878Y-109561904D01*
X150673497Y-109609523D01*
X150721116Y-109704761D01*
X150721116Y-109990476D01*
X150673497Y-110085714D01*
X150625878Y-110133333D01*
X145707142Y-110366666D02*
X145754761Y-110414285D01*
X145802380Y-110557142D01*
X145802380Y-110652380D01*
X145754761Y-110795238D01*
X145659523Y-110890476D01*
X145564285Y-110938095D01*
X145373809Y-110985714D01*
X145230952Y-110985714D01*
X145040476Y-110938095D01*
X144945238Y-110890476D01*
X144850000Y-110795238D01*
X144802380Y-110652380D01*
X144802380Y-110557142D01*
X144850000Y-110414285D01*
X144897619Y-110366666D01*
X144897619Y-109985714D02*
X144850000Y-109938095D01*
X144802380Y-109842857D01*
X144802380Y-109604761D01*
X144850000Y-109509523D01*
X144897619Y-109461904D01*
X144992857Y-109414285D01*
X145088095Y-109414285D01*
X145230952Y-109461904D01*
X145802380Y-110033333D01*
X145802380Y-109414285D01*
X139333333Y-106707142D02*
X139285714Y-106754761D01*
X139142857Y-106802380D01*
X139047619Y-106802380D01*
X138904761Y-106754761D01*
X138809523Y-106659523D01*
X138761904Y-106564285D01*
X138714285Y-106373809D01*
X138714285Y-106230952D01*
X138761904Y-106040476D01*
X138809523Y-105945238D01*
X138904761Y-105850000D01*
X139047619Y-105802380D01*
X139142857Y-105802380D01*
X139285714Y-105850000D01*
X139333333Y-105897619D01*
X140285714Y-106802380D02*
X139714285Y-106802380D01*
X140000000Y-106802380D02*
X140000000Y-105802380D01*
X139904761Y-105945238D01*
X139809523Y-106040476D01*
X139714285Y-106088095D01*
X173827380Y-100666666D02*
X173351190Y-101000000D01*
X173827380Y-101238095D02*
X172827380Y-101238095D01*
X172827380Y-100857142D01*
X172875000Y-100761904D01*
X172922619Y-100714285D01*
X173017857Y-100666666D01*
X173160714Y-100666666D01*
X173255952Y-100714285D01*
X173303571Y-100761904D01*
X173351190Y-100857142D01*
X173351190Y-101238095D01*
X172827380Y-100333333D02*
X172827380Y-99666666D01*
X173827380Y-100095238D01*
X120916666Y-91904761D02*
X121059523Y-91952380D01*
X121297619Y-91952380D01*
X121392857Y-91904761D01*
X121440476Y-91857142D01*
X121488095Y-91761904D01*
X121488095Y-91666666D01*
X121440476Y-91571428D01*
X121392857Y-91523809D01*
X121297619Y-91476190D01*
X121107142Y-91428571D01*
X121011904Y-91380952D01*
X120964285Y-91333333D01*
X120916666Y-91238095D01*
X120916666Y-91142857D01*
X120964285Y-91047619D01*
X121011904Y-91000000D01*
X121107142Y-90952380D01*
X121345238Y-90952380D01*
X121488095Y-91000000D01*
X121821428Y-90952380D02*
X122059523Y-91952380D01*
X122250000Y-91238095D01*
X122440476Y-91952380D01*
X122678571Y-90952380D01*
X123011904Y-91047619D02*
X123059523Y-91000000D01*
X123154761Y-90952380D01*
X123392857Y-90952380D01*
X123488095Y-91000000D01*
X123535714Y-91047619D01*
X123583333Y-91142857D01*
X123583333Y-91238095D01*
X123535714Y-91380952D01*
X122964285Y-91952380D01*
X123583333Y-91952380D01*
X197916666Y-91904761D02*
X198059523Y-91952380D01*
X198297619Y-91952380D01*
X198392857Y-91904761D01*
X198440476Y-91857142D01*
X198488095Y-91761904D01*
X198488095Y-91666666D01*
X198440476Y-91571428D01*
X198392857Y-91523809D01*
X198297619Y-91476190D01*
X198107142Y-91428571D01*
X198011904Y-91380952D01*
X197964285Y-91333333D01*
X197916666Y-91238095D01*
X197916666Y-91142857D01*
X197964285Y-91047619D01*
X198011904Y-91000000D01*
X198107142Y-90952380D01*
X198345238Y-90952380D01*
X198488095Y-91000000D01*
X198821428Y-90952380D02*
X199059523Y-91952380D01*
X199250000Y-91238095D01*
X199440476Y-91952380D01*
X199678571Y-90952380D01*
X200488095Y-91285714D02*
X200488095Y-91952380D01*
X200250000Y-90904761D02*
X200011904Y-91619047D01*
X200630952Y-91619047D01*
X167402380Y-100716666D02*
X166926190Y-101050000D01*
X167402380Y-101288095D02*
X166402380Y-101288095D01*
X166402380Y-100907142D01*
X166450000Y-100811904D01*
X166497619Y-100764285D01*
X166592857Y-100716666D01*
X166735714Y-100716666D01*
X166830952Y-100764285D01*
X166878571Y-100811904D01*
X166926190Y-100907142D01*
X166926190Y-101288095D01*
X166402380Y-99811904D02*
X166402380Y-100288095D01*
X166878571Y-100335714D01*
X166830952Y-100288095D01*
X166783333Y-100192857D01*
X166783333Y-99954761D01*
X166830952Y-99859523D01*
X166878571Y-99811904D01*
X166973809Y-99764285D01*
X167211904Y-99764285D01*
X167307142Y-99811904D01*
X167354761Y-99859523D01*
X167402380Y-99954761D01*
X167402380Y-100192857D01*
X167354761Y-100288095D01*
X167307142Y-100335714D01*
X97928571Y-131928571D02*
X97595238Y-131928571D01*
X97595238Y-132452380D02*
X97595238Y-131452380D01*
X98071428Y-131452380D01*
X98452380Y-132452380D02*
X98452380Y-131452380D01*
X98928571Y-132452380D02*
X98928571Y-131452380D01*
X99166666Y-131452380D01*
X99309523Y-131500000D01*
X99404761Y-131595238D01*
X99452380Y-131690476D01*
X99500000Y-131880952D01*
X99500000Y-132023809D01*
X99452380Y-132214285D01*
X99404761Y-132309523D01*
X99309523Y-132404761D01*
X99166666Y-132452380D01*
X98928571Y-132452380D01*
X99833333Y-131452380D02*
X100452380Y-131452380D01*
X100119047Y-131833333D01*
X100261904Y-131833333D01*
X100357142Y-131880952D01*
X100404761Y-131928571D01*
X100452380Y-132023809D01*
X100452380Y-132261904D01*
X100404761Y-132357142D01*
X100357142Y-132404761D01*
X100261904Y-132452380D01*
X99976190Y-132452380D01*
X99880952Y-132404761D01*
X99833333Y-132357142D01*
X96928571Y-136452380D02*
X97452380Y-135785714D01*
X96928571Y-135785714D02*
X97452380Y-136452380D01*
X98357142Y-136452380D02*
X97785714Y-136452380D01*
X98071428Y-136452380D02*
X98071428Y-135452380D01*
X97976190Y-135595238D01*
X97880952Y-135690476D01*
X97785714Y-135738095D01*
X98976190Y-135452380D02*
X99071428Y-135452380D01*
X99166666Y-135500000D01*
X99214285Y-135547619D01*
X99261904Y-135642857D01*
X99309523Y-135833333D01*
X99309523Y-136071428D01*
X99261904Y-136261904D01*
X99214285Y-136357142D01*
X99166666Y-136404761D01*
X99071428Y-136452380D01*
X98976190Y-136452380D01*
X98880952Y-136404761D01*
X98833333Y-136357142D01*
X98785714Y-136261904D01*
X98738095Y-136071428D01*
X98738095Y-135833333D01*
X98785714Y-135642857D01*
X98833333Y-135547619D01*
X98880952Y-135500000D01*
X98976190Y-135452380D01*
X99642857Y-135785714D02*
X99880952Y-136452380D01*
X100119047Y-135785714D02*
X99880952Y-136452380D01*
X99785714Y-136690476D01*
X99738095Y-136738095D01*
X99642857Y-136785714D01*
X100976190Y-135452380D02*
X100500000Y-135452380D01*
X100452380Y-135928571D01*
X100500000Y-135880952D01*
X100595238Y-135833333D01*
X100833333Y-135833333D01*
X100928571Y-135880952D01*
X100976190Y-135928571D01*
X101023809Y-136023809D01*
X101023809Y-136261904D01*
X100976190Y-136357142D01*
X100928571Y-136404761D01*
X100833333Y-136452380D01*
X100595238Y-136452380D01*
X100500000Y-136404761D01*
X100452380Y-136357142D01*
X138072142Y-121607142D02*
X138024523Y-121654761D01*
X137881666Y-121702380D01*
X137786428Y-121702380D01*
X137643571Y-121654761D01*
X137548333Y-121559523D01*
X137500714Y-121464285D01*
X137453095Y-121273809D01*
X137453095Y-121130952D01*
X137500714Y-120940476D01*
X137548333Y-120845238D01*
X137643571Y-120750000D01*
X137786428Y-120702380D01*
X137881666Y-120702380D01*
X138024523Y-120750000D01*
X138072142Y-120797619D01*
X139024523Y-121702380D02*
X138453095Y-121702380D01*
X138738809Y-121702380D02*
X138738809Y-120702380D01*
X138643571Y-120845238D01*
X138548333Y-120940476D01*
X138453095Y-120988095D01*
X139976904Y-121702380D02*
X139405476Y-121702380D01*
X139691190Y-121702380D02*
X139691190Y-120702380D01*
X139595952Y-120845238D01*
X139500714Y-120940476D01*
X139405476Y-120988095D01*
X213190476Y-118154761D02*
X213333333Y-118202380D01*
X213571428Y-118202380D01*
X213666666Y-118154761D01*
X213714285Y-118107142D01*
X213761904Y-118011904D01*
X213761904Y-117916666D01*
X213714285Y-117821428D01*
X213666666Y-117773809D01*
X213571428Y-117726190D01*
X213380952Y-117678571D01*
X213285714Y-117630952D01*
X213238095Y-117583333D01*
X213190476Y-117488095D01*
X213190476Y-117392857D01*
X213238095Y-117297619D01*
X213285714Y-117250000D01*
X213380952Y-117202380D01*
X213619047Y-117202380D01*
X213761904Y-117250000D01*
X214095238Y-117202380D02*
X214333333Y-118202380D01*
X214523809Y-117488095D01*
X214714285Y-118202380D01*
X214952380Y-117202380D01*
X215857142Y-118202380D02*
X215285714Y-118202380D01*
X215571428Y-118202380D02*
X215571428Y-117202380D01*
X215476190Y-117345238D01*
X215380952Y-117440476D01*
X215285714Y-117488095D01*
X216238095Y-117297619D02*
X216285714Y-117250000D01*
X216380952Y-117202380D01*
X216619047Y-117202380D01*
X216714285Y-117250000D01*
X216761904Y-117297619D01*
X216809523Y-117392857D01*
X216809523Y-117488095D01*
X216761904Y-117630952D01*
X216190476Y-118202380D01*
X216809523Y-118202380D01*
M02*
