%TF.GenerationSoftware,KiCad,Pcbnew,5.0.1*%
%TF.CreationDate,2019-03-15T13:44:14+01:00*%
%TF.ProjectId,rev1,726576312E6B696361645F7063620000,rev?*%
%TF.SameCoordinates,Original*%
%TF.FileFunction,Soldermask,Bot*%
%TF.FilePolarity,Negative*%
%FSLAX46Y46*%
G04 Gerber Fmt 4.6, Leading zero omitted, Abs format (unit mm)*
G04 Created by KiCad (PCBNEW 5.0.1) date Fri 15 Mar 2019 01:44:14 PM CET*
%MOMM*%
%LPD*%
G01*
G04 APERTURE LIST*
%ADD10C,0.200000*%
%ADD11C,0.100000*%
G04 APERTURE END LIST*
D10*
X130000000Y-138000000D02*
X110500000Y-138000000D01*
X108732233Y-137267767D02*
G75*
G03X110500000Y-138000000I1767767J1767767D01*
G01*
X131767767Y-137267767D02*
G75*
G02X130000000Y-138000000I-1767767J1767767D01*
G01*
X137500000Y-131500000D02*
X150500000Y-131500000D01*
X135732233Y-129732233D02*
G75*
G02X137500000Y-129000000I1767767J-1767767D01*
G01*
X97232233Y-125767767D02*
G75*
G02X96500000Y-124000000I1767767J1767767D01*
G01*
X137500000Y-131500000D02*
X131770000Y-137270000D01*
X130000000Y-135500000D02*
X135730000Y-129730000D01*
X110500000Y-135500000D02*
X130000000Y-135500000D01*
X188500000Y-83500000D02*
X191500000Y-83500000D01*
X181000000Y-87500000D02*
X186000000Y-87500000D01*
X181000000Y-87500000D02*
X181000000Y-86000000D01*
X186000000Y-87500000D02*
X186000000Y-86000000D01*
X188500000Y-83500000D02*
G75*
G03X186000000Y-86000000I0J-2500000D01*
G01*
X181000000Y-86000000D02*
G75*
G03X178500000Y-83500000I-2500000J0D01*
G01*
X141000000Y-87500000D02*
X141000000Y-86000000D01*
X136000000Y-87500000D02*
X141000000Y-87500000D01*
X136000000Y-87500000D02*
X136000000Y-86000000D01*
X129400000Y-83500000D02*
X133500000Y-83500000D01*
X136000000Y-86000000D02*
G75*
G03X133500000Y-83500000I-2500000J0D01*
G01*
X143500000Y-83500000D02*
G75*
G03X141000000Y-86000000I0J-2500000D01*
G01*
X158850000Y-129000000D02*
G75*
G02X163150000Y-129000000I2150000J0D01*
G01*
X224750000Y-125800000D02*
X219800000Y-130750000D01*
X219767767Y-130767767D02*
G75*
G02X218000000Y-131500000I-1767767J1767767D01*
G01*
X224767767Y-125767767D02*
G75*
G03X225500000Y-124000000I-1767767J1767767D01*
G01*
X97230000Y-125770000D02*
X108750000Y-137290000D01*
X224750000Y-104200000D02*
X204800000Y-84250000D01*
X204767767Y-84232233D02*
G75*
G03X203000000Y-83500000I-1767767J-1767767D01*
G01*
X224767767Y-104232233D02*
G75*
G02X225500000Y-106000000I-1767767J-1767767D01*
G01*
X116232233Y-84232233D02*
G75*
G02X118000000Y-83500000I1767767J-1767767D01*
G01*
X97232233Y-103232233D02*
G75*
G03X96500000Y-105000000I1767767J-1767767D01*
G01*
X97232233Y-103232233D02*
X116200000Y-84250000D01*
X188500000Y-87500000D02*
X188500000Y-86000000D01*
X181000000Y-90000000D02*
X186000000Y-90000000D01*
X178500000Y-87500000D02*
X178500000Y-86000000D01*
X186000000Y-90000000D02*
G75*
G03X188500000Y-87500000I0J2500000D01*
G01*
X178500000Y-87500000D02*
G75*
G03X181000000Y-90000000I2500000J0D01*
G01*
X141000000Y-90000000D02*
G75*
G03X143500000Y-87500000I0J2500000D01*
G01*
X133500000Y-87500000D02*
G75*
G03X136000000Y-90000000I2500000J0D01*
G01*
X218000000Y-131500000D02*
X157000000Y-131500000D01*
X157000000Y-129000000D02*
X158850000Y-129000000D01*
X157000000Y-131500000D02*
G75*
G02X157000000Y-129000000I0J1250000D01*
G01*
X150500000Y-129000000D02*
G75*
G02X150500000Y-131500000I0J-1250000D01*
G01*
X191500000Y-86000000D02*
X188500000Y-86000000D01*
X203000000Y-83500000D02*
X198000000Y-83500000D01*
X191500000Y-83500000D02*
G75*
G02X191500000Y-86000000I0J-1250000D01*
G01*
X198000000Y-83500000D02*
G75*
G03X198000000Y-86000000I0J-1250000D01*
G01*
X123000000Y-86000000D02*
X118000000Y-86000000D01*
X133500000Y-87500000D02*
X133500000Y-86000000D01*
X136000000Y-90000000D02*
X141000000Y-90000000D01*
X143500000Y-87500000D02*
X143500000Y-86000000D01*
X198000000Y-86000000D02*
X203000000Y-86000000D01*
X99000000Y-116750000D02*
G75*
G02X99000000Y-121050000I0J-2150000D01*
G01*
X178500000Y-83500000D02*
X143500000Y-83500000D01*
X143500000Y-86000000D02*
X178500000Y-86000000D01*
X123000000Y-83500000D02*
G75*
G02X123000000Y-86000000I0J-1250000D01*
G01*
X129373673Y-83506562D02*
G75*
G03X129373673Y-86006562I0J-1250000D01*
G01*
X225500000Y-107250000D02*
X225500000Y-106000000D01*
X223000000Y-107250000D02*
X223000000Y-106000000D01*
X225500000Y-113750000D02*
G75*
G03X223000000Y-113750000I-1250000J0D01*
G01*
X225500000Y-107250000D02*
G75*
G02X223000000Y-107250000I-1250000J0D01*
G01*
X96500000Y-107250000D02*
X96500000Y-105000000D01*
X99000000Y-107250000D02*
X99000000Y-105000000D01*
X99000000Y-113750000D02*
G75*
G03X96500000Y-113750000I-1250000J0D01*
G01*
X99000000Y-107250000D02*
G75*
G02X96500000Y-107250000I-1250000J0D01*
G01*
X225500000Y-124000000D02*
X225500000Y-113750000D01*
X118000000Y-83500000D02*
X123000000Y-83500000D01*
X234000000Y-74000000D02*
X89000000Y-74000000D01*
X234000000Y-144000000D02*
X234000000Y-74000000D01*
X89000000Y-144000000D02*
X234000000Y-144000000D01*
X89000000Y-74000000D02*
X89000000Y-144000000D01*
X96500000Y-124000000D02*
X96500000Y-113750000D01*
X223000000Y-121050000D02*
G75*
G02X223000000Y-116750000I0J2150000D01*
G01*
X223000000Y-124000000D02*
X218000000Y-129000000D01*
X99000000Y-124000000D02*
X110500000Y-135500000D01*
X99000000Y-113750000D02*
X99000000Y-116750000D01*
X118000000Y-86000000D02*
X99000000Y-105000000D01*
X223000000Y-113750000D02*
X223000000Y-116750000D01*
X203000000Y-86000000D02*
X223000000Y-106000000D01*
X129400000Y-86000000D02*
X133500000Y-86000000D01*
X223000000Y-124000000D02*
X223000000Y-121050000D01*
X163150000Y-129000000D02*
X218000000Y-129000000D01*
X99000000Y-124000000D02*
X99000000Y-121050000D01*
X150500000Y-129000000D02*
X137500000Y-129000000D01*
D11*
X126893000Y-91500000D02*
G75*
G03X126893000Y-91500000I-1143000J0D01*
G01*
X120889000Y-89000000D02*
G75*
G03X120889000Y-89000000I-889000J0D01*
G01*
X125389000Y-89000000D02*
G75*
G03X125389000Y-89000000I-889000J0D01*
G01*
X119893000Y-91500000D02*
G75*
G03X119893000Y-91500000I-1143000J0D01*
G01*
X196893000Y-91500000D02*
G75*
G03X196893000Y-91500000I-1143000J0D01*
G01*
X202389000Y-89000000D02*
G75*
G03X202389000Y-89000000I-889000J0D01*
G01*
X197889000Y-89000000D02*
G75*
G03X197889000Y-89000000I-889000J0D01*
G01*
X203893000Y-91500000D02*
G75*
G03X203893000Y-91500000I-1143000J0D01*
G01*
G36*
X162351000Y-113851000D02*
X159649000Y-113851000D01*
X159649000Y-110749000D01*
X162351000Y-110749000D01*
X162351000Y-113851000D01*
X162351000Y-113851000D01*
G37*
G36*
X102465363Y-105912729D02*
X102531548Y-105919248D01*
X102644774Y-105953595D01*
X102701388Y-105970768D01*
X102840008Y-106044863D01*
X102857912Y-106054433D01*
X102893650Y-106083763D01*
X102995107Y-106167025D01*
X103078369Y-106268482D01*
X103107699Y-106304220D01*
X103107700Y-106304222D01*
X103191364Y-106460744D01*
X103191364Y-106460745D01*
X103242884Y-106630584D01*
X103260280Y-106807211D01*
X103242884Y-106983838D01*
X103208537Y-107097064D01*
X103191364Y-107153678D01*
X103117269Y-107292298D01*
X103107699Y-107310202D01*
X103078369Y-107345940D01*
X102995107Y-107447397D01*
X102893650Y-107530659D01*
X102857912Y-107559989D01*
X102857910Y-107559990D01*
X102701388Y-107643654D01*
X102644774Y-107660827D01*
X102531548Y-107695174D01*
X102465364Y-107701692D01*
X102399181Y-107708211D01*
X102310661Y-107708211D01*
X102244479Y-107701693D01*
X102178294Y-107695174D01*
X102065068Y-107660827D01*
X102008454Y-107643654D01*
X101851932Y-107559990D01*
X101851930Y-107559989D01*
X101816192Y-107530659D01*
X101714735Y-107447397D01*
X101631473Y-107345940D01*
X101602143Y-107310202D01*
X101592573Y-107292298D01*
X101518478Y-107153678D01*
X101501305Y-107097064D01*
X101466958Y-106983838D01*
X101449562Y-106807211D01*
X101466958Y-106630584D01*
X101518478Y-106460745D01*
X101518478Y-106460744D01*
X101602142Y-106304222D01*
X101602143Y-106304220D01*
X101631473Y-106268482D01*
X101714735Y-106167025D01*
X101816192Y-106083763D01*
X101851930Y-106054433D01*
X101869834Y-106044863D01*
X102008454Y-105970768D01*
X102065068Y-105953595D01*
X102178294Y-105919248D01*
X102244478Y-105912730D01*
X102310661Y-105906211D01*
X102399181Y-105906211D01*
X102465363Y-105912729D01*
X102465363Y-105912729D01*
G37*
G36*
X104056354Y-103897476D02*
X104122538Y-103903994D01*
X104235764Y-103938341D01*
X104292378Y-103955514D01*
X104430998Y-104029609D01*
X104448902Y-104039179D01*
X104484640Y-104068509D01*
X104586097Y-104151771D01*
X104669359Y-104253228D01*
X104698689Y-104288966D01*
X104698690Y-104288968D01*
X104782354Y-104445490D01*
X104782354Y-104445491D01*
X104833874Y-104615330D01*
X104851270Y-104791957D01*
X104833874Y-104968584D01*
X104799527Y-105081810D01*
X104782354Y-105138424D01*
X104708259Y-105277044D01*
X104698689Y-105294948D01*
X104669359Y-105330686D01*
X104586097Y-105432143D01*
X104484640Y-105515405D01*
X104448902Y-105544735D01*
X104448900Y-105544736D01*
X104292378Y-105628400D01*
X104235764Y-105645573D01*
X104122538Y-105679920D01*
X104056353Y-105686439D01*
X103990171Y-105692957D01*
X103901651Y-105692957D01*
X103835469Y-105686439D01*
X103769284Y-105679920D01*
X103656058Y-105645573D01*
X103599444Y-105628400D01*
X103442922Y-105544736D01*
X103442920Y-105544735D01*
X103407182Y-105515405D01*
X103305725Y-105432143D01*
X103222463Y-105330686D01*
X103193133Y-105294948D01*
X103183563Y-105277044D01*
X103109468Y-105138424D01*
X103092295Y-105081810D01*
X103057948Y-104968584D01*
X103040552Y-104791957D01*
X103057948Y-104615330D01*
X103109468Y-104445491D01*
X103109468Y-104445490D01*
X103193132Y-104288968D01*
X103193133Y-104288966D01*
X103222463Y-104253228D01*
X103305725Y-104151771D01*
X103407182Y-104068509D01*
X103442920Y-104039179D01*
X103460824Y-104029609D01*
X103599444Y-103955514D01*
X103656058Y-103938341D01*
X103769284Y-103903994D01*
X103835468Y-103897476D01*
X103901651Y-103890957D01*
X103990171Y-103890957D01*
X104056354Y-103897476D01*
X104056354Y-103897476D01*
G37*
G36*
X106036252Y-102341840D02*
X106102437Y-102348359D01*
X106215663Y-102382706D01*
X106272277Y-102399879D01*
X106410897Y-102473974D01*
X106428801Y-102483544D01*
X106464539Y-102512874D01*
X106565996Y-102596136D01*
X106649258Y-102697593D01*
X106678588Y-102733331D01*
X106678589Y-102733333D01*
X106762253Y-102889855D01*
X106762253Y-102889856D01*
X106813773Y-103059695D01*
X106831169Y-103236322D01*
X106813773Y-103412949D01*
X106779426Y-103526175D01*
X106762253Y-103582789D01*
X106688158Y-103721409D01*
X106678588Y-103739313D01*
X106649258Y-103775051D01*
X106565996Y-103876508D01*
X106469725Y-103955514D01*
X106428801Y-103989100D01*
X106428799Y-103989101D01*
X106272277Y-104072765D01*
X106215663Y-104089938D01*
X106102437Y-104124285D01*
X106036252Y-104130804D01*
X105970070Y-104137322D01*
X105881550Y-104137322D01*
X105815367Y-104130803D01*
X105749183Y-104124285D01*
X105635957Y-104089938D01*
X105579343Y-104072765D01*
X105422821Y-103989101D01*
X105422819Y-103989100D01*
X105381895Y-103955514D01*
X105285624Y-103876508D01*
X105202362Y-103775051D01*
X105173032Y-103739313D01*
X105163462Y-103721409D01*
X105089367Y-103582789D01*
X105072194Y-103526175D01*
X105037847Y-103412949D01*
X105020451Y-103236322D01*
X105037847Y-103059695D01*
X105089367Y-102889856D01*
X105089367Y-102889855D01*
X105173031Y-102733333D01*
X105173032Y-102733331D01*
X105202362Y-102697593D01*
X105285624Y-102596136D01*
X105387081Y-102512874D01*
X105422819Y-102483544D01*
X105440723Y-102473974D01*
X105579343Y-102399879D01*
X105635957Y-102382706D01*
X105749183Y-102348359D01*
X105815368Y-102341840D01*
X105881550Y-102335322D01*
X105970070Y-102335322D01*
X106036252Y-102341840D01*
X106036252Y-102341840D01*
G37*
G36*
X107627243Y-100326587D02*
X107693427Y-100333105D01*
X107806653Y-100367452D01*
X107863267Y-100384625D01*
X108001887Y-100458720D01*
X108019791Y-100468290D01*
X108055529Y-100497620D01*
X108156986Y-100580882D01*
X108240248Y-100682339D01*
X108269578Y-100718077D01*
X108269579Y-100718079D01*
X108353243Y-100874601D01*
X108353243Y-100874602D01*
X108404763Y-101044441D01*
X108422159Y-101221068D01*
X108404763Y-101397695D01*
X108370416Y-101510921D01*
X108353243Y-101567535D01*
X108279148Y-101706155D01*
X108269578Y-101724059D01*
X108240248Y-101759797D01*
X108156986Y-101861254D01*
X108055529Y-101944516D01*
X108019791Y-101973846D01*
X108019789Y-101973847D01*
X107863267Y-102057511D01*
X107806653Y-102074684D01*
X107693427Y-102109031D01*
X107627242Y-102115550D01*
X107561060Y-102122068D01*
X107472540Y-102122068D01*
X107406358Y-102115550D01*
X107340173Y-102109031D01*
X107226947Y-102074684D01*
X107170333Y-102057511D01*
X107013811Y-101973847D01*
X107013809Y-101973846D01*
X106978071Y-101944516D01*
X106876614Y-101861254D01*
X106793352Y-101759797D01*
X106764022Y-101724059D01*
X106754452Y-101706155D01*
X106680357Y-101567535D01*
X106663184Y-101510921D01*
X106628837Y-101397695D01*
X106611441Y-101221068D01*
X106628837Y-101044441D01*
X106680357Y-100874602D01*
X106680357Y-100874601D01*
X106764021Y-100718079D01*
X106764022Y-100718077D01*
X106793352Y-100682339D01*
X106876614Y-100580882D01*
X106978071Y-100497620D01*
X107013809Y-100468290D01*
X107031713Y-100458720D01*
X107170333Y-100384625D01*
X107226947Y-100367452D01*
X107340173Y-100333105D01*
X107406358Y-100326586D01*
X107472540Y-100320068D01*
X107561060Y-100320068D01*
X107627243Y-100326587D01*
X107627243Y-100326587D01*
G37*
G36*
X109642496Y-98735596D02*
X109708681Y-98742115D01*
X109821907Y-98776462D01*
X109878521Y-98793635D01*
X110017141Y-98867730D01*
X110035045Y-98877300D01*
X110070783Y-98906630D01*
X110172240Y-98989892D01*
X110255502Y-99091349D01*
X110284832Y-99127087D01*
X110284833Y-99127089D01*
X110368497Y-99283611D01*
X110368497Y-99283612D01*
X110420017Y-99453451D01*
X110437413Y-99630078D01*
X110420017Y-99806705D01*
X110385670Y-99919931D01*
X110368497Y-99976545D01*
X110294402Y-100115165D01*
X110284832Y-100133069D01*
X110255502Y-100168807D01*
X110172240Y-100270264D01*
X110070783Y-100353526D01*
X110035045Y-100382856D01*
X110035043Y-100382857D01*
X109878521Y-100466521D01*
X109821907Y-100483694D01*
X109708681Y-100518041D01*
X109642497Y-100524559D01*
X109576314Y-100531078D01*
X109487794Y-100531078D01*
X109421611Y-100524559D01*
X109355427Y-100518041D01*
X109242201Y-100483694D01*
X109185587Y-100466521D01*
X109029065Y-100382857D01*
X109029063Y-100382856D01*
X108993325Y-100353526D01*
X108891868Y-100270264D01*
X108808606Y-100168807D01*
X108779276Y-100133069D01*
X108769706Y-100115165D01*
X108695611Y-99976545D01*
X108678438Y-99919931D01*
X108644091Y-99806705D01*
X108626695Y-99630078D01*
X108644091Y-99453451D01*
X108695611Y-99283612D01*
X108695611Y-99283611D01*
X108779275Y-99127089D01*
X108779276Y-99127087D01*
X108808606Y-99091349D01*
X108891868Y-98989892D01*
X108993325Y-98906630D01*
X109029063Y-98877300D01*
X109046967Y-98867730D01*
X109185587Y-98793635D01*
X109242201Y-98776462D01*
X109355427Y-98742115D01*
X109421611Y-98735597D01*
X109487794Y-98729078D01*
X109576314Y-98729078D01*
X109642496Y-98735596D01*
X109642496Y-98735596D01*
G37*
G36*
X111233488Y-96720342D02*
X111299672Y-96726860D01*
X111412898Y-96761207D01*
X111469512Y-96778380D01*
X111608132Y-96852475D01*
X111626036Y-96862045D01*
X111661774Y-96891375D01*
X111763231Y-96974637D01*
X111846493Y-97076094D01*
X111875823Y-97111832D01*
X111875824Y-97111834D01*
X111959488Y-97268356D01*
X111959488Y-97268357D01*
X112011008Y-97438196D01*
X112028404Y-97614823D01*
X112011008Y-97791450D01*
X111976661Y-97904676D01*
X111959488Y-97961290D01*
X111885393Y-98099910D01*
X111875823Y-98117814D01*
X111846493Y-98153552D01*
X111763231Y-98255009D01*
X111661774Y-98338271D01*
X111626036Y-98367601D01*
X111626034Y-98367602D01*
X111469512Y-98451266D01*
X111412898Y-98468439D01*
X111299672Y-98502786D01*
X111233488Y-98509304D01*
X111167305Y-98515823D01*
X111078785Y-98515823D01*
X111012603Y-98509305D01*
X110946418Y-98502786D01*
X110833192Y-98468439D01*
X110776578Y-98451266D01*
X110620056Y-98367602D01*
X110620054Y-98367601D01*
X110584316Y-98338271D01*
X110482859Y-98255009D01*
X110399597Y-98153552D01*
X110370267Y-98117814D01*
X110360697Y-98099910D01*
X110286602Y-97961290D01*
X110269429Y-97904676D01*
X110235082Y-97791450D01*
X110217686Y-97614823D01*
X110235082Y-97438196D01*
X110286602Y-97268357D01*
X110286602Y-97268356D01*
X110370266Y-97111834D01*
X110370267Y-97111832D01*
X110399597Y-97076094D01*
X110482859Y-96974637D01*
X110584316Y-96891375D01*
X110620054Y-96862045D01*
X110637958Y-96852475D01*
X110776578Y-96778380D01*
X110833192Y-96761207D01*
X110946418Y-96726860D01*
X111012602Y-96720342D01*
X111078785Y-96713823D01*
X111167305Y-96713823D01*
X111233488Y-96720342D01*
X111233488Y-96720342D01*
G37*
G36*
X113248741Y-95129351D02*
X113314926Y-95135870D01*
X113428152Y-95170217D01*
X113484766Y-95187390D01*
X113623386Y-95261485D01*
X113641290Y-95271055D01*
X113677028Y-95300385D01*
X113778485Y-95383647D01*
X113846412Y-95466418D01*
X113891077Y-95520842D01*
X113891078Y-95520844D01*
X113974742Y-95677366D01*
X113974742Y-95677367D01*
X114026262Y-95847206D01*
X114043658Y-96023833D01*
X114026262Y-96200460D01*
X113991915Y-96313686D01*
X113974742Y-96370300D01*
X113900647Y-96508920D01*
X113891077Y-96526824D01*
X113861747Y-96562562D01*
X113778485Y-96664019D01*
X113677028Y-96747281D01*
X113641290Y-96776611D01*
X113641288Y-96776612D01*
X113484766Y-96860276D01*
X113428152Y-96877449D01*
X113314926Y-96911796D01*
X113248742Y-96918314D01*
X113182559Y-96924833D01*
X113094039Y-96924833D01*
X113027856Y-96918314D01*
X112961672Y-96911796D01*
X112848446Y-96877449D01*
X112791832Y-96860276D01*
X112635310Y-96776612D01*
X112635308Y-96776611D01*
X112599570Y-96747281D01*
X112498113Y-96664019D01*
X112414851Y-96562562D01*
X112385521Y-96526824D01*
X112375951Y-96508920D01*
X112301856Y-96370300D01*
X112284683Y-96313686D01*
X112250336Y-96200460D01*
X112232940Y-96023833D01*
X112250336Y-95847206D01*
X112301856Y-95677367D01*
X112301856Y-95677366D01*
X112385520Y-95520844D01*
X112385521Y-95520842D01*
X112430186Y-95466418D01*
X112498113Y-95383647D01*
X112599570Y-95300385D01*
X112635308Y-95271055D01*
X112653212Y-95261485D01*
X112791832Y-95187390D01*
X112848446Y-95170217D01*
X112961672Y-95135870D01*
X113027856Y-95129352D01*
X113094039Y-95122833D01*
X113182559Y-95122833D01*
X113248741Y-95129351D01*
X113248741Y-95129351D01*
G37*
G36*
X134142006Y-91233582D02*
X134542565Y-91399499D01*
X134903059Y-91640373D01*
X135209627Y-91946941D01*
X135450501Y-92307435D01*
X135616418Y-92707994D01*
X135701000Y-93133219D01*
X135701000Y-93566781D01*
X135616418Y-93992006D01*
X135450501Y-94392565D01*
X135209627Y-94753059D01*
X134903059Y-95059627D01*
X134542565Y-95300501D01*
X134142006Y-95466418D01*
X133716781Y-95551000D01*
X133283219Y-95551000D01*
X132857994Y-95466418D01*
X132457435Y-95300501D01*
X132096941Y-95059627D01*
X131790373Y-94753059D01*
X131549499Y-94392565D01*
X131383582Y-93992006D01*
X131299000Y-93566781D01*
X131299000Y-93133219D01*
X131383582Y-92707994D01*
X131549499Y-92307435D01*
X131790373Y-91946941D01*
X132096941Y-91640373D01*
X132457435Y-91399499D01*
X132857994Y-91233582D01*
X133283219Y-91149000D01*
X133716781Y-91149000D01*
X134142006Y-91233582D01*
X134142006Y-91233582D01*
G37*
G36*
X189142006Y-91233582D02*
X189542565Y-91399499D01*
X189903059Y-91640373D01*
X190209627Y-91946941D01*
X190450501Y-92307435D01*
X190616418Y-92707994D01*
X190701000Y-93133219D01*
X190701000Y-93566781D01*
X190616418Y-93992006D01*
X190450501Y-94392565D01*
X190209627Y-94753059D01*
X189903059Y-95059627D01*
X189542565Y-95300501D01*
X189142006Y-95466418D01*
X188716781Y-95551000D01*
X188283219Y-95551000D01*
X187857994Y-95466418D01*
X187457435Y-95300501D01*
X187096941Y-95059627D01*
X186790373Y-94753059D01*
X186549499Y-94392565D01*
X186383582Y-93992006D01*
X186299000Y-93566781D01*
X186299000Y-93133219D01*
X186383582Y-92707994D01*
X186549499Y-92307435D01*
X186790373Y-91946941D01*
X187096941Y-91640373D01*
X187457435Y-91399499D01*
X187857994Y-91233582D01*
X188283219Y-91149000D01*
X188716781Y-91149000D01*
X189142006Y-91233582D01*
X189142006Y-91233582D01*
G37*
G36*
X115968141Y-94043934D02*
X114693934Y-95318141D01*
X113419727Y-94043934D01*
X114693934Y-92769727D01*
X115968141Y-94043934D01*
X115968141Y-94043934D01*
G37*
G36*
X196085734Y-90393232D02*
X196295202Y-90479996D01*
X196483723Y-90605962D01*
X196644038Y-90766277D01*
X196770004Y-90954798D01*
X196856768Y-91164266D01*
X196901000Y-91386635D01*
X196901000Y-91613365D01*
X196856768Y-91835734D01*
X196770004Y-92045202D01*
X196644038Y-92233723D01*
X196483723Y-92394038D01*
X196295202Y-92520004D01*
X196085734Y-92606768D01*
X195863365Y-92651000D01*
X195636635Y-92651000D01*
X195414266Y-92606768D01*
X195204798Y-92520004D01*
X195016277Y-92394038D01*
X194855962Y-92233723D01*
X194729996Y-92045202D01*
X194643232Y-91835734D01*
X194599000Y-91613365D01*
X194599000Y-91386635D01*
X194643232Y-91164266D01*
X194729996Y-90954798D01*
X194855962Y-90766277D01*
X195016277Y-90605962D01*
X195204798Y-90479996D01*
X195414266Y-90393232D01*
X195636635Y-90349000D01*
X195863365Y-90349000D01*
X196085734Y-90393232D01*
X196085734Y-90393232D01*
G37*
G36*
X203085734Y-90393232D02*
X203295202Y-90479996D01*
X203483723Y-90605962D01*
X203644038Y-90766277D01*
X203770004Y-90954798D01*
X203856768Y-91164266D01*
X203901000Y-91386635D01*
X203901000Y-91613365D01*
X203856768Y-91835734D01*
X203770004Y-92045202D01*
X203644038Y-92233723D01*
X203483723Y-92394038D01*
X203295202Y-92520004D01*
X203085734Y-92606768D01*
X202863365Y-92651000D01*
X202636635Y-92651000D01*
X202414266Y-92606768D01*
X202204798Y-92520004D01*
X202016277Y-92394038D01*
X201855962Y-92233723D01*
X201729996Y-92045202D01*
X201643232Y-91835734D01*
X201599000Y-91613365D01*
X201599000Y-91386635D01*
X201643232Y-91164266D01*
X201729996Y-90954798D01*
X201855962Y-90766277D01*
X202016277Y-90605962D01*
X202204798Y-90479996D01*
X202414266Y-90393232D01*
X202636635Y-90349000D01*
X202863365Y-90349000D01*
X203085734Y-90393232D01*
X203085734Y-90393232D01*
G37*
G36*
X119085734Y-90393232D02*
X119295202Y-90479996D01*
X119483723Y-90605962D01*
X119644038Y-90766277D01*
X119770004Y-90954798D01*
X119856768Y-91164266D01*
X119901000Y-91386635D01*
X119901000Y-91613365D01*
X119856768Y-91835734D01*
X119770004Y-92045202D01*
X119644038Y-92233723D01*
X119483723Y-92394038D01*
X119295202Y-92520004D01*
X119085734Y-92606768D01*
X118863365Y-92651000D01*
X118636635Y-92651000D01*
X118414266Y-92606768D01*
X118204798Y-92520004D01*
X118016277Y-92394038D01*
X117855962Y-92233723D01*
X117729996Y-92045202D01*
X117643232Y-91835734D01*
X117599000Y-91613365D01*
X117599000Y-91386635D01*
X117643232Y-91164266D01*
X117729996Y-90954798D01*
X117855962Y-90766277D01*
X118016277Y-90605962D01*
X118204798Y-90479996D01*
X118414266Y-90393232D01*
X118636635Y-90349000D01*
X118863365Y-90349000D01*
X119085734Y-90393232D01*
X119085734Y-90393232D01*
G37*
G36*
X126085734Y-90393232D02*
X126295202Y-90479996D01*
X126483723Y-90605962D01*
X126644038Y-90766277D01*
X126770004Y-90954798D01*
X126856768Y-91164266D01*
X126901000Y-91386635D01*
X126901000Y-91613365D01*
X126856768Y-91835734D01*
X126770004Y-92045202D01*
X126644038Y-92233723D01*
X126483723Y-92394038D01*
X126295202Y-92520004D01*
X126085734Y-92606768D01*
X125863365Y-92651000D01*
X125636635Y-92651000D01*
X125414266Y-92606768D01*
X125204798Y-92520004D01*
X125016277Y-92394038D01*
X124855962Y-92233723D01*
X124729996Y-92045202D01*
X124643232Y-91835734D01*
X124599000Y-91613365D01*
X124599000Y-91386635D01*
X124643232Y-91164266D01*
X124729996Y-90954798D01*
X124855962Y-90766277D01*
X125016277Y-90605962D01*
X125204798Y-90479996D01*
X125414266Y-90393232D01*
X125636635Y-90349000D01*
X125863365Y-90349000D01*
X126085734Y-90393232D01*
X126085734Y-90393232D01*
G37*
G36*
X162851000Y-92451000D02*
X159149000Y-92451000D01*
X159149000Y-89349000D01*
X162851000Y-89349000D01*
X162851000Y-92451000D01*
X162851000Y-92451000D01*
G37*
G36*
X201762812Y-88133624D02*
X201926784Y-88201544D01*
X202074354Y-88300147D01*
X202199853Y-88425646D01*
X202298456Y-88573216D01*
X202366376Y-88737188D01*
X202401000Y-88911259D01*
X202401000Y-89088741D01*
X202366376Y-89262812D01*
X202298456Y-89426784D01*
X202199853Y-89574354D01*
X202074354Y-89699853D01*
X201926784Y-89798456D01*
X201762812Y-89866376D01*
X201588741Y-89901000D01*
X201411259Y-89901000D01*
X201237188Y-89866376D01*
X201073216Y-89798456D01*
X200925646Y-89699853D01*
X200800147Y-89574354D01*
X200701544Y-89426784D01*
X200633624Y-89262812D01*
X200599000Y-89088741D01*
X200599000Y-88911259D01*
X200633624Y-88737188D01*
X200701544Y-88573216D01*
X200800147Y-88425646D01*
X200925646Y-88300147D01*
X201073216Y-88201544D01*
X201237188Y-88133624D01*
X201411259Y-88099000D01*
X201588741Y-88099000D01*
X201762812Y-88133624D01*
X201762812Y-88133624D01*
G37*
G36*
X124762812Y-88133624D02*
X124926784Y-88201544D01*
X125074354Y-88300147D01*
X125199853Y-88425646D01*
X125298456Y-88573216D01*
X125366376Y-88737188D01*
X125401000Y-88911259D01*
X125401000Y-89088741D01*
X125366376Y-89262812D01*
X125298456Y-89426784D01*
X125199853Y-89574354D01*
X125074354Y-89699853D01*
X124926784Y-89798456D01*
X124762812Y-89866376D01*
X124588741Y-89901000D01*
X124411259Y-89901000D01*
X124237188Y-89866376D01*
X124073216Y-89798456D01*
X123925646Y-89699853D01*
X123800147Y-89574354D01*
X123701544Y-89426784D01*
X123633624Y-89262812D01*
X123599000Y-89088741D01*
X123599000Y-88911259D01*
X123633624Y-88737188D01*
X123701544Y-88573216D01*
X123800147Y-88425646D01*
X123925646Y-88300147D01*
X124073216Y-88201544D01*
X124237188Y-88133624D01*
X124411259Y-88099000D01*
X124588741Y-88099000D01*
X124762812Y-88133624D01*
X124762812Y-88133624D01*
G37*
G36*
X120262812Y-88133624D02*
X120426784Y-88201544D01*
X120574354Y-88300147D01*
X120699853Y-88425646D01*
X120798456Y-88573216D01*
X120866376Y-88737188D01*
X120901000Y-88911259D01*
X120901000Y-89088741D01*
X120866376Y-89262812D01*
X120798456Y-89426784D01*
X120699853Y-89574354D01*
X120574354Y-89699853D01*
X120426784Y-89798456D01*
X120262812Y-89866376D01*
X120088741Y-89901000D01*
X119911259Y-89901000D01*
X119737188Y-89866376D01*
X119573216Y-89798456D01*
X119425646Y-89699853D01*
X119300147Y-89574354D01*
X119201544Y-89426784D01*
X119133624Y-89262812D01*
X119099000Y-89088741D01*
X119099000Y-88911259D01*
X119133624Y-88737188D01*
X119201544Y-88573216D01*
X119300147Y-88425646D01*
X119425646Y-88300147D01*
X119573216Y-88201544D01*
X119737188Y-88133624D01*
X119911259Y-88099000D01*
X120088741Y-88099000D01*
X120262812Y-88133624D01*
X120262812Y-88133624D01*
G37*
G36*
X197262812Y-88133624D02*
X197426784Y-88201544D01*
X197574354Y-88300147D01*
X197699853Y-88425646D01*
X197798456Y-88573216D01*
X197866376Y-88737188D01*
X197901000Y-88911259D01*
X197901000Y-89088741D01*
X197866376Y-89262812D01*
X197798456Y-89426784D01*
X197699853Y-89574354D01*
X197574354Y-89699853D01*
X197426784Y-89798456D01*
X197262812Y-89866376D01*
X197088741Y-89901000D01*
X196911259Y-89901000D01*
X196737188Y-89866376D01*
X196573216Y-89798456D01*
X196425646Y-89699853D01*
X196300147Y-89574354D01*
X196201544Y-89426784D01*
X196133624Y-89262812D01*
X196099000Y-89088741D01*
X196099000Y-88911259D01*
X196133624Y-88737188D01*
X196201544Y-88573216D01*
X196300147Y-88425646D01*
X196425646Y-88300147D01*
X196573216Y-88201544D01*
X196737188Y-88133624D01*
X196911259Y-88099000D01*
X197088741Y-88099000D01*
X197262812Y-88133624D01*
X197262812Y-88133624D01*
G37*
M02*
