M48
;DRILL file {KiCad 5.0.1} date Fri 22 Mar 2019 02:30:25 PM CET
;FORMAT={-:-/ absolute / inch / decimal}
FMAT,2
INCH,TZ
T1C0.0157
T2C0.0394
T3C0.0512
T4C0.1693
%
G90
G05
M72
T1
X4.1417Y-4.8504
X4.5984Y-4.3071
X4.6614Y-3.8031
X4.7323Y-4.3071
X4.7795Y-5.0472
X4.9213Y-4.9055
X4.9528Y-4.0157
X5.0945Y-4.7795
X5.1732Y-4.2205
X5.2283Y-3.8898
X5.2283Y-4.0709
X5.2913Y-4.8425
X5.3057Y-4.1935
X5.3304Y-4.1629
X5.3524Y-4.1303
X5.3642Y-4.1978
X5.4242Y-3.8652
X5.4488Y-3.6457
X5.5039Y-4.1654
X5.5039Y-4.252
X5.5039Y-4.4488
X5.5039Y-4.6457
X5.5039Y-4.8425
X5.5287Y-4.0283
X5.5291Y-3.9681
X5.5689Y-3.815
X5.5894Y-3.9677
X5.5898Y-4.0283
X5.5984Y-4.252
X5.5984Y-4.4488
X5.5984Y-4.6457
X5.6339Y-4.8189
X5.748Y-4.9055
X5.7933Y-4.2185
X5.8159Y-3.9449
X5.8248Y-3.8061
X5.8484Y-4.2618
X5.8681Y-3.8455
X5.8878Y-4.1142
X5.8898Y-5.0472
X6.0157Y-3.8819
X6.126Y-4.5906
X6.2047Y-3.5669
X6.2126Y-4.2205
X6.3386Y-4.1181
X6.4646Y-4.2205
X6.4724Y-3.5669
X6.4724Y-3.9449
X6.5079Y-3.7835
X6.5433Y-5.0394
X6.5846Y-3.9449
X6.7953Y-3.9449
X6.8268Y-3.7638
X6.9606Y-3.7559
X7.0079Y-4.8898
X7.1024Y-4.1496
X7.5039Y-3.8898
X7.5039Y-4.5984
X7.7165Y-4.0866
X8.0551Y-4.4488
X8.4016Y-4.7953
T2
X4.0297Y-4.205
X4.0924Y-4.1257
X4.1703Y-4.0644
X4.2329Y-3.9851
X4.3123Y-3.9224
X4.3749Y-3.8431
X4.4543Y-3.7805
X4.5155Y-3.7025
X4.7244Y-3.5039
X4.9016Y-3.5039
X7.7559Y-3.5039
X7.9331Y-3.5039
T3
X4.6752Y-3.6024
X4.9508Y-3.6024
X7.7067Y-3.6024
X7.9823Y-3.6024
T4
X3.8976Y-4.6811
X6.3386Y-5.0787
X7.4213Y-3.6752
X8.7795Y-4.6811
X5.2559Y-3.6752
T0
M30
