%TF.GenerationSoftware,KiCad,Pcbnew,5.0.1*%
%TF.CreationDate,2019-03-25T09:06:49+01:00*%
%TF.ProjectId,rev1,726576312E6B696361645F7063620000,rev?*%
%TF.SameCoordinates,Original*%
%TF.FileFunction,Copper,L2,Bot,Signal*%
%TF.FilePolarity,Positive*%
%FSLAX46Y46*%
G04 Gerber Fmt 4.6, Leading zero omitted, Abs format (unit mm)*
G04 Created by KiCad (PCBNEW 5.0.1) date Mon 25 Mar 2019 09:06:49 AM CET*
%MOMM*%
%LPD*%
G01*
G04 APERTURE LIST*
%ADD10R,2.600000X3.000000*%
%ADD11R,3.600000X3.000000*%
%ADD12C,1.700000*%
%ADD13C,1.700000*%
%ADD14C,0.100000*%
%ADD15C,2.200000*%
%ADD16C,0.800000*%
%ADD17C,0.200000*%
%ADD18C,0.254000*%
G04 APERTURE END LIST*
D10*
X161050000Y-112000000D03*
D11*
X161050000Y-90600000D03*
D12*
X102354921Y-106807211D03*
D13*
X102354921Y-106807211D02*
X102354921Y-106807211D01*
D12*
X103945911Y-104791957D03*
D13*
X103945911Y-104791957D02*
X103945911Y-104791957D01*
D12*
X105925810Y-103236322D03*
D13*
X105925810Y-103236322D02*
X105925810Y-103236322D01*
D12*
X107516800Y-101221068D03*
D13*
X107516800Y-101221068D02*
X107516800Y-101221068D01*
D12*
X109532054Y-99630078D03*
D13*
X109532054Y-99630078D02*
X109532054Y-99630078D01*
D12*
X111123045Y-97614823D03*
D13*
X111123045Y-97614823D02*
X111123045Y-97614823D01*
D12*
X113138299Y-96023833D03*
D13*
X113138299Y-96023833D02*
X113138299Y-96023833D01*
D12*
X114693934Y-94043934D03*
D14*
G36*
X113491852Y-94043934D02*
X114693934Y-92841852D01*
X115896016Y-94043934D01*
X114693934Y-95246016D01*
X113491852Y-94043934D01*
X113491852Y-94043934D01*
G37*
D15*
X125750000Y-91500000D03*
X118750000Y-91500000D03*
D12*
X124500000Y-89000000D03*
X120000000Y-89000000D03*
X197000000Y-89000000D03*
X201500000Y-89000000D03*
D15*
X195750000Y-91500000D03*
X202750000Y-91500000D03*
D16*
X141980000Y-102320000D03*
X140430000Y-102320000D03*
X140440000Y-100790000D03*
X141450000Y-96900000D03*
X147725000Y-100200000D03*
X148550000Y-108250000D03*
X147150000Y-107150000D03*
X147950000Y-96675000D03*
X129400000Y-121400000D03*
X121400000Y-128200000D03*
X125000000Y-124600000D03*
X149600000Y-128200000D03*
X146000000Y-124600000D03*
X143100000Y-122400000D03*
X139800000Y-123000000D03*
X134400000Y-123000000D03*
X139800000Y-118000000D03*
X139800000Y-113000000D03*
X139800000Y-108000000D03*
X142200000Y-118000000D03*
X142200000Y-113000000D03*
X142200000Y-108000000D03*
X139800000Y-105800000D03*
X141970000Y-100780000D03*
X132800000Y-103400000D03*
X131400000Y-107200000D03*
X125800000Y-102000000D03*
X116800000Y-109400000D03*
X120200000Y-109400000D03*
X105200000Y-123200000D03*
X118400000Y-96600000D03*
X132800000Y-98800000D03*
X138400000Y-92600000D03*
X152800000Y-98600000D03*
X164400000Y-100200000D03*
X157600000Y-90600000D03*
X164400000Y-90600000D03*
X165300000Y-96100000D03*
X176800000Y-95400000D03*
X172600000Y-100200000D03*
X157800000Y-107200000D03*
X164200000Y-107200000D03*
X161000000Y-104600000D03*
X155600000Y-116600000D03*
X180400000Y-105400000D03*
X190600000Y-98800000D03*
X196000000Y-103800000D03*
X204600000Y-113000000D03*
X213400000Y-121800000D03*
X190600000Y-116800000D03*
X178000000Y-124200000D03*
X166200000Y-128000000D03*
X149550000Y-104500000D03*
X173400000Y-95600000D03*
X137775000Y-98175000D03*
X149050000Y-97675000D03*
X134765745Y-106515918D03*
X136250000Y-106625000D03*
X135950989Y-104909536D03*
X167250000Y-100200000D03*
X135391613Y-105737257D03*
D17*
X112325126Y-97614823D02*
X111123045Y-97614823D01*
X137775000Y-97614823D02*
X112325126Y-97614823D01*
X137775000Y-97614823D02*
X137775000Y-98175000D01*
X137835177Y-97675000D02*
X137775000Y-97614823D01*
X149050000Y-97675000D02*
X137835177Y-97675000D01*
X149050000Y-104000000D02*
X149550000Y-104500000D01*
X149050000Y-97675000D02*
X149050000Y-104000000D01*
X156050000Y-104500000D02*
X149550000Y-104500000D01*
X157700000Y-104500000D02*
X156050000Y-104500000D01*
X159400000Y-106200000D02*
X157700000Y-104500000D01*
X173400000Y-95600000D02*
X162800000Y-106200000D01*
X161050000Y-106250000D02*
X161000000Y-106200000D01*
X161050000Y-110500000D02*
X161050000Y-106250000D01*
X162800000Y-106200000D02*
X161000000Y-106200000D01*
X161000000Y-106200000D02*
X159400000Y-106200000D01*
X134765745Y-107081603D02*
X135034142Y-107350000D01*
X134765745Y-106515918D02*
X134765745Y-107081603D01*
X135034142Y-107350000D02*
X136525000Y-107350000D01*
X136525000Y-107350000D02*
X137125000Y-106750000D01*
X137125000Y-106750000D02*
X137125000Y-104300000D01*
X137125000Y-104300000D02*
X136375000Y-103550000D01*
X136375000Y-103550000D02*
X135325000Y-103550000D01*
X135325000Y-103550000D02*
X134350000Y-104525000D01*
X134350000Y-104525000D02*
X110000000Y-104525000D01*
X109532054Y-104057054D02*
X109532054Y-99630078D01*
X110000000Y-104525000D02*
X109532054Y-104057054D01*
X107516800Y-101221068D02*
X108366799Y-102071067D01*
X134550000Y-104925000D02*
X135400000Y-104075000D01*
X108366799Y-104466799D02*
X108825000Y-104925000D01*
X108366799Y-102071067D02*
X108366799Y-104466799D01*
X108825000Y-104925000D02*
X134550000Y-104925000D01*
X136649999Y-106225001D02*
X136649999Y-104399999D01*
X136649999Y-104399999D02*
X136325000Y-104075000D01*
X136250000Y-106625000D02*
X136649999Y-106225001D01*
X135400000Y-104075000D02*
X136325000Y-104075000D01*
X134714286Y-105325000D02*
X135129750Y-104909536D01*
X135129750Y-104909536D02*
X135385304Y-104909536D01*
X108014488Y-105325000D02*
X134714286Y-105325000D01*
X135385304Y-104909536D02*
X135950989Y-104909536D01*
X105925810Y-103236322D02*
X108014488Y-105325000D01*
X103945911Y-103167009D02*
X115037920Y-92075000D01*
X103945911Y-104791957D02*
X103945911Y-103167009D01*
X115037920Y-92075000D02*
X118761921Y-95799001D01*
X162874001Y-95799001D02*
X167250000Y-100175000D01*
X167250000Y-100175000D02*
X167250000Y-100200000D01*
X104891211Y-105737257D02*
X134825928Y-105737257D01*
X134825928Y-105737257D02*
X135391613Y-105737257D01*
X103945911Y-104791957D02*
X104891211Y-105737257D01*
X140225000Y-95575000D02*
X141275000Y-94525000D01*
X145325999Y-94525000D02*
X146600000Y-95799001D01*
X141275000Y-94525000D02*
X145325999Y-94525000D01*
X146600000Y-95799001D02*
X162874001Y-95799001D01*
X140224001Y-95575000D02*
X140000000Y-95799001D01*
X140225000Y-95575000D02*
X140224001Y-95575000D01*
X118761921Y-95799001D02*
X140000000Y-95799001D01*
D18*
G36*
X128407001Y-86134814D02*
X128439784Y-86156595D01*
X128472370Y-86178907D01*
X128477714Y-86181796D01*
X128693115Y-86296327D01*
X128729567Y-86311351D01*
X128765804Y-86326883D01*
X128771603Y-86328678D01*
X128771609Y-86328680D01*
X129005152Y-86399190D01*
X129043787Y-86406840D01*
X129082391Y-86415045D01*
X129088432Y-86415680D01*
X129331224Y-86439486D01*
X129416121Y-86439485D01*
X129438773Y-86435000D01*
X133065001Y-86435000D01*
X133065000Y-87521361D01*
X133066960Y-87541262D01*
X133066851Y-87556878D01*
X133067444Y-87562923D01*
X133118445Y-88048165D01*
X133126368Y-88086763D01*
X133133760Y-88125513D01*
X133135516Y-88131328D01*
X133279796Y-88597422D01*
X133295059Y-88633731D01*
X133309843Y-88670323D01*
X133312695Y-88675686D01*
X133544759Y-89104878D01*
X133566780Y-89137525D01*
X133588393Y-89170554D01*
X133592232Y-89175261D01*
X133903241Y-89551206D01*
X133931168Y-89578938D01*
X133958801Y-89607157D01*
X133963482Y-89611028D01*
X134341589Y-89919404D01*
X134374379Y-89941190D01*
X134406958Y-89963497D01*
X134412301Y-89966385D01*
X134843104Y-90195447D01*
X134879530Y-90210461D01*
X134915792Y-90226003D01*
X134921595Y-90227799D01*
X135388685Y-90368822D01*
X135427335Y-90376474D01*
X135465925Y-90384677D01*
X135471966Y-90385312D01*
X135957552Y-90432924D01*
X135957560Y-90432924D01*
X135978638Y-90435000D01*
X141021362Y-90435000D01*
X141041263Y-90433040D01*
X141056878Y-90433149D01*
X141062923Y-90432556D01*
X141548165Y-90381555D01*
X141586763Y-90373632D01*
X141625513Y-90366240D01*
X141631328Y-90364484D01*
X142097422Y-90220204D01*
X142133731Y-90204941D01*
X142170323Y-90190157D01*
X142175686Y-90187305D01*
X142604878Y-89955241D01*
X142637525Y-89933220D01*
X142670554Y-89911607D01*
X142675261Y-89907768D01*
X143051206Y-89596759D01*
X143078938Y-89568832D01*
X143107157Y-89541199D01*
X143111028Y-89536518D01*
X143419404Y-89158411D01*
X143441190Y-89125621D01*
X143463497Y-89093042D01*
X143466385Y-89087699D01*
X143493098Y-89037458D01*
X158615000Y-89037458D01*
X158615000Y-90314250D01*
X158773750Y-90473000D01*
X160923000Y-90473000D01*
X160923000Y-88623750D01*
X161177000Y-88623750D01*
X161177000Y-90473000D01*
X163326250Y-90473000D01*
X163485000Y-90314250D01*
X163485000Y-89037458D01*
X163460597Y-88914777D01*
X163412730Y-88799215D01*
X163343237Y-88695211D01*
X163254789Y-88606763D01*
X163150785Y-88537270D01*
X163035223Y-88489403D01*
X162912542Y-88465000D01*
X161335750Y-88465000D01*
X161177000Y-88623750D01*
X160923000Y-88623750D01*
X160764250Y-88465000D01*
X159187458Y-88465000D01*
X159064777Y-88489403D01*
X158949215Y-88537270D01*
X158845211Y-88606763D01*
X158756763Y-88695211D01*
X158687270Y-88799215D01*
X158639403Y-88914777D01*
X158615000Y-89037458D01*
X143493098Y-89037458D01*
X143695447Y-88656896D01*
X143710461Y-88620470D01*
X143726003Y-88584208D01*
X143727799Y-88578405D01*
X143868822Y-88111315D01*
X143876474Y-88072665D01*
X143884677Y-88034075D01*
X143885312Y-88028034D01*
X143932924Y-87542448D01*
X143932924Y-87542440D01*
X143935000Y-87521362D01*
X143935000Y-86435000D01*
X178065001Y-86435000D01*
X178065000Y-87521361D01*
X178066960Y-87541262D01*
X178066851Y-87556878D01*
X178067444Y-87562923D01*
X178118445Y-88048165D01*
X178126368Y-88086763D01*
X178133760Y-88125513D01*
X178135516Y-88131328D01*
X178279796Y-88597422D01*
X178295059Y-88633731D01*
X178309843Y-88670323D01*
X178312695Y-88675686D01*
X178544759Y-89104878D01*
X178566780Y-89137525D01*
X178588393Y-89170554D01*
X178592232Y-89175261D01*
X178903241Y-89551206D01*
X178931168Y-89578938D01*
X178958801Y-89607157D01*
X178963482Y-89611028D01*
X179341589Y-89919404D01*
X179374379Y-89941190D01*
X179406958Y-89963497D01*
X179412301Y-89966385D01*
X179843104Y-90195447D01*
X179879530Y-90210461D01*
X179915792Y-90226003D01*
X179921595Y-90227799D01*
X180388685Y-90368822D01*
X180427335Y-90376474D01*
X180465925Y-90384677D01*
X180471966Y-90385312D01*
X180957552Y-90432924D01*
X180957560Y-90432924D01*
X180978638Y-90435000D01*
X186021362Y-90435000D01*
X186041263Y-90433040D01*
X186056878Y-90433149D01*
X186062923Y-90432556D01*
X186548165Y-90381555D01*
X186586763Y-90373632D01*
X186625513Y-90366240D01*
X186631328Y-90364484D01*
X187097422Y-90220204D01*
X187133731Y-90204941D01*
X187170323Y-90190157D01*
X187175686Y-90187305D01*
X187604878Y-89955241D01*
X187637525Y-89933220D01*
X187670554Y-89911607D01*
X187675261Y-89907768D01*
X188051206Y-89596759D01*
X188078938Y-89568832D01*
X188107157Y-89541199D01*
X188111028Y-89536518D01*
X188419404Y-89158411D01*
X188441190Y-89125621D01*
X188463497Y-89093042D01*
X188466385Y-89087699D01*
X188575072Y-88883288D01*
X195815000Y-88883288D01*
X195815000Y-89116712D01*
X195860539Y-89345652D01*
X195949866Y-89561308D01*
X196079550Y-89755394D01*
X196244606Y-89920450D01*
X196438692Y-90050134D01*
X196654348Y-90139461D01*
X196883288Y-90185000D01*
X197116712Y-90185000D01*
X197345652Y-90139461D01*
X197561308Y-90050134D01*
X197593839Y-90028397D01*
X200651208Y-90028397D01*
X200728843Y-90277472D01*
X200992883Y-90403371D01*
X201276411Y-90475339D01*
X201568531Y-90490611D01*
X201757403Y-90463201D01*
X201635363Y-90585241D01*
X201478320Y-90820273D01*
X201370147Y-91081426D01*
X201315000Y-91358665D01*
X201315000Y-91641335D01*
X201370147Y-91918574D01*
X201478320Y-92179727D01*
X201635363Y-92414759D01*
X201835241Y-92614637D01*
X202070273Y-92771680D01*
X202331426Y-92879853D01*
X202608665Y-92935000D01*
X202891335Y-92935000D01*
X203168574Y-92879853D01*
X203429727Y-92771680D01*
X203664759Y-92614637D01*
X203864637Y-92414759D01*
X204021680Y-92179727D01*
X204129853Y-91918574D01*
X204185000Y-91641335D01*
X204185000Y-91358665D01*
X204129853Y-91081426D01*
X204021680Y-90820273D01*
X203864637Y-90585241D01*
X203664759Y-90385363D01*
X203429727Y-90228320D01*
X203168574Y-90120147D01*
X202891335Y-90065000D01*
X202608665Y-90065000D01*
X202331426Y-90120147D01*
X202318529Y-90125489D01*
X202348792Y-90028397D01*
X201500000Y-89179605D01*
X200651208Y-90028397D01*
X197593839Y-90028397D01*
X197755394Y-89920450D01*
X197920450Y-89755394D01*
X198050134Y-89561308D01*
X198139461Y-89345652D01*
X198185000Y-89116712D01*
X198185000Y-89068531D01*
X200009389Y-89068531D01*
X200051401Y-89358019D01*
X200149081Y-89633747D01*
X200222528Y-89771157D01*
X200471603Y-89848792D01*
X201320395Y-89000000D01*
X201679605Y-89000000D01*
X202528397Y-89848792D01*
X202777472Y-89771157D01*
X202903371Y-89507117D01*
X202975339Y-89223589D01*
X202990611Y-88931469D01*
X202948599Y-88641981D01*
X202850919Y-88366253D01*
X202777472Y-88228843D01*
X202528397Y-88151208D01*
X201679605Y-89000000D01*
X201320395Y-89000000D01*
X200471603Y-88151208D01*
X200222528Y-88228843D01*
X200096629Y-88492883D01*
X200024661Y-88776411D01*
X200009389Y-89068531D01*
X198185000Y-89068531D01*
X198185000Y-88883288D01*
X198139461Y-88654348D01*
X198050134Y-88438692D01*
X197920450Y-88244606D01*
X197755394Y-88079550D01*
X197593840Y-87971603D01*
X200651208Y-87971603D01*
X201500000Y-88820395D01*
X202348792Y-87971603D01*
X202271157Y-87722528D01*
X202007117Y-87596629D01*
X201723589Y-87524661D01*
X201431469Y-87509389D01*
X201141981Y-87551401D01*
X200866253Y-87649081D01*
X200728843Y-87722528D01*
X200651208Y-87971603D01*
X197593840Y-87971603D01*
X197561308Y-87949866D01*
X197345652Y-87860539D01*
X197116712Y-87815000D01*
X196883288Y-87815000D01*
X196654348Y-87860539D01*
X196438692Y-87949866D01*
X196244606Y-88079550D01*
X196079550Y-88244606D01*
X195949866Y-88438692D01*
X195860539Y-88654348D01*
X195815000Y-88883288D01*
X188575072Y-88883288D01*
X188695447Y-88656896D01*
X188710461Y-88620470D01*
X188726003Y-88584208D01*
X188727799Y-88578405D01*
X188868822Y-88111315D01*
X188876474Y-88072665D01*
X188884677Y-88034075D01*
X188885312Y-88028034D01*
X188932924Y-87542448D01*
X188932924Y-87542440D01*
X188935000Y-87521362D01*
X188935000Y-86435000D01*
X191521362Y-86435000D01*
X191543678Y-86432802D01*
X191559900Y-86432802D01*
X191565941Y-86432167D01*
X191808378Y-86404974D01*
X191846902Y-86396785D01*
X191885620Y-86389119D01*
X191891422Y-86387322D01*
X192123960Y-86313556D01*
X192160179Y-86298032D01*
X192196646Y-86283002D01*
X192201989Y-86280113D01*
X192415771Y-86162586D01*
X192448284Y-86140323D01*
X192468337Y-86127000D01*
X197031793Y-86127000D01*
X197033328Y-86128252D01*
X197066111Y-86150033D01*
X197098697Y-86172345D01*
X197104041Y-86175234D01*
X197319442Y-86289765D01*
X197355894Y-86304789D01*
X197392131Y-86320321D01*
X197397930Y-86322116D01*
X197397936Y-86322118D01*
X197631479Y-86392628D01*
X197670114Y-86400278D01*
X197708718Y-86408483D01*
X197714759Y-86409118D01*
X197957551Y-86432924D01*
X197957560Y-86432924D01*
X197978638Y-86435000D01*
X202819818Y-86435000D01*
X222565001Y-106180184D01*
X222565000Y-107271361D01*
X222567198Y-107293677D01*
X222567198Y-107309900D01*
X222567833Y-107315941D01*
X222595026Y-107558378D01*
X222603215Y-107596902D01*
X222610881Y-107635620D01*
X222612678Y-107641422D01*
X222686444Y-107873960D01*
X222701968Y-107910179D01*
X222716998Y-107946646D01*
X222719887Y-107951989D01*
X222837414Y-108165771D01*
X222859677Y-108198284D01*
X222873000Y-108218337D01*
X222873000Y-112781792D01*
X222871747Y-112783328D01*
X222849934Y-112816160D01*
X222827655Y-112848697D01*
X222824766Y-112854040D01*
X222710235Y-113069442D01*
X222695218Y-113105877D01*
X222679679Y-113142131D01*
X222677883Y-113147934D01*
X222607372Y-113381479D01*
X222599716Y-113420146D01*
X222591517Y-113458718D01*
X222590882Y-113464759D01*
X222567076Y-113707552D01*
X222567076Y-113707561D01*
X222565000Y-113728639D01*
X222565001Y-116357908D01*
X222504501Y-116364694D01*
X222465968Y-116372885D01*
X222427261Y-116380549D01*
X222421459Y-116382345D01*
X222021494Y-116509221D01*
X221985290Y-116524739D01*
X221948805Y-116539776D01*
X221943463Y-116542665D01*
X221575758Y-116744813D01*
X221543254Y-116767069D01*
X221510388Y-116788905D01*
X221505708Y-116792777D01*
X221184271Y-117062495D01*
X221156692Y-117090658D01*
X221128711Y-117118444D01*
X221124872Y-117123151D01*
X220861945Y-117450166D01*
X220840364Y-117483145D01*
X220818310Y-117515842D01*
X220815459Y-117521205D01*
X220621056Y-117893062D01*
X220606294Y-117929600D01*
X220591009Y-117965962D01*
X220589254Y-117971777D01*
X220470781Y-118374311D01*
X220463400Y-118413006D01*
X220455465Y-118451660D01*
X220454872Y-118457705D01*
X220416842Y-118875585D01*
X220417117Y-118915010D01*
X220416842Y-118954435D01*
X220417435Y-118960480D01*
X220461296Y-119377788D01*
X220469219Y-119416386D01*
X220476611Y-119455136D01*
X220478367Y-119460951D01*
X220602448Y-119861792D01*
X220617711Y-119898101D01*
X220632495Y-119934693D01*
X220635347Y-119940056D01*
X220834922Y-120309161D01*
X220856931Y-120341791D01*
X220878556Y-120374838D01*
X220882396Y-120379544D01*
X221149863Y-120702856D01*
X221177825Y-120730624D01*
X221205423Y-120758806D01*
X221210103Y-120762678D01*
X221535275Y-121027882D01*
X221568115Y-121049700D01*
X221600645Y-121071975D01*
X221605988Y-121074863D01*
X221976480Y-121271857D01*
X222012912Y-121286873D01*
X222049167Y-121302412D01*
X222054970Y-121304208D01*
X222456667Y-121425488D01*
X222495317Y-121433140D01*
X222533907Y-121441343D01*
X222539948Y-121441978D01*
X222565001Y-121444434D01*
X222565000Y-123819817D01*
X217819818Y-128565000D01*
X163542092Y-128565000D01*
X163535306Y-128504501D01*
X163527115Y-128465968D01*
X163519451Y-128427261D01*
X163517655Y-128421459D01*
X163390779Y-128021494D01*
X163375261Y-127985290D01*
X163360224Y-127948805D01*
X163357335Y-127943463D01*
X163155187Y-127575758D01*
X163132931Y-127543254D01*
X163111095Y-127510388D01*
X163107223Y-127505708D01*
X162837505Y-127184271D01*
X162809342Y-127156692D01*
X162781556Y-127128711D01*
X162776849Y-127124872D01*
X162449834Y-126861945D01*
X162416855Y-126840364D01*
X162384158Y-126818310D01*
X162378795Y-126815459D01*
X162006938Y-126621056D01*
X161970400Y-126606294D01*
X161934038Y-126591009D01*
X161928223Y-126589254D01*
X161525689Y-126470781D01*
X161486994Y-126463400D01*
X161448340Y-126455465D01*
X161442295Y-126454872D01*
X161024415Y-126416842D01*
X160984990Y-126417117D01*
X160945565Y-126416842D01*
X160939520Y-126417435D01*
X160522212Y-126461296D01*
X160483589Y-126469224D01*
X160444863Y-126476611D01*
X160439049Y-126478367D01*
X160038208Y-126602448D01*
X160001870Y-126617723D01*
X159965307Y-126632495D01*
X159959944Y-126635347D01*
X159590838Y-126834922D01*
X159558191Y-126856943D01*
X159525162Y-126878556D01*
X159520455Y-126882396D01*
X159197144Y-127149863D01*
X159169376Y-127177825D01*
X159141194Y-127205423D01*
X159137322Y-127210103D01*
X158872118Y-127535275D01*
X158850310Y-127568099D01*
X158828025Y-127600645D01*
X158825137Y-127605988D01*
X158628144Y-127976479D01*
X158613135Y-128012893D01*
X158597588Y-128049167D01*
X158595792Y-128054970D01*
X158474512Y-128456667D01*
X158466860Y-128495317D01*
X158458657Y-128533907D01*
X158458022Y-128539947D01*
X158455566Y-128565000D01*
X156978638Y-128565000D01*
X156956322Y-128567198D01*
X156940100Y-128567198D01*
X156934059Y-128567833D01*
X156691622Y-128595026D01*
X156653085Y-128603217D01*
X156614380Y-128610881D01*
X156608578Y-128612677D01*
X156376041Y-128686444D01*
X156339835Y-128701962D01*
X156303354Y-128716998D01*
X156298011Y-128719887D01*
X156084229Y-128837414D01*
X156051693Y-128859692D01*
X156031662Y-128873000D01*
X151468208Y-128873000D01*
X151466672Y-128871747D01*
X151433840Y-128849934D01*
X151401303Y-128827655D01*
X151395960Y-128824766D01*
X151180558Y-128710235D01*
X151144123Y-128695218D01*
X151107869Y-128679679D01*
X151102066Y-128677883D01*
X150868521Y-128607372D01*
X150829854Y-128599716D01*
X150791282Y-128591517D01*
X150785241Y-128590882D01*
X150542448Y-128567076D01*
X150542440Y-128567076D01*
X150521362Y-128565000D01*
X149494606Y-128565000D01*
X144339803Y-123410197D01*
X144298601Y-123382667D01*
X144250000Y-123373000D01*
X132160122Y-123373000D01*
X130597319Y-121810197D01*
X130556117Y-121782667D01*
X130507516Y-121773000D01*
X128307516Y-121773000D01*
X128258915Y-121782667D01*
X128217713Y-121810197D01*
X126617713Y-123410197D01*
X126590183Y-123451399D01*
X126583029Y-123487365D01*
X121505394Y-128565000D01*
X104180183Y-128565000D01*
X99435000Y-123819818D01*
X99435000Y-121442092D01*
X99495499Y-121435306D01*
X99534002Y-121427121D01*
X99572738Y-121419452D01*
X99578541Y-121417655D01*
X99978505Y-121290779D01*
X100014696Y-121275267D01*
X100051195Y-121260224D01*
X100056538Y-121257334D01*
X100424242Y-121055187D01*
X100456762Y-121032920D01*
X100489612Y-121011095D01*
X100494292Y-121007223D01*
X100815728Y-120737505D01*
X100843288Y-120709361D01*
X100871289Y-120681556D01*
X100875128Y-120676849D01*
X101138055Y-120349834D01*
X101159636Y-120316855D01*
X101181690Y-120284158D01*
X101184542Y-120278795D01*
X101378944Y-119906937D01*
X101393720Y-119870365D01*
X101408991Y-119834038D01*
X101410746Y-119828223D01*
X101529219Y-119425690D01*
X101536602Y-119386987D01*
X101544535Y-119348340D01*
X101545128Y-119342295D01*
X101583158Y-118924415D01*
X101582883Y-118884990D01*
X101583158Y-118845565D01*
X101582565Y-118839520D01*
X101538704Y-118422212D01*
X101530776Y-118383589D01*
X101523389Y-118344863D01*
X101521633Y-118339049D01*
X101397552Y-117938208D01*
X101382277Y-117901870D01*
X101367505Y-117865307D01*
X101364653Y-117859944D01*
X101165078Y-117490838D01*
X101143057Y-117458191D01*
X101121444Y-117425162D01*
X101117604Y-117420455D01*
X100850137Y-117097144D01*
X100822175Y-117069376D01*
X100794577Y-117041194D01*
X100789897Y-117037322D01*
X100464725Y-116772118D01*
X100431901Y-116750310D01*
X100399355Y-116728025D01*
X100394012Y-116725137D01*
X100023521Y-116528144D01*
X99987107Y-116513135D01*
X99950833Y-116497588D01*
X99945030Y-116495792D01*
X99543333Y-116374512D01*
X99504683Y-116366860D01*
X99466093Y-116358657D01*
X99460053Y-116358022D01*
X99435000Y-116355566D01*
X99435000Y-113728638D01*
X99432802Y-113706322D01*
X99432802Y-113690100D01*
X99432167Y-113684059D01*
X99404974Y-113441622D01*
X99396783Y-113403085D01*
X99389119Y-113364380D01*
X99387323Y-113358578D01*
X99313556Y-113126041D01*
X99298038Y-113089835D01*
X99283002Y-113053354D01*
X99280113Y-113048011D01*
X99162586Y-112834229D01*
X99140308Y-112801693D01*
X99127000Y-112781662D01*
X99127000Y-108218207D01*
X99128252Y-108216672D01*
X99150033Y-108183889D01*
X99172345Y-108151303D01*
X99175234Y-108145959D01*
X99289765Y-107930558D01*
X99304789Y-107894106D01*
X99320321Y-107857869D01*
X99322117Y-107852066D01*
X99328486Y-107830970D01*
X101510767Y-107830970D01*
X101588000Y-108078852D01*
X101850821Y-108204036D01*
X102133015Y-108275542D01*
X102423736Y-108290620D01*
X102711813Y-108248691D01*
X102986174Y-108151367D01*
X103121839Y-108078848D01*
X103198609Y-107830504D01*
X102354921Y-106986816D01*
X101510767Y-107830970D01*
X99328486Y-107830970D01*
X99392628Y-107618521D01*
X99400278Y-107579886D01*
X99408483Y-107541282D01*
X99409118Y-107535241D01*
X99432924Y-107292449D01*
X99432924Y-107292440D01*
X99435000Y-107271362D01*
X99435000Y-106738396D01*
X100871512Y-106738396D01*
X100886590Y-107029117D01*
X100958096Y-107311311D01*
X101083280Y-107574132D01*
X101331162Y-107651365D01*
X102175316Y-106807211D01*
X101331628Y-105963523D01*
X101083284Y-106040293D01*
X101010765Y-106175958D01*
X100913441Y-106450319D01*
X100871512Y-106738396D01*
X99435000Y-106738396D01*
X99435000Y-105783918D01*
X101511233Y-105783918D01*
X102354921Y-106627606D01*
X102369064Y-106613464D01*
X102548669Y-106793069D01*
X102534526Y-106807211D01*
X103378214Y-107650899D01*
X103626558Y-107574129D01*
X103699077Y-107438464D01*
X103796401Y-107164103D01*
X103838330Y-106876026D01*
X103823252Y-106585305D01*
X103751746Y-106303111D01*
X103626562Y-106040290D01*
X103378682Y-105963058D01*
X103463813Y-105877927D01*
X103490237Y-105892051D01*
X103713611Y-105959810D01*
X103887704Y-105976957D01*
X104004118Y-105976957D01*
X104178211Y-105959810D01*
X104401585Y-105892051D01*
X104420638Y-105881867D01*
X104568516Y-106029745D01*
X104582132Y-106046336D01*
X104648369Y-106100696D01*
X104723939Y-106141088D01*
X104774629Y-106156465D01*
X104805935Y-106165962D01*
X104814225Y-106166778D01*
X104869849Y-106172257D01*
X104869856Y-106172257D01*
X104891210Y-106174360D01*
X104912564Y-106172257D01*
X134112536Y-106172257D01*
X134058991Y-106301527D01*
X134030745Y-106443527D01*
X134030745Y-106588309D01*
X134058991Y-106730309D01*
X134114397Y-106864071D01*
X134194833Y-106984453D01*
X134297210Y-107086830D01*
X134331407Y-107109680D01*
X134337040Y-107166877D01*
X134361334Y-107246959D01*
X134361915Y-107248875D01*
X134402307Y-107324445D01*
X134456667Y-107390682D01*
X134473258Y-107404298D01*
X134711442Y-107642482D01*
X134725063Y-107659079D01*
X134791300Y-107713439D01*
X134836352Y-107737519D01*
X134866869Y-107753831D01*
X134916172Y-107768787D01*
X134948867Y-107778705D01*
X135012780Y-107785000D01*
X135012788Y-107785000D01*
X135034142Y-107787103D01*
X135055496Y-107785000D01*
X136503646Y-107785000D01*
X136525000Y-107787103D01*
X136546354Y-107785000D01*
X136546362Y-107785000D01*
X136610275Y-107778705D01*
X136692272Y-107753831D01*
X136767842Y-107713439D01*
X136834079Y-107659079D01*
X136847700Y-107642482D01*
X137417489Y-107072694D01*
X137434079Y-107059079D01*
X137488439Y-106992842D01*
X137528831Y-106917272D01*
X137549899Y-106847821D01*
X137553705Y-106835276D01*
X137555467Y-106817384D01*
X137560000Y-106771362D01*
X137560000Y-106771355D01*
X137562103Y-106750001D01*
X137560000Y-106728647D01*
X137560000Y-104321353D01*
X137562103Y-104299999D01*
X137560000Y-104278645D01*
X137560000Y-104278638D01*
X137553705Y-104214725D01*
X137528831Y-104132728D01*
X137488439Y-104057158D01*
X137434079Y-103990921D01*
X137417487Y-103977305D01*
X136697700Y-103257518D01*
X136684079Y-103240921D01*
X136617842Y-103186561D01*
X136542272Y-103146169D01*
X136460275Y-103121295D01*
X136396362Y-103115000D01*
X136396354Y-103115000D01*
X136375000Y-103112897D01*
X136353646Y-103115000D01*
X135346353Y-103115000D01*
X135324999Y-103112897D01*
X135303645Y-103115000D01*
X135303638Y-103115000D01*
X135248014Y-103120479D01*
X135239724Y-103121295D01*
X135214850Y-103128841D01*
X135157728Y-103146169D01*
X135082158Y-103186561D01*
X135015921Y-103240921D01*
X135002305Y-103257512D01*
X134169818Y-104090000D01*
X110180182Y-104090000D01*
X109967054Y-103876872D01*
X109967054Y-100736443D01*
X109987728Y-100730172D01*
X110193590Y-100620136D01*
X110374029Y-100472053D01*
X110522112Y-100291614D01*
X110632148Y-100085752D01*
X110699907Y-99862378D01*
X110722787Y-99630078D01*
X110699907Y-99397778D01*
X110632148Y-99174404D01*
X110522112Y-98968542D01*
X110374029Y-98788103D01*
X110193590Y-98640020D01*
X109987728Y-98529984D01*
X109764354Y-98462225D01*
X109590261Y-98445078D01*
X109473847Y-98445078D01*
X109299754Y-98462225D01*
X109251126Y-98476976D01*
X109948538Y-97779564D01*
X109955192Y-97847123D01*
X110022951Y-98070497D01*
X110132987Y-98276359D01*
X110281070Y-98456798D01*
X110461509Y-98604881D01*
X110667371Y-98714917D01*
X110890745Y-98782676D01*
X111064838Y-98799823D01*
X111181252Y-98799823D01*
X111355345Y-98782676D01*
X111578719Y-98714917D01*
X111784581Y-98604881D01*
X111965020Y-98456798D01*
X112113103Y-98276359D01*
X112223139Y-98070497D01*
X112229410Y-98049823D01*
X137050500Y-98049823D01*
X137040000Y-98102609D01*
X137040000Y-98247391D01*
X137068246Y-98389391D01*
X137123652Y-98523153D01*
X137204088Y-98643535D01*
X137306465Y-98745912D01*
X137426847Y-98826348D01*
X137560609Y-98881754D01*
X137702609Y-98910000D01*
X137847391Y-98910000D01*
X137989391Y-98881754D01*
X138123153Y-98826348D01*
X138243535Y-98745912D01*
X138345912Y-98643535D01*
X138426348Y-98523153D01*
X138481754Y-98389391D01*
X138510000Y-98247391D01*
X138510000Y-98110000D01*
X148456681Y-98110000D01*
X148479088Y-98143535D01*
X148581465Y-98245912D01*
X148615000Y-98268319D01*
X148615001Y-103978636D01*
X148612897Y-104000000D01*
X148621295Y-104085274D01*
X148641491Y-104151847D01*
X148646170Y-104167272D01*
X148686562Y-104242842D01*
X148740922Y-104309079D01*
X148757513Y-104322695D01*
X148822869Y-104388051D01*
X148815000Y-104427609D01*
X148815000Y-104572391D01*
X148843246Y-104714391D01*
X148898652Y-104848153D01*
X148979088Y-104968535D01*
X149081465Y-105070912D01*
X149201847Y-105151348D01*
X149335609Y-105206754D01*
X149477609Y-105235000D01*
X149622391Y-105235000D01*
X149764391Y-105206754D01*
X149898153Y-105151348D01*
X150018535Y-105070912D01*
X150120912Y-104968535D01*
X150143319Y-104935000D01*
X157519818Y-104935000D01*
X159077303Y-106492486D01*
X159090921Y-106509079D01*
X159157158Y-106563439D01*
X159232728Y-106603831D01*
X159314725Y-106628705D01*
X159378638Y-106635000D01*
X159378645Y-106635000D01*
X159399999Y-106637103D01*
X159421353Y-106635000D01*
X160615001Y-106635000D01*
X160615000Y-110163380D01*
X159750000Y-110163380D01*
X159684329Y-110169848D01*
X159621181Y-110189004D01*
X159562984Y-110220111D01*
X159511974Y-110261974D01*
X159470111Y-110312984D01*
X159439004Y-110371181D01*
X159419848Y-110434329D01*
X159413380Y-110500000D01*
X159413380Y-113500000D01*
X159419848Y-113565671D01*
X159439004Y-113628819D01*
X159470111Y-113687016D01*
X159511974Y-113738026D01*
X159562984Y-113779889D01*
X159621181Y-113810996D01*
X159684329Y-113830152D01*
X159750000Y-113836620D01*
X162350000Y-113836620D01*
X162415671Y-113830152D01*
X162478819Y-113810996D01*
X162537016Y-113779889D01*
X162588026Y-113738026D01*
X162629889Y-113687016D01*
X162660996Y-113628819D01*
X162680152Y-113565671D01*
X162686620Y-113500000D01*
X162686620Y-110500000D01*
X162680152Y-110434329D01*
X162660996Y-110371181D01*
X162629889Y-110312984D01*
X162588026Y-110261974D01*
X162537016Y-110220111D01*
X162478819Y-110189004D01*
X162415671Y-110169848D01*
X162350000Y-110163380D01*
X161485000Y-110163380D01*
X161485000Y-106635000D01*
X162778646Y-106635000D01*
X162800000Y-106637103D01*
X162821354Y-106635000D01*
X162821362Y-106635000D01*
X162885275Y-106628705D01*
X162967272Y-106603831D01*
X163042842Y-106563439D01*
X163109079Y-106509079D01*
X163122700Y-106492482D01*
X173288052Y-96327131D01*
X173327609Y-96335000D01*
X173472391Y-96335000D01*
X173614391Y-96306754D01*
X173748153Y-96251348D01*
X173868535Y-96170912D01*
X173970912Y-96068535D01*
X174051348Y-95948153D01*
X174106754Y-95814391D01*
X174135000Y-95672391D01*
X174135000Y-95527609D01*
X174106754Y-95385609D01*
X174051348Y-95251847D01*
X173970912Y-95131465D01*
X173868535Y-95029088D01*
X173748153Y-94948652D01*
X173614391Y-94893246D01*
X173472391Y-94865000D01*
X173327609Y-94865000D01*
X173185609Y-94893246D01*
X173051847Y-94948652D01*
X172931465Y-95029088D01*
X172829088Y-95131465D01*
X172748652Y-95251847D01*
X172693246Y-95385609D01*
X172665000Y-95527609D01*
X172665000Y-95672391D01*
X172672869Y-95711948D01*
X167947086Y-100437731D01*
X167956754Y-100414391D01*
X167985000Y-100272391D01*
X167985000Y-100127609D01*
X167956754Y-99985609D01*
X167901348Y-99851847D01*
X167820912Y-99731465D01*
X167718535Y-99629088D01*
X167598153Y-99548652D01*
X167464391Y-99493246D01*
X167322391Y-99465000D01*
X167177609Y-99465000D01*
X167158904Y-99468721D01*
X163196701Y-95506519D01*
X163183080Y-95489922D01*
X163116843Y-95435562D01*
X163041273Y-95395170D01*
X162959276Y-95370296D01*
X162895363Y-95364001D01*
X162895355Y-95364001D01*
X162874001Y-95361898D01*
X162852647Y-95364001D01*
X146780183Y-95364001D01*
X145648699Y-94232518D01*
X145635078Y-94215921D01*
X145568841Y-94161561D01*
X145493271Y-94121169D01*
X145411274Y-94096295D01*
X145347361Y-94090000D01*
X145347353Y-94090000D01*
X145325999Y-94087897D01*
X145304645Y-94090000D01*
X141296353Y-94090000D01*
X141274999Y-94087897D01*
X141253645Y-94090000D01*
X141253638Y-94090000D01*
X141198014Y-94095479D01*
X141189724Y-94096295D01*
X141164850Y-94103841D01*
X141107728Y-94121169D01*
X141032158Y-94161561D01*
X140965921Y-94215921D01*
X140952305Y-94232512D01*
X139937090Y-95247728D01*
X139914922Y-95265921D01*
X139901301Y-95282518D01*
X139819818Y-95364001D01*
X134958717Y-95364001D01*
X135084095Y-95280226D01*
X135430226Y-94934095D01*
X135702179Y-94527089D01*
X135889503Y-94074848D01*
X135985000Y-93594751D01*
X135985000Y-93105249D01*
X186015000Y-93105249D01*
X186015000Y-93594751D01*
X186110497Y-94074848D01*
X186297821Y-94527089D01*
X186569774Y-94934095D01*
X186915905Y-95280226D01*
X187322911Y-95552179D01*
X187775152Y-95739503D01*
X188255249Y-95835000D01*
X188744751Y-95835000D01*
X189224848Y-95739503D01*
X189677089Y-95552179D01*
X190084095Y-95280226D01*
X190430226Y-94934095D01*
X190702179Y-94527089D01*
X190889503Y-94074848D01*
X190985000Y-93594751D01*
X190985000Y-93105249D01*
X190889503Y-92625152D01*
X190702179Y-92172911D01*
X190430226Y-91765905D01*
X190084095Y-91419774D01*
X189992640Y-91358665D01*
X194315000Y-91358665D01*
X194315000Y-91641335D01*
X194370147Y-91918574D01*
X194478320Y-92179727D01*
X194635363Y-92414759D01*
X194835241Y-92614637D01*
X195070273Y-92771680D01*
X195331426Y-92879853D01*
X195608665Y-92935000D01*
X195891335Y-92935000D01*
X196168574Y-92879853D01*
X196429727Y-92771680D01*
X196664759Y-92614637D01*
X196864637Y-92414759D01*
X197021680Y-92179727D01*
X197129853Y-91918574D01*
X197185000Y-91641335D01*
X197185000Y-91358665D01*
X197129853Y-91081426D01*
X197021680Y-90820273D01*
X196864637Y-90585241D01*
X196664759Y-90385363D01*
X196429727Y-90228320D01*
X196168574Y-90120147D01*
X195891335Y-90065000D01*
X195608665Y-90065000D01*
X195331426Y-90120147D01*
X195070273Y-90228320D01*
X194835241Y-90385363D01*
X194635363Y-90585241D01*
X194478320Y-90820273D01*
X194370147Y-91081426D01*
X194315000Y-91358665D01*
X189992640Y-91358665D01*
X189677089Y-91147821D01*
X189224848Y-90960497D01*
X188744751Y-90865000D01*
X188255249Y-90865000D01*
X187775152Y-90960497D01*
X187322911Y-91147821D01*
X186915905Y-91419774D01*
X186569774Y-91765905D01*
X186297821Y-92172911D01*
X186110497Y-92625152D01*
X186015000Y-93105249D01*
X135985000Y-93105249D01*
X135889503Y-92625152D01*
X135702179Y-92172911D01*
X135430226Y-91765905D01*
X135084095Y-91419774D01*
X134677089Y-91147821D01*
X134224848Y-90960497D01*
X133849069Y-90885750D01*
X158615000Y-90885750D01*
X158615000Y-92162542D01*
X158639403Y-92285223D01*
X158687270Y-92400785D01*
X158756763Y-92504789D01*
X158845211Y-92593237D01*
X158949215Y-92662730D01*
X159064777Y-92710597D01*
X159187458Y-92735000D01*
X160764250Y-92735000D01*
X160923000Y-92576250D01*
X160923000Y-90727000D01*
X161177000Y-90727000D01*
X161177000Y-92576250D01*
X161335750Y-92735000D01*
X162912542Y-92735000D01*
X163035223Y-92710597D01*
X163150785Y-92662730D01*
X163254789Y-92593237D01*
X163343237Y-92504789D01*
X163412730Y-92400785D01*
X163460597Y-92285223D01*
X163485000Y-92162542D01*
X163485000Y-90885750D01*
X163326250Y-90727000D01*
X161177000Y-90727000D01*
X160923000Y-90727000D01*
X158773750Y-90727000D01*
X158615000Y-90885750D01*
X133849069Y-90885750D01*
X133744751Y-90865000D01*
X133255249Y-90865000D01*
X132775152Y-90960497D01*
X132322911Y-91147821D01*
X131915905Y-91419774D01*
X131569774Y-91765905D01*
X131297821Y-92172911D01*
X131110497Y-92625152D01*
X131015000Y-93105249D01*
X131015000Y-93594751D01*
X131110497Y-94074848D01*
X131297821Y-94527089D01*
X131569774Y-94934095D01*
X131915905Y-95280226D01*
X132041283Y-95364001D01*
X118942104Y-95364001D01*
X115360619Y-91782517D01*
X115346999Y-91765921D01*
X115280761Y-91711561D01*
X115205192Y-91671169D01*
X115123195Y-91646295D01*
X115037920Y-91637896D01*
X114952645Y-91646295D01*
X114870647Y-91671169D01*
X114795078Y-91711561D01*
X114751262Y-91747521D01*
X114728841Y-91765921D01*
X114715223Y-91782515D01*
X103653424Y-102844314D01*
X103636833Y-102857930D01*
X103582473Y-102924167D01*
X103545425Y-102993481D01*
X103542081Y-102999737D01*
X103517206Y-103081735D01*
X103508808Y-103167009D01*
X103510912Y-103188373D01*
X103510912Y-103685591D01*
X103490237Y-103691863D01*
X103284375Y-103801899D01*
X103103936Y-103949982D01*
X102955853Y-104130421D01*
X102845817Y-104336283D01*
X102778058Y-104559657D01*
X102755178Y-104791957D01*
X102778058Y-105024257D01*
X102845817Y-105247631D01*
X102955853Y-105453493D01*
X102959915Y-105458443D01*
X102859021Y-105410386D01*
X102576827Y-105338880D01*
X102286106Y-105323802D01*
X101998029Y-105365731D01*
X101723668Y-105463055D01*
X101588003Y-105535574D01*
X101511233Y-105783918D01*
X99435000Y-105783918D01*
X99435000Y-105180182D01*
X113256517Y-91358665D01*
X117315000Y-91358665D01*
X117315000Y-91641335D01*
X117370147Y-91918574D01*
X117478320Y-92179727D01*
X117635363Y-92414759D01*
X117835241Y-92614637D01*
X118070273Y-92771680D01*
X118331426Y-92879853D01*
X118608665Y-92935000D01*
X118891335Y-92935000D01*
X119168574Y-92879853D01*
X119429727Y-92771680D01*
X119664759Y-92614637D01*
X119864637Y-92414759D01*
X120021680Y-92179727D01*
X120129853Y-91918574D01*
X120185000Y-91641335D01*
X120185000Y-91358665D01*
X120129853Y-91081426D01*
X120021680Y-90820273D01*
X119864637Y-90585241D01*
X119664759Y-90385363D01*
X119429727Y-90228320D01*
X119168574Y-90120147D01*
X118891335Y-90065000D01*
X118608665Y-90065000D01*
X118331426Y-90120147D01*
X118070273Y-90228320D01*
X117835241Y-90385363D01*
X117635363Y-90585241D01*
X117478320Y-90820273D01*
X117370147Y-91081426D01*
X117315000Y-91358665D01*
X113256517Y-91358665D01*
X115731894Y-88883288D01*
X118815000Y-88883288D01*
X118815000Y-89116712D01*
X118860539Y-89345652D01*
X118949866Y-89561308D01*
X119079550Y-89755394D01*
X119244606Y-89920450D01*
X119438692Y-90050134D01*
X119654348Y-90139461D01*
X119883288Y-90185000D01*
X120116712Y-90185000D01*
X120345652Y-90139461D01*
X120561308Y-90050134D01*
X120593839Y-90028397D01*
X123651208Y-90028397D01*
X123728843Y-90277472D01*
X123992883Y-90403371D01*
X124276411Y-90475339D01*
X124568531Y-90490611D01*
X124757403Y-90463201D01*
X124635363Y-90585241D01*
X124478320Y-90820273D01*
X124370147Y-91081426D01*
X124315000Y-91358665D01*
X124315000Y-91641335D01*
X124370147Y-91918574D01*
X124478320Y-92179727D01*
X124635363Y-92414759D01*
X124835241Y-92614637D01*
X125070273Y-92771680D01*
X125331426Y-92879853D01*
X125608665Y-92935000D01*
X125891335Y-92935000D01*
X126168574Y-92879853D01*
X126429727Y-92771680D01*
X126664759Y-92614637D01*
X126864637Y-92414759D01*
X127021680Y-92179727D01*
X127129853Y-91918574D01*
X127185000Y-91641335D01*
X127185000Y-91358665D01*
X127129853Y-91081426D01*
X127021680Y-90820273D01*
X126864637Y-90585241D01*
X126664759Y-90385363D01*
X126429727Y-90228320D01*
X126168574Y-90120147D01*
X125891335Y-90065000D01*
X125608665Y-90065000D01*
X125331426Y-90120147D01*
X125318529Y-90125489D01*
X125348792Y-90028397D01*
X124500000Y-89179605D01*
X123651208Y-90028397D01*
X120593839Y-90028397D01*
X120755394Y-89920450D01*
X120920450Y-89755394D01*
X121050134Y-89561308D01*
X121139461Y-89345652D01*
X121185000Y-89116712D01*
X121185000Y-89068531D01*
X123009389Y-89068531D01*
X123051401Y-89358019D01*
X123149081Y-89633747D01*
X123222528Y-89771157D01*
X123471603Y-89848792D01*
X124320395Y-89000000D01*
X124679605Y-89000000D01*
X125528397Y-89848792D01*
X125777472Y-89771157D01*
X125903371Y-89507117D01*
X125975339Y-89223589D01*
X125990611Y-88931469D01*
X125948599Y-88641981D01*
X125850919Y-88366253D01*
X125777472Y-88228843D01*
X125528397Y-88151208D01*
X124679605Y-89000000D01*
X124320395Y-89000000D01*
X123471603Y-88151208D01*
X123222528Y-88228843D01*
X123096629Y-88492883D01*
X123024661Y-88776411D01*
X123009389Y-89068531D01*
X121185000Y-89068531D01*
X121185000Y-88883288D01*
X121139461Y-88654348D01*
X121050134Y-88438692D01*
X120920450Y-88244606D01*
X120755394Y-88079550D01*
X120593840Y-87971603D01*
X123651208Y-87971603D01*
X124500000Y-88820395D01*
X125348792Y-87971603D01*
X125271157Y-87722528D01*
X125007117Y-87596629D01*
X124723589Y-87524661D01*
X124431469Y-87509389D01*
X124141981Y-87551401D01*
X123866253Y-87649081D01*
X123728843Y-87722528D01*
X123651208Y-87971603D01*
X120593840Y-87971603D01*
X120561308Y-87949866D01*
X120345652Y-87860539D01*
X120116712Y-87815000D01*
X119883288Y-87815000D01*
X119654348Y-87860539D01*
X119438692Y-87949866D01*
X119244606Y-88079550D01*
X119079550Y-88244606D01*
X118949866Y-88438692D01*
X118860539Y-88654348D01*
X118815000Y-88883288D01*
X115731894Y-88883288D01*
X118180183Y-86435000D01*
X123021362Y-86435000D01*
X123043678Y-86432802D01*
X123059900Y-86432802D01*
X123065941Y-86432167D01*
X123308378Y-86404974D01*
X123346902Y-86396785D01*
X123385620Y-86389119D01*
X123391422Y-86387322D01*
X123623960Y-86313556D01*
X123660179Y-86298032D01*
X123696646Y-86283002D01*
X123701989Y-86280113D01*
X123915771Y-86162586D01*
X123948284Y-86140323D01*
X123968337Y-86127000D01*
X128397420Y-86127000D01*
X128407001Y-86134814D01*
X128407001Y-86134814D01*
G37*
X128407001Y-86134814D02*
X128439784Y-86156595D01*
X128472370Y-86178907D01*
X128477714Y-86181796D01*
X128693115Y-86296327D01*
X128729567Y-86311351D01*
X128765804Y-86326883D01*
X128771603Y-86328678D01*
X128771609Y-86328680D01*
X129005152Y-86399190D01*
X129043787Y-86406840D01*
X129082391Y-86415045D01*
X129088432Y-86415680D01*
X129331224Y-86439486D01*
X129416121Y-86439485D01*
X129438773Y-86435000D01*
X133065001Y-86435000D01*
X133065000Y-87521361D01*
X133066960Y-87541262D01*
X133066851Y-87556878D01*
X133067444Y-87562923D01*
X133118445Y-88048165D01*
X133126368Y-88086763D01*
X133133760Y-88125513D01*
X133135516Y-88131328D01*
X133279796Y-88597422D01*
X133295059Y-88633731D01*
X133309843Y-88670323D01*
X133312695Y-88675686D01*
X133544759Y-89104878D01*
X133566780Y-89137525D01*
X133588393Y-89170554D01*
X133592232Y-89175261D01*
X133903241Y-89551206D01*
X133931168Y-89578938D01*
X133958801Y-89607157D01*
X133963482Y-89611028D01*
X134341589Y-89919404D01*
X134374379Y-89941190D01*
X134406958Y-89963497D01*
X134412301Y-89966385D01*
X134843104Y-90195447D01*
X134879530Y-90210461D01*
X134915792Y-90226003D01*
X134921595Y-90227799D01*
X135388685Y-90368822D01*
X135427335Y-90376474D01*
X135465925Y-90384677D01*
X135471966Y-90385312D01*
X135957552Y-90432924D01*
X135957560Y-90432924D01*
X135978638Y-90435000D01*
X141021362Y-90435000D01*
X141041263Y-90433040D01*
X141056878Y-90433149D01*
X141062923Y-90432556D01*
X141548165Y-90381555D01*
X141586763Y-90373632D01*
X141625513Y-90366240D01*
X141631328Y-90364484D01*
X142097422Y-90220204D01*
X142133731Y-90204941D01*
X142170323Y-90190157D01*
X142175686Y-90187305D01*
X142604878Y-89955241D01*
X142637525Y-89933220D01*
X142670554Y-89911607D01*
X142675261Y-89907768D01*
X143051206Y-89596759D01*
X143078938Y-89568832D01*
X143107157Y-89541199D01*
X143111028Y-89536518D01*
X143419404Y-89158411D01*
X143441190Y-89125621D01*
X143463497Y-89093042D01*
X143466385Y-89087699D01*
X143493098Y-89037458D01*
X158615000Y-89037458D01*
X158615000Y-90314250D01*
X158773750Y-90473000D01*
X160923000Y-90473000D01*
X160923000Y-88623750D01*
X161177000Y-88623750D01*
X161177000Y-90473000D01*
X163326250Y-90473000D01*
X163485000Y-90314250D01*
X163485000Y-89037458D01*
X163460597Y-88914777D01*
X163412730Y-88799215D01*
X163343237Y-88695211D01*
X163254789Y-88606763D01*
X163150785Y-88537270D01*
X163035223Y-88489403D01*
X162912542Y-88465000D01*
X161335750Y-88465000D01*
X161177000Y-88623750D01*
X160923000Y-88623750D01*
X160764250Y-88465000D01*
X159187458Y-88465000D01*
X159064777Y-88489403D01*
X158949215Y-88537270D01*
X158845211Y-88606763D01*
X158756763Y-88695211D01*
X158687270Y-88799215D01*
X158639403Y-88914777D01*
X158615000Y-89037458D01*
X143493098Y-89037458D01*
X143695447Y-88656896D01*
X143710461Y-88620470D01*
X143726003Y-88584208D01*
X143727799Y-88578405D01*
X143868822Y-88111315D01*
X143876474Y-88072665D01*
X143884677Y-88034075D01*
X143885312Y-88028034D01*
X143932924Y-87542448D01*
X143932924Y-87542440D01*
X143935000Y-87521362D01*
X143935000Y-86435000D01*
X178065001Y-86435000D01*
X178065000Y-87521361D01*
X178066960Y-87541262D01*
X178066851Y-87556878D01*
X178067444Y-87562923D01*
X178118445Y-88048165D01*
X178126368Y-88086763D01*
X178133760Y-88125513D01*
X178135516Y-88131328D01*
X178279796Y-88597422D01*
X178295059Y-88633731D01*
X178309843Y-88670323D01*
X178312695Y-88675686D01*
X178544759Y-89104878D01*
X178566780Y-89137525D01*
X178588393Y-89170554D01*
X178592232Y-89175261D01*
X178903241Y-89551206D01*
X178931168Y-89578938D01*
X178958801Y-89607157D01*
X178963482Y-89611028D01*
X179341589Y-89919404D01*
X179374379Y-89941190D01*
X179406958Y-89963497D01*
X179412301Y-89966385D01*
X179843104Y-90195447D01*
X179879530Y-90210461D01*
X179915792Y-90226003D01*
X179921595Y-90227799D01*
X180388685Y-90368822D01*
X180427335Y-90376474D01*
X180465925Y-90384677D01*
X180471966Y-90385312D01*
X180957552Y-90432924D01*
X180957560Y-90432924D01*
X180978638Y-90435000D01*
X186021362Y-90435000D01*
X186041263Y-90433040D01*
X186056878Y-90433149D01*
X186062923Y-90432556D01*
X186548165Y-90381555D01*
X186586763Y-90373632D01*
X186625513Y-90366240D01*
X186631328Y-90364484D01*
X187097422Y-90220204D01*
X187133731Y-90204941D01*
X187170323Y-90190157D01*
X187175686Y-90187305D01*
X187604878Y-89955241D01*
X187637525Y-89933220D01*
X187670554Y-89911607D01*
X187675261Y-89907768D01*
X188051206Y-89596759D01*
X188078938Y-89568832D01*
X188107157Y-89541199D01*
X188111028Y-89536518D01*
X188419404Y-89158411D01*
X188441190Y-89125621D01*
X188463497Y-89093042D01*
X188466385Y-89087699D01*
X188575072Y-88883288D01*
X195815000Y-88883288D01*
X195815000Y-89116712D01*
X195860539Y-89345652D01*
X195949866Y-89561308D01*
X196079550Y-89755394D01*
X196244606Y-89920450D01*
X196438692Y-90050134D01*
X196654348Y-90139461D01*
X196883288Y-90185000D01*
X197116712Y-90185000D01*
X197345652Y-90139461D01*
X197561308Y-90050134D01*
X197593839Y-90028397D01*
X200651208Y-90028397D01*
X200728843Y-90277472D01*
X200992883Y-90403371D01*
X201276411Y-90475339D01*
X201568531Y-90490611D01*
X201757403Y-90463201D01*
X201635363Y-90585241D01*
X201478320Y-90820273D01*
X201370147Y-91081426D01*
X201315000Y-91358665D01*
X201315000Y-91641335D01*
X201370147Y-91918574D01*
X201478320Y-92179727D01*
X201635363Y-92414759D01*
X201835241Y-92614637D01*
X202070273Y-92771680D01*
X202331426Y-92879853D01*
X202608665Y-92935000D01*
X202891335Y-92935000D01*
X203168574Y-92879853D01*
X203429727Y-92771680D01*
X203664759Y-92614637D01*
X203864637Y-92414759D01*
X204021680Y-92179727D01*
X204129853Y-91918574D01*
X204185000Y-91641335D01*
X204185000Y-91358665D01*
X204129853Y-91081426D01*
X204021680Y-90820273D01*
X203864637Y-90585241D01*
X203664759Y-90385363D01*
X203429727Y-90228320D01*
X203168574Y-90120147D01*
X202891335Y-90065000D01*
X202608665Y-90065000D01*
X202331426Y-90120147D01*
X202318529Y-90125489D01*
X202348792Y-90028397D01*
X201500000Y-89179605D01*
X200651208Y-90028397D01*
X197593839Y-90028397D01*
X197755394Y-89920450D01*
X197920450Y-89755394D01*
X198050134Y-89561308D01*
X198139461Y-89345652D01*
X198185000Y-89116712D01*
X198185000Y-89068531D01*
X200009389Y-89068531D01*
X200051401Y-89358019D01*
X200149081Y-89633747D01*
X200222528Y-89771157D01*
X200471603Y-89848792D01*
X201320395Y-89000000D01*
X201679605Y-89000000D01*
X202528397Y-89848792D01*
X202777472Y-89771157D01*
X202903371Y-89507117D01*
X202975339Y-89223589D01*
X202990611Y-88931469D01*
X202948599Y-88641981D01*
X202850919Y-88366253D01*
X202777472Y-88228843D01*
X202528397Y-88151208D01*
X201679605Y-89000000D01*
X201320395Y-89000000D01*
X200471603Y-88151208D01*
X200222528Y-88228843D01*
X200096629Y-88492883D01*
X200024661Y-88776411D01*
X200009389Y-89068531D01*
X198185000Y-89068531D01*
X198185000Y-88883288D01*
X198139461Y-88654348D01*
X198050134Y-88438692D01*
X197920450Y-88244606D01*
X197755394Y-88079550D01*
X197593840Y-87971603D01*
X200651208Y-87971603D01*
X201500000Y-88820395D01*
X202348792Y-87971603D01*
X202271157Y-87722528D01*
X202007117Y-87596629D01*
X201723589Y-87524661D01*
X201431469Y-87509389D01*
X201141981Y-87551401D01*
X200866253Y-87649081D01*
X200728843Y-87722528D01*
X200651208Y-87971603D01*
X197593840Y-87971603D01*
X197561308Y-87949866D01*
X197345652Y-87860539D01*
X197116712Y-87815000D01*
X196883288Y-87815000D01*
X196654348Y-87860539D01*
X196438692Y-87949866D01*
X196244606Y-88079550D01*
X196079550Y-88244606D01*
X195949866Y-88438692D01*
X195860539Y-88654348D01*
X195815000Y-88883288D01*
X188575072Y-88883288D01*
X188695447Y-88656896D01*
X188710461Y-88620470D01*
X188726003Y-88584208D01*
X188727799Y-88578405D01*
X188868822Y-88111315D01*
X188876474Y-88072665D01*
X188884677Y-88034075D01*
X188885312Y-88028034D01*
X188932924Y-87542448D01*
X188932924Y-87542440D01*
X188935000Y-87521362D01*
X188935000Y-86435000D01*
X191521362Y-86435000D01*
X191543678Y-86432802D01*
X191559900Y-86432802D01*
X191565941Y-86432167D01*
X191808378Y-86404974D01*
X191846902Y-86396785D01*
X191885620Y-86389119D01*
X191891422Y-86387322D01*
X192123960Y-86313556D01*
X192160179Y-86298032D01*
X192196646Y-86283002D01*
X192201989Y-86280113D01*
X192415771Y-86162586D01*
X192448284Y-86140323D01*
X192468337Y-86127000D01*
X197031793Y-86127000D01*
X197033328Y-86128252D01*
X197066111Y-86150033D01*
X197098697Y-86172345D01*
X197104041Y-86175234D01*
X197319442Y-86289765D01*
X197355894Y-86304789D01*
X197392131Y-86320321D01*
X197397930Y-86322116D01*
X197397936Y-86322118D01*
X197631479Y-86392628D01*
X197670114Y-86400278D01*
X197708718Y-86408483D01*
X197714759Y-86409118D01*
X197957551Y-86432924D01*
X197957560Y-86432924D01*
X197978638Y-86435000D01*
X202819818Y-86435000D01*
X222565001Y-106180184D01*
X222565000Y-107271361D01*
X222567198Y-107293677D01*
X222567198Y-107309900D01*
X222567833Y-107315941D01*
X222595026Y-107558378D01*
X222603215Y-107596902D01*
X222610881Y-107635620D01*
X222612678Y-107641422D01*
X222686444Y-107873960D01*
X222701968Y-107910179D01*
X222716998Y-107946646D01*
X222719887Y-107951989D01*
X222837414Y-108165771D01*
X222859677Y-108198284D01*
X222873000Y-108218337D01*
X222873000Y-112781792D01*
X222871747Y-112783328D01*
X222849934Y-112816160D01*
X222827655Y-112848697D01*
X222824766Y-112854040D01*
X222710235Y-113069442D01*
X222695218Y-113105877D01*
X222679679Y-113142131D01*
X222677883Y-113147934D01*
X222607372Y-113381479D01*
X222599716Y-113420146D01*
X222591517Y-113458718D01*
X222590882Y-113464759D01*
X222567076Y-113707552D01*
X222567076Y-113707561D01*
X222565000Y-113728639D01*
X222565001Y-116357908D01*
X222504501Y-116364694D01*
X222465968Y-116372885D01*
X222427261Y-116380549D01*
X222421459Y-116382345D01*
X222021494Y-116509221D01*
X221985290Y-116524739D01*
X221948805Y-116539776D01*
X221943463Y-116542665D01*
X221575758Y-116744813D01*
X221543254Y-116767069D01*
X221510388Y-116788905D01*
X221505708Y-116792777D01*
X221184271Y-117062495D01*
X221156692Y-117090658D01*
X221128711Y-117118444D01*
X221124872Y-117123151D01*
X220861945Y-117450166D01*
X220840364Y-117483145D01*
X220818310Y-117515842D01*
X220815459Y-117521205D01*
X220621056Y-117893062D01*
X220606294Y-117929600D01*
X220591009Y-117965962D01*
X220589254Y-117971777D01*
X220470781Y-118374311D01*
X220463400Y-118413006D01*
X220455465Y-118451660D01*
X220454872Y-118457705D01*
X220416842Y-118875585D01*
X220417117Y-118915010D01*
X220416842Y-118954435D01*
X220417435Y-118960480D01*
X220461296Y-119377788D01*
X220469219Y-119416386D01*
X220476611Y-119455136D01*
X220478367Y-119460951D01*
X220602448Y-119861792D01*
X220617711Y-119898101D01*
X220632495Y-119934693D01*
X220635347Y-119940056D01*
X220834922Y-120309161D01*
X220856931Y-120341791D01*
X220878556Y-120374838D01*
X220882396Y-120379544D01*
X221149863Y-120702856D01*
X221177825Y-120730624D01*
X221205423Y-120758806D01*
X221210103Y-120762678D01*
X221535275Y-121027882D01*
X221568115Y-121049700D01*
X221600645Y-121071975D01*
X221605988Y-121074863D01*
X221976480Y-121271857D01*
X222012912Y-121286873D01*
X222049167Y-121302412D01*
X222054970Y-121304208D01*
X222456667Y-121425488D01*
X222495317Y-121433140D01*
X222533907Y-121441343D01*
X222539948Y-121441978D01*
X222565001Y-121444434D01*
X222565000Y-123819817D01*
X217819818Y-128565000D01*
X163542092Y-128565000D01*
X163535306Y-128504501D01*
X163527115Y-128465968D01*
X163519451Y-128427261D01*
X163517655Y-128421459D01*
X163390779Y-128021494D01*
X163375261Y-127985290D01*
X163360224Y-127948805D01*
X163357335Y-127943463D01*
X163155187Y-127575758D01*
X163132931Y-127543254D01*
X163111095Y-127510388D01*
X163107223Y-127505708D01*
X162837505Y-127184271D01*
X162809342Y-127156692D01*
X162781556Y-127128711D01*
X162776849Y-127124872D01*
X162449834Y-126861945D01*
X162416855Y-126840364D01*
X162384158Y-126818310D01*
X162378795Y-126815459D01*
X162006938Y-126621056D01*
X161970400Y-126606294D01*
X161934038Y-126591009D01*
X161928223Y-126589254D01*
X161525689Y-126470781D01*
X161486994Y-126463400D01*
X161448340Y-126455465D01*
X161442295Y-126454872D01*
X161024415Y-126416842D01*
X160984990Y-126417117D01*
X160945565Y-126416842D01*
X160939520Y-126417435D01*
X160522212Y-126461296D01*
X160483589Y-126469224D01*
X160444863Y-126476611D01*
X160439049Y-126478367D01*
X160038208Y-126602448D01*
X160001870Y-126617723D01*
X159965307Y-126632495D01*
X159959944Y-126635347D01*
X159590838Y-126834922D01*
X159558191Y-126856943D01*
X159525162Y-126878556D01*
X159520455Y-126882396D01*
X159197144Y-127149863D01*
X159169376Y-127177825D01*
X159141194Y-127205423D01*
X159137322Y-127210103D01*
X158872118Y-127535275D01*
X158850310Y-127568099D01*
X158828025Y-127600645D01*
X158825137Y-127605988D01*
X158628144Y-127976479D01*
X158613135Y-128012893D01*
X158597588Y-128049167D01*
X158595792Y-128054970D01*
X158474512Y-128456667D01*
X158466860Y-128495317D01*
X158458657Y-128533907D01*
X158458022Y-128539947D01*
X158455566Y-128565000D01*
X156978638Y-128565000D01*
X156956322Y-128567198D01*
X156940100Y-128567198D01*
X156934059Y-128567833D01*
X156691622Y-128595026D01*
X156653085Y-128603217D01*
X156614380Y-128610881D01*
X156608578Y-128612677D01*
X156376041Y-128686444D01*
X156339835Y-128701962D01*
X156303354Y-128716998D01*
X156298011Y-128719887D01*
X156084229Y-128837414D01*
X156051693Y-128859692D01*
X156031662Y-128873000D01*
X151468208Y-128873000D01*
X151466672Y-128871747D01*
X151433840Y-128849934D01*
X151401303Y-128827655D01*
X151395960Y-128824766D01*
X151180558Y-128710235D01*
X151144123Y-128695218D01*
X151107869Y-128679679D01*
X151102066Y-128677883D01*
X150868521Y-128607372D01*
X150829854Y-128599716D01*
X150791282Y-128591517D01*
X150785241Y-128590882D01*
X150542448Y-128567076D01*
X150542440Y-128567076D01*
X150521362Y-128565000D01*
X149494606Y-128565000D01*
X144339803Y-123410197D01*
X144298601Y-123382667D01*
X144250000Y-123373000D01*
X132160122Y-123373000D01*
X130597319Y-121810197D01*
X130556117Y-121782667D01*
X130507516Y-121773000D01*
X128307516Y-121773000D01*
X128258915Y-121782667D01*
X128217713Y-121810197D01*
X126617713Y-123410197D01*
X126590183Y-123451399D01*
X126583029Y-123487365D01*
X121505394Y-128565000D01*
X104180183Y-128565000D01*
X99435000Y-123819818D01*
X99435000Y-121442092D01*
X99495499Y-121435306D01*
X99534002Y-121427121D01*
X99572738Y-121419452D01*
X99578541Y-121417655D01*
X99978505Y-121290779D01*
X100014696Y-121275267D01*
X100051195Y-121260224D01*
X100056538Y-121257334D01*
X100424242Y-121055187D01*
X100456762Y-121032920D01*
X100489612Y-121011095D01*
X100494292Y-121007223D01*
X100815728Y-120737505D01*
X100843288Y-120709361D01*
X100871289Y-120681556D01*
X100875128Y-120676849D01*
X101138055Y-120349834D01*
X101159636Y-120316855D01*
X101181690Y-120284158D01*
X101184542Y-120278795D01*
X101378944Y-119906937D01*
X101393720Y-119870365D01*
X101408991Y-119834038D01*
X101410746Y-119828223D01*
X101529219Y-119425690D01*
X101536602Y-119386987D01*
X101544535Y-119348340D01*
X101545128Y-119342295D01*
X101583158Y-118924415D01*
X101582883Y-118884990D01*
X101583158Y-118845565D01*
X101582565Y-118839520D01*
X101538704Y-118422212D01*
X101530776Y-118383589D01*
X101523389Y-118344863D01*
X101521633Y-118339049D01*
X101397552Y-117938208D01*
X101382277Y-117901870D01*
X101367505Y-117865307D01*
X101364653Y-117859944D01*
X101165078Y-117490838D01*
X101143057Y-117458191D01*
X101121444Y-117425162D01*
X101117604Y-117420455D01*
X100850137Y-117097144D01*
X100822175Y-117069376D01*
X100794577Y-117041194D01*
X100789897Y-117037322D01*
X100464725Y-116772118D01*
X100431901Y-116750310D01*
X100399355Y-116728025D01*
X100394012Y-116725137D01*
X100023521Y-116528144D01*
X99987107Y-116513135D01*
X99950833Y-116497588D01*
X99945030Y-116495792D01*
X99543333Y-116374512D01*
X99504683Y-116366860D01*
X99466093Y-116358657D01*
X99460053Y-116358022D01*
X99435000Y-116355566D01*
X99435000Y-113728638D01*
X99432802Y-113706322D01*
X99432802Y-113690100D01*
X99432167Y-113684059D01*
X99404974Y-113441622D01*
X99396783Y-113403085D01*
X99389119Y-113364380D01*
X99387323Y-113358578D01*
X99313556Y-113126041D01*
X99298038Y-113089835D01*
X99283002Y-113053354D01*
X99280113Y-113048011D01*
X99162586Y-112834229D01*
X99140308Y-112801693D01*
X99127000Y-112781662D01*
X99127000Y-108218207D01*
X99128252Y-108216672D01*
X99150033Y-108183889D01*
X99172345Y-108151303D01*
X99175234Y-108145959D01*
X99289765Y-107930558D01*
X99304789Y-107894106D01*
X99320321Y-107857869D01*
X99322117Y-107852066D01*
X99328486Y-107830970D01*
X101510767Y-107830970D01*
X101588000Y-108078852D01*
X101850821Y-108204036D01*
X102133015Y-108275542D01*
X102423736Y-108290620D01*
X102711813Y-108248691D01*
X102986174Y-108151367D01*
X103121839Y-108078848D01*
X103198609Y-107830504D01*
X102354921Y-106986816D01*
X101510767Y-107830970D01*
X99328486Y-107830970D01*
X99392628Y-107618521D01*
X99400278Y-107579886D01*
X99408483Y-107541282D01*
X99409118Y-107535241D01*
X99432924Y-107292449D01*
X99432924Y-107292440D01*
X99435000Y-107271362D01*
X99435000Y-106738396D01*
X100871512Y-106738396D01*
X100886590Y-107029117D01*
X100958096Y-107311311D01*
X101083280Y-107574132D01*
X101331162Y-107651365D01*
X102175316Y-106807211D01*
X101331628Y-105963523D01*
X101083284Y-106040293D01*
X101010765Y-106175958D01*
X100913441Y-106450319D01*
X100871512Y-106738396D01*
X99435000Y-106738396D01*
X99435000Y-105783918D01*
X101511233Y-105783918D01*
X102354921Y-106627606D01*
X102369064Y-106613464D01*
X102548669Y-106793069D01*
X102534526Y-106807211D01*
X103378214Y-107650899D01*
X103626558Y-107574129D01*
X103699077Y-107438464D01*
X103796401Y-107164103D01*
X103838330Y-106876026D01*
X103823252Y-106585305D01*
X103751746Y-106303111D01*
X103626562Y-106040290D01*
X103378682Y-105963058D01*
X103463813Y-105877927D01*
X103490237Y-105892051D01*
X103713611Y-105959810D01*
X103887704Y-105976957D01*
X104004118Y-105976957D01*
X104178211Y-105959810D01*
X104401585Y-105892051D01*
X104420638Y-105881867D01*
X104568516Y-106029745D01*
X104582132Y-106046336D01*
X104648369Y-106100696D01*
X104723939Y-106141088D01*
X104774629Y-106156465D01*
X104805935Y-106165962D01*
X104814225Y-106166778D01*
X104869849Y-106172257D01*
X104869856Y-106172257D01*
X104891210Y-106174360D01*
X104912564Y-106172257D01*
X134112536Y-106172257D01*
X134058991Y-106301527D01*
X134030745Y-106443527D01*
X134030745Y-106588309D01*
X134058991Y-106730309D01*
X134114397Y-106864071D01*
X134194833Y-106984453D01*
X134297210Y-107086830D01*
X134331407Y-107109680D01*
X134337040Y-107166877D01*
X134361334Y-107246959D01*
X134361915Y-107248875D01*
X134402307Y-107324445D01*
X134456667Y-107390682D01*
X134473258Y-107404298D01*
X134711442Y-107642482D01*
X134725063Y-107659079D01*
X134791300Y-107713439D01*
X134836352Y-107737519D01*
X134866869Y-107753831D01*
X134916172Y-107768787D01*
X134948867Y-107778705D01*
X135012780Y-107785000D01*
X135012788Y-107785000D01*
X135034142Y-107787103D01*
X135055496Y-107785000D01*
X136503646Y-107785000D01*
X136525000Y-107787103D01*
X136546354Y-107785000D01*
X136546362Y-107785000D01*
X136610275Y-107778705D01*
X136692272Y-107753831D01*
X136767842Y-107713439D01*
X136834079Y-107659079D01*
X136847700Y-107642482D01*
X137417489Y-107072694D01*
X137434079Y-107059079D01*
X137488439Y-106992842D01*
X137528831Y-106917272D01*
X137549899Y-106847821D01*
X137553705Y-106835276D01*
X137555467Y-106817384D01*
X137560000Y-106771362D01*
X137560000Y-106771355D01*
X137562103Y-106750001D01*
X137560000Y-106728647D01*
X137560000Y-104321353D01*
X137562103Y-104299999D01*
X137560000Y-104278645D01*
X137560000Y-104278638D01*
X137553705Y-104214725D01*
X137528831Y-104132728D01*
X137488439Y-104057158D01*
X137434079Y-103990921D01*
X137417487Y-103977305D01*
X136697700Y-103257518D01*
X136684079Y-103240921D01*
X136617842Y-103186561D01*
X136542272Y-103146169D01*
X136460275Y-103121295D01*
X136396362Y-103115000D01*
X136396354Y-103115000D01*
X136375000Y-103112897D01*
X136353646Y-103115000D01*
X135346353Y-103115000D01*
X135324999Y-103112897D01*
X135303645Y-103115000D01*
X135303638Y-103115000D01*
X135248014Y-103120479D01*
X135239724Y-103121295D01*
X135214850Y-103128841D01*
X135157728Y-103146169D01*
X135082158Y-103186561D01*
X135015921Y-103240921D01*
X135002305Y-103257512D01*
X134169818Y-104090000D01*
X110180182Y-104090000D01*
X109967054Y-103876872D01*
X109967054Y-100736443D01*
X109987728Y-100730172D01*
X110193590Y-100620136D01*
X110374029Y-100472053D01*
X110522112Y-100291614D01*
X110632148Y-100085752D01*
X110699907Y-99862378D01*
X110722787Y-99630078D01*
X110699907Y-99397778D01*
X110632148Y-99174404D01*
X110522112Y-98968542D01*
X110374029Y-98788103D01*
X110193590Y-98640020D01*
X109987728Y-98529984D01*
X109764354Y-98462225D01*
X109590261Y-98445078D01*
X109473847Y-98445078D01*
X109299754Y-98462225D01*
X109251126Y-98476976D01*
X109948538Y-97779564D01*
X109955192Y-97847123D01*
X110022951Y-98070497D01*
X110132987Y-98276359D01*
X110281070Y-98456798D01*
X110461509Y-98604881D01*
X110667371Y-98714917D01*
X110890745Y-98782676D01*
X111064838Y-98799823D01*
X111181252Y-98799823D01*
X111355345Y-98782676D01*
X111578719Y-98714917D01*
X111784581Y-98604881D01*
X111965020Y-98456798D01*
X112113103Y-98276359D01*
X112223139Y-98070497D01*
X112229410Y-98049823D01*
X137050500Y-98049823D01*
X137040000Y-98102609D01*
X137040000Y-98247391D01*
X137068246Y-98389391D01*
X137123652Y-98523153D01*
X137204088Y-98643535D01*
X137306465Y-98745912D01*
X137426847Y-98826348D01*
X137560609Y-98881754D01*
X137702609Y-98910000D01*
X137847391Y-98910000D01*
X137989391Y-98881754D01*
X138123153Y-98826348D01*
X138243535Y-98745912D01*
X138345912Y-98643535D01*
X138426348Y-98523153D01*
X138481754Y-98389391D01*
X138510000Y-98247391D01*
X138510000Y-98110000D01*
X148456681Y-98110000D01*
X148479088Y-98143535D01*
X148581465Y-98245912D01*
X148615000Y-98268319D01*
X148615001Y-103978636D01*
X148612897Y-104000000D01*
X148621295Y-104085274D01*
X148641491Y-104151847D01*
X148646170Y-104167272D01*
X148686562Y-104242842D01*
X148740922Y-104309079D01*
X148757513Y-104322695D01*
X148822869Y-104388051D01*
X148815000Y-104427609D01*
X148815000Y-104572391D01*
X148843246Y-104714391D01*
X148898652Y-104848153D01*
X148979088Y-104968535D01*
X149081465Y-105070912D01*
X149201847Y-105151348D01*
X149335609Y-105206754D01*
X149477609Y-105235000D01*
X149622391Y-105235000D01*
X149764391Y-105206754D01*
X149898153Y-105151348D01*
X150018535Y-105070912D01*
X150120912Y-104968535D01*
X150143319Y-104935000D01*
X157519818Y-104935000D01*
X159077303Y-106492486D01*
X159090921Y-106509079D01*
X159157158Y-106563439D01*
X159232728Y-106603831D01*
X159314725Y-106628705D01*
X159378638Y-106635000D01*
X159378645Y-106635000D01*
X159399999Y-106637103D01*
X159421353Y-106635000D01*
X160615001Y-106635000D01*
X160615000Y-110163380D01*
X159750000Y-110163380D01*
X159684329Y-110169848D01*
X159621181Y-110189004D01*
X159562984Y-110220111D01*
X159511974Y-110261974D01*
X159470111Y-110312984D01*
X159439004Y-110371181D01*
X159419848Y-110434329D01*
X159413380Y-110500000D01*
X159413380Y-113500000D01*
X159419848Y-113565671D01*
X159439004Y-113628819D01*
X159470111Y-113687016D01*
X159511974Y-113738026D01*
X159562984Y-113779889D01*
X159621181Y-113810996D01*
X159684329Y-113830152D01*
X159750000Y-113836620D01*
X162350000Y-113836620D01*
X162415671Y-113830152D01*
X162478819Y-113810996D01*
X162537016Y-113779889D01*
X162588026Y-113738026D01*
X162629889Y-113687016D01*
X162660996Y-113628819D01*
X162680152Y-113565671D01*
X162686620Y-113500000D01*
X162686620Y-110500000D01*
X162680152Y-110434329D01*
X162660996Y-110371181D01*
X162629889Y-110312984D01*
X162588026Y-110261974D01*
X162537016Y-110220111D01*
X162478819Y-110189004D01*
X162415671Y-110169848D01*
X162350000Y-110163380D01*
X161485000Y-110163380D01*
X161485000Y-106635000D01*
X162778646Y-106635000D01*
X162800000Y-106637103D01*
X162821354Y-106635000D01*
X162821362Y-106635000D01*
X162885275Y-106628705D01*
X162967272Y-106603831D01*
X163042842Y-106563439D01*
X163109079Y-106509079D01*
X163122700Y-106492482D01*
X173288052Y-96327131D01*
X173327609Y-96335000D01*
X173472391Y-96335000D01*
X173614391Y-96306754D01*
X173748153Y-96251348D01*
X173868535Y-96170912D01*
X173970912Y-96068535D01*
X174051348Y-95948153D01*
X174106754Y-95814391D01*
X174135000Y-95672391D01*
X174135000Y-95527609D01*
X174106754Y-95385609D01*
X174051348Y-95251847D01*
X173970912Y-95131465D01*
X173868535Y-95029088D01*
X173748153Y-94948652D01*
X173614391Y-94893246D01*
X173472391Y-94865000D01*
X173327609Y-94865000D01*
X173185609Y-94893246D01*
X173051847Y-94948652D01*
X172931465Y-95029088D01*
X172829088Y-95131465D01*
X172748652Y-95251847D01*
X172693246Y-95385609D01*
X172665000Y-95527609D01*
X172665000Y-95672391D01*
X172672869Y-95711948D01*
X167947086Y-100437731D01*
X167956754Y-100414391D01*
X167985000Y-100272391D01*
X167985000Y-100127609D01*
X167956754Y-99985609D01*
X167901348Y-99851847D01*
X167820912Y-99731465D01*
X167718535Y-99629088D01*
X167598153Y-99548652D01*
X167464391Y-99493246D01*
X167322391Y-99465000D01*
X167177609Y-99465000D01*
X167158904Y-99468721D01*
X163196701Y-95506519D01*
X163183080Y-95489922D01*
X163116843Y-95435562D01*
X163041273Y-95395170D01*
X162959276Y-95370296D01*
X162895363Y-95364001D01*
X162895355Y-95364001D01*
X162874001Y-95361898D01*
X162852647Y-95364001D01*
X146780183Y-95364001D01*
X145648699Y-94232518D01*
X145635078Y-94215921D01*
X145568841Y-94161561D01*
X145493271Y-94121169D01*
X145411274Y-94096295D01*
X145347361Y-94090000D01*
X145347353Y-94090000D01*
X145325999Y-94087897D01*
X145304645Y-94090000D01*
X141296353Y-94090000D01*
X141274999Y-94087897D01*
X141253645Y-94090000D01*
X141253638Y-94090000D01*
X141198014Y-94095479D01*
X141189724Y-94096295D01*
X141164850Y-94103841D01*
X141107728Y-94121169D01*
X141032158Y-94161561D01*
X140965921Y-94215921D01*
X140952305Y-94232512D01*
X139937090Y-95247728D01*
X139914922Y-95265921D01*
X139901301Y-95282518D01*
X139819818Y-95364001D01*
X134958717Y-95364001D01*
X135084095Y-95280226D01*
X135430226Y-94934095D01*
X135702179Y-94527089D01*
X135889503Y-94074848D01*
X135985000Y-93594751D01*
X135985000Y-93105249D01*
X186015000Y-93105249D01*
X186015000Y-93594751D01*
X186110497Y-94074848D01*
X186297821Y-94527089D01*
X186569774Y-94934095D01*
X186915905Y-95280226D01*
X187322911Y-95552179D01*
X187775152Y-95739503D01*
X188255249Y-95835000D01*
X188744751Y-95835000D01*
X189224848Y-95739503D01*
X189677089Y-95552179D01*
X190084095Y-95280226D01*
X190430226Y-94934095D01*
X190702179Y-94527089D01*
X190889503Y-94074848D01*
X190985000Y-93594751D01*
X190985000Y-93105249D01*
X190889503Y-92625152D01*
X190702179Y-92172911D01*
X190430226Y-91765905D01*
X190084095Y-91419774D01*
X189992640Y-91358665D01*
X194315000Y-91358665D01*
X194315000Y-91641335D01*
X194370147Y-91918574D01*
X194478320Y-92179727D01*
X194635363Y-92414759D01*
X194835241Y-92614637D01*
X195070273Y-92771680D01*
X195331426Y-92879853D01*
X195608665Y-92935000D01*
X195891335Y-92935000D01*
X196168574Y-92879853D01*
X196429727Y-92771680D01*
X196664759Y-92614637D01*
X196864637Y-92414759D01*
X197021680Y-92179727D01*
X197129853Y-91918574D01*
X197185000Y-91641335D01*
X197185000Y-91358665D01*
X197129853Y-91081426D01*
X197021680Y-90820273D01*
X196864637Y-90585241D01*
X196664759Y-90385363D01*
X196429727Y-90228320D01*
X196168574Y-90120147D01*
X195891335Y-90065000D01*
X195608665Y-90065000D01*
X195331426Y-90120147D01*
X195070273Y-90228320D01*
X194835241Y-90385363D01*
X194635363Y-90585241D01*
X194478320Y-90820273D01*
X194370147Y-91081426D01*
X194315000Y-91358665D01*
X189992640Y-91358665D01*
X189677089Y-91147821D01*
X189224848Y-90960497D01*
X188744751Y-90865000D01*
X188255249Y-90865000D01*
X187775152Y-90960497D01*
X187322911Y-91147821D01*
X186915905Y-91419774D01*
X186569774Y-91765905D01*
X186297821Y-92172911D01*
X186110497Y-92625152D01*
X186015000Y-93105249D01*
X135985000Y-93105249D01*
X135889503Y-92625152D01*
X135702179Y-92172911D01*
X135430226Y-91765905D01*
X135084095Y-91419774D01*
X134677089Y-91147821D01*
X134224848Y-90960497D01*
X133849069Y-90885750D01*
X158615000Y-90885750D01*
X158615000Y-92162542D01*
X158639403Y-92285223D01*
X158687270Y-92400785D01*
X158756763Y-92504789D01*
X158845211Y-92593237D01*
X158949215Y-92662730D01*
X159064777Y-92710597D01*
X159187458Y-92735000D01*
X160764250Y-92735000D01*
X160923000Y-92576250D01*
X160923000Y-90727000D01*
X161177000Y-90727000D01*
X161177000Y-92576250D01*
X161335750Y-92735000D01*
X162912542Y-92735000D01*
X163035223Y-92710597D01*
X163150785Y-92662730D01*
X163254789Y-92593237D01*
X163343237Y-92504789D01*
X163412730Y-92400785D01*
X163460597Y-92285223D01*
X163485000Y-92162542D01*
X163485000Y-90885750D01*
X163326250Y-90727000D01*
X161177000Y-90727000D01*
X160923000Y-90727000D01*
X158773750Y-90727000D01*
X158615000Y-90885750D01*
X133849069Y-90885750D01*
X133744751Y-90865000D01*
X133255249Y-90865000D01*
X132775152Y-90960497D01*
X132322911Y-91147821D01*
X131915905Y-91419774D01*
X131569774Y-91765905D01*
X131297821Y-92172911D01*
X131110497Y-92625152D01*
X131015000Y-93105249D01*
X131015000Y-93594751D01*
X131110497Y-94074848D01*
X131297821Y-94527089D01*
X131569774Y-94934095D01*
X131915905Y-95280226D01*
X132041283Y-95364001D01*
X118942104Y-95364001D01*
X115360619Y-91782517D01*
X115346999Y-91765921D01*
X115280761Y-91711561D01*
X115205192Y-91671169D01*
X115123195Y-91646295D01*
X115037920Y-91637896D01*
X114952645Y-91646295D01*
X114870647Y-91671169D01*
X114795078Y-91711561D01*
X114751262Y-91747521D01*
X114728841Y-91765921D01*
X114715223Y-91782515D01*
X103653424Y-102844314D01*
X103636833Y-102857930D01*
X103582473Y-102924167D01*
X103545425Y-102993481D01*
X103542081Y-102999737D01*
X103517206Y-103081735D01*
X103508808Y-103167009D01*
X103510912Y-103188373D01*
X103510912Y-103685591D01*
X103490237Y-103691863D01*
X103284375Y-103801899D01*
X103103936Y-103949982D01*
X102955853Y-104130421D01*
X102845817Y-104336283D01*
X102778058Y-104559657D01*
X102755178Y-104791957D01*
X102778058Y-105024257D01*
X102845817Y-105247631D01*
X102955853Y-105453493D01*
X102959915Y-105458443D01*
X102859021Y-105410386D01*
X102576827Y-105338880D01*
X102286106Y-105323802D01*
X101998029Y-105365731D01*
X101723668Y-105463055D01*
X101588003Y-105535574D01*
X101511233Y-105783918D01*
X99435000Y-105783918D01*
X99435000Y-105180182D01*
X113256517Y-91358665D01*
X117315000Y-91358665D01*
X117315000Y-91641335D01*
X117370147Y-91918574D01*
X117478320Y-92179727D01*
X117635363Y-92414759D01*
X117835241Y-92614637D01*
X118070273Y-92771680D01*
X118331426Y-92879853D01*
X118608665Y-92935000D01*
X118891335Y-92935000D01*
X119168574Y-92879853D01*
X119429727Y-92771680D01*
X119664759Y-92614637D01*
X119864637Y-92414759D01*
X120021680Y-92179727D01*
X120129853Y-91918574D01*
X120185000Y-91641335D01*
X120185000Y-91358665D01*
X120129853Y-91081426D01*
X120021680Y-90820273D01*
X119864637Y-90585241D01*
X119664759Y-90385363D01*
X119429727Y-90228320D01*
X119168574Y-90120147D01*
X118891335Y-90065000D01*
X118608665Y-90065000D01*
X118331426Y-90120147D01*
X118070273Y-90228320D01*
X117835241Y-90385363D01*
X117635363Y-90585241D01*
X117478320Y-90820273D01*
X117370147Y-91081426D01*
X117315000Y-91358665D01*
X113256517Y-91358665D01*
X115731894Y-88883288D01*
X118815000Y-88883288D01*
X118815000Y-89116712D01*
X118860539Y-89345652D01*
X118949866Y-89561308D01*
X119079550Y-89755394D01*
X119244606Y-89920450D01*
X119438692Y-90050134D01*
X119654348Y-90139461D01*
X119883288Y-90185000D01*
X120116712Y-90185000D01*
X120345652Y-90139461D01*
X120561308Y-90050134D01*
X120593839Y-90028397D01*
X123651208Y-90028397D01*
X123728843Y-90277472D01*
X123992883Y-90403371D01*
X124276411Y-90475339D01*
X124568531Y-90490611D01*
X124757403Y-90463201D01*
X124635363Y-90585241D01*
X124478320Y-90820273D01*
X124370147Y-91081426D01*
X124315000Y-91358665D01*
X124315000Y-91641335D01*
X124370147Y-91918574D01*
X124478320Y-92179727D01*
X124635363Y-92414759D01*
X124835241Y-92614637D01*
X125070273Y-92771680D01*
X125331426Y-92879853D01*
X125608665Y-92935000D01*
X125891335Y-92935000D01*
X126168574Y-92879853D01*
X126429727Y-92771680D01*
X126664759Y-92614637D01*
X126864637Y-92414759D01*
X127021680Y-92179727D01*
X127129853Y-91918574D01*
X127185000Y-91641335D01*
X127185000Y-91358665D01*
X127129853Y-91081426D01*
X127021680Y-90820273D01*
X126864637Y-90585241D01*
X126664759Y-90385363D01*
X126429727Y-90228320D01*
X126168574Y-90120147D01*
X125891335Y-90065000D01*
X125608665Y-90065000D01*
X125331426Y-90120147D01*
X125318529Y-90125489D01*
X125348792Y-90028397D01*
X124500000Y-89179605D01*
X123651208Y-90028397D01*
X120593839Y-90028397D01*
X120755394Y-89920450D01*
X120920450Y-89755394D01*
X121050134Y-89561308D01*
X121139461Y-89345652D01*
X121185000Y-89116712D01*
X121185000Y-89068531D01*
X123009389Y-89068531D01*
X123051401Y-89358019D01*
X123149081Y-89633747D01*
X123222528Y-89771157D01*
X123471603Y-89848792D01*
X124320395Y-89000000D01*
X124679605Y-89000000D01*
X125528397Y-89848792D01*
X125777472Y-89771157D01*
X125903371Y-89507117D01*
X125975339Y-89223589D01*
X125990611Y-88931469D01*
X125948599Y-88641981D01*
X125850919Y-88366253D01*
X125777472Y-88228843D01*
X125528397Y-88151208D01*
X124679605Y-89000000D01*
X124320395Y-89000000D01*
X123471603Y-88151208D01*
X123222528Y-88228843D01*
X123096629Y-88492883D01*
X123024661Y-88776411D01*
X123009389Y-89068531D01*
X121185000Y-89068531D01*
X121185000Y-88883288D01*
X121139461Y-88654348D01*
X121050134Y-88438692D01*
X120920450Y-88244606D01*
X120755394Y-88079550D01*
X120593840Y-87971603D01*
X123651208Y-87971603D01*
X124500000Y-88820395D01*
X125348792Y-87971603D01*
X125271157Y-87722528D01*
X125007117Y-87596629D01*
X124723589Y-87524661D01*
X124431469Y-87509389D01*
X124141981Y-87551401D01*
X123866253Y-87649081D01*
X123728843Y-87722528D01*
X123651208Y-87971603D01*
X120593840Y-87971603D01*
X120561308Y-87949866D01*
X120345652Y-87860539D01*
X120116712Y-87815000D01*
X119883288Y-87815000D01*
X119654348Y-87860539D01*
X119438692Y-87949866D01*
X119244606Y-88079550D01*
X119079550Y-88244606D01*
X118949866Y-88438692D01*
X118860539Y-88654348D01*
X118815000Y-88883288D01*
X115731894Y-88883288D01*
X118180183Y-86435000D01*
X123021362Y-86435000D01*
X123043678Y-86432802D01*
X123059900Y-86432802D01*
X123065941Y-86432167D01*
X123308378Y-86404974D01*
X123346902Y-86396785D01*
X123385620Y-86389119D01*
X123391422Y-86387322D01*
X123623960Y-86313556D01*
X123660179Y-86298032D01*
X123696646Y-86283002D01*
X123701989Y-86280113D01*
X123915771Y-86162586D01*
X123948284Y-86140323D01*
X123968337Y-86127000D01*
X128397420Y-86127000D01*
X128407001Y-86134814D01*
G36*
X118439224Y-96091487D02*
X118452842Y-96108080D01*
X118519079Y-96162440D01*
X118568326Y-96188762D01*
X118594648Y-96202832D01*
X118676646Y-96227706D01*
X118740559Y-96234001D01*
X118740567Y-96234001D01*
X118761921Y-96236104D01*
X118783275Y-96234001D01*
X139978646Y-96234001D01*
X140000000Y-96236104D01*
X140021354Y-96234001D01*
X140021362Y-96234001D01*
X140085275Y-96227706D01*
X140167272Y-96202832D01*
X140242842Y-96162440D01*
X140309079Y-96108080D01*
X140322700Y-96091483D01*
X140511911Y-95902272D01*
X140534079Y-95884079D01*
X140547700Y-95867482D01*
X141455183Y-94960000D01*
X145145817Y-94960000D01*
X146277303Y-96091487D01*
X146290921Y-96108080D01*
X146357158Y-96162440D01*
X146432728Y-96202832D01*
X146489850Y-96220160D01*
X146514724Y-96227706D01*
X146523014Y-96228522D01*
X146578638Y-96234001D01*
X146578645Y-96234001D01*
X146599999Y-96236104D01*
X146621353Y-96234001D01*
X162693819Y-96234001D01*
X166527016Y-100067199D01*
X166515000Y-100127609D01*
X166515000Y-100272391D01*
X166543246Y-100414391D01*
X166598652Y-100548153D01*
X166679088Y-100668535D01*
X166781465Y-100770912D01*
X166901847Y-100851348D01*
X167035609Y-100906754D01*
X167177609Y-100935000D01*
X167322391Y-100935000D01*
X167464391Y-100906754D01*
X167487731Y-100897086D01*
X162619818Y-105765000D01*
X161021354Y-105765000D01*
X161000000Y-105762897D01*
X160978646Y-105765000D01*
X159580183Y-105765000D01*
X158022700Y-104207518D01*
X158009079Y-104190921D01*
X157942842Y-104136561D01*
X157867272Y-104096169D01*
X157785275Y-104071295D01*
X157721362Y-104065000D01*
X157721354Y-104065000D01*
X157700000Y-104062897D01*
X157678646Y-104065000D01*
X150143319Y-104065000D01*
X150120912Y-104031465D01*
X150018535Y-103929088D01*
X149898153Y-103848652D01*
X149764391Y-103793246D01*
X149622391Y-103765000D01*
X149485000Y-103765000D01*
X149485000Y-98268319D01*
X149518535Y-98245912D01*
X149620912Y-98143535D01*
X149701348Y-98023153D01*
X149756754Y-97889391D01*
X149785000Y-97747391D01*
X149785000Y-97602609D01*
X149756754Y-97460609D01*
X149701348Y-97326847D01*
X149620912Y-97206465D01*
X149518535Y-97104088D01*
X149398153Y-97023652D01*
X149264391Y-96968246D01*
X149122391Y-96940000D01*
X148977609Y-96940000D01*
X148835609Y-96968246D01*
X148701847Y-97023652D01*
X148581465Y-97104088D01*
X148479088Y-97206465D01*
X148456681Y-97240000D01*
X137996544Y-97240000D01*
X137942272Y-97210992D01*
X137860275Y-97186118D01*
X137796362Y-97179823D01*
X137775000Y-97177719D01*
X137753638Y-97179823D01*
X113409707Y-97179823D01*
X113593973Y-97123927D01*
X113799835Y-97013891D01*
X113980274Y-96865808D01*
X114128357Y-96685369D01*
X114238393Y-96479507D01*
X114306152Y-96256133D01*
X114329032Y-96023833D01*
X114306152Y-95791533D01*
X114238393Y-95568159D01*
X114128357Y-95362297D01*
X113980274Y-95181858D01*
X113799835Y-95033775D01*
X113593973Y-94923739D01*
X113370599Y-94855980D01*
X113196506Y-94838833D01*
X113080092Y-94838833D01*
X112905999Y-94855980D01*
X112857371Y-94870731D01*
X113349984Y-94378118D01*
X114455908Y-95484042D01*
X114506918Y-95525905D01*
X114565115Y-95557012D01*
X114628263Y-95576168D01*
X114693934Y-95582636D01*
X114759605Y-95576168D01*
X114822753Y-95557012D01*
X114880950Y-95525905D01*
X114931960Y-95484042D01*
X116134042Y-94281960D01*
X116175905Y-94230950D01*
X116207012Y-94172753D01*
X116226168Y-94109605D01*
X116232636Y-94043934D01*
X116226168Y-93978263D01*
X116207012Y-93915115D01*
X116175905Y-93856918D01*
X116134042Y-93805908D01*
X115028118Y-92699984D01*
X115037920Y-92690182D01*
X118439224Y-96091487D01*
X118439224Y-96091487D01*
G37*
X118439224Y-96091487D02*
X118452842Y-96108080D01*
X118519079Y-96162440D01*
X118568326Y-96188762D01*
X118594648Y-96202832D01*
X118676646Y-96227706D01*
X118740559Y-96234001D01*
X118740567Y-96234001D01*
X118761921Y-96236104D01*
X118783275Y-96234001D01*
X139978646Y-96234001D01*
X140000000Y-96236104D01*
X140021354Y-96234001D01*
X140021362Y-96234001D01*
X140085275Y-96227706D01*
X140167272Y-96202832D01*
X140242842Y-96162440D01*
X140309079Y-96108080D01*
X140322700Y-96091483D01*
X140511911Y-95902272D01*
X140534079Y-95884079D01*
X140547700Y-95867482D01*
X141455183Y-94960000D01*
X145145817Y-94960000D01*
X146277303Y-96091487D01*
X146290921Y-96108080D01*
X146357158Y-96162440D01*
X146432728Y-96202832D01*
X146489850Y-96220160D01*
X146514724Y-96227706D01*
X146523014Y-96228522D01*
X146578638Y-96234001D01*
X146578645Y-96234001D01*
X146599999Y-96236104D01*
X146621353Y-96234001D01*
X162693819Y-96234001D01*
X166527016Y-100067199D01*
X166515000Y-100127609D01*
X166515000Y-100272391D01*
X166543246Y-100414391D01*
X166598652Y-100548153D01*
X166679088Y-100668535D01*
X166781465Y-100770912D01*
X166901847Y-100851348D01*
X167035609Y-100906754D01*
X167177609Y-100935000D01*
X167322391Y-100935000D01*
X167464391Y-100906754D01*
X167487731Y-100897086D01*
X162619818Y-105765000D01*
X161021354Y-105765000D01*
X161000000Y-105762897D01*
X160978646Y-105765000D01*
X159580183Y-105765000D01*
X158022700Y-104207518D01*
X158009079Y-104190921D01*
X157942842Y-104136561D01*
X157867272Y-104096169D01*
X157785275Y-104071295D01*
X157721362Y-104065000D01*
X157721354Y-104065000D01*
X157700000Y-104062897D01*
X157678646Y-104065000D01*
X150143319Y-104065000D01*
X150120912Y-104031465D01*
X150018535Y-103929088D01*
X149898153Y-103848652D01*
X149764391Y-103793246D01*
X149622391Y-103765000D01*
X149485000Y-103765000D01*
X149485000Y-98268319D01*
X149518535Y-98245912D01*
X149620912Y-98143535D01*
X149701348Y-98023153D01*
X149756754Y-97889391D01*
X149785000Y-97747391D01*
X149785000Y-97602609D01*
X149756754Y-97460609D01*
X149701348Y-97326847D01*
X149620912Y-97206465D01*
X149518535Y-97104088D01*
X149398153Y-97023652D01*
X149264391Y-96968246D01*
X149122391Y-96940000D01*
X148977609Y-96940000D01*
X148835609Y-96968246D01*
X148701847Y-97023652D01*
X148581465Y-97104088D01*
X148479088Y-97206465D01*
X148456681Y-97240000D01*
X137996544Y-97240000D01*
X137942272Y-97210992D01*
X137860275Y-97186118D01*
X137796362Y-97179823D01*
X137775000Y-97177719D01*
X137753638Y-97179823D01*
X113409707Y-97179823D01*
X113593973Y-97123927D01*
X113799835Y-97013891D01*
X113980274Y-96865808D01*
X114128357Y-96685369D01*
X114238393Y-96479507D01*
X114306152Y-96256133D01*
X114329032Y-96023833D01*
X114306152Y-95791533D01*
X114238393Y-95568159D01*
X114128357Y-95362297D01*
X113980274Y-95181858D01*
X113799835Y-95033775D01*
X113593973Y-94923739D01*
X113370599Y-94855980D01*
X113196506Y-94838833D01*
X113080092Y-94838833D01*
X112905999Y-94855980D01*
X112857371Y-94870731D01*
X113349984Y-94378118D01*
X114455908Y-95484042D01*
X114506918Y-95525905D01*
X114565115Y-95557012D01*
X114628263Y-95576168D01*
X114693934Y-95582636D01*
X114759605Y-95576168D01*
X114822753Y-95557012D01*
X114880950Y-95525905D01*
X114931960Y-95484042D01*
X116134042Y-94281960D01*
X116175905Y-94230950D01*
X116207012Y-94172753D01*
X116226168Y-94109605D01*
X116232636Y-94043934D01*
X116226168Y-93978263D01*
X116207012Y-93915115D01*
X116175905Y-93856918D01*
X116134042Y-93805908D01*
X115028118Y-92699984D01*
X115037920Y-92690182D01*
X118439224Y-96091487D01*
M02*
