%TF.GenerationSoftware,KiCad,Pcbnew,5.0.1*%
%TF.CreationDate,2019-03-25T09:06:50+01:00*%
%TF.ProjectId,rev1,726576312E6B696361645F7063620000,rev?*%
%TF.SameCoordinates,Original*%
%TF.FileFunction,Other,Comment*%
%FSLAX46Y46*%
G04 Gerber Fmt 4.6, Leading zero omitted, Abs format (unit mm)*
G04 Created by KiCad (PCBNEW 5.0.1) date Mon 25 Mar 2019 09:06:50 AM CET*
%MOMM*%
%LPD*%
G01*
G04 APERTURE LIST*
%ADD10C,0.300000*%
%ADD11C,0.400000*%
%ADD12C,0.150000*%
G04 APERTURE END LIST*
D10*
X50096428Y-101000000D02*
X50096428Y-100714285D01*
X50025000Y-100571428D01*
X49953571Y-100500000D01*
X49739285Y-100357142D01*
X49453571Y-100285714D01*
X48882142Y-100285714D01*
X48739285Y-100357142D01*
X48667857Y-100428571D01*
X48596428Y-100571428D01*
X48596428Y-100857142D01*
X48667857Y-101000000D01*
X48739285Y-101071428D01*
X48882142Y-101142857D01*
X49239285Y-101142857D01*
X49382142Y-101071428D01*
X49453571Y-101000000D01*
X49525000Y-100857142D01*
X49525000Y-100571428D01*
X49453571Y-100428571D01*
X49382142Y-100357142D01*
X49239285Y-100285714D01*
X50096428Y-102500000D02*
X50096428Y-101785714D01*
X49382142Y-101714285D01*
X49453571Y-101785714D01*
X49525000Y-101928571D01*
X49525000Y-102285714D01*
X49453571Y-102428571D01*
X49382142Y-102500000D01*
X49239285Y-102571428D01*
X48882142Y-102571428D01*
X48739285Y-102500000D01*
X48667857Y-102428571D01*
X48596428Y-102285714D01*
X48596428Y-101928571D01*
X48667857Y-101785714D01*
X48739285Y-101714285D01*
X48739285Y-103214285D02*
X48667857Y-103285714D01*
X48596428Y-103214285D01*
X48667857Y-103142857D01*
X48739285Y-103214285D01*
X48596428Y-103214285D01*
X50096428Y-104214285D02*
X50096428Y-104357142D01*
X50025000Y-104500000D01*
X49953571Y-104571428D01*
X49810714Y-104642857D01*
X49525000Y-104714285D01*
X49167857Y-104714285D01*
X48882142Y-104642857D01*
X48739285Y-104571428D01*
X48667857Y-104500000D01*
X48596428Y-104357142D01*
X48596428Y-104214285D01*
X48667857Y-104071428D01*
X48739285Y-104000000D01*
X48882142Y-103928571D01*
X49167857Y-103857142D01*
X49525000Y-103857142D01*
X49810714Y-103928571D01*
X49953571Y-104000000D01*
X50025000Y-104071428D01*
X50096428Y-104214285D01*
X50096428Y-105642857D02*
X50096428Y-105785714D01*
X50025000Y-105928571D01*
X49953571Y-106000000D01*
X49810714Y-106071428D01*
X49525000Y-106142857D01*
X49167857Y-106142857D01*
X48882142Y-106071428D01*
X48739285Y-106000000D01*
X48667857Y-105928571D01*
X48596428Y-105785714D01*
X48596428Y-105642857D01*
X48667857Y-105500000D01*
X48739285Y-105428571D01*
X48882142Y-105357142D01*
X49167857Y-105285714D01*
X49525000Y-105285714D01*
X49810714Y-105357142D01*
X49953571Y-105428571D01*
X50025000Y-105500000D01*
X50096428Y-105642857D01*
X50096428Y-107071428D02*
X50096428Y-107214285D01*
X50025000Y-107357142D01*
X49953571Y-107428571D01*
X49810714Y-107500000D01*
X49525000Y-107571428D01*
X49167857Y-107571428D01*
X48882142Y-107500000D01*
X48739285Y-107428571D01*
X48667857Y-107357142D01*
X48596428Y-107214285D01*
X48596428Y-107071428D01*
X48667857Y-106928571D01*
X48739285Y-106857142D01*
X48882142Y-106785714D01*
X49167857Y-106714285D01*
X49525000Y-106714285D01*
X49810714Y-106785714D01*
X49953571Y-106857142D01*
X50025000Y-106928571D01*
X50096428Y-107071428D01*
X48596428Y-109357142D02*
X49596428Y-109357142D01*
X49453571Y-109357142D02*
X49525000Y-109428571D01*
X49596428Y-109571428D01*
X49596428Y-109785714D01*
X49525000Y-109928571D01*
X49382142Y-110000000D01*
X48596428Y-110000000D01*
X49382142Y-110000000D02*
X49525000Y-110071428D01*
X49596428Y-110214285D01*
X49596428Y-110428571D01*
X49525000Y-110571428D01*
X49382142Y-110642857D01*
X48596428Y-110642857D01*
X48596428Y-111357142D02*
X49596428Y-111357142D01*
X49453571Y-111357142D02*
X49525000Y-111428571D01*
X49596428Y-111571428D01*
X49596428Y-111785714D01*
X49525000Y-111928571D01*
X49382142Y-112000000D01*
X48596428Y-112000000D01*
X49382142Y-112000000D02*
X49525000Y-112071428D01*
X49596428Y-112214285D01*
X49596428Y-112428571D01*
X49525000Y-112571428D01*
X49382142Y-112642857D01*
X48596428Y-112642857D01*
X51375000Y-74000000D02*
X51375000Y-139000000D01*
X89000000Y-74000000D02*
X50788579Y-74000000D01*
X89000000Y-139000000D02*
X50788579Y-139000000D01*
X51375000Y-139000000D02*
X51961421Y-137873496D01*
X51375000Y-139000000D02*
X50788579Y-137873496D01*
X51375000Y-74000000D02*
X51961421Y-75126504D01*
X51375000Y-74000000D02*
X50788579Y-75126504D01*
X74033333Y-106458333D02*
X73566666Y-105791666D01*
X73233333Y-106458333D02*
X73233333Y-105058333D01*
X73766666Y-105058333D01*
X73900000Y-105125000D01*
X73966666Y-105191666D01*
X74033333Y-105325000D01*
X74033333Y-105525000D01*
X73966666Y-105658333D01*
X73900000Y-105725000D01*
X73766666Y-105791666D01*
X73233333Y-105791666D01*
X75366666Y-106458333D02*
X74566666Y-106458333D01*
X74966666Y-106458333D02*
X74966666Y-105058333D01*
X74833333Y-105258333D01*
X74700000Y-105391666D01*
X74566666Y-105458333D01*
X75966666Y-106325000D02*
X76033333Y-106391666D01*
X75966666Y-106458333D01*
X75900000Y-106391666D01*
X75966666Y-106325000D01*
X75966666Y-106458333D01*
X76566666Y-105191666D02*
X76633333Y-105125000D01*
X76766666Y-105058333D01*
X77100000Y-105058333D01*
X77233333Y-105125000D01*
X77300000Y-105191666D01*
X77366666Y-105325000D01*
X77366666Y-105458333D01*
X77300000Y-105658333D01*
X76500000Y-106458333D01*
X77366666Y-106458333D01*
X78633333Y-105058333D02*
X77966666Y-105058333D01*
X77900000Y-105725000D01*
X77966666Y-105658333D01*
X78100000Y-105591666D01*
X78433333Y-105591666D01*
X78566666Y-105658333D01*
X78633333Y-105725000D01*
X78700000Y-105858333D01*
X78700000Y-106191666D01*
X78633333Y-106325000D01*
X78566666Y-106391666D01*
X78433333Y-106458333D01*
X78100000Y-106458333D01*
X77966666Y-106391666D01*
X77900000Y-106325000D01*
X79566666Y-105058333D02*
X79700000Y-105058333D01*
X79833333Y-105125000D01*
X79900000Y-105191666D01*
X79966666Y-105325000D01*
X80033333Y-105591666D01*
X80033333Y-105925000D01*
X79966666Y-106191666D01*
X79900000Y-106325000D01*
X79833333Y-106391666D01*
X79700000Y-106458333D01*
X79566666Y-106458333D01*
X79433333Y-106391666D01*
X79366666Y-106325000D01*
X79300000Y-106191666D01*
X79233333Y-105925000D01*
X79233333Y-105591666D01*
X79300000Y-105325000D01*
X79366666Y-105191666D01*
X79433333Y-105125000D01*
X79566666Y-105058333D01*
X81700000Y-106458333D02*
X81700000Y-105525000D01*
X81700000Y-105658333D02*
X81766666Y-105591666D01*
X81900000Y-105525000D01*
X82100000Y-105525000D01*
X82233333Y-105591666D01*
X82300000Y-105725000D01*
X82300000Y-106458333D01*
X82300000Y-105725000D02*
X82366666Y-105591666D01*
X82500000Y-105525000D01*
X82700000Y-105525000D01*
X82833333Y-105591666D01*
X82900000Y-105725000D01*
X82900000Y-106458333D01*
X83566666Y-106458333D02*
X83566666Y-105525000D01*
X83566666Y-105658333D02*
X83633333Y-105591666D01*
X83766666Y-105525000D01*
X83966666Y-105525000D01*
X84100000Y-105591666D01*
X84166666Y-105725000D01*
X84166666Y-106458333D01*
X84166666Y-105725000D02*
X84233333Y-105591666D01*
X84366666Y-105525000D01*
X84566666Y-105525000D01*
X84700000Y-105591666D01*
X84766666Y-105725000D01*
X84766666Y-106458333D01*
D11*
X97725000Y-112500000D02*
X78600000Y-107325000D01*
D10*
X75308333Y-112958333D02*
X74841666Y-112291666D01*
X74508333Y-112958333D02*
X74508333Y-111558333D01*
X75041666Y-111558333D01*
X75175000Y-111625000D01*
X75241666Y-111691666D01*
X75308333Y-111825000D01*
X75308333Y-112025000D01*
X75241666Y-112158333D01*
X75175000Y-112225000D01*
X75041666Y-112291666D01*
X74508333Y-112291666D01*
X75841666Y-111691666D02*
X75908333Y-111625000D01*
X76041666Y-111558333D01*
X76375000Y-111558333D01*
X76508333Y-111625000D01*
X76575000Y-111691666D01*
X76641666Y-111825000D01*
X76641666Y-111958333D01*
X76575000Y-112158333D01*
X75775000Y-112958333D01*
X76641666Y-112958333D01*
X77241666Y-112825000D02*
X77308333Y-112891666D01*
X77241666Y-112958333D01*
X77175000Y-112891666D01*
X77241666Y-112825000D01*
X77241666Y-112958333D01*
X78641666Y-112958333D02*
X77841666Y-112958333D01*
X78241666Y-112958333D02*
X78241666Y-111558333D01*
X78108333Y-111758333D01*
X77975000Y-111891666D01*
X77841666Y-111958333D01*
X79908333Y-111558333D02*
X79241666Y-111558333D01*
X79175000Y-112225000D01*
X79241666Y-112158333D01*
X79375000Y-112091666D01*
X79708333Y-112091666D01*
X79841666Y-112158333D01*
X79908333Y-112225000D01*
X79975000Y-112358333D01*
X79975000Y-112691666D01*
X79908333Y-112825000D01*
X79841666Y-112891666D01*
X79708333Y-112958333D01*
X79375000Y-112958333D01*
X79241666Y-112891666D01*
X79175000Y-112825000D01*
X80841666Y-111558333D02*
X80975000Y-111558333D01*
X81108333Y-111625000D01*
X81175000Y-111691666D01*
X81241666Y-111825000D01*
X81308333Y-112091666D01*
X81308333Y-112425000D01*
X81241666Y-112691666D01*
X81175000Y-112825000D01*
X81108333Y-112891666D01*
X80975000Y-112958333D01*
X80841666Y-112958333D01*
X80708333Y-112891666D01*
X80641666Y-112825000D01*
X80575000Y-112691666D01*
X80508333Y-112425000D01*
X80508333Y-112091666D01*
X80575000Y-111825000D01*
X80641666Y-111691666D01*
X80708333Y-111625000D01*
X80841666Y-111558333D01*
X82975000Y-112958333D02*
X82975000Y-112025000D01*
X82975000Y-112158333D02*
X83041666Y-112091666D01*
X83175000Y-112025000D01*
X83375000Y-112025000D01*
X83508333Y-112091666D01*
X83575000Y-112225000D01*
X83575000Y-112958333D01*
X83575000Y-112225000D02*
X83641666Y-112091666D01*
X83775000Y-112025000D01*
X83975000Y-112025000D01*
X84108333Y-112091666D01*
X84175000Y-112225000D01*
X84175000Y-112958333D01*
X84841666Y-112958333D02*
X84841666Y-112025000D01*
X84841666Y-112158333D02*
X84908333Y-112091666D01*
X85041666Y-112025000D01*
X85241666Y-112025000D01*
X85375000Y-112091666D01*
X85441666Y-112225000D01*
X85441666Y-112958333D01*
X85441666Y-112225000D02*
X85508333Y-112091666D01*
X85641666Y-112025000D01*
X85841666Y-112025000D01*
X85975000Y-112091666D01*
X86041666Y-112225000D01*
X86041666Y-112958333D01*
D11*
X99000000Y-119000000D02*
X79875000Y-113825000D01*
D10*
X118739285Y-48378571D02*
X119739285Y-48378571D01*
X119096428Y-49878571D01*
X121096428Y-49878571D02*
X120239285Y-49878571D01*
X120667857Y-49878571D02*
X120667857Y-48378571D01*
X120525000Y-48592857D01*
X120382142Y-48735714D01*
X120239285Y-48807142D01*
X121739285Y-49735714D02*
X121810714Y-49807142D01*
X121739285Y-49878571D01*
X121667857Y-49807142D01*
X121739285Y-49735714D01*
X121739285Y-49878571D01*
X122525000Y-49878571D02*
X122810714Y-49878571D01*
X122953571Y-49807142D01*
X123025000Y-49735714D01*
X123167857Y-49521428D01*
X123239285Y-49235714D01*
X123239285Y-48664285D01*
X123167857Y-48521428D01*
X123096428Y-48450000D01*
X122953571Y-48378571D01*
X122667857Y-48378571D01*
X122525000Y-48450000D01*
X122453571Y-48521428D01*
X122382142Y-48664285D01*
X122382142Y-49021428D01*
X122453571Y-49164285D01*
X122525000Y-49235714D01*
X122667857Y-49307142D01*
X122953571Y-49307142D01*
X123096428Y-49235714D01*
X123167857Y-49164285D01*
X123239285Y-49021428D01*
X124596428Y-48378571D02*
X123882142Y-48378571D01*
X123810714Y-49092857D01*
X123882142Y-49021428D01*
X124025000Y-48950000D01*
X124382142Y-48950000D01*
X124525000Y-49021428D01*
X124596428Y-49092857D01*
X124667857Y-49235714D01*
X124667857Y-49592857D01*
X124596428Y-49735714D01*
X124525000Y-49807142D01*
X124382142Y-49878571D01*
X124025000Y-49878571D01*
X123882142Y-49807142D01*
X123810714Y-49735714D01*
X125596428Y-48378571D02*
X125739285Y-48378571D01*
X125882142Y-48450000D01*
X125953571Y-48521428D01*
X126025000Y-48664285D01*
X126096428Y-48950000D01*
X126096428Y-49307142D01*
X126025000Y-49592857D01*
X125953571Y-49735714D01*
X125882142Y-49807142D01*
X125739285Y-49878571D01*
X125596428Y-49878571D01*
X125453571Y-49807142D01*
X125382142Y-49735714D01*
X125310714Y-49592857D01*
X125239285Y-49307142D01*
X125239285Y-48950000D01*
X125310714Y-48664285D01*
X125382142Y-48521428D01*
X125453571Y-48450000D01*
X125596428Y-48378571D01*
X127882142Y-49878571D02*
X127882142Y-48878571D01*
X127882142Y-49021428D02*
X127953571Y-48950000D01*
X128096428Y-48878571D01*
X128310714Y-48878571D01*
X128453571Y-48950000D01*
X128525000Y-49092857D01*
X128525000Y-49878571D01*
X128525000Y-49092857D02*
X128596428Y-48950000D01*
X128739285Y-48878571D01*
X128953571Y-48878571D01*
X129096428Y-48950000D01*
X129167857Y-49092857D01*
X129167857Y-49878571D01*
X129882142Y-49878571D02*
X129882142Y-48878571D01*
X129882142Y-49021428D02*
X129953571Y-48950000D01*
X130096428Y-48878571D01*
X130310714Y-48878571D01*
X130453571Y-48950000D01*
X130525000Y-49092857D01*
X130525000Y-49878571D01*
X130525000Y-49092857D02*
X130596428Y-48950000D01*
X130739285Y-48878571D01*
X130953571Y-48878571D01*
X131096428Y-48950000D01*
X131167857Y-49092857D01*
X131167857Y-49878571D01*
X161000000Y-51300000D02*
X89050000Y-51300000D01*
X161000000Y-129000000D02*
X161000000Y-50713579D01*
X89050000Y-129000000D02*
X89050000Y-50713579D01*
X89050000Y-51300000D02*
X90176504Y-50713579D01*
X89050000Y-51300000D02*
X90176504Y-51886421D01*
X161000000Y-51300000D02*
X159873496Y-50713579D01*
X161000000Y-51300000D02*
X159873496Y-51886421D01*
X69021428Y-110747206D02*
X68021428Y-110747206D01*
X69592857Y-110390063D02*
X68521428Y-110032920D01*
X68521428Y-110961491D01*
X69521428Y-112247206D02*
X69521428Y-111532920D01*
X68807142Y-111461491D01*
X68878571Y-111532920D01*
X68950000Y-111675777D01*
X68950000Y-112032920D01*
X68878571Y-112175777D01*
X68807142Y-112247206D01*
X68664285Y-112318634D01*
X68307142Y-112318634D01*
X68164285Y-112247206D01*
X68092857Y-112175777D01*
X68021428Y-112032920D01*
X68021428Y-111675777D01*
X68092857Y-111532920D01*
X68164285Y-111461491D01*
X68164285Y-112961491D02*
X68092857Y-113032920D01*
X68021428Y-112961491D01*
X68092857Y-112890063D01*
X68164285Y-112961491D01*
X68021428Y-112961491D01*
X69521428Y-114318634D02*
X69521428Y-114032920D01*
X69450000Y-113890063D01*
X69378571Y-113818634D01*
X69164285Y-113675777D01*
X68878571Y-113604348D01*
X68307142Y-113604348D01*
X68164285Y-113675777D01*
X68092857Y-113747206D01*
X68021428Y-113890063D01*
X68021428Y-114175777D01*
X68092857Y-114318634D01*
X68164285Y-114390063D01*
X68307142Y-114461491D01*
X68664285Y-114461491D01*
X68807142Y-114390063D01*
X68878571Y-114318634D01*
X68950000Y-114175777D01*
X68950000Y-113890063D01*
X68878571Y-113747206D01*
X68807142Y-113675777D01*
X68664285Y-113604348D01*
X69521428Y-115818634D02*
X69521428Y-115104348D01*
X68807142Y-115032920D01*
X68878571Y-115104348D01*
X68950000Y-115247206D01*
X68950000Y-115604348D01*
X68878571Y-115747206D01*
X68807142Y-115818634D01*
X68664285Y-115890063D01*
X68307142Y-115890063D01*
X68164285Y-115818634D01*
X68092857Y-115747206D01*
X68021428Y-115604348D01*
X68021428Y-115247206D01*
X68092857Y-115104348D01*
X68164285Y-115032920D01*
X69521428Y-116818634D02*
X69521428Y-116961491D01*
X69450000Y-117104348D01*
X69378571Y-117175777D01*
X69235714Y-117247206D01*
X68950000Y-117318634D01*
X68592857Y-117318634D01*
X68307142Y-117247206D01*
X68164285Y-117175777D01*
X68092857Y-117104348D01*
X68021428Y-116961491D01*
X68021428Y-116818634D01*
X68092857Y-116675777D01*
X68164285Y-116604348D01*
X68307142Y-116532920D01*
X68592857Y-116461491D01*
X68950000Y-116461491D01*
X69235714Y-116532920D01*
X69378571Y-116604348D01*
X69450000Y-116675777D01*
X69521428Y-116818634D01*
X68021428Y-119104348D02*
X69021428Y-119104348D01*
X68878571Y-119104348D02*
X68950000Y-119175777D01*
X69021428Y-119318634D01*
X69021428Y-119532920D01*
X68950000Y-119675777D01*
X68807142Y-119747206D01*
X68021428Y-119747206D01*
X68807142Y-119747206D02*
X68950000Y-119818634D01*
X69021428Y-119961491D01*
X69021428Y-120175777D01*
X68950000Y-120318634D01*
X68807142Y-120390063D01*
X68021428Y-120390063D01*
X68021428Y-121104348D02*
X69021428Y-121104348D01*
X68878571Y-121104348D02*
X68950000Y-121175777D01*
X69021428Y-121318634D01*
X69021428Y-121532920D01*
X68950000Y-121675777D01*
X68807142Y-121747206D01*
X68021428Y-121747206D01*
X68807142Y-121747206D02*
X68950000Y-121818634D01*
X69021428Y-121961491D01*
X69021428Y-122175777D01*
X68950000Y-122318634D01*
X68807142Y-122390063D01*
X68021428Y-122390063D01*
X70800000Y-93422206D02*
X70800000Y-139072206D01*
X188467282Y-93422206D02*
X70213579Y-93422206D01*
X188467282Y-139072206D02*
X70213579Y-139072206D01*
X70800000Y-139072206D02*
X70213579Y-137945702D01*
X70800000Y-139072206D02*
X71386421Y-137945702D01*
X70800000Y-93422206D02*
X70213579Y-94548710D01*
X70800000Y-93422206D02*
X71386421Y-94548710D01*
X62440820Y-109076817D02*
X61440820Y-109077838D01*
X63011884Y-108719092D02*
X61940091Y-108363042D01*
X61941039Y-109291613D01*
X61441695Y-109934980D02*
X61441986Y-110220694D01*
X61513561Y-110363479D01*
X61585062Y-110434834D01*
X61799493Y-110577473D01*
X62085280Y-110648610D01*
X62656709Y-110648026D01*
X62799493Y-110576452D01*
X62870849Y-110504951D01*
X62942131Y-110362021D01*
X62941840Y-110076307D01*
X62870265Y-109933522D01*
X62798764Y-109862167D01*
X62655834Y-109790884D01*
X62298691Y-109791248D01*
X62155907Y-109862823D01*
X62084552Y-109934324D01*
X62013269Y-110077254D01*
X62013560Y-110362968D01*
X62085135Y-110505752D01*
X62156636Y-110577108D01*
X62299566Y-110648391D01*
X61585937Y-111291977D02*
X61514581Y-111363478D01*
X61443080Y-111292122D01*
X61514435Y-111220621D01*
X61585937Y-111291977D01*
X61443080Y-111292122D01*
X62944099Y-112290591D02*
X62944245Y-112433448D01*
X62872962Y-112576378D01*
X62801607Y-112647880D01*
X62658822Y-112719454D01*
X62373181Y-112791174D01*
X62016039Y-112791538D01*
X61730252Y-112720401D01*
X61587322Y-112649119D01*
X61515820Y-112577763D01*
X61444246Y-112434979D01*
X61444100Y-112292122D01*
X61515383Y-112149192D01*
X61586738Y-112077690D01*
X61729523Y-112006116D01*
X62015164Y-111934396D01*
X62372307Y-111934032D01*
X62658094Y-112005169D01*
X62801024Y-112076451D01*
X62872525Y-112147807D01*
X62944099Y-112290591D01*
X62945557Y-113719162D02*
X62945703Y-113862019D01*
X62874420Y-114004949D01*
X62803064Y-114076450D01*
X62660280Y-114148025D01*
X62374639Y-114219745D01*
X62017496Y-114220109D01*
X61731709Y-114148972D01*
X61588779Y-114077689D01*
X61517278Y-114006334D01*
X61445704Y-113863550D01*
X61445558Y-113720693D01*
X61516841Y-113577763D01*
X61588196Y-113506261D01*
X61730980Y-113434687D01*
X62016622Y-113362967D01*
X62373764Y-113362602D01*
X62659551Y-113433739D01*
X62802481Y-113505022D01*
X62873983Y-113576378D01*
X62945557Y-113719162D01*
X62947015Y-115147733D02*
X62947161Y-115290590D01*
X62875878Y-115433520D01*
X62804522Y-115505021D01*
X62661738Y-115576595D01*
X62376097Y-115648315D01*
X62018954Y-115648680D01*
X61733167Y-115577543D01*
X61590237Y-115506260D01*
X61518736Y-115434904D01*
X61447161Y-115292120D01*
X61447016Y-115149263D01*
X61518298Y-115006333D01*
X61589654Y-114934832D01*
X61732438Y-114863258D01*
X62018079Y-114791537D01*
X62375222Y-114791173D01*
X62661009Y-114862310D01*
X62803939Y-114933593D01*
X62875440Y-115004948D01*
X62947015Y-115147733D01*
X61449348Y-117434976D02*
X62449347Y-117433956D01*
X62306490Y-117434102D02*
X62377992Y-117505457D01*
X62449566Y-117648241D01*
X62449785Y-117862527D01*
X62378502Y-118005457D01*
X62235718Y-118077031D01*
X61450004Y-118077833D01*
X62235718Y-118077031D02*
X62378648Y-118148314D01*
X62450222Y-118291098D01*
X62450441Y-118505384D01*
X62379158Y-118648314D01*
X62236374Y-118719888D01*
X61450660Y-118720690D01*
X61451389Y-119434975D02*
X62451388Y-119433955D01*
X62308531Y-119434101D02*
X62380033Y-119505456D01*
X62451607Y-119648240D01*
X62451825Y-119862526D01*
X62380543Y-120005456D01*
X62237759Y-120077030D01*
X61452045Y-120077832D01*
X62237759Y-120077030D02*
X62380689Y-120148313D01*
X62452263Y-120291097D01*
X62452481Y-120505383D01*
X62381199Y-120648313D01*
X62238415Y-120719887D01*
X61452701Y-120720689D01*
X64200003Y-90075000D02*
X64250003Y-139075000D01*
X137700000Y-90000000D02*
X63613583Y-90075598D01*
X137750000Y-139000000D02*
X63663583Y-139075598D01*
X64250003Y-139075000D02*
X63662433Y-137949095D01*
X64250003Y-139075000D02*
X64835274Y-137947898D01*
X64200003Y-90075000D02*
X63614732Y-91202102D01*
X64200003Y-90075000D02*
X64787573Y-91200905D01*
X132648356Y-38508571D02*
X132934070Y-38508571D01*
X133076927Y-38437142D01*
X133148356Y-38365714D01*
X133291213Y-38151428D01*
X133362642Y-37865714D01*
X133362642Y-37294285D01*
X133291213Y-37151428D01*
X133219785Y-37080000D01*
X133076927Y-37008571D01*
X132791213Y-37008571D01*
X132648356Y-37080000D01*
X132576927Y-37151428D01*
X132505499Y-37294285D01*
X132505499Y-37651428D01*
X132576927Y-37794285D01*
X132648356Y-37865714D01*
X132791213Y-37937142D01*
X133076927Y-37937142D01*
X133219785Y-37865714D01*
X133291213Y-37794285D01*
X133362642Y-37651428D01*
X134076927Y-38508571D02*
X134362642Y-38508571D01*
X134505499Y-38437142D01*
X134576927Y-38365714D01*
X134719785Y-38151428D01*
X134791213Y-37865714D01*
X134791213Y-37294285D01*
X134719785Y-37151428D01*
X134648356Y-37080000D01*
X134505499Y-37008571D01*
X134219785Y-37008571D01*
X134076927Y-37080000D01*
X134005499Y-37151428D01*
X133934070Y-37294285D01*
X133934070Y-37651428D01*
X134005499Y-37794285D01*
X134076927Y-37865714D01*
X134219785Y-37937142D01*
X134505499Y-37937142D01*
X134648356Y-37865714D01*
X134719785Y-37794285D01*
X134791213Y-37651428D01*
X135434070Y-38365714D02*
X135505499Y-38437142D01*
X135434070Y-38508571D01*
X135362642Y-38437142D01*
X135434070Y-38365714D01*
X135434070Y-38508571D01*
X136862642Y-37008571D02*
X136148356Y-37008571D01*
X136076927Y-37722857D01*
X136148356Y-37651428D01*
X136291213Y-37580000D01*
X136648356Y-37580000D01*
X136791213Y-37651428D01*
X136862642Y-37722857D01*
X136934070Y-37865714D01*
X136934070Y-38222857D01*
X136862642Y-38365714D01*
X136791213Y-38437142D01*
X136648356Y-38508571D01*
X136291213Y-38508571D01*
X136148356Y-38437142D01*
X136076927Y-38365714D01*
X137862642Y-37008571D02*
X138005499Y-37008571D01*
X138148356Y-37080000D01*
X138219785Y-37151428D01*
X138291213Y-37294285D01*
X138362642Y-37580000D01*
X138362642Y-37937142D01*
X138291213Y-38222857D01*
X138219785Y-38365714D01*
X138148356Y-38437142D01*
X138005499Y-38508571D01*
X137862642Y-38508571D01*
X137719785Y-38437142D01*
X137648356Y-38365714D01*
X137576927Y-38222857D01*
X137505499Y-37937142D01*
X137505499Y-37580000D01*
X137576927Y-37294285D01*
X137648356Y-37151428D01*
X137719785Y-37080000D01*
X137862642Y-37008571D01*
X139291213Y-37008571D02*
X139434070Y-37008571D01*
X139576927Y-37080000D01*
X139648356Y-37151428D01*
X139719785Y-37294285D01*
X139791213Y-37580000D01*
X139791213Y-37937142D01*
X139719785Y-38222857D01*
X139648356Y-38365714D01*
X139576927Y-38437142D01*
X139434070Y-38508571D01*
X139291213Y-38508571D01*
X139148356Y-38437142D01*
X139076927Y-38365714D01*
X139005499Y-38222857D01*
X138934070Y-37937142D01*
X138934070Y-37580000D01*
X139005499Y-37294285D01*
X139076927Y-37151428D01*
X139148356Y-37080000D01*
X139291213Y-37008571D01*
X141576927Y-38508571D02*
X141576927Y-37508571D01*
X141576927Y-37651428D02*
X141648356Y-37580000D01*
X141791213Y-37508571D01*
X142005499Y-37508571D01*
X142148356Y-37580000D01*
X142219785Y-37722857D01*
X142219785Y-38508571D01*
X142219785Y-37722857D02*
X142291213Y-37580000D01*
X142434070Y-37508571D01*
X142648356Y-37508571D01*
X142791213Y-37580000D01*
X142862642Y-37722857D01*
X142862642Y-38508571D01*
X143576927Y-38508571D02*
X143576927Y-37508571D01*
X143576927Y-37651428D02*
X143648356Y-37580000D01*
X143791213Y-37508571D01*
X144005499Y-37508571D01*
X144148356Y-37580000D01*
X144219785Y-37722857D01*
X144219785Y-38508571D01*
X144219785Y-37722857D02*
X144291213Y-37580000D01*
X144434070Y-37508571D01*
X144648356Y-37508571D01*
X144791213Y-37580000D01*
X144862642Y-37722857D01*
X144862642Y-38508571D01*
X188469785Y-39930000D02*
X88969785Y-39930000D01*
X188469785Y-93396599D02*
X188469785Y-39343579D01*
X88969785Y-93396599D02*
X88969785Y-39343579D01*
X88969785Y-39930000D02*
X90096289Y-39343579D01*
X88969785Y-39930000D02*
X90096289Y-40516421D01*
X188469785Y-39930000D02*
X187343281Y-39343579D01*
X188469785Y-39930000D02*
X187343281Y-40516421D01*
X127821428Y-42521428D02*
X127678571Y-42450000D01*
X127607142Y-42378571D01*
X127535714Y-42235714D01*
X127535714Y-42164285D01*
X127607142Y-42021428D01*
X127678571Y-41950000D01*
X127821428Y-41878571D01*
X128107142Y-41878571D01*
X128250000Y-41950000D01*
X128321428Y-42021428D01*
X128392857Y-42164285D01*
X128392857Y-42235714D01*
X128321428Y-42378571D01*
X128250000Y-42450000D01*
X128107142Y-42521428D01*
X127821428Y-42521428D01*
X127678571Y-42592857D01*
X127607142Y-42664285D01*
X127535714Y-42807142D01*
X127535714Y-43092857D01*
X127607142Y-43235714D01*
X127678571Y-43307142D01*
X127821428Y-43378571D01*
X128107142Y-43378571D01*
X128250000Y-43307142D01*
X128321428Y-43235714D01*
X128392857Y-43092857D01*
X128392857Y-42807142D01*
X128321428Y-42664285D01*
X128250000Y-42592857D01*
X128107142Y-42521428D01*
X129107142Y-43378571D02*
X129392857Y-43378571D01*
X129535714Y-43307142D01*
X129607142Y-43235714D01*
X129750000Y-43021428D01*
X129821428Y-42735714D01*
X129821428Y-42164285D01*
X129750000Y-42021428D01*
X129678571Y-41950000D01*
X129535714Y-41878571D01*
X129250000Y-41878571D01*
X129107142Y-41950000D01*
X129035714Y-42021428D01*
X128964285Y-42164285D01*
X128964285Y-42521428D01*
X129035714Y-42664285D01*
X129107142Y-42735714D01*
X129250000Y-42807142D01*
X129535714Y-42807142D01*
X129678571Y-42735714D01*
X129750000Y-42664285D01*
X129821428Y-42521428D01*
X130464285Y-43235714D02*
X130535714Y-43307142D01*
X130464285Y-43378571D01*
X130392857Y-43307142D01*
X130464285Y-43235714D01*
X130464285Y-43378571D01*
X131892857Y-41878571D02*
X131178571Y-41878571D01*
X131107142Y-42592857D01*
X131178571Y-42521428D01*
X131321428Y-42450000D01*
X131678571Y-42450000D01*
X131821428Y-42521428D01*
X131892857Y-42592857D01*
X131964285Y-42735714D01*
X131964285Y-43092857D01*
X131892857Y-43235714D01*
X131821428Y-43307142D01*
X131678571Y-43378571D01*
X131321428Y-43378571D01*
X131178571Y-43307142D01*
X131107142Y-43235714D01*
X132892857Y-41878571D02*
X133035714Y-41878571D01*
X133178571Y-41950000D01*
X133250000Y-42021428D01*
X133321428Y-42164285D01*
X133392857Y-42450000D01*
X133392857Y-42807142D01*
X133321428Y-43092857D01*
X133250000Y-43235714D01*
X133178571Y-43307142D01*
X133035714Y-43378571D01*
X132892857Y-43378571D01*
X132750000Y-43307142D01*
X132678571Y-43235714D01*
X132607142Y-43092857D01*
X132535714Y-42807142D01*
X132535714Y-42450000D01*
X132607142Y-42164285D01*
X132678571Y-42021428D01*
X132750000Y-41950000D01*
X132892857Y-41878571D01*
X134321428Y-41878571D02*
X134464285Y-41878571D01*
X134607142Y-41950000D01*
X134678571Y-42021428D01*
X134750000Y-42164285D01*
X134821428Y-42450000D01*
X134821428Y-42807142D01*
X134750000Y-43092857D01*
X134678571Y-43235714D01*
X134607142Y-43307142D01*
X134464285Y-43378571D01*
X134321428Y-43378571D01*
X134178571Y-43307142D01*
X134107142Y-43235714D01*
X134035714Y-43092857D01*
X133964285Y-42807142D01*
X133964285Y-42450000D01*
X134035714Y-42164285D01*
X134107142Y-42021428D01*
X134178571Y-41950000D01*
X134321428Y-41878571D01*
X136607142Y-43378571D02*
X136607142Y-42378571D01*
X136607142Y-42521428D02*
X136678571Y-42450000D01*
X136821428Y-42378571D01*
X137035714Y-42378571D01*
X137178571Y-42450000D01*
X137250000Y-42592857D01*
X137250000Y-43378571D01*
X137250000Y-42592857D02*
X137321428Y-42450000D01*
X137464285Y-42378571D01*
X137678571Y-42378571D01*
X137821428Y-42450000D01*
X137892857Y-42592857D01*
X137892857Y-43378571D01*
X138607142Y-43378571D02*
X138607142Y-42378571D01*
X138607142Y-42521428D02*
X138678571Y-42450000D01*
X138821428Y-42378571D01*
X139035714Y-42378571D01*
X139178571Y-42450000D01*
X139250000Y-42592857D01*
X139250000Y-43378571D01*
X139250000Y-42592857D02*
X139321428Y-42450000D01*
X139464285Y-42378571D01*
X139678571Y-42378571D01*
X139821428Y-42450000D01*
X139892857Y-42592857D01*
X139892857Y-43378571D01*
X89000000Y-44800000D02*
X178500000Y-44800000D01*
X89000000Y-86000000D02*
X89000000Y-44213579D01*
X178500000Y-86000000D02*
X178500000Y-44213579D01*
X178500000Y-44800000D02*
X177373496Y-45386421D01*
X178500000Y-44800000D02*
X177373496Y-44213579D01*
X89000000Y-44800000D02*
X90126504Y-45386421D01*
X89000000Y-44800000D02*
X90126504Y-44213579D01*
X110762820Y-54138542D02*
X110048535Y-54139853D01*
X109978418Y-54854268D01*
X110049715Y-54782709D01*
X110192441Y-54711018D01*
X110549583Y-54710363D01*
X110692571Y-54781529D01*
X110764131Y-54852826D01*
X110835821Y-54995552D01*
X110836476Y-55352695D01*
X110765310Y-55495683D01*
X110694013Y-55567242D01*
X110551287Y-55638933D01*
X110194145Y-55639588D01*
X110051157Y-55568422D01*
X109979597Y-55497124D01*
X112120878Y-54636051D02*
X112122713Y-55636049D01*
X111762687Y-54065279D02*
X111407511Y-55137361D01*
X112336081Y-55135657D01*
X112908164Y-55491751D02*
X112979723Y-55563048D01*
X112908426Y-55634608D01*
X112836866Y-55563310D01*
X112908164Y-55491751D01*
X112908426Y-55634608D01*
X114334243Y-54131989D02*
X113619958Y-54133300D01*
X113549840Y-54847715D01*
X113621138Y-54776156D01*
X113763863Y-54704465D01*
X114121006Y-54703810D01*
X114263994Y-54774976D01*
X114335553Y-54846273D01*
X114407244Y-54988999D01*
X114407899Y-55346142D01*
X114336733Y-55489129D01*
X114265435Y-55560689D01*
X114122709Y-55632380D01*
X113765567Y-55633035D01*
X113622579Y-55561869D01*
X113551020Y-55490571D01*
X115334241Y-54130154D02*
X115477098Y-54129892D01*
X115620086Y-54201058D01*
X115691645Y-54272356D01*
X115763336Y-54415081D01*
X115835289Y-54700664D01*
X115835944Y-55057806D01*
X115765040Y-55343651D01*
X115693873Y-55486639D01*
X115622576Y-55558199D01*
X115479850Y-55629889D01*
X115336993Y-55630152D01*
X115194005Y-55558985D01*
X115122446Y-55487688D01*
X115050755Y-55344962D01*
X114978802Y-55059379D01*
X114978147Y-54702237D01*
X115049051Y-54416392D01*
X115120218Y-54273404D01*
X115191515Y-54201845D01*
X115334241Y-54130154D01*
X116762810Y-54127533D02*
X116905667Y-54127271D01*
X117048655Y-54198437D01*
X117120214Y-54269734D01*
X117191905Y-54412460D01*
X117263858Y-54698043D01*
X117264513Y-55055185D01*
X117193609Y-55341030D01*
X117122442Y-55484018D01*
X117051145Y-55555578D01*
X116908419Y-55627268D01*
X116765562Y-55627530D01*
X116622574Y-55556364D01*
X116551015Y-55485067D01*
X116479324Y-55342341D01*
X116407371Y-55056758D01*
X116406716Y-54699616D01*
X116477620Y-54413771D01*
X116548787Y-54270783D01*
X116620084Y-54199223D01*
X116762810Y-54127533D01*
X119051273Y-55623336D02*
X119049438Y-54623338D01*
X119049700Y-54766195D02*
X119120997Y-54694635D01*
X119263723Y-54622945D01*
X119478008Y-54622552D01*
X119620996Y-54693718D01*
X119692687Y-54836444D01*
X119694129Y-55622157D01*
X119692687Y-54836444D02*
X119763853Y-54693456D01*
X119906579Y-54621765D01*
X120120865Y-54621372D01*
X120263853Y-54692538D01*
X120335543Y-54835264D01*
X120336985Y-55620977D01*
X121051269Y-55619667D02*
X121049434Y-54619668D01*
X121049697Y-54762525D02*
X121120994Y-54690966D01*
X121263720Y-54619275D01*
X121478005Y-54618882D01*
X121620993Y-54690048D01*
X121692684Y-54832774D01*
X121694125Y-55618487D01*
X121692684Y-54832774D02*
X121763850Y-54689786D01*
X121906576Y-54618096D01*
X122120861Y-54617702D01*
X122263849Y-54688869D01*
X122335540Y-54831595D01*
X122336981Y-55617308D01*
X143446743Y-57000005D02*
X88946743Y-57100005D01*
X143500000Y-86025000D02*
X143445667Y-56413585D01*
X89000000Y-86125000D02*
X88945667Y-56513585D01*
X88946743Y-57100005D02*
X90072169Y-56511518D01*
X88946743Y-57100005D02*
X90074321Y-57684358D01*
X143446743Y-57000005D02*
X142319165Y-56415652D01*
X143446743Y-57000005D02*
X142321317Y-57588492D01*
X105693850Y-60155348D02*
X105695535Y-61155347D01*
X105335744Y-59584522D02*
X104980408Y-60656551D01*
X105908978Y-60654986D01*
X107122419Y-60152940D02*
X107124104Y-61152939D01*
X106764314Y-59582114D02*
X106408977Y-60654143D01*
X107337547Y-60652578D01*
X107909577Y-61008758D02*
X107981126Y-61080066D01*
X107909818Y-61151615D01*
X107838269Y-61080307D01*
X107909577Y-61008758D01*
X107909818Y-61151615D01*
X109335859Y-59649209D02*
X108621574Y-59650413D01*
X108551350Y-60364818D01*
X108622658Y-60293269D01*
X108765394Y-60221600D01*
X109122537Y-60220998D01*
X109265514Y-60292186D01*
X109337063Y-60363494D01*
X109408732Y-60506230D01*
X109409334Y-60863373D01*
X109338146Y-61006350D01*
X109266838Y-61077899D01*
X109124102Y-61149568D01*
X108766959Y-61150170D01*
X108623982Y-61078982D01*
X108552433Y-61007674D01*
X110335857Y-59647524D02*
X110478714Y-59647283D01*
X110621692Y-59718471D01*
X110693241Y-59789779D01*
X110764910Y-59932515D01*
X110836820Y-60218109D01*
X110837422Y-60575251D01*
X110766475Y-60861085D01*
X110695287Y-61004063D01*
X110623979Y-61075612D01*
X110481242Y-61147281D01*
X110338386Y-61147522D01*
X110195408Y-61076334D01*
X110123859Y-61005026D01*
X110052190Y-60862289D01*
X109980280Y-60576696D01*
X109979678Y-60219553D01*
X110050625Y-59933719D01*
X110121813Y-59790742D01*
X110193121Y-59719193D01*
X110335857Y-59647524D01*
X111764427Y-59645116D02*
X111907284Y-59644875D01*
X112050261Y-59716063D01*
X112121810Y-59787371D01*
X112193479Y-59930108D01*
X112265389Y-60215701D01*
X112265991Y-60572843D01*
X112195044Y-60858678D01*
X112123856Y-61001655D01*
X112052548Y-61073204D01*
X111909812Y-61144873D01*
X111766955Y-61145114D01*
X111623978Y-61073926D01*
X111552429Y-61002618D01*
X111480759Y-60859882D01*
X111408849Y-60574288D01*
X111408248Y-60217146D01*
X111479194Y-59931311D01*
X111550382Y-59788334D01*
X111621690Y-59716785D01*
X111764427Y-59645116D01*
X114052666Y-61141262D02*
X114050981Y-60141263D01*
X114051221Y-60284120D02*
X114122529Y-60212571D01*
X114265266Y-60140902D01*
X114479551Y-60140541D01*
X114622529Y-60211728D01*
X114694198Y-60354465D01*
X114695522Y-61140178D01*
X114694198Y-60354465D02*
X114765386Y-60211488D01*
X114908122Y-60139818D01*
X115122408Y-60139457D01*
X115265385Y-60210645D01*
X115337054Y-60353381D01*
X115338378Y-61139095D01*
X116052663Y-61137891D02*
X116050978Y-60137892D01*
X116051218Y-60280749D02*
X116122527Y-60209200D01*
X116265263Y-60137531D01*
X116479549Y-60137170D01*
X116622526Y-60208358D01*
X116694195Y-60351094D01*
X116695519Y-61136807D01*
X116694195Y-60351094D02*
X116765383Y-60208117D01*
X116908119Y-60136448D01*
X117122405Y-60136086D01*
X117265382Y-60207274D01*
X117337051Y-60350011D01*
X117338376Y-61135724D01*
X133447923Y-62530004D02*
X88947923Y-62605004D01*
X133500000Y-93428802D02*
X133446935Y-61943584D01*
X89000000Y-93503802D02*
X88946935Y-62018584D01*
X88947923Y-62605004D02*
X90073437Y-62016685D01*
X88947923Y-62605004D02*
X90075414Y-63189525D01*
X133447923Y-62530004D02*
X132320432Y-61945483D01*
X133447923Y-62530004D02*
X132322409Y-63118323D01*
X75776891Y-122785714D02*
X75848320Y-122857142D01*
X75919748Y-123000000D01*
X75919748Y-123357142D01*
X75848320Y-123500000D01*
X75776891Y-123571428D01*
X75634034Y-123642857D01*
X75491177Y-123642857D01*
X75276891Y-123571428D01*
X74419748Y-122714285D01*
X74419748Y-123642857D01*
X75919748Y-124571428D02*
X75919748Y-124714285D01*
X75848320Y-124857142D01*
X75776891Y-124928571D01*
X75634034Y-125000000D01*
X75348320Y-125071428D01*
X74991177Y-125071428D01*
X74705462Y-125000000D01*
X74562605Y-124928571D01*
X74491177Y-124857142D01*
X74419748Y-124714285D01*
X74419748Y-124571428D01*
X74491177Y-124428571D01*
X74562605Y-124357142D01*
X74705462Y-124285714D01*
X74991177Y-124214285D01*
X75348320Y-124214285D01*
X75634034Y-124285714D01*
X75776891Y-124357142D01*
X75848320Y-124428571D01*
X75919748Y-124571428D01*
X74562605Y-125714285D02*
X74491177Y-125785714D01*
X74419748Y-125714285D01*
X74491177Y-125642857D01*
X74562605Y-125714285D01*
X74419748Y-125714285D01*
X75919748Y-126714285D02*
X75919748Y-126857142D01*
X75848320Y-127000000D01*
X75776891Y-127071428D01*
X75634034Y-127142857D01*
X75348320Y-127214285D01*
X74991177Y-127214285D01*
X74705462Y-127142857D01*
X74562605Y-127071428D01*
X74491177Y-127000000D01*
X74419748Y-126857142D01*
X74419748Y-126714285D01*
X74491177Y-126571428D01*
X74562605Y-126500000D01*
X74705462Y-126428571D01*
X74991177Y-126357142D01*
X75348320Y-126357142D01*
X75634034Y-126428571D01*
X75776891Y-126500000D01*
X75848320Y-126571428D01*
X75919748Y-126714285D01*
X75919748Y-128142857D02*
X75919748Y-128285714D01*
X75848320Y-128428571D01*
X75776891Y-128500000D01*
X75634034Y-128571428D01*
X75348320Y-128642857D01*
X74991177Y-128642857D01*
X74705462Y-128571428D01*
X74562605Y-128500000D01*
X74491177Y-128428571D01*
X74419748Y-128285714D01*
X74419748Y-128142857D01*
X74491177Y-128000000D01*
X74562605Y-127928571D01*
X74705462Y-127857142D01*
X74991177Y-127785714D01*
X75348320Y-127785714D01*
X75634034Y-127857142D01*
X75776891Y-127928571D01*
X75848320Y-128000000D01*
X75919748Y-128142857D01*
X75919748Y-129571428D02*
X75919748Y-129714285D01*
X75848320Y-129857142D01*
X75776891Y-129928571D01*
X75634034Y-130000000D01*
X75348320Y-130071428D01*
X74991177Y-130071428D01*
X74705462Y-130000000D01*
X74562605Y-129928571D01*
X74491177Y-129857142D01*
X74419748Y-129714285D01*
X74419748Y-129571428D01*
X74491177Y-129428571D01*
X74562605Y-129357142D01*
X74705462Y-129285714D01*
X74991177Y-129214285D01*
X75348320Y-129214285D01*
X75634034Y-129285714D01*
X75776891Y-129357142D01*
X75848320Y-129428571D01*
X75919748Y-129571428D01*
X74419748Y-131857142D02*
X75419748Y-131857142D01*
X75276891Y-131857142D02*
X75348320Y-131928571D01*
X75419748Y-132071428D01*
X75419748Y-132285714D01*
X75348320Y-132428571D01*
X75205462Y-132500000D01*
X74419748Y-132500000D01*
X75205462Y-132500000D02*
X75348320Y-132571428D01*
X75419748Y-132714285D01*
X75419748Y-132928571D01*
X75348320Y-133071428D01*
X75205462Y-133142857D01*
X74419748Y-133142857D01*
X74419748Y-133857142D02*
X75419748Y-133857142D01*
X75276891Y-133857142D02*
X75348320Y-133928571D01*
X75419748Y-134071428D01*
X75419748Y-134285714D01*
X75348320Y-134428571D01*
X75205462Y-134500000D01*
X74419748Y-134500000D01*
X75205462Y-134500000D02*
X75348320Y-134571428D01*
X75419748Y-134714285D01*
X75419748Y-134928571D01*
X75348320Y-135071428D01*
X75205462Y-135142857D01*
X74419748Y-135142857D01*
X77198320Y-119000000D02*
X77198320Y-139000000D01*
X223000000Y-119000000D02*
X76611899Y-119000000D01*
X223000000Y-139000000D02*
X76611899Y-139000000D01*
X77198320Y-139000000D02*
X76611899Y-137873496D01*
X77198320Y-139000000D02*
X77784741Y-137873496D01*
X77198320Y-119000000D02*
X76611899Y-120126504D01*
X77198320Y-119000000D02*
X77784741Y-120126504D01*
X56921428Y-107071428D02*
X56921428Y-106357142D01*
X56207142Y-106285714D01*
X56278571Y-106357142D01*
X56350000Y-106500000D01*
X56350000Y-106857142D01*
X56278571Y-107000000D01*
X56207142Y-107071428D01*
X56064285Y-107142857D01*
X55707142Y-107142857D01*
X55564285Y-107071428D01*
X55492857Y-107000000D01*
X55421428Y-106857142D01*
X55421428Y-106500000D01*
X55492857Y-106357142D01*
X55564285Y-106285714D01*
X56921428Y-107642857D02*
X56921428Y-108571428D01*
X56350000Y-108071428D01*
X56350000Y-108285714D01*
X56278571Y-108428571D01*
X56207142Y-108500000D01*
X56064285Y-108571428D01*
X55707142Y-108571428D01*
X55564285Y-108500000D01*
X55492857Y-108428571D01*
X55421428Y-108285714D01*
X55421428Y-107857142D01*
X55492857Y-107714285D01*
X55564285Y-107642857D01*
X55564285Y-109214285D02*
X55492857Y-109285714D01*
X55421428Y-109214285D01*
X55492857Y-109142857D01*
X55564285Y-109214285D01*
X55421428Y-109214285D01*
X56921428Y-110214285D02*
X56921428Y-110357142D01*
X56850000Y-110500000D01*
X56778571Y-110571428D01*
X56635714Y-110642857D01*
X56350000Y-110714285D01*
X55992857Y-110714285D01*
X55707142Y-110642857D01*
X55564285Y-110571428D01*
X55492857Y-110500000D01*
X55421428Y-110357142D01*
X55421428Y-110214285D01*
X55492857Y-110071428D01*
X55564285Y-110000000D01*
X55707142Y-109928571D01*
X55992857Y-109857142D01*
X56350000Y-109857142D01*
X56635714Y-109928571D01*
X56778571Y-110000000D01*
X56850000Y-110071428D01*
X56921428Y-110214285D01*
X56921428Y-111642857D02*
X56921428Y-111785714D01*
X56850000Y-111928571D01*
X56778571Y-112000000D01*
X56635714Y-112071428D01*
X56350000Y-112142857D01*
X55992857Y-112142857D01*
X55707142Y-112071428D01*
X55564285Y-112000000D01*
X55492857Y-111928571D01*
X55421428Y-111785714D01*
X55421428Y-111642857D01*
X55492857Y-111500000D01*
X55564285Y-111428571D01*
X55707142Y-111357142D01*
X55992857Y-111285714D01*
X56350000Y-111285714D01*
X56635714Y-111357142D01*
X56778571Y-111428571D01*
X56850000Y-111500000D01*
X56921428Y-111642857D01*
X56921428Y-113071428D02*
X56921428Y-113214285D01*
X56850000Y-113357142D01*
X56778571Y-113428571D01*
X56635714Y-113500000D01*
X56350000Y-113571428D01*
X55992857Y-113571428D01*
X55707142Y-113500000D01*
X55564285Y-113428571D01*
X55492857Y-113357142D01*
X55421428Y-113214285D01*
X55421428Y-113071428D01*
X55492857Y-112928571D01*
X55564285Y-112857142D01*
X55707142Y-112785714D01*
X55992857Y-112714285D01*
X56350000Y-112714285D01*
X56635714Y-112785714D01*
X56778571Y-112857142D01*
X56850000Y-112928571D01*
X56921428Y-113071428D01*
X55421428Y-115357142D02*
X56421428Y-115357142D01*
X56278571Y-115357142D02*
X56350000Y-115428571D01*
X56421428Y-115571428D01*
X56421428Y-115785714D01*
X56350000Y-115928571D01*
X56207142Y-116000000D01*
X55421428Y-116000000D01*
X56207142Y-116000000D02*
X56350000Y-116071428D01*
X56421428Y-116214285D01*
X56421428Y-116428571D01*
X56350000Y-116571428D01*
X56207142Y-116642857D01*
X55421428Y-116642857D01*
X55421428Y-117357142D02*
X56421428Y-117357142D01*
X56278571Y-117357142D02*
X56350000Y-117428571D01*
X56421428Y-117571428D01*
X56421428Y-117785714D01*
X56350000Y-117928571D01*
X56207142Y-118000000D01*
X55421428Y-118000000D01*
X56207142Y-118000000D02*
X56350000Y-118071428D01*
X56421428Y-118214285D01*
X56421428Y-118428571D01*
X56350000Y-118571428D01*
X56207142Y-118642857D01*
X55421428Y-118642857D01*
X58200000Y-86000000D02*
X58200000Y-139000000D01*
X118000000Y-86000000D02*
X57613579Y-86000000D01*
X118000000Y-139000000D02*
X57613579Y-139000000D01*
X58200000Y-139000000D02*
X57613579Y-137873496D01*
X58200000Y-139000000D02*
X58786421Y-137873496D01*
X58200000Y-86000000D02*
X57613579Y-87126504D01*
X58200000Y-86000000D02*
X58786421Y-87126504D01*
X80521428Y-128642857D02*
X80521428Y-127785714D01*
X80521428Y-128214285D02*
X82021428Y-128214285D01*
X81807142Y-128071428D01*
X81664285Y-127928571D01*
X81592857Y-127785714D01*
X82021428Y-129571428D02*
X82021428Y-129714285D01*
X81950000Y-129857142D01*
X81878571Y-129928571D01*
X81735714Y-130000000D01*
X81450000Y-130071428D01*
X81092857Y-130071428D01*
X80807142Y-130000000D01*
X80664285Y-129928571D01*
X80592857Y-129857142D01*
X80521428Y-129714285D01*
X80521428Y-129571428D01*
X80592857Y-129428571D01*
X80664285Y-129357142D01*
X80807142Y-129285714D01*
X81092857Y-129214285D01*
X81450000Y-129214285D01*
X81735714Y-129285714D01*
X81878571Y-129357142D01*
X81950000Y-129428571D01*
X82021428Y-129571428D01*
X80664285Y-130714285D02*
X80592857Y-130785714D01*
X80521428Y-130714285D01*
X80592857Y-130642857D01*
X80664285Y-130714285D01*
X80521428Y-130714285D01*
X82021428Y-131714285D02*
X82021428Y-131857142D01*
X81950000Y-132000000D01*
X81878571Y-132071428D01*
X81735714Y-132142857D01*
X81450000Y-132214285D01*
X81092857Y-132214285D01*
X80807142Y-132142857D01*
X80664285Y-132071428D01*
X80592857Y-132000000D01*
X80521428Y-131857142D01*
X80521428Y-131714285D01*
X80592857Y-131571428D01*
X80664285Y-131500000D01*
X80807142Y-131428571D01*
X81092857Y-131357142D01*
X81450000Y-131357142D01*
X81735714Y-131428571D01*
X81878571Y-131500000D01*
X81950000Y-131571428D01*
X82021428Y-131714285D01*
X82021428Y-133142857D02*
X82021428Y-133285714D01*
X81950000Y-133428571D01*
X81878571Y-133500000D01*
X81735714Y-133571428D01*
X81450000Y-133642857D01*
X81092857Y-133642857D01*
X80807142Y-133571428D01*
X80664285Y-133500000D01*
X80592857Y-133428571D01*
X80521428Y-133285714D01*
X80521428Y-133142857D01*
X80592857Y-133000000D01*
X80664285Y-132928571D01*
X80807142Y-132857142D01*
X81092857Y-132785714D01*
X81450000Y-132785714D01*
X81735714Y-132857142D01*
X81878571Y-132928571D01*
X81950000Y-133000000D01*
X82021428Y-133142857D01*
X82021428Y-134571428D02*
X82021428Y-134714285D01*
X81950000Y-134857142D01*
X81878571Y-134928571D01*
X81735714Y-135000000D01*
X81450000Y-135071428D01*
X81092857Y-135071428D01*
X80807142Y-135000000D01*
X80664285Y-134928571D01*
X80592857Y-134857142D01*
X80521428Y-134714285D01*
X80521428Y-134571428D01*
X80592857Y-134428571D01*
X80664285Y-134357142D01*
X80807142Y-134285714D01*
X81092857Y-134214285D01*
X81450000Y-134214285D01*
X81735714Y-134285714D01*
X81878571Y-134357142D01*
X81950000Y-134428571D01*
X82021428Y-134571428D01*
X80521428Y-136857142D02*
X81521428Y-136857142D01*
X81378571Y-136857142D02*
X81450000Y-136928571D01*
X81521428Y-137071428D01*
X81521428Y-137285714D01*
X81450000Y-137428571D01*
X81307142Y-137500000D01*
X80521428Y-137500000D01*
X81307142Y-137500000D02*
X81450000Y-137571428D01*
X81521428Y-137714285D01*
X81521428Y-137928571D01*
X81450000Y-138071428D01*
X81307142Y-138142857D01*
X80521428Y-138142857D01*
X80521428Y-138857142D02*
X81521428Y-138857142D01*
X81378571Y-138857142D02*
X81450000Y-138928571D01*
X81521428Y-139071428D01*
X81521428Y-139285714D01*
X81450000Y-139428571D01*
X81307142Y-139500000D01*
X80521428Y-139500000D01*
X81307142Y-139500000D02*
X81450000Y-139571428D01*
X81521428Y-139714285D01*
X81521428Y-139928571D01*
X81450000Y-140071428D01*
X81307142Y-140142857D01*
X80521428Y-140142857D01*
X83300000Y-129000000D02*
X83300000Y-139000000D01*
X104000000Y-129000000D02*
X82713579Y-129000000D01*
X104000000Y-139000000D02*
X82713579Y-139000000D01*
X83300000Y-139000000D02*
X82713579Y-137873496D01*
X83300000Y-139000000D02*
X83886421Y-137873496D01*
X83300000Y-129000000D02*
X82713579Y-130126504D01*
X83300000Y-129000000D02*
X83886421Y-130126504D01*
X155428571Y-25778571D02*
X154571428Y-25778571D01*
X155000000Y-25778571D02*
X155000000Y-24278571D01*
X154857142Y-24492857D01*
X154714285Y-24635714D01*
X154571428Y-24707142D01*
X156714285Y-24778571D02*
X156714285Y-25778571D01*
X156357142Y-24207142D02*
X156000000Y-25278571D01*
X156928571Y-25278571D01*
X158214285Y-24278571D02*
X157500000Y-24278571D01*
X157428571Y-24992857D01*
X157500000Y-24921428D01*
X157642857Y-24850000D01*
X158000000Y-24850000D01*
X158142857Y-24921428D01*
X158214285Y-24992857D01*
X158285714Y-25135714D01*
X158285714Y-25492857D01*
X158214285Y-25635714D01*
X158142857Y-25707142D01*
X158000000Y-25778571D01*
X157642857Y-25778571D01*
X157500000Y-25707142D01*
X157428571Y-25635714D01*
X158928571Y-25635714D02*
X159000000Y-25707142D01*
X158928571Y-25778571D01*
X158857142Y-25707142D01*
X158928571Y-25635714D01*
X158928571Y-25778571D01*
X159928571Y-24278571D02*
X160071428Y-24278571D01*
X160214285Y-24350000D01*
X160285714Y-24421428D01*
X160357142Y-24564285D01*
X160428571Y-24850000D01*
X160428571Y-25207142D01*
X160357142Y-25492857D01*
X160285714Y-25635714D01*
X160214285Y-25707142D01*
X160071428Y-25778571D01*
X159928571Y-25778571D01*
X159785714Y-25707142D01*
X159714285Y-25635714D01*
X159642857Y-25492857D01*
X159571428Y-25207142D01*
X159571428Y-24850000D01*
X159642857Y-24564285D01*
X159714285Y-24421428D01*
X159785714Y-24350000D01*
X159928571Y-24278571D01*
X161357142Y-24278571D02*
X161500000Y-24278571D01*
X161642857Y-24350000D01*
X161714285Y-24421428D01*
X161785714Y-24564285D01*
X161857142Y-24850000D01*
X161857142Y-25207142D01*
X161785714Y-25492857D01*
X161714285Y-25635714D01*
X161642857Y-25707142D01*
X161500000Y-25778571D01*
X161357142Y-25778571D01*
X161214285Y-25707142D01*
X161142857Y-25635714D01*
X161071428Y-25492857D01*
X161000000Y-25207142D01*
X161000000Y-24850000D01*
X161071428Y-24564285D01*
X161142857Y-24421428D01*
X161214285Y-24350000D01*
X161357142Y-24278571D01*
X162785714Y-24278571D02*
X162928571Y-24278571D01*
X163071428Y-24350000D01*
X163142857Y-24421428D01*
X163214285Y-24564285D01*
X163285714Y-24850000D01*
X163285714Y-25207142D01*
X163214285Y-25492857D01*
X163142857Y-25635714D01*
X163071428Y-25707142D01*
X162928571Y-25778571D01*
X162785714Y-25778571D01*
X162642857Y-25707142D01*
X162571428Y-25635714D01*
X162500000Y-25492857D01*
X162428571Y-25207142D01*
X162428571Y-24850000D01*
X162500000Y-24564285D01*
X162571428Y-24421428D01*
X162642857Y-24350000D01*
X162785714Y-24278571D01*
X165071428Y-25778571D02*
X165071428Y-24778571D01*
X165071428Y-24921428D02*
X165142857Y-24850000D01*
X165285714Y-24778571D01*
X165500000Y-24778571D01*
X165642857Y-24850000D01*
X165714285Y-24992857D01*
X165714285Y-25778571D01*
X165714285Y-24992857D02*
X165785714Y-24850000D01*
X165928571Y-24778571D01*
X166142857Y-24778571D01*
X166285714Y-24850000D01*
X166357142Y-24992857D01*
X166357142Y-25778571D01*
X167071428Y-25778571D02*
X167071428Y-24778571D01*
X167071428Y-24921428D02*
X167142857Y-24850000D01*
X167285714Y-24778571D01*
X167500000Y-24778571D01*
X167642857Y-24850000D01*
X167714285Y-24992857D01*
X167714285Y-25778571D01*
X167714285Y-24992857D02*
X167785714Y-24850000D01*
X167928571Y-24778571D01*
X168142857Y-24778571D01*
X168285714Y-24850000D01*
X168357142Y-24992857D01*
X168357142Y-25778571D01*
X89000000Y-27200000D02*
X234000000Y-27200000D01*
X89000000Y-139000000D02*
X89000000Y-26613579D01*
X234000000Y-139000000D02*
X234000000Y-26613579D01*
X234000000Y-27200000D02*
X232873496Y-27786421D01*
X234000000Y-27200000D02*
X232873496Y-26613579D01*
X89000000Y-27200000D02*
X90126504Y-27786421D01*
X89000000Y-27200000D02*
X90126504Y-26613579D01*
X149933480Y-32603571D02*
X149076337Y-32603571D01*
X149504909Y-32603571D02*
X149504909Y-31103571D01*
X149362051Y-31317857D01*
X149219194Y-31460714D01*
X149076337Y-31532142D01*
X150433480Y-31103571D02*
X151362051Y-31103571D01*
X150862051Y-31675000D01*
X151076337Y-31675000D01*
X151219194Y-31746428D01*
X151290623Y-31817857D01*
X151362051Y-31960714D01*
X151362051Y-32317857D01*
X151290623Y-32460714D01*
X151219194Y-32532142D01*
X151076337Y-32603571D01*
X150647766Y-32603571D01*
X150504909Y-32532142D01*
X150433480Y-32460714D01*
X152647766Y-31603571D02*
X152647766Y-32603571D01*
X152290623Y-31032142D02*
X151933480Y-32103571D01*
X152862051Y-32103571D01*
X153433480Y-32460714D02*
X153504909Y-32532142D01*
X153433480Y-32603571D01*
X153362051Y-32532142D01*
X153433480Y-32460714D01*
X153433480Y-32603571D01*
X154433480Y-31103571D02*
X154576337Y-31103571D01*
X154719194Y-31175000D01*
X154790623Y-31246428D01*
X154862051Y-31389285D01*
X154933480Y-31675000D01*
X154933480Y-32032142D01*
X154862051Y-32317857D01*
X154790623Y-32460714D01*
X154719194Y-32532142D01*
X154576337Y-32603571D01*
X154433480Y-32603571D01*
X154290623Y-32532142D01*
X154219194Y-32460714D01*
X154147766Y-32317857D01*
X154076337Y-32032142D01*
X154076337Y-31675000D01*
X154147766Y-31389285D01*
X154219194Y-31246428D01*
X154290623Y-31175000D01*
X154433480Y-31103571D01*
X155862051Y-31103571D02*
X156004909Y-31103571D01*
X156147766Y-31175000D01*
X156219194Y-31246428D01*
X156290623Y-31389285D01*
X156362051Y-31675000D01*
X156362051Y-32032142D01*
X156290623Y-32317857D01*
X156219194Y-32460714D01*
X156147766Y-32532142D01*
X156004909Y-32603571D01*
X155862051Y-32603571D01*
X155719194Y-32532142D01*
X155647766Y-32460714D01*
X155576337Y-32317857D01*
X155504909Y-32032142D01*
X155504909Y-31675000D01*
X155576337Y-31389285D01*
X155647766Y-31246428D01*
X155719194Y-31175000D01*
X155862051Y-31103571D01*
X157290623Y-31103571D02*
X157433480Y-31103571D01*
X157576337Y-31175000D01*
X157647766Y-31246428D01*
X157719194Y-31389285D01*
X157790623Y-31675000D01*
X157790623Y-32032142D01*
X157719194Y-32317857D01*
X157647766Y-32460714D01*
X157576337Y-32532142D01*
X157433480Y-32603571D01*
X157290623Y-32603571D01*
X157147766Y-32532142D01*
X157076337Y-32460714D01*
X157004909Y-32317857D01*
X156933480Y-32032142D01*
X156933480Y-31675000D01*
X157004909Y-31389285D01*
X157076337Y-31246428D01*
X157147766Y-31175000D01*
X157290623Y-31103571D01*
X159576337Y-32603571D02*
X159576337Y-31603571D01*
X159576337Y-31746428D02*
X159647766Y-31675000D01*
X159790623Y-31603571D01*
X160004909Y-31603571D01*
X160147766Y-31675000D01*
X160219194Y-31817857D01*
X160219194Y-32603571D01*
X160219194Y-31817857D02*
X160290623Y-31675000D01*
X160433480Y-31603571D01*
X160647766Y-31603571D01*
X160790623Y-31675000D01*
X160862051Y-31817857D01*
X160862051Y-32603571D01*
X161576337Y-32603571D02*
X161576337Y-31603571D01*
X161576337Y-31746428D02*
X161647766Y-31675000D01*
X161790623Y-31603571D01*
X162004909Y-31603571D01*
X162147766Y-31675000D01*
X162219194Y-31817857D01*
X162219194Y-32603571D01*
X162219194Y-31817857D02*
X162290623Y-31675000D01*
X162433480Y-31603571D01*
X162647766Y-31603571D01*
X162790623Y-31675000D01*
X162862051Y-31817857D01*
X162862051Y-32603571D01*
X89004909Y-34025000D02*
X223004909Y-34025000D01*
X89004909Y-139013424D02*
X89004909Y-33438579D01*
X223004909Y-139013424D02*
X223004909Y-33438579D01*
X223004909Y-34025000D02*
X221878405Y-34611421D01*
X223004909Y-34025000D02*
X221878405Y-33438579D01*
X89004909Y-34025000D02*
X90131413Y-34611421D01*
X89004909Y-34025000D02*
X90131413Y-33438579D01*
X88652755Y-68153571D02*
X87795612Y-68153571D01*
X88224183Y-68153571D02*
X88224183Y-66653571D01*
X88081326Y-66867857D01*
X87938469Y-67010714D01*
X87795612Y-67082142D01*
X89581326Y-66653571D02*
X89724183Y-66653571D01*
X89867040Y-66725000D01*
X89938469Y-66796428D01*
X90009898Y-66939285D01*
X90081326Y-67225000D01*
X90081326Y-67582142D01*
X90009898Y-67867857D01*
X89938469Y-68010714D01*
X89867040Y-68082142D01*
X89724183Y-68153571D01*
X89581326Y-68153571D01*
X89438469Y-68082142D01*
X89367040Y-68010714D01*
X89295612Y-67867857D01*
X89224183Y-67582142D01*
X89224183Y-67225000D01*
X89295612Y-66939285D01*
X89367040Y-66796428D01*
X89438469Y-66725000D01*
X89581326Y-66653571D01*
X90724183Y-68010714D02*
X90795612Y-68082142D01*
X90724183Y-68153571D01*
X90652755Y-68082142D01*
X90724183Y-68010714D01*
X90724183Y-68153571D01*
X91724183Y-66653571D02*
X91867040Y-66653571D01*
X92009898Y-66725000D01*
X92081326Y-66796428D01*
X92152755Y-66939285D01*
X92224183Y-67225000D01*
X92224183Y-67582142D01*
X92152755Y-67867857D01*
X92081326Y-68010714D01*
X92009898Y-68082142D01*
X91867040Y-68153571D01*
X91724183Y-68153571D01*
X91581326Y-68082142D01*
X91509898Y-68010714D01*
X91438469Y-67867857D01*
X91367040Y-67582142D01*
X91367040Y-67225000D01*
X91438469Y-66939285D01*
X91509898Y-66796428D01*
X91581326Y-66725000D01*
X91724183Y-66653571D01*
X93152755Y-66653571D02*
X93295612Y-66653571D01*
X93438469Y-66725000D01*
X93509898Y-66796428D01*
X93581326Y-66939285D01*
X93652755Y-67225000D01*
X93652755Y-67582142D01*
X93581326Y-67867857D01*
X93509898Y-68010714D01*
X93438469Y-68082142D01*
X93295612Y-68153571D01*
X93152755Y-68153571D01*
X93009898Y-68082142D01*
X92938469Y-68010714D01*
X92867040Y-67867857D01*
X92795612Y-67582142D01*
X92795612Y-67225000D01*
X92867040Y-66939285D01*
X92938469Y-66796428D01*
X93009898Y-66725000D01*
X93152755Y-66653571D01*
X94581326Y-66653571D02*
X94724183Y-66653571D01*
X94867040Y-66725000D01*
X94938469Y-66796428D01*
X95009898Y-66939285D01*
X95081326Y-67225000D01*
X95081326Y-67582142D01*
X95009898Y-67867857D01*
X94938469Y-68010714D01*
X94867040Y-68082142D01*
X94724183Y-68153571D01*
X94581326Y-68153571D01*
X94438469Y-68082142D01*
X94367040Y-68010714D01*
X94295612Y-67867857D01*
X94224183Y-67582142D01*
X94224183Y-67225000D01*
X94295612Y-66939285D01*
X94367040Y-66796428D01*
X94438469Y-66725000D01*
X94581326Y-66653571D01*
X96867040Y-68153571D02*
X96867040Y-67153571D01*
X96867040Y-67296428D02*
X96938469Y-67225000D01*
X97081326Y-67153571D01*
X97295612Y-67153571D01*
X97438469Y-67225000D01*
X97509898Y-67367857D01*
X97509898Y-68153571D01*
X97509898Y-67367857D02*
X97581326Y-67225000D01*
X97724183Y-67153571D01*
X97938469Y-67153571D01*
X98081326Y-67225000D01*
X98152755Y-67367857D01*
X98152755Y-68153571D01*
X98867040Y-68153571D02*
X98867040Y-67153571D01*
X98867040Y-67296428D02*
X98938469Y-67225000D01*
X99081326Y-67153571D01*
X99295612Y-67153571D01*
X99438469Y-67225000D01*
X99509898Y-67367857D01*
X99509898Y-68153571D01*
X99509898Y-67367857D02*
X99581326Y-67225000D01*
X99724183Y-67153571D01*
X99938469Y-67153571D01*
X100081326Y-67225000D01*
X100152755Y-67367857D01*
X100152755Y-68153571D01*
X99009898Y-69575000D02*
X89009898Y-69575000D01*
X99009898Y-139008305D02*
X99009898Y-68988579D01*
X89009898Y-139008305D02*
X89009898Y-68988579D01*
X89009898Y-69575000D02*
X90136402Y-68988579D01*
X89009898Y-69575000D02*
X90136402Y-70161421D01*
X99009898Y-69575000D02*
X97883394Y-68988579D01*
X99009898Y-69575000D02*
X97883394Y-70161421D01*
D12*
X190650000Y-93350000D02*
G75*
G03X190650000Y-93350000I-2150000J0D01*
G01*
X135650000Y-93350000D02*
G75*
G03X135650000Y-93350000I-2150000J0D01*
G01*
M02*
