M48
;DRILL file {KiCad 5.0.1} date Fri 15 Mar 2019 01:44:09 PM CET
;FORMAT={-:-/ absolute / inch / decimal}
FMAT,2
INCH,TZ
T1C0.0157
T2C0.0394
T3C0.0512
T4C0.1693
%
G90
G05
M72
T1
X3.9764Y-4.4094
X4.0945Y-4.8425
X4.122Y-5.0591
X4.2598Y-5.0591
X4.3307Y-4.6063
X4.3701Y-4.1339
X4.3996Y-5.0591
X4.5177Y-4.9961
X4.6319Y-5.0591
X4.6457Y-3.8189
X4.6457Y-4.3701
X4.7835Y-5.0591
X4.9213Y-4.6457
X4.9213Y-4.8622
X4.935Y-5.0591
X4.9606Y-4.7638
X5.0492Y-4.9213
X5.0551Y-5.0591
X5.0866Y-4.7441
X5.1057Y-4.9798
X5.1575Y-4.0945
X5.1732Y-4.7992
X5.1929Y-4.9075
X5.2441Y-5.0571
X5.3012Y-4.7008
X5.3445Y-4.6575
X5.3445Y-4.7421
X5.376Y-4.9469
X5.3858Y-4.6997
X5.3937Y-3.8189
X5.3937Y-4.3307
X5.3974Y-4.4823
X5.4311Y-4.9902
X5.4734Y-4.5792
X5.5916Y-4.6652
X5.6299Y-4.5276
X5.6496Y-4.9409
X5.7874Y-3.937
X5.7874Y-5.
X6.1024Y-3.7795
X6.1417Y-4.1339
X6.1417Y-4.6457
X6.5354Y-3.7795
X6.5354Y-5.
X6.7323Y-4.6457
X6.8898Y-3.7402
X6.9291Y-4.1339
X7.2835Y-4.6457
X7.4803Y-4.9213
X7.5591Y-3.5039
X7.5591Y-3.9764
X7.7953Y-4.1732
X7.9528Y-4.4488
X8.1496Y-4.252
X8.189Y-4.9213
X8.4646Y-3.9764
X8.622Y-4.9213
T2
X4.0297Y-4.205
X4.0924Y-4.1257
X4.1703Y-4.0644
X4.2329Y-3.9851
X4.3123Y-3.9224
X4.3749Y-3.8431
X4.4543Y-3.7805
X4.5155Y-3.7025
X4.7244Y-3.5039
X4.9016Y-3.5039
X7.7559Y-3.5039
X7.9331Y-3.5039
T3
X4.6752Y-3.6024
X4.9508Y-3.6024
X7.7067Y-3.6024
X7.9823Y-3.6024
T4
X5.2559Y-3.6752
X7.4213Y-3.6752
T0
M30
